%TF.GenerationSoftware,KiCad,Pcbnew,8.0.1*%
%TF.CreationDate,2024-04-25T19:13:20+02:00*%
%TF.ProjectId,lps-1,6c70732d-312e-46b6-9963-61645f706362,1.01*%
%TF.SameCoordinates,Original*%
%TF.FileFunction,Copper,L3,Inr*%
%TF.FilePolarity,Positive*%
%FSLAX46Y46*%
G04 Gerber Fmt 4.6, Leading zero omitted, Abs format (unit mm)*
G04 Created by KiCad (PCBNEW 8.0.1) date 2024-04-25 19:13:20*
%MOMM*%
%LPD*%
G01*
G04 APERTURE LIST*
%TA.AperFunction,ComponentPad*%
%ADD10C,1.700000*%
%TD*%
%TA.AperFunction,ComponentPad*%
%ADD11R,2.000000X1.905000*%
%TD*%
%TA.AperFunction,ComponentPad*%
%ADD12O,2.000000X1.905000*%
%TD*%
%TA.AperFunction,ComponentPad*%
%ADD13R,1.700000X1.700000*%
%TD*%
%TA.AperFunction,ComponentPad*%
%ADD14O,1.700000X1.700000*%
%TD*%
%TA.AperFunction,ComponentPad*%
%ADD15R,1.600000X1.600000*%
%TD*%
%TA.AperFunction,ComponentPad*%
%ADD16C,1.600000*%
%TD*%
%TA.AperFunction,ViaPad*%
%ADD17C,0.800000*%
%TD*%
G04 APERTURE END LIST*
D10*
%TO.N,+3.3V*%
%TO.C,J4*%
X125540000Y-63550000D03*
%TO.N,GND*%
X125540000Y-66090000D03*
%TO.N,/SCL*%
X125540000Y-68630000D03*
%TO.N,/SDA*%
X125540000Y-71170000D03*
%TO.N,unconnected-(J4-Pin_5-Pad5)*%
X125540000Y-73710000D03*
%TO.N,unconnected-(J4-Pin_6-Pad6)*%
X125540000Y-76250000D03*
%TD*%
D11*
%TO.N,Net-(D1-K)*%
%TO.C,U1*%
X68550000Y-72379999D03*
D12*
%TO.N,GND*%
X68550000Y-69839999D03*
%TO.N,+5V*%
X68550000Y-67299999D03*
%TD*%
D13*
%TO.N,/TxD0*%
%TO.C,J5*%
X112375000Y-59905000D03*
D14*
%TO.N,/RxD0*%
X112375000Y-57365000D03*
%TO.N,/MODEM_SLEEP*%
X114915000Y-59905000D03*
%TO.N,/MODEM_RESET*%
X114915000Y-57365000D03*
%TO.N,+3.3V*%
X117455000Y-59905000D03*
%TO.N,GND*%
X117455000Y-57365000D03*
%TD*%
D15*
%TO.N,+5V*%
%TO.C,C6*%
X72700000Y-58700000D03*
D16*
%TO.N,GND*%
X75200000Y-58700000D03*
%TD*%
D13*
%TO.N,+3.3V*%
%TO.C,J6*%
X106630000Y-57290000D03*
D14*
%TO.N,GND*%
X104090000Y-57290000D03*
%TO.N,/UPDI*%
X101550000Y-57290000D03*
%TO.N,GND*%
X99010000Y-57290000D03*
%TO.N,/DIN*%
X96470000Y-57290000D03*
%TO.N,GND*%
X93930000Y-57290000D03*
%TO.N,/DOUT*%
X91390000Y-57290000D03*
%TO.N,GND*%
X88850000Y-57290000D03*
%TD*%
D15*
%TO.N,Net-(D1-K)*%
%TO.C,C1*%
X79098257Y-73796363D03*
D16*
%TO.N,GND*%
X79098257Y-71296363D03*
%TD*%
D13*
%TO.N,/12VIN*%
%TO.C,J15*%
X83125000Y-82500000D03*
D14*
%TO.N,GND*%
X85665000Y-82500000D03*
%TO.N,+5V*%
X88205000Y-82500000D03*
%TO.N,GND*%
X90745000Y-82500000D03*
%TO.N,+3.3V*%
X93285000Y-82500000D03*
%TO.N,GND*%
X95825000Y-82500000D03*
%TD*%
D17*
%TO.N,+3.3V*%
X107875000Y-62750000D03*
X115300000Y-75850000D03*
X77000000Y-61550000D03*
X86725000Y-72650000D03*
%TO.N,GND*%
X117730000Y-65610000D03*
X117090000Y-77200000D03*
X117740000Y-72980000D03*
X117680000Y-69820000D03*
%TO.N,/SCL*%
X113575000Y-69824997D03*
%TO.N,/SDA*%
X113575000Y-70825000D03*
%TO.N,/UPDI*%
X108794474Y-66357072D03*
%TD*%
%TA.AperFunction,Conductor*%
%TO.N,+3.3V*%
G36*
X129053794Y-55171206D02*
G01*
X129072100Y-55215400D01*
X129072100Y-84784600D01*
X129053794Y-84828794D01*
X129009600Y-84847100D01*
X63214400Y-84847100D01*
X63170206Y-84828794D01*
X63151900Y-84784600D01*
X63151900Y-82141279D01*
X64497500Y-82141279D01*
X64497501Y-82141295D01*
X64533880Y-82370979D01*
X64533880Y-82370980D01*
X64605746Y-82592161D01*
X64605750Y-82592169D01*
X64711329Y-82799381D01*
X64848025Y-82987526D01*
X64848032Y-82987534D01*
X65012465Y-83151967D01*
X65012473Y-83151974D01*
X65142452Y-83246410D01*
X65200621Y-83288672D01*
X65407837Y-83394253D01*
X65629018Y-83466119D01*
X65725829Y-83481452D01*
X65858704Y-83502498D01*
X65858710Y-83502498D01*
X65858718Y-83502500D01*
X65858720Y-83502500D01*
X66091280Y-83502500D01*
X66091282Y-83502500D01*
X66320982Y-83466119D01*
X66542163Y-83394253D01*
X66590257Y-83369748D01*
X82074500Y-83369748D01*
X82086132Y-83428230D01*
X82086133Y-83428232D01*
X82130447Y-83494552D01*
X82196767Y-83538866D01*
X82196769Y-83538867D01*
X82255252Y-83550500D01*
X83994748Y-83550500D01*
X84053231Y-83538867D01*
X84119552Y-83494552D01*
X84163867Y-83428231D01*
X84175500Y-83369748D01*
X84175500Y-82500000D01*
X84609417Y-82500000D01*
X84629699Y-82705930D01*
X84629700Y-82705935D01*
X84689766Y-82903949D01*
X84689768Y-82903954D01*
X84787311Y-83086444D01*
X84787319Y-83086455D01*
X84838284Y-83148557D01*
X84918590Y-83246410D01*
X85078550Y-83377685D01*
X85078553Y-83377686D01*
X85078555Y-83377688D01*
X85109546Y-83394253D01*
X85261046Y-83475232D01*
X85459066Y-83535300D01*
X85665000Y-83555583D01*
X85870934Y-83535300D01*
X86068954Y-83475232D01*
X86251450Y-83377685D01*
X86411410Y-83246410D01*
X86542685Y-83086450D01*
X86640232Y-82903954D01*
X86700300Y-82705934D01*
X86720583Y-82500000D01*
X87149417Y-82500000D01*
X87169699Y-82705930D01*
X87169700Y-82705935D01*
X87229766Y-82903949D01*
X87229768Y-82903954D01*
X87327311Y-83086444D01*
X87327319Y-83086455D01*
X87378284Y-83148557D01*
X87458590Y-83246410D01*
X87618550Y-83377685D01*
X87618553Y-83377686D01*
X87618555Y-83377688D01*
X87649546Y-83394253D01*
X87801046Y-83475232D01*
X87999066Y-83535300D01*
X88205000Y-83555583D01*
X88410934Y-83535300D01*
X88608954Y-83475232D01*
X88791450Y-83377685D01*
X88951410Y-83246410D01*
X89082685Y-83086450D01*
X89180232Y-82903954D01*
X89240300Y-82705934D01*
X89260583Y-82500000D01*
X89689417Y-82500000D01*
X89709699Y-82705930D01*
X89709700Y-82705935D01*
X89769766Y-82903949D01*
X89769768Y-82903954D01*
X89867311Y-83086444D01*
X89867319Y-83086455D01*
X89918284Y-83148557D01*
X89998590Y-83246410D01*
X90158550Y-83377685D01*
X90158553Y-83377686D01*
X90158555Y-83377688D01*
X90189546Y-83394253D01*
X90341046Y-83475232D01*
X90539066Y-83535300D01*
X90745000Y-83555583D01*
X90950934Y-83535300D01*
X91148954Y-83475232D01*
X91331450Y-83377685D01*
X91491410Y-83246410D01*
X91622685Y-83086450D01*
X91720232Y-82903954D01*
X91765720Y-82754000D01*
X91948457Y-82754000D01*
X91996178Y-82942451D01*
X91996179Y-82942455D01*
X92086583Y-83148554D01*
X92086585Y-83148557D01*
X92209674Y-83336957D01*
X92209677Y-83336962D01*
X92362101Y-83502538D01*
X92362104Y-83502541D01*
X92539697Y-83640767D01*
X92539699Y-83640768D01*
X92737627Y-83747880D01*
X92737628Y-83747881D01*
X92950487Y-83820956D01*
X93031000Y-83834391D01*
X93031000Y-82930702D01*
X93092007Y-82965925D01*
X93219174Y-83000000D01*
X93350826Y-83000000D01*
X93477993Y-82965925D01*
X93539000Y-82930702D01*
X93539000Y-83834391D01*
X93619512Y-83820956D01*
X93832371Y-83747881D01*
X93832372Y-83747880D01*
X94030300Y-83640768D01*
X94030302Y-83640767D01*
X94207895Y-83502541D01*
X94207898Y-83502538D01*
X94360322Y-83336962D01*
X94360325Y-83336957D01*
X94483414Y-83148557D01*
X94483416Y-83148554D01*
X94573820Y-82942455D01*
X94573821Y-82942451D01*
X94621543Y-82754000D01*
X93715703Y-82754000D01*
X93750925Y-82692993D01*
X93785000Y-82565826D01*
X93785000Y-82500000D01*
X94769417Y-82500000D01*
X94789699Y-82705930D01*
X94789700Y-82705935D01*
X94849766Y-82903949D01*
X94849768Y-82903954D01*
X94947311Y-83086444D01*
X94947319Y-83086455D01*
X94998284Y-83148557D01*
X95078590Y-83246410D01*
X95238550Y-83377685D01*
X95238553Y-83377686D01*
X95238555Y-83377688D01*
X95269546Y-83394253D01*
X95421046Y-83475232D01*
X95619066Y-83535300D01*
X95825000Y-83555583D01*
X96030934Y-83535300D01*
X96228954Y-83475232D01*
X96411450Y-83377685D01*
X96571410Y-83246410D01*
X96702685Y-83086450D01*
X96800232Y-82903954D01*
X96860300Y-82705934D01*
X96880583Y-82500000D01*
X96860300Y-82294066D01*
X96800232Y-82096046D01*
X96702685Y-81913550D01*
X96571410Y-81753590D01*
X96480544Y-81679019D01*
X96411455Y-81622319D01*
X96411453Y-81622318D01*
X96411450Y-81622315D01*
X96411448Y-81622313D01*
X96411444Y-81622311D01*
X96228954Y-81524768D01*
X96228949Y-81524766D01*
X96030935Y-81464700D01*
X96030930Y-81464699D01*
X95825000Y-81444417D01*
X95619069Y-81464699D01*
X95619064Y-81464700D01*
X95421050Y-81524766D01*
X95421045Y-81524768D01*
X95238555Y-81622311D01*
X95238544Y-81622319D01*
X95078591Y-81753588D01*
X95078588Y-81753591D01*
X94947319Y-81913544D01*
X94947311Y-81913555D01*
X94849768Y-82096045D01*
X94849766Y-82096050D01*
X94789700Y-82294064D01*
X94789699Y-82294069D01*
X94769417Y-82499999D01*
X94769417Y-82500000D01*
X93785000Y-82500000D01*
X93785000Y-82434174D01*
X93750925Y-82307007D01*
X93715703Y-82246000D01*
X94621543Y-82246000D01*
X94573821Y-82057548D01*
X94573820Y-82057544D01*
X94483416Y-81851445D01*
X94483414Y-81851442D01*
X94360325Y-81663042D01*
X94360322Y-81663037D01*
X94207898Y-81497461D01*
X94207895Y-81497458D01*
X94030302Y-81359232D01*
X94030300Y-81359231D01*
X93832372Y-81252119D01*
X93832371Y-81252118D01*
X93619507Y-81179041D01*
X93539000Y-81165606D01*
X93539000Y-82069297D01*
X93477993Y-82034075D01*
X93350826Y-82000000D01*
X93219174Y-82000000D01*
X93092007Y-82034075D01*
X93031000Y-82069297D01*
X93031000Y-81165606D01*
X92950492Y-81179041D01*
X92737628Y-81252118D01*
X92737627Y-81252119D01*
X92539699Y-81359231D01*
X92539697Y-81359232D01*
X92362104Y-81497458D01*
X92362101Y-81497461D01*
X92209677Y-81663037D01*
X92209674Y-81663042D01*
X92086585Y-81851442D01*
X92086583Y-81851445D01*
X91996179Y-82057544D01*
X91996178Y-82057548D01*
X91948457Y-82246000D01*
X92854297Y-82246000D01*
X92819075Y-82307007D01*
X92785000Y-82434174D01*
X92785000Y-82565826D01*
X92819075Y-82692993D01*
X92854297Y-82754000D01*
X91948457Y-82754000D01*
X91765720Y-82754000D01*
X91780300Y-82705934D01*
X91800583Y-82500000D01*
X91780300Y-82294066D01*
X91720232Y-82096046D01*
X91622685Y-81913550D01*
X91491410Y-81753590D01*
X91400544Y-81679019D01*
X91331455Y-81622319D01*
X91331453Y-81622318D01*
X91331450Y-81622315D01*
X91331448Y-81622313D01*
X91331444Y-81622311D01*
X91148954Y-81524768D01*
X91148949Y-81524766D01*
X90950935Y-81464700D01*
X90950930Y-81464699D01*
X90745000Y-81444417D01*
X90539069Y-81464699D01*
X90539064Y-81464700D01*
X90341050Y-81524766D01*
X90341045Y-81524768D01*
X90158555Y-81622311D01*
X90158544Y-81622319D01*
X89998591Y-81753588D01*
X89998588Y-81753591D01*
X89867319Y-81913544D01*
X89867311Y-81913555D01*
X89769768Y-82096045D01*
X89769766Y-82096050D01*
X89709700Y-82294064D01*
X89709699Y-82294069D01*
X89689417Y-82499999D01*
X89689417Y-82500000D01*
X89260583Y-82500000D01*
X89240300Y-82294066D01*
X89180232Y-82096046D01*
X89082685Y-81913550D01*
X88951410Y-81753590D01*
X88860544Y-81679019D01*
X88791455Y-81622319D01*
X88791453Y-81622318D01*
X88791450Y-81622315D01*
X88791448Y-81622313D01*
X88791444Y-81622311D01*
X88608954Y-81524768D01*
X88608949Y-81524766D01*
X88410935Y-81464700D01*
X88410930Y-81464699D01*
X88205000Y-81444417D01*
X87999069Y-81464699D01*
X87999064Y-81464700D01*
X87801050Y-81524766D01*
X87801045Y-81524768D01*
X87618555Y-81622311D01*
X87618544Y-81622319D01*
X87458591Y-81753588D01*
X87458588Y-81753591D01*
X87327319Y-81913544D01*
X87327311Y-81913555D01*
X87229768Y-82096045D01*
X87229766Y-82096050D01*
X87169700Y-82294064D01*
X87169699Y-82294069D01*
X87149417Y-82499999D01*
X87149417Y-82500000D01*
X86720583Y-82500000D01*
X86700300Y-82294066D01*
X86640232Y-82096046D01*
X86542685Y-81913550D01*
X86411410Y-81753590D01*
X86320544Y-81679019D01*
X86251455Y-81622319D01*
X86251453Y-81622318D01*
X86251450Y-81622315D01*
X86251448Y-81622313D01*
X86251444Y-81622311D01*
X86068954Y-81524768D01*
X86068949Y-81524766D01*
X85870935Y-81464700D01*
X85870930Y-81464699D01*
X85665000Y-81444417D01*
X85459069Y-81464699D01*
X85459064Y-81464700D01*
X85261050Y-81524766D01*
X85261045Y-81524768D01*
X85078555Y-81622311D01*
X85078544Y-81622319D01*
X84918591Y-81753588D01*
X84918588Y-81753591D01*
X84787319Y-81913544D01*
X84787311Y-81913555D01*
X84689768Y-82096045D01*
X84689766Y-82096050D01*
X84629700Y-82294064D01*
X84629699Y-82294069D01*
X84609417Y-82499999D01*
X84609417Y-82500000D01*
X84175500Y-82500000D01*
X84175500Y-81630252D01*
X84163867Y-81571769D01*
X84163866Y-81571767D01*
X84119552Y-81505447D01*
X84053232Y-81461133D01*
X84053230Y-81461132D01*
X83994748Y-81449500D01*
X82255252Y-81449500D01*
X82196769Y-81461132D01*
X82196767Y-81461133D01*
X82130447Y-81505447D01*
X82086133Y-81571767D01*
X82086132Y-81571769D01*
X82074500Y-81630251D01*
X82074500Y-83369748D01*
X66590257Y-83369748D01*
X66749379Y-83288672D01*
X66937527Y-83151974D01*
X67101974Y-82987527D01*
X67238672Y-82799379D01*
X67344253Y-82592163D01*
X67416119Y-82370982D01*
X67452500Y-82141282D01*
X67452500Y-81908718D01*
X67416119Y-81679018D01*
X67344253Y-81457837D01*
X67238672Y-81250621D01*
X67101974Y-81062473D01*
X67101967Y-81062465D01*
X66937534Y-80898032D01*
X66937526Y-80898025D01*
X66749381Y-80761329D01*
X66542169Y-80655750D01*
X66542161Y-80655746D01*
X66320980Y-80583880D01*
X66091295Y-80547501D01*
X66091283Y-80547500D01*
X66091282Y-80547500D01*
X65858718Y-80547500D01*
X65858716Y-80547500D01*
X65858704Y-80547501D01*
X65629020Y-80583880D01*
X65629019Y-80583880D01*
X65407838Y-80655746D01*
X65407830Y-80655750D01*
X65200618Y-80761329D01*
X65012473Y-80898025D01*
X65012465Y-80898032D01*
X64848032Y-81062465D01*
X64848025Y-81062473D01*
X64711329Y-81250618D01*
X64605750Y-81457830D01*
X64605746Y-81457838D01*
X64533880Y-81679019D01*
X64533880Y-81679020D01*
X64497501Y-81908704D01*
X64497500Y-81908720D01*
X64497500Y-82141279D01*
X63151900Y-82141279D01*
X63151900Y-80169983D01*
X123634500Y-80169983D01*
X123634501Y-80169999D01*
X123668910Y-80387246D01*
X123668910Y-80387247D01*
X123736886Y-80596455D01*
X123736887Y-80596457D01*
X123767097Y-80655746D01*
X123836751Y-80792449D01*
X123966047Y-80970410D01*
X123966050Y-80970413D01*
X123966053Y-80970417D01*
X124121582Y-81125946D01*
X124121585Y-81125948D01*
X124121590Y-81125953D01*
X124299551Y-81255249D01*
X124495546Y-81355114D01*
X124704751Y-81423089D01*
X124796322Y-81437592D01*
X124922000Y-81457498D01*
X124922006Y-81457498D01*
X124922014Y-81457500D01*
X124922016Y-81457500D01*
X125141984Y-81457500D01*
X125141986Y-81457500D01*
X125359249Y-81423089D01*
X125568454Y-81355114D01*
X125764449Y-81255249D01*
X125942410Y-81125953D01*
X126097953Y-80970410D01*
X126227249Y-80792449D01*
X126327114Y-80596454D01*
X126395089Y-80387249D01*
X126429500Y-80169986D01*
X126429500Y-79950014D01*
X126395089Y-79732751D01*
X126327114Y-79523546D01*
X126227249Y-79327551D01*
X126097953Y-79149590D01*
X126097948Y-79149585D01*
X126097946Y-79149582D01*
X125942417Y-78994053D01*
X125942413Y-78994050D01*
X125942410Y-78994047D01*
X125764449Y-78864751D01*
X125568457Y-78764887D01*
X125568455Y-78764886D01*
X125359247Y-78696910D01*
X125141999Y-78662501D01*
X125141987Y-78662500D01*
X125141986Y-78662500D01*
X124922014Y-78662500D01*
X124922012Y-78662500D01*
X124922000Y-78662501D01*
X124704753Y-78696910D01*
X124704752Y-78696910D01*
X124495544Y-78764886D01*
X124495542Y-78764887D01*
X124299550Y-78864751D01*
X124121582Y-78994053D01*
X123966053Y-79149582D01*
X123836751Y-79327550D01*
X123736887Y-79523542D01*
X123736886Y-79523544D01*
X123668910Y-79732752D01*
X123668910Y-79732753D01*
X123634501Y-79950000D01*
X123634500Y-79950016D01*
X123634500Y-80169983D01*
X63151900Y-80169983D01*
X63151900Y-77200001D01*
X116484318Y-77200001D01*
X116504954Y-77356755D01*
X116504957Y-77356765D01*
X116565462Y-77502838D01*
X116565464Y-77502841D01*
X116661717Y-77628282D01*
X116757971Y-77702139D01*
X116787159Y-77724536D01*
X116933238Y-77785044D01*
X116933242Y-77785044D01*
X116933244Y-77785045D01*
X117089998Y-77805682D01*
X117090000Y-77805682D01*
X117090002Y-77805682D01*
X117246755Y-77785045D01*
X117246755Y-77785044D01*
X117246762Y-77785044D01*
X117392841Y-77724536D01*
X117518282Y-77628282D01*
X117614536Y-77502841D01*
X117675044Y-77356762D01*
X117695682Y-77200000D01*
X117675044Y-77043238D01*
X117614536Y-76897159D01*
X117592139Y-76867971D01*
X117518282Y-76771717D01*
X117392841Y-76675464D01*
X117392838Y-76675462D01*
X117246765Y-76614957D01*
X117246755Y-76614954D01*
X117090002Y-76594318D01*
X117089998Y-76594318D01*
X116933244Y-76614954D01*
X116933234Y-76614957D01*
X116787161Y-76675462D01*
X116787158Y-76675464D01*
X116661717Y-76771717D01*
X116565464Y-76897158D01*
X116565462Y-76897161D01*
X116504957Y-77043234D01*
X116504954Y-77043244D01*
X116484318Y-77199998D01*
X116484318Y-77200001D01*
X63151900Y-77200001D01*
X63151900Y-76250000D01*
X124484417Y-76250000D01*
X124504699Y-76455930D01*
X124504700Y-76455935D01*
X124564766Y-76653949D01*
X124564768Y-76653954D01*
X124662311Y-76836444D01*
X124662319Y-76836455D01*
X124793588Y-76996408D01*
X124793591Y-76996411D01*
X124850650Y-77043238D01*
X124953550Y-77127685D01*
X124953553Y-77127686D01*
X124953555Y-77127688D01*
X125028912Y-77167967D01*
X125136046Y-77225232D01*
X125334066Y-77285300D01*
X125540000Y-77305583D01*
X125745934Y-77285300D01*
X125943954Y-77225232D01*
X126126450Y-77127685D01*
X126286410Y-76996410D01*
X126417685Y-76836450D01*
X126515232Y-76653954D01*
X126575300Y-76455934D01*
X126595583Y-76250000D01*
X126575300Y-76044066D01*
X126515232Y-75846046D01*
X126417685Y-75663550D01*
X126286410Y-75503590D01*
X126126450Y-75372315D01*
X126126448Y-75372313D01*
X126126444Y-75372311D01*
X125943954Y-75274768D01*
X125943949Y-75274766D01*
X125745935Y-75214700D01*
X125745930Y-75214699D01*
X125540000Y-75194417D01*
X125334069Y-75214699D01*
X125334064Y-75214700D01*
X125136050Y-75274766D01*
X125136045Y-75274768D01*
X124953555Y-75372311D01*
X124953544Y-75372319D01*
X124793591Y-75503588D01*
X124793588Y-75503591D01*
X124662319Y-75663544D01*
X124662311Y-75663555D01*
X124564768Y-75846045D01*
X124564766Y-75846050D01*
X124504700Y-76044064D01*
X124504699Y-76044069D01*
X124484417Y-76249999D01*
X124484417Y-76250000D01*
X63151900Y-76250000D01*
X63151900Y-74616111D01*
X78097757Y-74616111D01*
X78109389Y-74674593D01*
X78109390Y-74674595D01*
X78153704Y-74740915D01*
X78220024Y-74785229D01*
X78220026Y-74785230D01*
X78278509Y-74796863D01*
X79918005Y-74796863D01*
X79976488Y-74785230D01*
X80042809Y-74740915D01*
X80087124Y-74674594D01*
X80098757Y-74616111D01*
X80098757Y-73710000D01*
X124484417Y-73710000D01*
X124504699Y-73915930D01*
X124504700Y-73915935D01*
X124564766Y-74113949D01*
X124564768Y-74113954D01*
X124662311Y-74296444D01*
X124662313Y-74296448D01*
X124662315Y-74296450D01*
X124793590Y-74456410D01*
X124953550Y-74587685D01*
X124953553Y-74587686D01*
X124953555Y-74587688D01*
X125006731Y-74616111D01*
X125136046Y-74685232D01*
X125334066Y-74745300D01*
X125540000Y-74765583D01*
X125745934Y-74745300D01*
X125943954Y-74685232D01*
X126126450Y-74587685D01*
X126286410Y-74456410D01*
X126417685Y-74296450D01*
X126515232Y-74113954D01*
X126575300Y-73915934D01*
X126595583Y-73710000D01*
X126575300Y-73504066D01*
X126515232Y-73306046D01*
X126424747Y-73136762D01*
X126417688Y-73123555D01*
X126417686Y-73123553D01*
X126417685Y-73123550D01*
X126297099Y-72976615D01*
X126286411Y-72963591D01*
X126286408Y-72963588D01*
X126126455Y-72832319D01*
X126126453Y-72832318D01*
X126126450Y-72832315D01*
X126126448Y-72832313D01*
X126126444Y-72832311D01*
X125943954Y-72734768D01*
X125943949Y-72734766D01*
X125745935Y-72674700D01*
X125745930Y-72674699D01*
X125540000Y-72654417D01*
X125334069Y-72674699D01*
X125334064Y-72674700D01*
X125136050Y-72734766D01*
X125136045Y-72734768D01*
X124953555Y-72832311D01*
X124953544Y-72832319D01*
X124793591Y-72963588D01*
X124793588Y-72963591D01*
X124662319Y-73123544D01*
X124662311Y-73123555D01*
X124564768Y-73306045D01*
X124564766Y-73306050D01*
X124504700Y-73504064D01*
X124504699Y-73504069D01*
X124484417Y-73709999D01*
X124484417Y-73710000D01*
X80098757Y-73710000D01*
X80098757Y-72980001D01*
X117134318Y-72980001D01*
X117154954Y-73136755D01*
X117154957Y-73136765D01*
X117215462Y-73282838D01*
X117215464Y-73282841D01*
X117311717Y-73408282D01*
X117401340Y-73477051D01*
X117437159Y-73504536D01*
X117583238Y-73565044D01*
X117583242Y-73565044D01*
X117583244Y-73565045D01*
X117739998Y-73585682D01*
X117740000Y-73585682D01*
X117740002Y-73585682D01*
X117896755Y-73565045D01*
X117896755Y-73565044D01*
X117896762Y-73565044D01*
X118042841Y-73504536D01*
X118168282Y-73408282D01*
X118264536Y-73282841D01*
X118325044Y-73136762D01*
X118345682Y-72980000D01*
X118345236Y-72976615D01*
X118325045Y-72823244D01*
X118325044Y-72823242D01*
X118325044Y-72823238D01*
X118264536Y-72677159D01*
X118242139Y-72647971D01*
X118168282Y-72551717D01*
X118042841Y-72455464D01*
X118042838Y-72455462D01*
X117896765Y-72394957D01*
X117896755Y-72394954D01*
X117740002Y-72374318D01*
X117739998Y-72374318D01*
X117583244Y-72394954D01*
X117583234Y-72394957D01*
X117437161Y-72455462D01*
X117437158Y-72455464D01*
X117311717Y-72551717D01*
X117215464Y-72677158D01*
X117215462Y-72677161D01*
X117154957Y-72823234D01*
X117154954Y-72823244D01*
X117134318Y-72979998D01*
X117134318Y-72980001D01*
X80098757Y-72980001D01*
X80098757Y-72976615D01*
X80087124Y-72918132D01*
X80087123Y-72918130D01*
X80042809Y-72851810D01*
X79976489Y-72807496D01*
X79976487Y-72807495D01*
X79918005Y-72795863D01*
X78278509Y-72795863D01*
X78220026Y-72807495D01*
X78220024Y-72807496D01*
X78153704Y-72851810D01*
X78109390Y-72918130D01*
X78109389Y-72918132D01*
X78097757Y-72976614D01*
X78097757Y-74616111D01*
X63151900Y-74616111D01*
X63151900Y-73352247D01*
X67349500Y-73352247D01*
X67361132Y-73410729D01*
X67361133Y-73410731D01*
X67405447Y-73477051D01*
X67471767Y-73521365D01*
X67471769Y-73521366D01*
X67530252Y-73532999D01*
X69569748Y-73532999D01*
X69628231Y-73521366D01*
X69694552Y-73477051D01*
X69738867Y-73410730D01*
X69750500Y-73352247D01*
X69750500Y-71407751D01*
X69738867Y-71349268D01*
X69738866Y-71349266D01*
X69703517Y-71296363D01*
X78092916Y-71296363D01*
X78112232Y-71492493D01*
X78112233Y-71492495D01*
X78169443Y-71681090D01*
X78169444Y-71681091D01*
X78262343Y-71854895D01*
X78262347Y-71854901D01*
X78387374Y-72007246D01*
X78539719Y-72132273D01*
X78539721Y-72132274D01*
X78539724Y-72132276D01*
X78563965Y-72145233D01*
X78713530Y-72225177D01*
X78902125Y-72282387D01*
X79098257Y-72301704D01*
X79294389Y-72282387D01*
X79482984Y-72225177D01*
X79656795Y-72132273D01*
X79809140Y-72007246D01*
X79934167Y-71854901D01*
X80027071Y-71681090D01*
X80084281Y-71492495D01*
X80103598Y-71296363D01*
X80084281Y-71100231D01*
X80027071Y-70911636D01*
X79980764Y-70825001D01*
X112969318Y-70825001D01*
X112989954Y-70981755D01*
X112989957Y-70981765D01*
X113050462Y-71127838D01*
X113050464Y-71127841D01*
X113146717Y-71253282D01*
X113185378Y-71282947D01*
X113272159Y-71349536D01*
X113418238Y-71410044D01*
X113418242Y-71410044D01*
X113418244Y-71410045D01*
X113574998Y-71430682D01*
X113575000Y-71430682D01*
X113575002Y-71430682D01*
X113731755Y-71410045D01*
X113731755Y-71410044D01*
X113731762Y-71410044D01*
X113877841Y-71349536D01*
X114003282Y-71253282D01*
X114067186Y-71170000D01*
X124484417Y-71170000D01*
X124504699Y-71375930D01*
X124504700Y-71375935D01*
X124564766Y-71573949D01*
X124564768Y-71573954D01*
X124662311Y-71756444D01*
X124662313Y-71756448D01*
X124662315Y-71756450D01*
X124793590Y-71916410D01*
X124953550Y-72047685D01*
X124953553Y-72047686D01*
X124953555Y-72047688D01*
X125028912Y-72087967D01*
X125136046Y-72145232D01*
X125334066Y-72205300D01*
X125540000Y-72225583D01*
X125745934Y-72205300D01*
X125943954Y-72145232D01*
X126126450Y-72047685D01*
X126286410Y-71916410D01*
X126417685Y-71756450D01*
X126515232Y-71573954D01*
X126575300Y-71375934D01*
X126595583Y-71170000D01*
X126575300Y-70964066D01*
X126515232Y-70766046D01*
X126457967Y-70658912D01*
X126417688Y-70583555D01*
X126417686Y-70583553D01*
X126417685Y-70583550D01*
X126286410Y-70423590D01*
X126263811Y-70405044D01*
X126126455Y-70292319D01*
X126126453Y-70292318D01*
X126126450Y-70292315D01*
X126126448Y-70292313D01*
X126126444Y-70292311D01*
X125943954Y-70194768D01*
X125943949Y-70194766D01*
X125745935Y-70134700D01*
X125745930Y-70134699D01*
X125540000Y-70114417D01*
X125334069Y-70134699D01*
X125334064Y-70134700D01*
X125136050Y-70194766D01*
X125136045Y-70194768D01*
X124953555Y-70292311D01*
X124953544Y-70292319D01*
X124793591Y-70423588D01*
X124793588Y-70423591D01*
X124662319Y-70583544D01*
X124662311Y-70583555D01*
X124564768Y-70766045D01*
X124564766Y-70766050D01*
X124504700Y-70964064D01*
X124504699Y-70964069D01*
X124484417Y-71169999D01*
X124484417Y-71170000D01*
X114067186Y-71170000D01*
X114099536Y-71127841D01*
X114160044Y-70981762D01*
X114169276Y-70911636D01*
X114180682Y-70825001D01*
X114180682Y-70824998D01*
X114160045Y-70668244D01*
X114160044Y-70668242D01*
X114160044Y-70668238D01*
X114099536Y-70522159D01*
X114003282Y-70396718D01*
X114003279Y-70396716D01*
X114003278Y-70396714D01*
X113974434Y-70374581D01*
X113950517Y-70333154D01*
X113962898Y-70286949D01*
X113974427Y-70275419D01*
X114003282Y-70253279D01*
X114099536Y-70127838D01*
X114160044Y-69981759D01*
X114160045Y-69981752D01*
X114180682Y-69824998D01*
X114180682Y-69824995D01*
X114180025Y-69820001D01*
X117074318Y-69820001D01*
X117094954Y-69976755D01*
X117094957Y-69976765D01*
X117155462Y-70122838D01*
X117155464Y-70122841D01*
X117251717Y-70248282D01*
X117309103Y-70292315D01*
X117377159Y-70344536D01*
X117523238Y-70405044D01*
X117523242Y-70405044D01*
X117523244Y-70405045D01*
X117679998Y-70425682D01*
X117680000Y-70425682D01*
X117680002Y-70425682D01*
X117836755Y-70405045D01*
X117836755Y-70405044D01*
X117836762Y-70405044D01*
X117982841Y-70344536D01*
X118108282Y-70248282D01*
X118204536Y-70122841D01*
X118265044Y-69976762D01*
X118285024Y-69824997D01*
X118285682Y-69820001D01*
X118285682Y-69819998D01*
X118265045Y-69663244D01*
X118265044Y-69663242D01*
X118265044Y-69663238D01*
X118206606Y-69522156D01*
X118204537Y-69517161D01*
X118204535Y-69517158D01*
X118197262Y-69507680D01*
X118182139Y-69487971D01*
X118108282Y-69391717D01*
X117982841Y-69295464D01*
X117982838Y-69295462D01*
X117836765Y-69234957D01*
X117836755Y-69234954D01*
X117680002Y-69214318D01*
X117679998Y-69214318D01*
X117523244Y-69234954D01*
X117523234Y-69234957D01*
X117377161Y-69295462D01*
X117377158Y-69295464D01*
X117251717Y-69391717D01*
X117155464Y-69517158D01*
X117155462Y-69517161D01*
X117094957Y-69663234D01*
X117094954Y-69663244D01*
X117074318Y-69819998D01*
X117074318Y-69820001D01*
X114180025Y-69820001D01*
X114160045Y-69668241D01*
X114160044Y-69668239D01*
X114160044Y-69668235D01*
X114099536Y-69522156D01*
X114077139Y-69492968D01*
X114003282Y-69396714D01*
X113877841Y-69300461D01*
X113877838Y-69300459D01*
X113731765Y-69239954D01*
X113731755Y-69239951D01*
X113575002Y-69219315D01*
X113574998Y-69219315D01*
X113418244Y-69239951D01*
X113418234Y-69239954D01*
X113272161Y-69300459D01*
X113272158Y-69300461D01*
X113146717Y-69396714D01*
X113050464Y-69522155D01*
X113050462Y-69522158D01*
X112989957Y-69668231D01*
X112989954Y-69668241D01*
X112969318Y-69824995D01*
X112969318Y-69824998D01*
X112989954Y-69981752D01*
X112989957Y-69981762D01*
X113044904Y-70114417D01*
X113050464Y-70127838D01*
X113146718Y-70253279D01*
X113146719Y-70253280D01*
X113146721Y-70253282D01*
X113175563Y-70275413D01*
X113199481Y-70316840D01*
X113187101Y-70363045D01*
X113175564Y-70374582D01*
X113146722Y-70396714D01*
X113146720Y-70396716D01*
X113146718Y-70396718D01*
X113097816Y-70460449D01*
X113050462Y-70522162D01*
X112989957Y-70668234D01*
X112989954Y-70668244D01*
X112969318Y-70824998D01*
X112969318Y-70825001D01*
X79980764Y-70825001D01*
X79949254Y-70766050D01*
X79934170Y-70737830D01*
X79934166Y-70737824D01*
X79809140Y-70585480D01*
X79656795Y-70460453D01*
X79656789Y-70460449D01*
X79537548Y-70396714D01*
X79482984Y-70367549D01*
X79342713Y-70324998D01*
X79294387Y-70310338D01*
X79098257Y-70291022D01*
X78902126Y-70310338D01*
X78789393Y-70344536D01*
X78713530Y-70367549D01*
X78713528Y-70367549D01*
X78713528Y-70367550D01*
X78539724Y-70460449D01*
X78539718Y-70460453D01*
X78387374Y-70585480D01*
X78262347Y-70737824D01*
X78262343Y-70737830D01*
X78215750Y-70825001D01*
X78169443Y-70911636D01*
X78153538Y-70964069D01*
X78112232Y-71100232D01*
X78092916Y-71296362D01*
X78092916Y-71296363D01*
X69703517Y-71296363D01*
X69694552Y-71282946D01*
X69628232Y-71238632D01*
X69628230Y-71238631D01*
X69569748Y-71226999D01*
X67530252Y-71226999D01*
X67471769Y-71238631D01*
X67471767Y-71238632D01*
X67405447Y-71282946D01*
X67361133Y-71349266D01*
X67361132Y-71349268D01*
X67349500Y-71407750D01*
X67349500Y-73352247D01*
X63151900Y-73352247D01*
X63151900Y-69930739D01*
X67349500Y-69930739D01*
X67349501Y-69930755D01*
X67377890Y-70109991D01*
X67377890Y-70109992D01*
X67433972Y-70282595D01*
X67433976Y-70282603D01*
X67516367Y-70444305D01*
X67623040Y-70591127D01*
X67623047Y-70591135D01*
X67751363Y-70719451D01*
X67751371Y-70719458D01*
X67896636Y-70825000D01*
X67898196Y-70826133D01*
X68059902Y-70908526D01*
X68232505Y-70964608D01*
X68308049Y-70976573D01*
X68411743Y-70992997D01*
X68411749Y-70992997D01*
X68411757Y-70992999D01*
X68411759Y-70992999D01*
X68688241Y-70992999D01*
X68688243Y-70992999D01*
X68867495Y-70964608D01*
X69040098Y-70908526D01*
X69201804Y-70826133D01*
X69348629Y-70719458D01*
X69476959Y-70591128D01*
X69583634Y-70444303D01*
X69666027Y-70282597D01*
X69722109Y-70109994D01*
X69750500Y-69930742D01*
X69750500Y-69749256D01*
X69722109Y-69570004D01*
X69666027Y-69397401D01*
X69583634Y-69235695D01*
X69476959Y-69088870D01*
X69476952Y-69088862D01*
X69348636Y-68960546D01*
X69348628Y-68960539D01*
X69201806Y-68853866D01*
X69040104Y-68771475D01*
X69040096Y-68771471D01*
X68867493Y-68715389D01*
X68688256Y-68687000D01*
X68688244Y-68686999D01*
X68688243Y-68686999D01*
X68411757Y-68686999D01*
X68411755Y-68686999D01*
X68411743Y-68687000D01*
X68232507Y-68715389D01*
X68232506Y-68715389D01*
X68059903Y-68771471D01*
X68059895Y-68771475D01*
X67898193Y-68853866D01*
X67751371Y-68960539D01*
X67751363Y-68960546D01*
X67623047Y-69088862D01*
X67623040Y-69088870D01*
X67516367Y-69235692D01*
X67433976Y-69397394D01*
X67433972Y-69397402D01*
X67377890Y-69570005D01*
X67377890Y-69570006D01*
X67349501Y-69749242D01*
X67349500Y-69749258D01*
X67349500Y-69930739D01*
X63151900Y-69930739D01*
X63151900Y-68630000D01*
X124484417Y-68630000D01*
X124504699Y-68835930D01*
X124504700Y-68835935D01*
X124564766Y-69033949D01*
X124564768Y-69033954D01*
X124662311Y-69216444D01*
X124662319Y-69216455D01*
X124793588Y-69376408D01*
X124793591Y-69376411D01*
X124818332Y-69396715D01*
X124953550Y-69507685D01*
X124953553Y-69507686D01*
X124953555Y-69507688D01*
X125028912Y-69547967D01*
X125136046Y-69605232D01*
X125334066Y-69665300D01*
X125540000Y-69685583D01*
X125745934Y-69665300D01*
X125943954Y-69605232D01*
X126126450Y-69507685D01*
X126286410Y-69376410D01*
X126417685Y-69216450D01*
X126515232Y-69033954D01*
X126575300Y-68835934D01*
X126595583Y-68630000D01*
X126575300Y-68424066D01*
X126515232Y-68226046D01*
X126457967Y-68118912D01*
X126417688Y-68043555D01*
X126417686Y-68043553D01*
X126417685Y-68043550D01*
X126286410Y-67883590D01*
X126126450Y-67752315D01*
X126126448Y-67752313D01*
X126126444Y-67752311D01*
X125943954Y-67654768D01*
X125943949Y-67654766D01*
X125745935Y-67594700D01*
X125745930Y-67594699D01*
X125540000Y-67574417D01*
X125334069Y-67594699D01*
X125334064Y-67594700D01*
X125136050Y-67654766D01*
X125136045Y-67654768D01*
X124953555Y-67752311D01*
X124953544Y-67752319D01*
X124793591Y-67883588D01*
X124793588Y-67883591D01*
X124662319Y-68043544D01*
X124662311Y-68043555D01*
X124564768Y-68226045D01*
X124564766Y-68226050D01*
X124504700Y-68424064D01*
X124504699Y-68424069D01*
X124484417Y-68629999D01*
X124484417Y-68630000D01*
X63151900Y-68630000D01*
X63151900Y-67390739D01*
X67349500Y-67390739D01*
X67349501Y-67390755D01*
X67377890Y-67569991D01*
X67377890Y-67569992D01*
X67433972Y-67742595D01*
X67433976Y-67742603D01*
X67516367Y-67904305D01*
X67623040Y-68051127D01*
X67623047Y-68051135D01*
X67751363Y-68179451D01*
X67751371Y-68179458D01*
X67898196Y-68286133D01*
X68059902Y-68368526D01*
X68232505Y-68424608D01*
X68308049Y-68436573D01*
X68411743Y-68452997D01*
X68411749Y-68452997D01*
X68411757Y-68452999D01*
X68411759Y-68452999D01*
X68688241Y-68452999D01*
X68688243Y-68452999D01*
X68867495Y-68424608D01*
X69040098Y-68368526D01*
X69201804Y-68286133D01*
X69348629Y-68179458D01*
X69476959Y-68051128D01*
X69583634Y-67904303D01*
X69666027Y-67742597D01*
X69722109Y-67569994D01*
X69750500Y-67390742D01*
X69750500Y-67209256D01*
X69722109Y-67030004D01*
X69666027Y-66857401D01*
X69583634Y-66695695D01*
X69476959Y-66548870D01*
X69476952Y-66548862D01*
X69348636Y-66420546D01*
X69348628Y-66420539D01*
X69261275Y-66357073D01*
X108188792Y-66357073D01*
X108209428Y-66513827D01*
X108209431Y-66513837D01*
X108269936Y-66659910D01*
X108269938Y-66659913D01*
X108366191Y-66785354D01*
X108432731Y-66836411D01*
X108491633Y-66881608D01*
X108637712Y-66942116D01*
X108637716Y-66942116D01*
X108637718Y-66942117D01*
X108794472Y-66962754D01*
X108794474Y-66962754D01*
X108794476Y-66962754D01*
X108951229Y-66942117D01*
X108951229Y-66942116D01*
X108951236Y-66942116D01*
X109097315Y-66881608D01*
X109222756Y-66785354D01*
X109319010Y-66659913D01*
X109379518Y-66513834D01*
X109391800Y-66420540D01*
X109400156Y-66357073D01*
X109400156Y-66357070D01*
X109379519Y-66200316D01*
X109379518Y-66200314D01*
X109379518Y-66200310D01*
X109319010Y-66054231D01*
X109296613Y-66025043D01*
X109222756Y-65928789D01*
X109097315Y-65832536D01*
X109097312Y-65832534D01*
X108951239Y-65772029D01*
X108951229Y-65772026D01*
X108794476Y-65751390D01*
X108794472Y-65751390D01*
X108637718Y-65772026D01*
X108637708Y-65772029D01*
X108491635Y-65832534D01*
X108491632Y-65832536D01*
X108366191Y-65928789D01*
X108269938Y-66054230D01*
X108269936Y-66054233D01*
X108209431Y-66200306D01*
X108209428Y-66200316D01*
X108188792Y-66357070D01*
X108188792Y-66357073D01*
X69261275Y-66357073D01*
X69201806Y-66313866D01*
X69040104Y-66231475D01*
X69040096Y-66231471D01*
X68867493Y-66175389D01*
X68688256Y-66147000D01*
X68688244Y-66146999D01*
X68688243Y-66146999D01*
X68411757Y-66146999D01*
X68411755Y-66146999D01*
X68411743Y-66147000D01*
X68232507Y-66175389D01*
X68232506Y-66175389D01*
X68059903Y-66231471D01*
X68059895Y-66231475D01*
X67898193Y-66313866D01*
X67751371Y-66420539D01*
X67751363Y-66420546D01*
X67623047Y-66548862D01*
X67623040Y-66548870D01*
X67516367Y-66695692D01*
X67433976Y-66857394D01*
X67433972Y-66857402D01*
X67377890Y-67030005D01*
X67377890Y-67030006D01*
X67349501Y-67209242D01*
X67349500Y-67209258D01*
X67349500Y-67390739D01*
X63151900Y-67390739D01*
X63151900Y-65610001D01*
X117124318Y-65610001D01*
X117144954Y-65766755D01*
X117144957Y-65766765D01*
X117205462Y-65912838D01*
X117205464Y-65912841D01*
X117301717Y-66038282D01*
X117369117Y-66089999D01*
X117427159Y-66134536D01*
X117573238Y-66195044D01*
X117573242Y-66195044D01*
X117573244Y-66195045D01*
X117729998Y-66215682D01*
X117730000Y-66215682D01*
X117730002Y-66215682D01*
X117886755Y-66195045D01*
X117886755Y-66195044D01*
X117886762Y-66195044D01*
X118032841Y-66134536D01*
X118090882Y-66090000D01*
X124484417Y-66090000D01*
X124504699Y-66295930D01*
X124504700Y-66295935D01*
X124564766Y-66493949D01*
X124564768Y-66493954D01*
X124662311Y-66676444D01*
X124662319Y-66676455D01*
X124751689Y-66785354D01*
X124793590Y-66836410D01*
X124953550Y-66967685D01*
X124953553Y-66967686D01*
X124953555Y-66967688D01*
X125028912Y-67007967D01*
X125136046Y-67065232D01*
X125334066Y-67125300D01*
X125540000Y-67145583D01*
X125745934Y-67125300D01*
X125943954Y-67065232D01*
X126126450Y-66967685D01*
X126286410Y-66836410D01*
X126417685Y-66676450D01*
X126515232Y-66493954D01*
X126575300Y-66295934D01*
X126595583Y-66090000D01*
X126575300Y-65884066D01*
X126515232Y-65686046D01*
X126417685Y-65503550D01*
X126286410Y-65343590D01*
X126242018Y-65307159D01*
X126126455Y-65212319D01*
X126126453Y-65212318D01*
X126126450Y-65212315D01*
X126126448Y-65212313D01*
X126126444Y-65212311D01*
X125943954Y-65114768D01*
X125943949Y-65114766D01*
X125745935Y-65054700D01*
X125745930Y-65054699D01*
X125540000Y-65034417D01*
X125334069Y-65054699D01*
X125334064Y-65054700D01*
X125136050Y-65114766D01*
X125136045Y-65114768D01*
X124953555Y-65212311D01*
X124953544Y-65212319D01*
X124793591Y-65343588D01*
X124793588Y-65343591D01*
X124662319Y-65503544D01*
X124662311Y-65503555D01*
X124564768Y-65686045D01*
X124564766Y-65686050D01*
X124504700Y-65884064D01*
X124504699Y-65884069D01*
X124484417Y-66089999D01*
X124484417Y-66090000D01*
X118090882Y-66090000D01*
X118158282Y-66038282D01*
X118254536Y-65912841D01*
X118315044Y-65766762D01*
X118325670Y-65686050D01*
X118335682Y-65610001D01*
X118335682Y-65609998D01*
X118315045Y-65453244D01*
X118315044Y-65453242D01*
X118315044Y-65453238D01*
X118254536Y-65307159D01*
X118181757Y-65212311D01*
X118158282Y-65181717D01*
X118032841Y-65085464D01*
X118032838Y-65085462D01*
X117886765Y-65024957D01*
X117886755Y-65024954D01*
X117730002Y-65004318D01*
X117729998Y-65004318D01*
X117573244Y-65024954D01*
X117573234Y-65024957D01*
X117427161Y-65085462D01*
X117427158Y-65085464D01*
X117301717Y-65181717D01*
X117205464Y-65307158D01*
X117205462Y-65307161D01*
X117144957Y-65453234D01*
X117144954Y-65453244D01*
X117124318Y-65609998D01*
X117124318Y-65610001D01*
X63151900Y-65610001D01*
X63151900Y-63550000D01*
X124177346Y-63550000D01*
X124195931Y-63774284D01*
X124251178Y-63992451D01*
X124251179Y-63992455D01*
X124341583Y-64198554D01*
X124341585Y-64198558D01*
X124416920Y-64313866D01*
X124416921Y-64313866D01*
X125055841Y-63674945D01*
X125074075Y-63742993D01*
X125139901Y-63857007D01*
X125232993Y-63950099D01*
X125347007Y-64015925D01*
X125415051Y-64034157D01*
X124774311Y-64674898D01*
X124774311Y-64674899D01*
X124794698Y-64690767D01*
X124992627Y-64797880D01*
X124992628Y-64797881D01*
X125205487Y-64870956D01*
X125427476Y-64908000D01*
X125652524Y-64908000D01*
X125874512Y-64870956D01*
X126087371Y-64797881D01*
X126087372Y-64797881D01*
X126285303Y-64690766D01*
X126305688Y-64674899D01*
X125664947Y-64034158D01*
X125732993Y-64015925D01*
X125847007Y-63950099D01*
X125940099Y-63857007D01*
X126005925Y-63742993D01*
X126024158Y-63674947D01*
X126663077Y-64313866D01*
X126738416Y-64198553D01*
X126828820Y-63992455D01*
X126828821Y-63992451D01*
X126884068Y-63774284D01*
X126902653Y-63550000D01*
X126884068Y-63325715D01*
X126828821Y-63107548D01*
X126828820Y-63107544D01*
X126738416Y-62901445D01*
X126738414Y-62901442D01*
X126663078Y-62786132D01*
X126663077Y-62786132D01*
X126024157Y-63425051D01*
X126005925Y-63357007D01*
X125940099Y-63242993D01*
X125847007Y-63149901D01*
X125732993Y-63084075D01*
X125664947Y-63065841D01*
X126305688Y-62425100D01*
X126285301Y-62409232D01*
X126087372Y-62302119D01*
X126087371Y-62302118D01*
X125874512Y-62229043D01*
X125652524Y-62192000D01*
X125427476Y-62192000D01*
X125205487Y-62229043D01*
X124992628Y-62302118D01*
X124992627Y-62302119D01*
X124794694Y-62409234D01*
X124774311Y-62425099D01*
X124774310Y-62425099D01*
X125415052Y-63065841D01*
X125347007Y-63084075D01*
X125232993Y-63149901D01*
X125139901Y-63242993D01*
X125074075Y-63357007D01*
X125055841Y-63425052D01*
X124416921Y-62786132D01*
X124416920Y-62786132D01*
X124341585Y-62901441D01*
X124341583Y-62901445D01*
X124251179Y-63107544D01*
X124251178Y-63107548D01*
X124195931Y-63325715D01*
X124177346Y-63550000D01*
X63151900Y-63550000D01*
X63151900Y-60774748D01*
X111324500Y-60774748D01*
X111336132Y-60833230D01*
X111336133Y-60833232D01*
X111380447Y-60899552D01*
X111446767Y-60943866D01*
X111446769Y-60943867D01*
X111505252Y-60955500D01*
X113244748Y-60955500D01*
X113303231Y-60943867D01*
X113369552Y-60899552D01*
X113413867Y-60833231D01*
X113425500Y-60774748D01*
X113425500Y-59905000D01*
X113859417Y-59905000D01*
X113879699Y-60110930D01*
X113879700Y-60110935D01*
X113939766Y-60308949D01*
X113939768Y-60308954D01*
X114037311Y-60491444D01*
X114037319Y-60491455D01*
X114088284Y-60553557D01*
X114168590Y-60651410D01*
X114328550Y-60782685D01*
X114328553Y-60782686D01*
X114328555Y-60782688D01*
X114372068Y-60805946D01*
X114511046Y-60880232D01*
X114709066Y-60940300D01*
X114915000Y-60960583D01*
X115120934Y-60940300D01*
X115318954Y-60880232D01*
X115501450Y-60782685D01*
X115661410Y-60651410D01*
X115792685Y-60491450D01*
X115890232Y-60308954D01*
X115935720Y-60159000D01*
X116118457Y-60159000D01*
X116166178Y-60347451D01*
X116166179Y-60347455D01*
X116256583Y-60553554D01*
X116256585Y-60553557D01*
X116379674Y-60741957D01*
X116379677Y-60741962D01*
X116532101Y-60907538D01*
X116532104Y-60907541D01*
X116709697Y-61045767D01*
X116709699Y-61045768D01*
X116907627Y-61152880D01*
X116907628Y-61152881D01*
X117120487Y-61225956D01*
X117201000Y-61239391D01*
X117201000Y-60335702D01*
X117262007Y-60370925D01*
X117389174Y-60405000D01*
X117520826Y-60405000D01*
X117647993Y-60370925D01*
X117709000Y-60335702D01*
X117709000Y-61239391D01*
X117789512Y-61225956D01*
X118002371Y-61152881D01*
X118002372Y-61152880D01*
X118200300Y-61045768D01*
X118200302Y-61045767D01*
X118377895Y-60907541D01*
X118377898Y-60907538D01*
X118530322Y-60741962D01*
X118530325Y-60741957D01*
X118653414Y-60553557D01*
X118653416Y-60553554D01*
X118743820Y-60347455D01*
X118743821Y-60347451D01*
X118791543Y-60159000D01*
X117885703Y-60159000D01*
X117920925Y-60097993D01*
X117955000Y-59970826D01*
X117955000Y-59849983D01*
X123634500Y-59849983D01*
X123634501Y-59849999D01*
X123668910Y-60067246D01*
X123668910Y-60067247D01*
X123736886Y-60276455D01*
X123736887Y-60276457D01*
X123802384Y-60405000D01*
X123836751Y-60472449D01*
X123966047Y-60650410D01*
X123966050Y-60650413D01*
X123966053Y-60650417D01*
X124121582Y-60805946D01*
X124121585Y-60805948D01*
X124121590Y-60805953D01*
X124299551Y-60935249D01*
X124495546Y-61035114D01*
X124704751Y-61103089D01*
X124796322Y-61117592D01*
X124922000Y-61137498D01*
X124922006Y-61137498D01*
X124922014Y-61137500D01*
X124922016Y-61137500D01*
X125141984Y-61137500D01*
X125141986Y-61137500D01*
X125359249Y-61103089D01*
X125568454Y-61035114D01*
X125764449Y-60935249D01*
X125942410Y-60805953D01*
X126097953Y-60650410D01*
X126227249Y-60472449D01*
X126327114Y-60276454D01*
X126395089Y-60067249D01*
X126429500Y-59849986D01*
X126429500Y-59630014D01*
X126424428Y-59597993D01*
X126409074Y-59501050D01*
X126395089Y-59412751D01*
X126327114Y-59203546D01*
X126227249Y-59007551D01*
X126097953Y-58829590D01*
X126097948Y-58829585D01*
X126097946Y-58829582D01*
X125942417Y-58674053D01*
X125942413Y-58674050D01*
X125942410Y-58674047D01*
X125764449Y-58544751D01*
X125684212Y-58503868D01*
X125568457Y-58444887D01*
X125568455Y-58444886D01*
X125359247Y-58376910D01*
X125141999Y-58342501D01*
X125141987Y-58342500D01*
X125141986Y-58342500D01*
X124922014Y-58342500D01*
X124922012Y-58342500D01*
X124922000Y-58342501D01*
X124704753Y-58376910D01*
X124704752Y-58376910D01*
X124495544Y-58444886D01*
X124495542Y-58444887D01*
X124299550Y-58544751D01*
X124166395Y-58641494D01*
X124144890Y-58657119D01*
X124121582Y-58674053D01*
X123966053Y-58829582D01*
X123836751Y-59007550D01*
X123736887Y-59203542D01*
X123736886Y-59203544D01*
X123668910Y-59412752D01*
X123668910Y-59412753D01*
X123634501Y-59630000D01*
X123634500Y-59630016D01*
X123634500Y-59849983D01*
X117955000Y-59849983D01*
X117955000Y-59839174D01*
X117920925Y-59712007D01*
X117885703Y-59651000D01*
X118791543Y-59651000D01*
X118743821Y-59462548D01*
X118743820Y-59462544D01*
X118653416Y-59256445D01*
X118653414Y-59256442D01*
X118530325Y-59068042D01*
X118530322Y-59068037D01*
X118377898Y-58902461D01*
X118377895Y-58902458D01*
X118200302Y-58764232D01*
X118200300Y-58764231D01*
X118002372Y-58657119D01*
X118002371Y-58657118D01*
X117789507Y-58584041D01*
X117709000Y-58570606D01*
X117709000Y-59474297D01*
X117647993Y-59439075D01*
X117520826Y-59405000D01*
X117389174Y-59405000D01*
X117262007Y-59439075D01*
X117201000Y-59474297D01*
X117201000Y-58570606D01*
X117120492Y-58584041D01*
X116907628Y-58657118D01*
X116907627Y-58657119D01*
X116709699Y-58764231D01*
X116709697Y-58764232D01*
X116532104Y-58902458D01*
X116532101Y-58902461D01*
X116379677Y-59068037D01*
X116379674Y-59068042D01*
X116256585Y-59256442D01*
X116256583Y-59256445D01*
X116166179Y-59462544D01*
X116166178Y-59462548D01*
X116118457Y-59651000D01*
X117024297Y-59651000D01*
X116989075Y-59712007D01*
X116955000Y-59839174D01*
X116955000Y-59970826D01*
X116989075Y-60097993D01*
X117024297Y-60159000D01*
X116118457Y-60159000D01*
X115935720Y-60159000D01*
X115950300Y-60110934D01*
X115970583Y-59905000D01*
X115950300Y-59699066D01*
X115890232Y-59501046D01*
X115792685Y-59318550D01*
X115661410Y-59158590D01*
X115592414Y-59101967D01*
X115501455Y-59027319D01*
X115501453Y-59027318D01*
X115501450Y-59027315D01*
X115501448Y-59027313D01*
X115501444Y-59027311D01*
X115318954Y-58929768D01*
X115318949Y-58929766D01*
X115120935Y-58869700D01*
X115120930Y-58869699D01*
X114915000Y-58849417D01*
X114709069Y-58869699D01*
X114709064Y-58869700D01*
X114511050Y-58929766D01*
X114511045Y-58929768D01*
X114328555Y-59027311D01*
X114328544Y-59027319D01*
X114168591Y-59158588D01*
X114168588Y-59158591D01*
X114037319Y-59318544D01*
X114037311Y-59318555D01*
X113939768Y-59501045D01*
X113939766Y-59501050D01*
X113879700Y-59699064D01*
X113879699Y-59699069D01*
X113859417Y-59904999D01*
X113859417Y-59905000D01*
X113425500Y-59905000D01*
X113425500Y-59035252D01*
X113413867Y-58976769D01*
X113387646Y-58937527D01*
X113369552Y-58910447D01*
X113303232Y-58866133D01*
X113303230Y-58866132D01*
X113244748Y-58854500D01*
X111505252Y-58854500D01*
X111446769Y-58866132D01*
X111446767Y-58866133D01*
X111380447Y-58910447D01*
X111336133Y-58976767D01*
X111336132Y-58976769D01*
X111324500Y-59035251D01*
X111324500Y-60774748D01*
X63151900Y-60774748D01*
X63151900Y-59519748D01*
X71699500Y-59519748D01*
X71711132Y-59578230D01*
X71711133Y-59578232D01*
X71755447Y-59644552D01*
X71821767Y-59688866D01*
X71821769Y-59688867D01*
X71880252Y-59700500D01*
X73519748Y-59700500D01*
X73578231Y-59688867D01*
X73644552Y-59644552D01*
X73688867Y-59578231D01*
X73700500Y-59519748D01*
X73700500Y-58700000D01*
X74194659Y-58700000D01*
X74213975Y-58896130D01*
X74224179Y-58929766D01*
X74271186Y-59084727D01*
X74271187Y-59084728D01*
X74364086Y-59258532D01*
X74364090Y-59258538D01*
X74489117Y-59410883D01*
X74641462Y-59535910D01*
X74641464Y-59535911D01*
X74641467Y-59535913D01*
X74686690Y-59560085D01*
X74815273Y-59628814D01*
X75003868Y-59686024D01*
X75200000Y-59705341D01*
X75396132Y-59686024D01*
X75584727Y-59628814D01*
X75758538Y-59535910D01*
X75910883Y-59410883D01*
X76035910Y-59258538D01*
X76128814Y-59084727D01*
X76186024Y-58896132D01*
X76205341Y-58700000D01*
X76202785Y-58674053D01*
X76186024Y-58503869D01*
X76168132Y-58444887D01*
X76128814Y-58315273D01*
X76049928Y-58167688D01*
X76035913Y-58141467D01*
X76035909Y-58141461D01*
X75910883Y-57989117D01*
X75758538Y-57864090D01*
X75758532Y-57864086D01*
X75619925Y-57790000D01*
X75584727Y-57771186D01*
X75464184Y-57734619D01*
X75396130Y-57713975D01*
X75200000Y-57694659D01*
X75003869Y-57713975D01*
X74883325Y-57750542D01*
X74815273Y-57771186D01*
X74815271Y-57771186D01*
X74815271Y-57771187D01*
X74641467Y-57864086D01*
X74641461Y-57864090D01*
X74489117Y-57989117D01*
X74364090Y-58141461D01*
X74364086Y-58141467D01*
X74297934Y-58265231D01*
X74271186Y-58315273D01*
X74261992Y-58345583D01*
X74213975Y-58503869D01*
X74194659Y-58699999D01*
X74194659Y-58700000D01*
X73700500Y-58700000D01*
X73700500Y-57880252D01*
X73688867Y-57821769D01*
X73688866Y-57821767D01*
X73644552Y-57755447D01*
X73578232Y-57711133D01*
X73578230Y-57711132D01*
X73519748Y-57699500D01*
X71880252Y-57699500D01*
X71821769Y-57711132D01*
X71821767Y-57711133D01*
X71755447Y-57755447D01*
X71711133Y-57821767D01*
X71711132Y-57821769D01*
X71699500Y-57880251D01*
X71699500Y-59519748D01*
X63151900Y-59519748D01*
X63151900Y-58091279D01*
X64497500Y-58091279D01*
X64497501Y-58091295D01*
X64533880Y-58320979D01*
X64533880Y-58320980D01*
X64605746Y-58542161D01*
X64605750Y-58542169D01*
X64711329Y-58749381D01*
X64848025Y-58937526D01*
X64848032Y-58937534D01*
X65012465Y-59101967D01*
X65012473Y-59101974D01*
X65152271Y-59203544D01*
X65200621Y-59238672D01*
X65407837Y-59344253D01*
X65629018Y-59416119D01*
X65725829Y-59431452D01*
X65858704Y-59452498D01*
X65858710Y-59452498D01*
X65858718Y-59452500D01*
X65858720Y-59452500D01*
X66091280Y-59452500D01*
X66091282Y-59452500D01*
X66320982Y-59416119D01*
X66542163Y-59344253D01*
X66749379Y-59238672D01*
X66937527Y-59101974D01*
X67101974Y-58937527D01*
X67238672Y-58749379D01*
X67344253Y-58542163D01*
X67416119Y-58320982D01*
X67452500Y-58091282D01*
X67452500Y-57858718D01*
X67416119Y-57629018D01*
X67344253Y-57407837D01*
X67284213Y-57290000D01*
X87794417Y-57290000D01*
X87814699Y-57495930D01*
X87814700Y-57495935D01*
X87874766Y-57693949D01*
X87874768Y-57693954D01*
X87972311Y-57876444D01*
X87972319Y-57876455D01*
X88103588Y-58036408D01*
X88103591Y-58036411D01*
X88215951Y-58128622D01*
X88263550Y-58167685D01*
X88263553Y-58167686D01*
X88263555Y-58167688D01*
X88302649Y-58188584D01*
X88446046Y-58265232D01*
X88644066Y-58325300D01*
X88850000Y-58345583D01*
X89055934Y-58325300D01*
X89253954Y-58265232D01*
X89436450Y-58167685D01*
X89596410Y-58036410D01*
X89727685Y-57876450D01*
X89825232Y-57693954D01*
X89885300Y-57495934D01*
X89905583Y-57290000D01*
X90334417Y-57290000D01*
X90354699Y-57495930D01*
X90354700Y-57495935D01*
X90414766Y-57693949D01*
X90414768Y-57693954D01*
X90512311Y-57876444D01*
X90512319Y-57876455D01*
X90643588Y-58036408D01*
X90643591Y-58036411D01*
X90755951Y-58128622D01*
X90803550Y-58167685D01*
X90803553Y-58167686D01*
X90803555Y-58167688D01*
X90842649Y-58188584D01*
X90986046Y-58265232D01*
X91184066Y-58325300D01*
X91390000Y-58345583D01*
X91595934Y-58325300D01*
X91793954Y-58265232D01*
X91976450Y-58167685D01*
X92136410Y-58036410D01*
X92267685Y-57876450D01*
X92365232Y-57693954D01*
X92425300Y-57495934D01*
X92445583Y-57290000D01*
X92874417Y-57290000D01*
X92894699Y-57495930D01*
X92894700Y-57495935D01*
X92954766Y-57693949D01*
X92954768Y-57693954D01*
X93052311Y-57876444D01*
X93052319Y-57876455D01*
X93183588Y-58036408D01*
X93183591Y-58036411D01*
X93295951Y-58128622D01*
X93343550Y-58167685D01*
X93343553Y-58167686D01*
X93343555Y-58167688D01*
X93382649Y-58188584D01*
X93526046Y-58265232D01*
X93724066Y-58325300D01*
X93930000Y-58345583D01*
X94135934Y-58325300D01*
X94333954Y-58265232D01*
X94516450Y-58167685D01*
X94676410Y-58036410D01*
X94807685Y-57876450D01*
X94905232Y-57693954D01*
X94965300Y-57495934D01*
X94985583Y-57290000D01*
X95414417Y-57290000D01*
X95434699Y-57495930D01*
X95434700Y-57495935D01*
X95494766Y-57693949D01*
X95494768Y-57693954D01*
X95592311Y-57876444D01*
X95592319Y-57876455D01*
X95723588Y-58036408D01*
X95723591Y-58036411D01*
X95835951Y-58128622D01*
X95883550Y-58167685D01*
X95883553Y-58167686D01*
X95883555Y-58167688D01*
X95922649Y-58188584D01*
X96066046Y-58265232D01*
X96264066Y-58325300D01*
X96470000Y-58345583D01*
X96675934Y-58325300D01*
X96873954Y-58265232D01*
X97056450Y-58167685D01*
X97216410Y-58036410D01*
X97347685Y-57876450D01*
X97445232Y-57693954D01*
X97505300Y-57495934D01*
X97525583Y-57290000D01*
X97954417Y-57290000D01*
X97974699Y-57495930D01*
X97974700Y-57495935D01*
X98034766Y-57693949D01*
X98034768Y-57693954D01*
X98132311Y-57876444D01*
X98132319Y-57876455D01*
X98263588Y-58036408D01*
X98263591Y-58036411D01*
X98375951Y-58128622D01*
X98423550Y-58167685D01*
X98423553Y-58167686D01*
X98423555Y-58167688D01*
X98462649Y-58188584D01*
X98606046Y-58265232D01*
X98804066Y-58325300D01*
X99010000Y-58345583D01*
X99215934Y-58325300D01*
X99413954Y-58265232D01*
X99596450Y-58167685D01*
X99756410Y-58036410D01*
X99887685Y-57876450D01*
X99985232Y-57693954D01*
X100045300Y-57495934D01*
X100065583Y-57290000D01*
X100494417Y-57290000D01*
X100514699Y-57495930D01*
X100514700Y-57495935D01*
X100574766Y-57693949D01*
X100574768Y-57693954D01*
X100672311Y-57876444D01*
X100672319Y-57876455D01*
X100803588Y-58036408D01*
X100803591Y-58036411D01*
X100915951Y-58128622D01*
X100963550Y-58167685D01*
X100963553Y-58167686D01*
X100963555Y-58167688D01*
X101002649Y-58188584D01*
X101146046Y-58265232D01*
X101344066Y-58325300D01*
X101550000Y-58345583D01*
X101755934Y-58325300D01*
X101953954Y-58265232D01*
X102136450Y-58167685D01*
X102296410Y-58036410D01*
X102427685Y-57876450D01*
X102525232Y-57693954D01*
X102585300Y-57495934D01*
X102605583Y-57290000D01*
X103034417Y-57290000D01*
X103054699Y-57495930D01*
X103054700Y-57495935D01*
X103114766Y-57693949D01*
X103114768Y-57693954D01*
X103212311Y-57876444D01*
X103212319Y-57876455D01*
X103343588Y-58036408D01*
X103343591Y-58036411D01*
X103455951Y-58128622D01*
X103503550Y-58167685D01*
X103503553Y-58167686D01*
X103503555Y-58167688D01*
X103542649Y-58188584D01*
X103686046Y-58265232D01*
X103884066Y-58325300D01*
X104090000Y-58345583D01*
X104295934Y-58325300D01*
X104493954Y-58265232D01*
X104637327Y-58188597D01*
X105272000Y-58188597D01*
X105278505Y-58249095D01*
X105329552Y-58385959D01*
X105329555Y-58385963D01*
X105417096Y-58502903D01*
X105534036Y-58590444D01*
X105534040Y-58590447D01*
X105670904Y-58641494D01*
X105731402Y-58647999D01*
X105731416Y-58648000D01*
X106376000Y-58648000D01*
X106376000Y-57720702D01*
X106437007Y-57755925D01*
X106564174Y-57790000D01*
X106695826Y-57790000D01*
X106822993Y-57755925D01*
X106884000Y-57720702D01*
X106884000Y-58648000D01*
X107528584Y-58648000D01*
X107528597Y-58647999D01*
X107589095Y-58641494D01*
X107725959Y-58590447D01*
X107725963Y-58590444D01*
X107842903Y-58502903D01*
X107930444Y-58385963D01*
X107930447Y-58385959D01*
X107981494Y-58249095D01*
X107987999Y-58188597D01*
X107988000Y-58188584D01*
X107988000Y-57544000D01*
X107060703Y-57544000D01*
X107095925Y-57482993D01*
X107127542Y-57365000D01*
X111319417Y-57365000D01*
X111339699Y-57570930D01*
X111339700Y-57570935D01*
X111399766Y-57768949D01*
X111399768Y-57768954D01*
X111497311Y-57951444D01*
X111497313Y-57951448D01*
X111497315Y-57951450D01*
X111628590Y-58111410D01*
X111788550Y-58242685D01*
X111788553Y-58242686D01*
X111788555Y-58242688D01*
X111800542Y-58249095D01*
X111971046Y-58340232D01*
X112169066Y-58400300D01*
X112375000Y-58420583D01*
X112580934Y-58400300D01*
X112778954Y-58340232D01*
X112961450Y-58242685D01*
X113121410Y-58111410D01*
X113252685Y-57951450D01*
X113350232Y-57768954D01*
X113410300Y-57570934D01*
X113430583Y-57365000D01*
X113859417Y-57365000D01*
X113879699Y-57570930D01*
X113879700Y-57570935D01*
X113939766Y-57768949D01*
X113939768Y-57768954D01*
X114037311Y-57951444D01*
X114037313Y-57951448D01*
X114037315Y-57951450D01*
X114168590Y-58111410D01*
X114328550Y-58242685D01*
X114328553Y-58242686D01*
X114328555Y-58242688D01*
X114340542Y-58249095D01*
X114511046Y-58340232D01*
X114709066Y-58400300D01*
X114915000Y-58420583D01*
X115120934Y-58400300D01*
X115318954Y-58340232D01*
X115501450Y-58242685D01*
X115661410Y-58111410D01*
X115792685Y-57951450D01*
X115890232Y-57768954D01*
X115950300Y-57570934D01*
X115970583Y-57365000D01*
X116399417Y-57365000D01*
X116419699Y-57570930D01*
X116419700Y-57570935D01*
X116479766Y-57768949D01*
X116479768Y-57768954D01*
X116577311Y-57951444D01*
X116577313Y-57951448D01*
X116577315Y-57951450D01*
X116708590Y-58111410D01*
X116868550Y-58242685D01*
X116868553Y-58242686D01*
X116868555Y-58242688D01*
X116880542Y-58249095D01*
X117051046Y-58340232D01*
X117249066Y-58400300D01*
X117455000Y-58420583D01*
X117660934Y-58400300D01*
X117858954Y-58340232D01*
X118041450Y-58242685D01*
X118201410Y-58111410D01*
X118332685Y-57951450D01*
X118430232Y-57768954D01*
X118490300Y-57570934D01*
X118510583Y-57365000D01*
X118509679Y-57355826D01*
X118503196Y-57289999D01*
X118490300Y-57159066D01*
X118430232Y-56961046D01*
X118369821Y-56848026D01*
X118332688Y-56778555D01*
X118332686Y-56778553D01*
X118332685Y-56778550D01*
X118293622Y-56730951D01*
X118201411Y-56618591D01*
X118201408Y-56618588D01*
X118041455Y-56487319D01*
X118041453Y-56487318D01*
X118041450Y-56487315D01*
X118041448Y-56487313D01*
X118041444Y-56487311D01*
X117858954Y-56389768D01*
X117858949Y-56389766D01*
X117660935Y-56329700D01*
X117660930Y-56329699D01*
X117455000Y-56309417D01*
X117249069Y-56329699D01*
X117249064Y-56329700D01*
X117051050Y-56389766D01*
X117051045Y-56389768D01*
X116868555Y-56487311D01*
X116868544Y-56487319D01*
X116708591Y-56618588D01*
X116708588Y-56618591D01*
X116577319Y-56778544D01*
X116577311Y-56778555D01*
X116479768Y-56961045D01*
X116479766Y-56961050D01*
X116419700Y-57159064D01*
X116419699Y-57159069D01*
X116399417Y-57364999D01*
X116399417Y-57365000D01*
X115970583Y-57365000D01*
X115969679Y-57355826D01*
X115963196Y-57289999D01*
X115950300Y-57159066D01*
X115890232Y-56961046D01*
X115829821Y-56848026D01*
X115792688Y-56778555D01*
X115792686Y-56778553D01*
X115792685Y-56778550D01*
X115753622Y-56730951D01*
X115661411Y-56618591D01*
X115661408Y-56618588D01*
X115501455Y-56487319D01*
X115501453Y-56487318D01*
X115501450Y-56487315D01*
X115501448Y-56487313D01*
X115501444Y-56487311D01*
X115318954Y-56389768D01*
X115318949Y-56389766D01*
X115120935Y-56329700D01*
X115120930Y-56329699D01*
X114915000Y-56309417D01*
X114709069Y-56329699D01*
X114709064Y-56329700D01*
X114511050Y-56389766D01*
X114511045Y-56389768D01*
X114328555Y-56487311D01*
X114328544Y-56487319D01*
X114168591Y-56618588D01*
X114168588Y-56618591D01*
X114037319Y-56778544D01*
X114037311Y-56778555D01*
X113939768Y-56961045D01*
X113939766Y-56961050D01*
X113879700Y-57159064D01*
X113879699Y-57159069D01*
X113859417Y-57364999D01*
X113859417Y-57365000D01*
X113430583Y-57365000D01*
X113429679Y-57355826D01*
X113423196Y-57289999D01*
X113410300Y-57159066D01*
X113350232Y-56961046D01*
X113289821Y-56848026D01*
X113252688Y-56778555D01*
X113252686Y-56778553D01*
X113252685Y-56778550D01*
X113213622Y-56730951D01*
X113121411Y-56618591D01*
X113121408Y-56618588D01*
X112961455Y-56487319D01*
X112961453Y-56487318D01*
X112961450Y-56487315D01*
X112961448Y-56487313D01*
X112961444Y-56487311D01*
X112778954Y-56389768D01*
X112778949Y-56389766D01*
X112580935Y-56329700D01*
X112580930Y-56329699D01*
X112375000Y-56309417D01*
X112169069Y-56329699D01*
X112169064Y-56329700D01*
X111971050Y-56389766D01*
X111971045Y-56389768D01*
X111788555Y-56487311D01*
X111788544Y-56487319D01*
X111628591Y-56618588D01*
X111628588Y-56618591D01*
X111497319Y-56778544D01*
X111497311Y-56778555D01*
X111399768Y-56961045D01*
X111399766Y-56961050D01*
X111339700Y-57159064D01*
X111339699Y-57159069D01*
X111319417Y-57364999D01*
X111319417Y-57365000D01*
X107127542Y-57365000D01*
X107130000Y-57355826D01*
X107130000Y-57224174D01*
X107095925Y-57097007D01*
X107060703Y-57036000D01*
X107988000Y-57036000D01*
X107988000Y-56391415D01*
X107987999Y-56391402D01*
X107981494Y-56330904D01*
X107930447Y-56194040D01*
X107930444Y-56194036D01*
X107842903Y-56077096D01*
X107725963Y-55989555D01*
X107725959Y-55989552D01*
X107589095Y-55938505D01*
X107528597Y-55932000D01*
X106884000Y-55932000D01*
X106884000Y-56859297D01*
X106822993Y-56824075D01*
X106695826Y-56790000D01*
X106564174Y-56790000D01*
X106437007Y-56824075D01*
X106376000Y-56859297D01*
X106376000Y-55932000D01*
X105731402Y-55932000D01*
X105670904Y-55938505D01*
X105534040Y-55989552D01*
X105534036Y-55989555D01*
X105417096Y-56077096D01*
X105329555Y-56194036D01*
X105329552Y-56194040D01*
X105278505Y-56330904D01*
X105272000Y-56391402D01*
X105272000Y-57036000D01*
X106199297Y-57036000D01*
X106164075Y-57097007D01*
X106130000Y-57224174D01*
X106130000Y-57355826D01*
X106164075Y-57482993D01*
X106199297Y-57544000D01*
X105272000Y-57544000D01*
X105272000Y-58188597D01*
X104637327Y-58188597D01*
X104676450Y-58167685D01*
X104836410Y-58036410D01*
X104967685Y-57876450D01*
X105065232Y-57693954D01*
X105125300Y-57495934D01*
X105145583Y-57290000D01*
X105125300Y-57084066D01*
X105065232Y-56886046D01*
X104971843Y-56711329D01*
X104967688Y-56703555D01*
X104967686Y-56703553D01*
X104967685Y-56703550D01*
X104836410Y-56543590D01*
X104824579Y-56533881D01*
X104676455Y-56412319D01*
X104676453Y-56412318D01*
X104676450Y-56412315D01*
X104676448Y-56412313D01*
X104676444Y-56412311D01*
X104493954Y-56314768D01*
X104493949Y-56314766D01*
X104295935Y-56254700D01*
X104295930Y-56254699D01*
X104090000Y-56234417D01*
X103884069Y-56254699D01*
X103884064Y-56254700D01*
X103686050Y-56314766D01*
X103686045Y-56314768D01*
X103503555Y-56412311D01*
X103503544Y-56412319D01*
X103343591Y-56543588D01*
X103343588Y-56543591D01*
X103212319Y-56703544D01*
X103212311Y-56703555D01*
X103114768Y-56886045D01*
X103114766Y-56886050D01*
X103054700Y-57084064D01*
X103054699Y-57084069D01*
X103034417Y-57289999D01*
X103034417Y-57290000D01*
X102605583Y-57290000D01*
X102585300Y-57084066D01*
X102525232Y-56886046D01*
X102431843Y-56711329D01*
X102427688Y-56703555D01*
X102427686Y-56703553D01*
X102427685Y-56703550D01*
X102296410Y-56543590D01*
X102284579Y-56533881D01*
X102136455Y-56412319D01*
X102136453Y-56412318D01*
X102136450Y-56412315D01*
X102136448Y-56412313D01*
X102136444Y-56412311D01*
X101953954Y-56314768D01*
X101953949Y-56314766D01*
X101755935Y-56254700D01*
X101755930Y-56254699D01*
X101550000Y-56234417D01*
X101344069Y-56254699D01*
X101344064Y-56254700D01*
X101146050Y-56314766D01*
X101146045Y-56314768D01*
X100963555Y-56412311D01*
X100963544Y-56412319D01*
X100803591Y-56543588D01*
X100803588Y-56543591D01*
X100672319Y-56703544D01*
X100672311Y-56703555D01*
X100574768Y-56886045D01*
X100574766Y-56886050D01*
X100514700Y-57084064D01*
X100514699Y-57084069D01*
X100494417Y-57289999D01*
X100494417Y-57290000D01*
X100065583Y-57290000D01*
X100045300Y-57084066D01*
X99985232Y-56886046D01*
X99891843Y-56711329D01*
X99887688Y-56703555D01*
X99887686Y-56703553D01*
X99887685Y-56703550D01*
X99756410Y-56543590D01*
X99744579Y-56533881D01*
X99596455Y-56412319D01*
X99596453Y-56412318D01*
X99596450Y-56412315D01*
X99596448Y-56412313D01*
X99596444Y-56412311D01*
X99413954Y-56314768D01*
X99413949Y-56314766D01*
X99215935Y-56254700D01*
X99215930Y-56254699D01*
X99010000Y-56234417D01*
X98804069Y-56254699D01*
X98804064Y-56254700D01*
X98606050Y-56314766D01*
X98606045Y-56314768D01*
X98423555Y-56412311D01*
X98423544Y-56412319D01*
X98263591Y-56543588D01*
X98263588Y-56543591D01*
X98132319Y-56703544D01*
X98132311Y-56703555D01*
X98034768Y-56886045D01*
X98034766Y-56886050D01*
X97974700Y-57084064D01*
X97974699Y-57084069D01*
X97954417Y-57289999D01*
X97954417Y-57290000D01*
X97525583Y-57290000D01*
X97505300Y-57084066D01*
X97445232Y-56886046D01*
X97351843Y-56711329D01*
X97347688Y-56703555D01*
X97347686Y-56703553D01*
X97347685Y-56703550D01*
X97216410Y-56543590D01*
X97204579Y-56533881D01*
X97056455Y-56412319D01*
X97056453Y-56412318D01*
X97056450Y-56412315D01*
X97056448Y-56412313D01*
X97056444Y-56412311D01*
X96873954Y-56314768D01*
X96873949Y-56314766D01*
X96675935Y-56254700D01*
X96675930Y-56254699D01*
X96470000Y-56234417D01*
X96264069Y-56254699D01*
X96264064Y-56254700D01*
X96066050Y-56314766D01*
X96066045Y-56314768D01*
X95883555Y-56412311D01*
X95883544Y-56412319D01*
X95723591Y-56543588D01*
X95723588Y-56543591D01*
X95592319Y-56703544D01*
X95592311Y-56703555D01*
X95494768Y-56886045D01*
X95494766Y-56886050D01*
X95434700Y-57084064D01*
X95434699Y-57084069D01*
X95414417Y-57289999D01*
X95414417Y-57290000D01*
X94985583Y-57290000D01*
X94965300Y-57084066D01*
X94905232Y-56886046D01*
X94811843Y-56711329D01*
X94807688Y-56703555D01*
X94807686Y-56703553D01*
X94807685Y-56703550D01*
X94676410Y-56543590D01*
X94664579Y-56533881D01*
X94516455Y-56412319D01*
X94516453Y-56412318D01*
X94516450Y-56412315D01*
X94516448Y-56412313D01*
X94516444Y-56412311D01*
X94333954Y-56314768D01*
X94333949Y-56314766D01*
X94135935Y-56254700D01*
X94135930Y-56254699D01*
X93930000Y-56234417D01*
X93724069Y-56254699D01*
X93724064Y-56254700D01*
X93526050Y-56314766D01*
X93526045Y-56314768D01*
X93343555Y-56412311D01*
X93343544Y-56412319D01*
X93183591Y-56543588D01*
X93183588Y-56543591D01*
X93052319Y-56703544D01*
X93052311Y-56703555D01*
X92954768Y-56886045D01*
X92954766Y-56886050D01*
X92894700Y-57084064D01*
X92894699Y-57084069D01*
X92874417Y-57289999D01*
X92874417Y-57290000D01*
X92445583Y-57290000D01*
X92425300Y-57084066D01*
X92365232Y-56886046D01*
X92271843Y-56711329D01*
X92267688Y-56703555D01*
X92267686Y-56703553D01*
X92267685Y-56703550D01*
X92136410Y-56543590D01*
X92124579Y-56533881D01*
X91976455Y-56412319D01*
X91976453Y-56412318D01*
X91976450Y-56412315D01*
X91976448Y-56412313D01*
X91976444Y-56412311D01*
X91793954Y-56314768D01*
X91793949Y-56314766D01*
X91595935Y-56254700D01*
X91595930Y-56254699D01*
X91390000Y-56234417D01*
X91184069Y-56254699D01*
X91184064Y-56254700D01*
X90986050Y-56314766D01*
X90986045Y-56314768D01*
X90803555Y-56412311D01*
X90803544Y-56412319D01*
X90643591Y-56543588D01*
X90643588Y-56543591D01*
X90512319Y-56703544D01*
X90512311Y-56703555D01*
X90414768Y-56886045D01*
X90414766Y-56886050D01*
X90354700Y-57084064D01*
X90354699Y-57084069D01*
X90334417Y-57289999D01*
X90334417Y-57290000D01*
X89905583Y-57290000D01*
X89885300Y-57084066D01*
X89825232Y-56886046D01*
X89731843Y-56711329D01*
X89727688Y-56703555D01*
X89727686Y-56703553D01*
X89727685Y-56703550D01*
X89596410Y-56543590D01*
X89584579Y-56533881D01*
X89436455Y-56412319D01*
X89436453Y-56412318D01*
X89436450Y-56412315D01*
X89436448Y-56412313D01*
X89436444Y-56412311D01*
X89253954Y-56314768D01*
X89253949Y-56314766D01*
X89055935Y-56254700D01*
X89055930Y-56254699D01*
X88850000Y-56234417D01*
X88644069Y-56254699D01*
X88644064Y-56254700D01*
X88446050Y-56314766D01*
X88446045Y-56314768D01*
X88263555Y-56412311D01*
X88263544Y-56412319D01*
X88103591Y-56543588D01*
X88103588Y-56543591D01*
X87972319Y-56703544D01*
X87972311Y-56703555D01*
X87874768Y-56886045D01*
X87874766Y-56886050D01*
X87814700Y-57084064D01*
X87814699Y-57084069D01*
X87794417Y-57289999D01*
X87794417Y-57290000D01*
X67284213Y-57290000D01*
X67238672Y-57200621D01*
X67208480Y-57159066D01*
X67101974Y-57012473D01*
X67101967Y-57012465D01*
X66937534Y-56848032D01*
X66937526Y-56848025D01*
X66749381Y-56711329D01*
X66542169Y-56605750D01*
X66542161Y-56605746D01*
X66320980Y-56533880D01*
X66091295Y-56497501D01*
X66091283Y-56497500D01*
X66091282Y-56497500D01*
X65858718Y-56497500D01*
X65858716Y-56497500D01*
X65858704Y-56497501D01*
X65629020Y-56533880D01*
X65629019Y-56533880D01*
X65407838Y-56605746D01*
X65407830Y-56605750D01*
X65200618Y-56711329D01*
X65012473Y-56848025D01*
X65012465Y-56848032D01*
X64848032Y-57012465D01*
X64848025Y-57012473D01*
X64711329Y-57200618D01*
X64605750Y-57407830D01*
X64605746Y-57407838D01*
X64533880Y-57629019D01*
X64533880Y-57629020D01*
X64497501Y-57858704D01*
X64497500Y-57858720D01*
X64497500Y-58091279D01*
X63151900Y-58091279D01*
X63151900Y-55215400D01*
X63170206Y-55171206D01*
X63214400Y-55152900D01*
X129009600Y-55152900D01*
X129053794Y-55171206D01*
G37*
%TD.AperFunction*%
%TD*%
M02*
