%TF.GenerationSoftware,KiCad,Pcbnew,8.0.1*%
%TF.CreationDate,2024-04-26T19:33:56+02:00*%
%TF.ProjectId,lps-1,6c70732d-312e-46b6-9963-61645f706362,1.01*%
%TF.SameCoordinates,Original*%
%TF.FileFunction,Copper,L4,Bot*%
%TF.FilePolarity,Positive*%
%FSLAX46Y46*%
G04 Gerber Fmt 4.6, Leading zero omitted, Abs format (unit mm)*
G04 Created by KiCad (PCBNEW 8.0.1) date 2024-04-26 19:33:56*
%MOMM*%
%LPD*%
G01*
G04 APERTURE LIST*
%TA.AperFunction,ComponentPad*%
%ADD10C,1.700000*%
%TD*%
%TA.AperFunction,ComponentPad*%
%ADD11R,2.000000X1.905000*%
%TD*%
%TA.AperFunction,ComponentPad*%
%ADD12O,2.000000X1.905000*%
%TD*%
%TA.AperFunction,ComponentPad*%
%ADD13R,1.700000X1.700000*%
%TD*%
%TA.AperFunction,ComponentPad*%
%ADD14O,1.700000X1.700000*%
%TD*%
%TA.AperFunction,ComponentPad*%
%ADD15R,1.600000X1.600000*%
%TD*%
%TA.AperFunction,ComponentPad*%
%ADD16C,1.600000*%
%TD*%
%TA.AperFunction,ViaPad*%
%ADD17C,0.800000*%
%TD*%
%TA.AperFunction,Conductor*%
%ADD18C,0.152400*%
%TD*%
%TA.AperFunction,Conductor*%
%ADD19C,0.250000*%
%TD*%
G04 APERTURE END LIST*
D10*
%TO.P,J4,1,Pin_1*%
%TO.N,+3.3V*%
X125540000Y-63550000D03*
%TO.P,J4,2,Pin_2*%
%TO.N,GND*%
X125540000Y-66090000D03*
%TO.P,J4,3,Pin_3*%
%TO.N,/SCL*%
X125540000Y-68630000D03*
%TO.P,J4,4,Pin_4*%
%TO.N,/SDA*%
X125540000Y-71170000D03*
%TO.P,J4,5,Pin_5*%
%TO.N,unconnected-(J4-Pin_5-Pad5)*%
X125540000Y-73710000D03*
%TO.P,J4,6,Pin_6*%
%TO.N,unconnected-(J4-Pin_6-Pad6)*%
X125540000Y-76250000D03*
%TD*%
D11*
%TO.P,U1,1,IN*%
%TO.N,Net-(D1-K)*%
X68550000Y-72379999D03*
D12*
%TO.P,U1,2,GND*%
%TO.N,GND*%
X68550000Y-69839999D03*
%TO.P,U1,3,OUT*%
%TO.N,+5V*%
X68550000Y-67299999D03*
%TD*%
D13*
%TO.P,J5,1,Pin_1*%
%TO.N,/TxD0*%
X112375000Y-59905000D03*
D14*
%TO.P,J5,2,Pin_2*%
%TO.N,/RxD0*%
X112375000Y-57365000D03*
%TO.P,J5,3,Pin_3*%
%TO.N,/MODEM_SLEEP*%
X114915000Y-59905000D03*
%TO.P,J5,4,Pin_4*%
%TO.N,/MODEM_RESET*%
X114915000Y-57365000D03*
%TO.P,J5,5,Pin_5*%
%TO.N,+3.3V*%
X117455000Y-59905000D03*
%TO.P,J5,6,Pin_6*%
%TO.N,GND*%
X117455000Y-57365000D03*
%TD*%
D15*
%TO.P,C6,1*%
%TO.N,+5V*%
X72700000Y-58700000D03*
D16*
%TO.P,C6,2*%
%TO.N,GND*%
X75200000Y-58700000D03*
%TD*%
D13*
%TO.P,J6,1,Pin_1*%
%TO.N,+3.3V*%
X106630000Y-57290000D03*
D14*
%TO.P,J6,2,Pin_2*%
%TO.N,GND*%
X104090000Y-57290000D03*
%TO.P,J6,3,Pin_3*%
%TO.N,/UPDI*%
X101550000Y-57290000D03*
%TO.P,J6,4,Pin_4*%
%TO.N,GND*%
X99010000Y-57290000D03*
%TO.P,J6,5,Pin_5*%
%TO.N,/DIN*%
X96470000Y-57290000D03*
%TO.P,J6,6,Pin_6*%
%TO.N,GND*%
X93930000Y-57290000D03*
%TO.P,J6,7,Pin_7*%
%TO.N,/DOUT*%
X91390000Y-57290000D03*
%TO.P,J6,8,Pin_8*%
%TO.N,GND*%
X88850000Y-57290000D03*
%TD*%
D15*
%TO.P,C1,1*%
%TO.N,Net-(D1-K)*%
X79098257Y-73796363D03*
D16*
%TO.P,C1,2*%
%TO.N,GND*%
X79098257Y-71296363D03*
%TD*%
D13*
%TO.P,J15,1,Pin_1*%
%TO.N,/12VIN*%
X83125000Y-82500000D03*
D14*
%TO.P,J15,2,Pin_2*%
%TO.N,GND*%
X85665000Y-82500000D03*
%TO.P,J15,3,Pin_3*%
%TO.N,+5V*%
X88205000Y-82500000D03*
%TO.P,J15,4,Pin_4*%
%TO.N,GND*%
X90745000Y-82500000D03*
%TO.P,J15,5,Pin_5*%
%TO.N,+3.3V*%
X93285000Y-82500000D03*
%TO.P,J15,6,Pin_6*%
%TO.N,GND*%
X95825000Y-82500000D03*
%TD*%
D17*
%TO.N,+3.3V*%
X107875000Y-62750000D03*
X115300000Y-75850000D03*
X77000000Y-61550000D03*
X86725000Y-72650000D03*
%TO.N,GND*%
X117730000Y-65610000D03*
X117090000Y-77200000D03*
X117740000Y-72980000D03*
X117680000Y-69820000D03*
%TO.N,/SCL*%
X113575000Y-69824997D03*
%TO.N,/SDA*%
X113575000Y-70825000D03*
%TO.N,/UPDI*%
X108794474Y-66357072D03*
%TD*%
D18*
%TO.N,/SCL*%
X125532350Y-68635000D02*
X114764997Y-68635000D01*
X114764997Y-68635000D02*
X113575000Y-69824997D01*
%TO.N,/SDA*%
X113925000Y-71175000D02*
X113575000Y-70825000D01*
X125532350Y-71175000D02*
X113925000Y-71175000D01*
D19*
%TO.N,/UPDI*%
X101550000Y-59112598D02*
X108794474Y-66357072D01*
X101550000Y-57290000D02*
X101550000Y-59112598D01*
%TD*%
%TA.AperFunction,Conductor*%
%TO.N,GND*%
G36*
X129053794Y-55171206D02*
G01*
X129072100Y-55215400D01*
X129072100Y-84784600D01*
X129053794Y-84828794D01*
X129009600Y-84847100D01*
X63214400Y-84847100D01*
X63170206Y-84828794D01*
X63151900Y-84784600D01*
X63151900Y-82141279D01*
X64497500Y-82141279D01*
X64497501Y-82141295D01*
X64533880Y-82370979D01*
X64533880Y-82370980D01*
X64605746Y-82592161D01*
X64605750Y-82592169D01*
X64711329Y-82799381D01*
X64848025Y-82987526D01*
X64848032Y-82987534D01*
X65012465Y-83151967D01*
X65012473Y-83151974D01*
X65142452Y-83246410D01*
X65200621Y-83288672D01*
X65407837Y-83394253D01*
X65629018Y-83466119D01*
X65725829Y-83481452D01*
X65858704Y-83502498D01*
X65858710Y-83502498D01*
X65858718Y-83502500D01*
X65858720Y-83502500D01*
X66091280Y-83502500D01*
X66091282Y-83502500D01*
X66320982Y-83466119D01*
X66542163Y-83394253D01*
X66590257Y-83369748D01*
X82074500Y-83369748D01*
X82086132Y-83428230D01*
X82086133Y-83428232D01*
X82130447Y-83494552D01*
X82196767Y-83538866D01*
X82196769Y-83538867D01*
X82255252Y-83550500D01*
X83994748Y-83550500D01*
X84053231Y-83538867D01*
X84119552Y-83494552D01*
X84163867Y-83428231D01*
X84175500Y-83369748D01*
X84175500Y-82750001D01*
X84334363Y-82750001D01*
X84391567Y-82963487D01*
X84391568Y-82963489D01*
X84491398Y-83177575D01*
X84626892Y-83371081D01*
X84793918Y-83538107D01*
X84987426Y-83673603D01*
X85201503Y-83773428D01*
X85201519Y-83773434D01*
X85414998Y-83830635D01*
X85415000Y-83830634D01*
X85415000Y-82933012D01*
X85472007Y-82965925D01*
X85599174Y-83000000D01*
X85730826Y-83000000D01*
X85857993Y-82965925D01*
X85915000Y-82933012D01*
X85915000Y-83830634D01*
X85915001Y-83830635D01*
X86128480Y-83773434D01*
X86128496Y-83773428D01*
X86342573Y-83673603D01*
X86536081Y-83538107D01*
X86703107Y-83371081D01*
X86838601Y-83177575D01*
X86938431Y-82963489D01*
X86938432Y-82963487D01*
X86995636Y-82750001D01*
X86995636Y-82750000D01*
X86098012Y-82750000D01*
X86130925Y-82692993D01*
X86165000Y-82565826D01*
X86165000Y-82500000D01*
X87149417Y-82500000D01*
X87169699Y-82705930D01*
X87169700Y-82705935D01*
X87229766Y-82903949D01*
X87229768Y-82903954D01*
X87327311Y-83086444D01*
X87327313Y-83086448D01*
X87327315Y-83086450D01*
X87458590Y-83246410D01*
X87618550Y-83377685D01*
X87618553Y-83377686D01*
X87618555Y-83377688D01*
X87649546Y-83394253D01*
X87801046Y-83475232D01*
X87999066Y-83535300D01*
X88205000Y-83555583D01*
X88410934Y-83535300D01*
X88608954Y-83475232D01*
X88791450Y-83377685D01*
X88951410Y-83246410D01*
X89082685Y-83086450D01*
X89180232Y-82903954D01*
X89226933Y-82750001D01*
X89414363Y-82750001D01*
X89471567Y-82963487D01*
X89471568Y-82963489D01*
X89571398Y-83177575D01*
X89706892Y-83371081D01*
X89873918Y-83538107D01*
X90067426Y-83673603D01*
X90281503Y-83773428D01*
X90281519Y-83773434D01*
X90494998Y-83830635D01*
X90495000Y-83830634D01*
X90495000Y-82933012D01*
X90552007Y-82965925D01*
X90679174Y-83000000D01*
X90810826Y-83000000D01*
X90937993Y-82965925D01*
X90995000Y-82933012D01*
X90995000Y-83830634D01*
X90995001Y-83830635D01*
X91208480Y-83773434D01*
X91208496Y-83773428D01*
X91422573Y-83673603D01*
X91616081Y-83538107D01*
X91783107Y-83371081D01*
X91918601Y-83177575D01*
X92018431Y-82963489D01*
X92018432Y-82963487D01*
X92075636Y-82750001D01*
X92075636Y-82750000D01*
X91178012Y-82750000D01*
X91210925Y-82692993D01*
X91245000Y-82565826D01*
X91245000Y-82500000D01*
X92229417Y-82500000D01*
X92249699Y-82705930D01*
X92249700Y-82705935D01*
X92309766Y-82903949D01*
X92309768Y-82903954D01*
X92407311Y-83086444D01*
X92407313Y-83086448D01*
X92407315Y-83086450D01*
X92538590Y-83246410D01*
X92698550Y-83377685D01*
X92698553Y-83377686D01*
X92698555Y-83377688D01*
X92729546Y-83394253D01*
X92881046Y-83475232D01*
X93079066Y-83535300D01*
X93285000Y-83555583D01*
X93490934Y-83535300D01*
X93688954Y-83475232D01*
X93871450Y-83377685D01*
X94031410Y-83246410D01*
X94162685Y-83086450D01*
X94260232Y-82903954D01*
X94306933Y-82750001D01*
X94494363Y-82750001D01*
X94551567Y-82963487D01*
X94551568Y-82963489D01*
X94651398Y-83177575D01*
X94786892Y-83371081D01*
X94953918Y-83538107D01*
X95147426Y-83673603D01*
X95361503Y-83773428D01*
X95361519Y-83773434D01*
X95574998Y-83830635D01*
X95575000Y-83830634D01*
X95575000Y-82933012D01*
X95632007Y-82965925D01*
X95759174Y-83000000D01*
X95890826Y-83000000D01*
X96017993Y-82965925D01*
X96075000Y-82933012D01*
X96075000Y-83830634D01*
X96075001Y-83830635D01*
X96288480Y-83773434D01*
X96288496Y-83773428D01*
X96502573Y-83673603D01*
X96696081Y-83538107D01*
X96863107Y-83371081D01*
X96998601Y-83177575D01*
X97098431Y-82963489D01*
X97098432Y-82963487D01*
X97155636Y-82750001D01*
X97155636Y-82750000D01*
X96258012Y-82750000D01*
X96290925Y-82692993D01*
X96325000Y-82565826D01*
X96325000Y-82434174D01*
X96290925Y-82307007D01*
X96258012Y-82250000D01*
X97155636Y-82250000D01*
X97155636Y-82249998D01*
X97098432Y-82036512D01*
X97098431Y-82036510D01*
X96998600Y-81822422D01*
X96863109Y-81628920D01*
X96696081Y-81461892D01*
X96502575Y-81326398D01*
X96288489Y-81226568D01*
X96288487Y-81226567D01*
X96075001Y-81169363D01*
X96075000Y-81169364D01*
X96075000Y-82066988D01*
X96017993Y-82034075D01*
X95890826Y-82000000D01*
X95759174Y-82000000D01*
X95632007Y-82034075D01*
X95575000Y-82066988D01*
X95575000Y-81169364D01*
X95574998Y-81169363D01*
X95361512Y-81226567D01*
X95361510Y-81226568D01*
X95147422Y-81326399D01*
X94953920Y-81461890D01*
X94786890Y-81628920D01*
X94651399Y-81822422D01*
X94551568Y-82036510D01*
X94551567Y-82036512D01*
X94494363Y-82249998D01*
X94494364Y-82250000D01*
X95391988Y-82250000D01*
X95359075Y-82307007D01*
X95325000Y-82434174D01*
X95325000Y-82565826D01*
X95359075Y-82692993D01*
X95391988Y-82750000D01*
X94494364Y-82750000D01*
X94494363Y-82750001D01*
X94306933Y-82750001D01*
X94320300Y-82705934D01*
X94340583Y-82500000D01*
X94320300Y-82294066D01*
X94260232Y-82096046D01*
X94162685Y-81913550D01*
X94031410Y-81753590D01*
X93940544Y-81679019D01*
X93871455Y-81622319D01*
X93871453Y-81622318D01*
X93871450Y-81622315D01*
X93871448Y-81622313D01*
X93871444Y-81622311D01*
X93688954Y-81524768D01*
X93688949Y-81524766D01*
X93490935Y-81464700D01*
X93490930Y-81464699D01*
X93285000Y-81444417D01*
X93079069Y-81464699D01*
X93079064Y-81464700D01*
X92881050Y-81524766D01*
X92881045Y-81524768D01*
X92698555Y-81622311D01*
X92698544Y-81622319D01*
X92538591Y-81753588D01*
X92538588Y-81753591D01*
X92407319Y-81913544D01*
X92407311Y-81913555D01*
X92309768Y-82096045D01*
X92309766Y-82096050D01*
X92249700Y-82294064D01*
X92249699Y-82294069D01*
X92229417Y-82499999D01*
X92229417Y-82500000D01*
X91245000Y-82500000D01*
X91245000Y-82434174D01*
X91210925Y-82307007D01*
X91178012Y-82250000D01*
X92075636Y-82250000D01*
X92075636Y-82249998D01*
X92018432Y-82036512D01*
X92018431Y-82036510D01*
X91918600Y-81822422D01*
X91783109Y-81628920D01*
X91616081Y-81461892D01*
X91422575Y-81326398D01*
X91208489Y-81226568D01*
X91208487Y-81226567D01*
X90995001Y-81169363D01*
X90995000Y-81169364D01*
X90995000Y-82066988D01*
X90937993Y-82034075D01*
X90810826Y-82000000D01*
X90679174Y-82000000D01*
X90552007Y-82034075D01*
X90495000Y-82066988D01*
X90495000Y-81169364D01*
X90494998Y-81169363D01*
X90281512Y-81226567D01*
X90281510Y-81226568D01*
X90067422Y-81326399D01*
X89873920Y-81461890D01*
X89706890Y-81628920D01*
X89571399Y-81822422D01*
X89471568Y-82036510D01*
X89471567Y-82036512D01*
X89414363Y-82249998D01*
X89414364Y-82250000D01*
X90311988Y-82250000D01*
X90279075Y-82307007D01*
X90245000Y-82434174D01*
X90245000Y-82565826D01*
X90279075Y-82692993D01*
X90311988Y-82750000D01*
X89414364Y-82750000D01*
X89414363Y-82750001D01*
X89226933Y-82750001D01*
X89240300Y-82705934D01*
X89260583Y-82500000D01*
X89240300Y-82294066D01*
X89180232Y-82096046D01*
X89082685Y-81913550D01*
X88951410Y-81753590D01*
X88860544Y-81679019D01*
X88791455Y-81622319D01*
X88791453Y-81622318D01*
X88791450Y-81622315D01*
X88791448Y-81622313D01*
X88791444Y-81622311D01*
X88608954Y-81524768D01*
X88608949Y-81524766D01*
X88410935Y-81464700D01*
X88410930Y-81464699D01*
X88205000Y-81444417D01*
X87999069Y-81464699D01*
X87999064Y-81464700D01*
X87801050Y-81524766D01*
X87801045Y-81524768D01*
X87618555Y-81622311D01*
X87618544Y-81622319D01*
X87458591Y-81753588D01*
X87458588Y-81753591D01*
X87327319Y-81913544D01*
X87327311Y-81913555D01*
X87229768Y-82096045D01*
X87229766Y-82096050D01*
X87169700Y-82294064D01*
X87169699Y-82294069D01*
X87149417Y-82499999D01*
X87149417Y-82500000D01*
X86165000Y-82500000D01*
X86165000Y-82434174D01*
X86130925Y-82307007D01*
X86098012Y-82250000D01*
X86995636Y-82250000D01*
X86995636Y-82249998D01*
X86938432Y-82036512D01*
X86938431Y-82036510D01*
X86838600Y-81822422D01*
X86703109Y-81628920D01*
X86536081Y-81461892D01*
X86342575Y-81326398D01*
X86128489Y-81226568D01*
X86128487Y-81226567D01*
X85915001Y-81169363D01*
X85915000Y-81169364D01*
X85915000Y-82066988D01*
X85857993Y-82034075D01*
X85730826Y-82000000D01*
X85599174Y-82000000D01*
X85472007Y-82034075D01*
X85415000Y-82066988D01*
X85415000Y-81169364D01*
X85414998Y-81169363D01*
X85201512Y-81226567D01*
X85201510Y-81226568D01*
X84987422Y-81326399D01*
X84793920Y-81461890D01*
X84626890Y-81628920D01*
X84491399Y-81822422D01*
X84391568Y-82036510D01*
X84391567Y-82036512D01*
X84334363Y-82249998D01*
X84334364Y-82250000D01*
X85231988Y-82250000D01*
X85199075Y-82307007D01*
X85165000Y-82434174D01*
X85165000Y-82565826D01*
X85199075Y-82692993D01*
X85231988Y-82750000D01*
X84334364Y-82750000D01*
X84334363Y-82750001D01*
X84175500Y-82750001D01*
X84175500Y-81630252D01*
X84163867Y-81571769D01*
X84163866Y-81571767D01*
X84119552Y-81505447D01*
X84053232Y-81461133D01*
X84053230Y-81461132D01*
X83994748Y-81449500D01*
X82255252Y-81449500D01*
X82196769Y-81461132D01*
X82196767Y-81461133D01*
X82130447Y-81505447D01*
X82086133Y-81571767D01*
X82086132Y-81571769D01*
X82074500Y-81630251D01*
X82074500Y-83369748D01*
X66590257Y-83369748D01*
X66749379Y-83288672D01*
X66937527Y-83151974D01*
X67101974Y-82987527D01*
X67238672Y-82799379D01*
X67344253Y-82592163D01*
X67416119Y-82370982D01*
X67452500Y-82141282D01*
X67452500Y-81908718D01*
X67416119Y-81679018D01*
X67344253Y-81457837D01*
X67238672Y-81250621D01*
X67221196Y-81226568D01*
X67101974Y-81062473D01*
X67101967Y-81062465D01*
X66937534Y-80898032D01*
X66937526Y-80898025D01*
X66749381Y-80761329D01*
X66542169Y-80655750D01*
X66542161Y-80655746D01*
X66320980Y-80583880D01*
X66091295Y-80547501D01*
X66091283Y-80547500D01*
X66091282Y-80547500D01*
X65858718Y-80547500D01*
X65858716Y-80547500D01*
X65858704Y-80547501D01*
X65629020Y-80583880D01*
X65629019Y-80583880D01*
X65407838Y-80655746D01*
X65407830Y-80655750D01*
X65200618Y-80761329D01*
X65012473Y-80898025D01*
X65012465Y-80898032D01*
X64848032Y-81062465D01*
X64848025Y-81062473D01*
X64711329Y-81250618D01*
X64605750Y-81457830D01*
X64605746Y-81457838D01*
X64533880Y-81679019D01*
X64533880Y-81679020D01*
X64497501Y-81908704D01*
X64497500Y-81908720D01*
X64497500Y-82141279D01*
X63151900Y-82141279D01*
X63151900Y-80169983D01*
X123634500Y-80169983D01*
X123634501Y-80169999D01*
X123668910Y-80387246D01*
X123668910Y-80387247D01*
X123736886Y-80596455D01*
X123736887Y-80596457D01*
X123767097Y-80655746D01*
X123836751Y-80792449D01*
X123966047Y-80970410D01*
X123966050Y-80970413D01*
X123966053Y-80970417D01*
X124121582Y-81125946D01*
X124121585Y-81125948D01*
X124121590Y-81125953D01*
X124299551Y-81255249D01*
X124495546Y-81355114D01*
X124704751Y-81423089D01*
X124796322Y-81437592D01*
X124922000Y-81457498D01*
X124922006Y-81457498D01*
X124922014Y-81457500D01*
X124922016Y-81457500D01*
X125141984Y-81457500D01*
X125141986Y-81457500D01*
X125359249Y-81423089D01*
X125568454Y-81355114D01*
X125764449Y-81255249D01*
X125942410Y-81125953D01*
X126097953Y-80970410D01*
X126227249Y-80792449D01*
X126327114Y-80596454D01*
X126395089Y-80387249D01*
X126429500Y-80169986D01*
X126429500Y-79950014D01*
X126395089Y-79732751D01*
X126327114Y-79523546D01*
X126227249Y-79327551D01*
X126097953Y-79149590D01*
X126097948Y-79149585D01*
X126097946Y-79149582D01*
X125942417Y-78994053D01*
X125942413Y-78994050D01*
X125942410Y-78994047D01*
X125764449Y-78864751D01*
X125568457Y-78764887D01*
X125568455Y-78764886D01*
X125359247Y-78696910D01*
X125141999Y-78662501D01*
X125141987Y-78662500D01*
X125141986Y-78662500D01*
X124922014Y-78662500D01*
X124922012Y-78662500D01*
X124922000Y-78662501D01*
X124704753Y-78696910D01*
X124704752Y-78696910D01*
X124495544Y-78764886D01*
X124495542Y-78764887D01*
X124299550Y-78864751D01*
X124121582Y-78994053D01*
X123966053Y-79149582D01*
X123836751Y-79327550D01*
X123736887Y-79523542D01*
X123736886Y-79523544D01*
X123668910Y-79732752D01*
X123668910Y-79732753D01*
X123634501Y-79950000D01*
X123634500Y-79950016D01*
X123634500Y-80169983D01*
X63151900Y-80169983D01*
X63151900Y-75850001D01*
X114694318Y-75850001D01*
X114714954Y-76006755D01*
X114714957Y-76006765D01*
X114775462Y-76152838D01*
X114775464Y-76152841D01*
X114871717Y-76278282D01*
X114967971Y-76352139D01*
X114997159Y-76374536D01*
X115143238Y-76435044D01*
X115143242Y-76435044D01*
X115143244Y-76435045D01*
X115299998Y-76455682D01*
X115300000Y-76455682D01*
X115300002Y-76455682D01*
X115456755Y-76435045D01*
X115456755Y-76435044D01*
X115456762Y-76435044D01*
X115602841Y-76374536D01*
X115728282Y-76278282D01*
X115749983Y-76250000D01*
X124484417Y-76250000D01*
X124504699Y-76455930D01*
X124504700Y-76455935D01*
X124564766Y-76653949D01*
X124564768Y-76653954D01*
X124662311Y-76836444D01*
X124662313Y-76836448D01*
X124662315Y-76836450D01*
X124793590Y-76996410D01*
X124953550Y-77127685D01*
X124953553Y-77127686D01*
X124953555Y-77127688D01*
X125028912Y-77167967D01*
X125136046Y-77225232D01*
X125334066Y-77285300D01*
X125540000Y-77305583D01*
X125745934Y-77285300D01*
X125943954Y-77225232D01*
X126126450Y-77127685D01*
X126286410Y-76996410D01*
X126417685Y-76836450D01*
X126515232Y-76653954D01*
X126575300Y-76455934D01*
X126595583Y-76250000D01*
X126575300Y-76044066D01*
X126515232Y-75846046D01*
X126417685Y-75663550D01*
X126286410Y-75503590D01*
X126126450Y-75372315D01*
X126126448Y-75372313D01*
X126126444Y-75372311D01*
X125943954Y-75274768D01*
X125943949Y-75274766D01*
X125745935Y-75214700D01*
X125745930Y-75214699D01*
X125540000Y-75194417D01*
X125334069Y-75214699D01*
X125334064Y-75214700D01*
X125136050Y-75274766D01*
X125136045Y-75274768D01*
X124953555Y-75372311D01*
X124953544Y-75372319D01*
X124793591Y-75503588D01*
X124793588Y-75503591D01*
X124662319Y-75663544D01*
X124662311Y-75663555D01*
X124564768Y-75846045D01*
X124564766Y-75846050D01*
X124504700Y-76044064D01*
X124504699Y-76044069D01*
X124484417Y-76249999D01*
X124484417Y-76250000D01*
X115749983Y-76250000D01*
X115824536Y-76152841D01*
X115885044Y-76006762D01*
X115905682Y-75850000D01*
X115905161Y-75846046D01*
X115885045Y-75693244D01*
X115885044Y-75693242D01*
X115885044Y-75693238D01*
X115824536Y-75547159D01*
X115791105Y-75503591D01*
X115728282Y-75421717D01*
X115602841Y-75325464D01*
X115602838Y-75325462D01*
X115456765Y-75264957D01*
X115456755Y-75264954D01*
X115300002Y-75244318D01*
X115299998Y-75244318D01*
X115143244Y-75264954D01*
X115143234Y-75264957D01*
X114997161Y-75325462D01*
X114997158Y-75325464D01*
X114871717Y-75421717D01*
X114775464Y-75547158D01*
X114775462Y-75547161D01*
X114714957Y-75693234D01*
X114714954Y-75693244D01*
X114694318Y-75849998D01*
X114694318Y-75850001D01*
X63151900Y-75850001D01*
X63151900Y-74616111D01*
X78097757Y-74616111D01*
X78109389Y-74674593D01*
X78109390Y-74674595D01*
X78153704Y-74740915D01*
X78220024Y-74785229D01*
X78220026Y-74785230D01*
X78278509Y-74796863D01*
X79918005Y-74796863D01*
X79976488Y-74785230D01*
X80042809Y-74740915D01*
X80087124Y-74674594D01*
X80098757Y-74616111D01*
X80098757Y-73710000D01*
X124484417Y-73710000D01*
X124504699Y-73915930D01*
X124504700Y-73915935D01*
X124564766Y-74113949D01*
X124564768Y-74113954D01*
X124662311Y-74296444D01*
X124662313Y-74296448D01*
X124662315Y-74296450D01*
X124793590Y-74456410D01*
X124953550Y-74587685D01*
X124953553Y-74587686D01*
X124953555Y-74587688D01*
X125006731Y-74616111D01*
X125136046Y-74685232D01*
X125334066Y-74745300D01*
X125540000Y-74765583D01*
X125745934Y-74745300D01*
X125943954Y-74685232D01*
X126126450Y-74587685D01*
X126286410Y-74456410D01*
X126417685Y-74296450D01*
X126515232Y-74113954D01*
X126575300Y-73915934D01*
X126595583Y-73710000D01*
X126575300Y-73504066D01*
X126515232Y-73306046D01*
X126417685Y-73123550D01*
X126297099Y-72976615D01*
X126286411Y-72963591D01*
X126286408Y-72963588D01*
X126126455Y-72832319D01*
X126126453Y-72832318D01*
X126126450Y-72832315D01*
X126126448Y-72832313D01*
X126126444Y-72832311D01*
X125943954Y-72734768D01*
X125943949Y-72734766D01*
X125745935Y-72674700D01*
X125745930Y-72674699D01*
X125540000Y-72654417D01*
X125334069Y-72674699D01*
X125334064Y-72674700D01*
X125136050Y-72734766D01*
X125136045Y-72734768D01*
X124953555Y-72832311D01*
X124953544Y-72832319D01*
X124793591Y-72963588D01*
X124793588Y-72963591D01*
X124662319Y-73123544D01*
X124662311Y-73123555D01*
X124564768Y-73306045D01*
X124564766Y-73306050D01*
X124504700Y-73504064D01*
X124504699Y-73504069D01*
X124484417Y-73709999D01*
X124484417Y-73710000D01*
X80098757Y-73710000D01*
X80098757Y-72976615D01*
X80087124Y-72918132D01*
X80087123Y-72918130D01*
X80042809Y-72851810D01*
X79976489Y-72807496D01*
X79976487Y-72807495D01*
X79918005Y-72795863D01*
X78278509Y-72795863D01*
X78220026Y-72807495D01*
X78220024Y-72807496D01*
X78153704Y-72851810D01*
X78109390Y-72918130D01*
X78109389Y-72918132D01*
X78097757Y-72976614D01*
X78097757Y-74616111D01*
X63151900Y-74616111D01*
X63151900Y-70089999D01*
X67071490Y-70089999D01*
X67085765Y-70180124D01*
X67085765Y-70180125D01*
X67156415Y-70397563D01*
X67156419Y-70397571D01*
X67260210Y-70601272D01*
X67394601Y-70786246D01*
X67556252Y-70947897D01*
X67741226Y-71082288D01*
X67793279Y-71108811D01*
X67824346Y-71145185D01*
X67820593Y-71192873D01*
X67784219Y-71223940D01*
X67764905Y-71226999D01*
X67530252Y-71226999D01*
X67471769Y-71238631D01*
X67471767Y-71238632D01*
X67405447Y-71282946D01*
X67361133Y-71349266D01*
X67361132Y-71349268D01*
X67349500Y-71407750D01*
X67349500Y-73352247D01*
X67361132Y-73410729D01*
X67361133Y-73410731D01*
X67405447Y-73477051D01*
X67471767Y-73521365D01*
X67471769Y-73521366D01*
X67530252Y-73532999D01*
X69569748Y-73532999D01*
X69628231Y-73521366D01*
X69694552Y-73477051D01*
X69738867Y-73410730D01*
X69750500Y-73352247D01*
X69750500Y-72650001D01*
X86119318Y-72650001D01*
X86139954Y-72806755D01*
X86139957Y-72806765D01*
X86200462Y-72952838D01*
X86200464Y-72952841D01*
X86296717Y-73078282D01*
X86355719Y-73123555D01*
X86422159Y-73174536D01*
X86568238Y-73235044D01*
X86568242Y-73235044D01*
X86568244Y-73235045D01*
X86724998Y-73255682D01*
X86725000Y-73255682D01*
X86725002Y-73255682D01*
X86881755Y-73235045D01*
X86881755Y-73235044D01*
X86881762Y-73235044D01*
X87027841Y-73174536D01*
X87153282Y-73078282D01*
X87249536Y-72952841D01*
X87310044Y-72806762D01*
X87319522Y-72734768D01*
X87330682Y-72650001D01*
X87330682Y-72649998D01*
X87310045Y-72493244D01*
X87310044Y-72493242D01*
X87310044Y-72493238D01*
X87261229Y-72375388D01*
X87249537Y-72347161D01*
X87249535Y-72347158D01*
X87153282Y-72221717D01*
X87027841Y-72125464D01*
X87027838Y-72125462D01*
X86881765Y-72064957D01*
X86881755Y-72064954D01*
X86725002Y-72044318D01*
X86724998Y-72044318D01*
X86568244Y-72064954D01*
X86568234Y-72064957D01*
X86422161Y-72125462D01*
X86422158Y-72125464D01*
X86296717Y-72221717D01*
X86200464Y-72347158D01*
X86200462Y-72347161D01*
X86139957Y-72493234D01*
X86139954Y-72493244D01*
X86119318Y-72649998D01*
X86119318Y-72650001D01*
X69750500Y-72650001D01*
X69750500Y-71407751D01*
X69738867Y-71349268D01*
X69703518Y-71296365D01*
X77793291Y-71296365D01*
X77813115Y-71522964D01*
X77813118Y-71522980D01*
X77871988Y-71742684D01*
X77871989Y-71742686D01*
X77968121Y-71948842D01*
X78019231Y-72021834D01*
X78698257Y-71342808D01*
X78698257Y-71349024D01*
X78725516Y-71450757D01*
X78778177Y-71541969D01*
X78852651Y-71616443D01*
X78943863Y-71669104D01*
X79045596Y-71696363D01*
X79051810Y-71696363D01*
X78372784Y-72375387D01*
X78445774Y-72426497D01*
X78651933Y-72522630D01*
X78651935Y-72522631D01*
X78871639Y-72581501D01*
X78871655Y-72581504D01*
X79098255Y-72601329D01*
X79098259Y-72601329D01*
X79324858Y-72581504D01*
X79324874Y-72581501D01*
X79544578Y-72522631D01*
X79544580Y-72522630D01*
X79750741Y-72426496D01*
X79750744Y-72426494D01*
X79823728Y-72375388D01*
X79823729Y-72375388D01*
X79144704Y-71696363D01*
X79150918Y-71696363D01*
X79252651Y-71669104D01*
X79343863Y-71616443D01*
X79418337Y-71541969D01*
X79470998Y-71450757D01*
X79498257Y-71349024D01*
X79498257Y-71342810D01*
X80177282Y-72021835D01*
X80177282Y-72021834D01*
X80228388Y-71948850D01*
X80228390Y-71948847D01*
X80324524Y-71742686D01*
X80324525Y-71742684D01*
X80383395Y-71522980D01*
X80383398Y-71522964D01*
X80403223Y-71296365D01*
X80403223Y-71296360D01*
X80383398Y-71069761D01*
X80383395Y-71069745D01*
X80324525Y-70850041D01*
X80324524Y-70850039D01*
X80312849Y-70825001D01*
X112969318Y-70825001D01*
X112989954Y-70981755D01*
X112989957Y-70981765D01*
X113050462Y-71127838D01*
X113050464Y-71127841D01*
X113146717Y-71253282D01*
X113185378Y-71282947D01*
X113272159Y-71349536D01*
X113418238Y-71410044D01*
X113418242Y-71410044D01*
X113418244Y-71410045D01*
X113574998Y-71430682D01*
X113575000Y-71430682D01*
X113575002Y-71430682D01*
X113731756Y-71410045D01*
X113731757Y-71410044D01*
X113731762Y-71410044D01*
X113731766Y-71410042D01*
X113735717Y-71408984D01*
X113736128Y-71410520D01*
X113778444Y-71410512D01*
X113785789Y-71414133D01*
X113814452Y-71430682D01*
X113818197Y-71432844D01*
X113888572Y-71451700D01*
X124481330Y-71451700D01*
X124525524Y-71470006D01*
X124541137Y-71496055D01*
X124564768Y-71573954D01*
X124564769Y-71573957D01*
X124662311Y-71756444D01*
X124662313Y-71756448D01*
X124662315Y-71756450D01*
X124793590Y-71916410D01*
X124953550Y-72047685D01*
X124953553Y-72047686D01*
X124953555Y-72047688D01*
X124985861Y-72064956D01*
X125136046Y-72145232D01*
X125334066Y-72205300D01*
X125540000Y-72225583D01*
X125745934Y-72205300D01*
X125943954Y-72145232D01*
X126126450Y-72047685D01*
X126286410Y-71916410D01*
X126417685Y-71756450D01*
X126515232Y-71573954D01*
X126575300Y-71375934D01*
X126595583Y-71170000D01*
X126575300Y-70964066D01*
X126515232Y-70766046D01*
X126417685Y-70583550D01*
X126286410Y-70423590D01*
X126253666Y-70396718D01*
X126126455Y-70292319D01*
X126126453Y-70292318D01*
X126126450Y-70292315D01*
X126126448Y-70292313D01*
X126126444Y-70292311D01*
X125943954Y-70194768D01*
X125943949Y-70194766D01*
X125745935Y-70134700D01*
X125745930Y-70134699D01*
X125540000Y-70114417D01*
X125334069Y-70134699D01*
X125334064Y-70134700D01*
X125136050Y-70194766D01*
X125136045Y-70194768D01*
X124953555Y-70292311D01*
X124953544Y-70292319D01*
X124793591Y-70423588D01*
X124793588Y-70423591D01*
X124662319Y-70583544D01*
X124662311Y-70583555D01*
X124564766Y-70766050D01*
X124538105Y-70853942D01*
X124507759Y-70890920D01*
X124478296Y-70898300D01*
X114242299Y-70898300D01*
X114198105Y-70879994D01*
X114179799Y-70835800D01*
X114180333Y-70827648D01*
X114180682Y-70825000D01*
X114160044Y-70668238D01*
X114099536Y-70522159D01*
X114003282Y-70396718D01*
X114003279Y-70396716D01*
X114003278Y-70396714D01*
X113974434Y-70374581D01*
X113950517Y-70333154D01*
X113962898Y-70286949D01*
X113974427Y-70275419D01*
X114003282Y-70253279D01*
X114099536Y-70127838D01*
X114160044Y-69981759D01*
X114180682Y-69824997D01*
X114160044Y-69668235D01*
X114159766Y-69666123D01*
X114172146Y-69619917D01*
X114177529Y-69613779D01*
X114861304Y-68930006D01*
X114905498Y-68911700D01*
X124481330Y-68911700D01*
X124525524Y-68930006D01*
X124541137Y-68956055D01*
X124564768Y-69033954D01*
X124564769Y-69033957D01*
X124662311Y-69216444D01*
X124662319Y-69216455D01*
X124793588Y-69376408D01*
X124793591Y-69376411D01*
X124818332Y-69396715D01*
X124953550Y-69507685D01*
X124953553Y-69507686D01*
X124953555Y-69507688D01*
X125028912Y-69547967D01*
X125136046Y-69605232D01*
X125334066Y-69665300D01*
X125540000Y-69685583D01*
X125745934Y-69665300D01*
X125943954Y-69605232D01*
X126126450Y-69507685D01*
X126286410Y-69376410D01*
X126417685Y-69216450D01*
X126515232Y-69033954D01*
X126575300Y-68835934D01*
X126595583Y-68630000D01*
X126575300Y-68424066D01*
X126515232Y-68226046D01*
X126457967Y-68118912D01*
X126417688Y-68043555D01*
X126417686Y-68043553D01*
X126417685Y-68043550D01*
X126286410Y-67883590D01*
X126126450Y-67752315D01*
X126126448Y-67752313D01*
X126126444Y-67752311D01*
X125943954Y-67654768D01*
X125943949Y-67654766D01*
X125745935Y-67594700D01*
X125745930Y-67594699D01*
X125540000Y-67574417D01*
X125334069Y-67594699D01*
X125334064Y-67594700D01*
X125136050Y-67654766D01*
X125136045Y-67654768D01*
X124953555Y-67752311D01*
X124953544Y-67752319D01*
X124793591Y-67883588D01*
X124793588Y-67883591D01*
X124662319Y-68043544D01*
X124662311Y-68043555D01*
X124564766Y-68226050D01*
X124538105Y-68313942D01*
X124507759Y-68350920D01*
X124478296Y-68358300D01*
X114801425Y-68358300D01*
X114728569Y-68358300D01*
X114728568Y-68358300D01*
X114728562Y-68358301D01*
X114658194Y-68377155D01*
X114658192Y-68377156D01*
X114595099Y-68413584D01*
X114595093Y-68413589D01*
X113786223Y-69222459D01*
X113742029Y-69240765D01*
X113733871Y-69240230D01*
X113575002Y-69219315D01*
X113574998Y-69219315D01*
X113418244Y-69239951D01*
X113418234Y-69239954D01*
X113272161Y-69300459D01*
X113272158Y-69300461D01*
X113146717Y-69396714D01*
X113050464Y-69522155D01*
X113050462Y-69522158D01*
X112989957Y-69668231D01*
X112989954Y-69668241D01*
X112969318Y-69824995D01*
X112969318Y-69824998D01*
X112989954Y-69981752D01*
X112989957Y-69981762D01*
X113044904Y-70114417D01*
X113050464Y-70127838D01*
X113146718Y-70253279D01*
X113146719Y-70253280D01*
X113146721Y-70253282D01*
X113175563Y-70275413D01*
X113199481Y-70316840D01*
X113187101Y-70363045D01*
X113175564Y-70374582D01*
X113146722Y-70396714D01*
X113146720Y-70396716D01*
X113146718Y-70396718D01*
X113126098Y-70423591D01*
X113050462Y-70522162D01*
X112989957Y-70668234D01*
X112989954Y-70668244D01*
X112969318Y-70824998D01*
X112969318Y-70825001D01*
X80312849Y-70825001D01*
X80228391Y-70643880D01*
X80177281Y-70570890D01*
X79498257Y-71249914D01*
X79498257Y-71243702D01*
X79470998Y-71141969D01*
X79418337Y-71050757D01*
X79343863Y-70976283D01*
X79252651Y-70923622D01*
X79150918Y-70896363D01*
X79144702Y-70896363D01*
X79823729Y-70217337D01*
X79750736Y-70166227D01*
X79544580Y-70070095D01*
X79544578Y-70070094D01*
X79324874Y-70011224D01*
X79324858Y-70011221D01*
X79098259Y-69991397D01*
X79098255Y-69991397D01*
X78871655Y-70011221D01*
X78871639Y-70011224D01*
X78651935Y-70070094D01*
X78651933Y-70070095D01*
X78445774Y-70166228D01*
X78372784Y-70217336D01*
X78372783Y-70217336D01*
X79051810Y-70896363D01*
X79045596Y-70896363D01*
X78943863Y-70923622D01*
X78852651Y-70976283D01*
X78778177Y-71050757D01*
X78725516Y-71141969D01*
X78698257Y-71243702D01*
X78698257Y-71249916D01*
X78019230Y-70570889D01*
X78019230Y-70570890D01*
X77968122Y-70643880D01*
X77871989Y-70850039D01*
X77871988Y-70850041D01*
X77813118Y-71069745D01*
X77813115Y-71069761D01*
X77793291Y-71296360D01*
X77793291Y-71296365D01*
X69703518Y-71296365D01*
X69694552Y-71282946D01*
X69628232Y-71238632D01*
X69628230Y-71238631D01*
X69569748Y-71226999D01*
X69335095Y-71226999D01*
X69290901Y-71208693D01*
X69272595Y-71164499D01*
X69290901Y-71120305D01*
X69306721Y-71108811D01*
X69358773Y-71082288D01*
X69543747Y-70947897D01*
X69705398Y-70786246D01*
X69839789Y-70601272D01*
X69943580Y-70397571D01*
X69943584Y-70397563D01*
X70014234Y-70180125D01*
X70014234Y-70180124D01*
X70028509Y-70089999D01*
X69040748Y-70089999D01*
X69062518Y-70052291D01*
X69100000Y-69912408D01*
X69100000Y-69767590D01*
X69062518Y-69627707D01*
X69040748Y-69589999D01*
X70028509Y-69589999D01*
X70028509Y-69589998D01*
X70014234Y-69499873D01*
X70014234Y-69499872D01*
X69943584Y-69282434D01*
X69943580Y-69282426D01*
X69839789Y-69078725D01*
X69705398Y-68893751D01*
X69543747Y-68732100D01*
X69358773Y-68597709D01*
X69155072Y-68493918D01*
X69155064Y-68493914D01*
X69078101Y-68468907D01*
X69041727Y-68437840D01*
X69037974Y-68390152D01*
X69069039Y-68353779D01*
X69201804Y-68286133D01*
X69348629Y-68179458D01*
X69476959Y-68051128D01*
X69583634Y-67904303D01*
X69666027Y-67742597D01*
X69722109Y-67569994D01*
X69750500Y-67390742D01*
X69750500Y-67209256D01*
X69722109Y-67030004D01*
X69666027Y-66857401D01*
X69583634Y-66695695D01*
X69476959Y-66548870D01*
X69476952Y-66548862D01*
X69348636Y-66420546D01*
X69348628Y-66420539D01*
X69201806Y-66313866D01*
X69040104Y-66231475D01*
X69040096Y-66231471D01*
X68867493Y-66175389D01*
X68688256Y-66147000D01*
X68688244Y-66146999D01*
X68688243Y-66146999D01*
X68411757Y-66146999D01*
X68411755Y-66146999D01*
X68411743Y-66147000D01*
X68232507Y-66175389D01*
X68232506Y-66175389D01*
X68059903Y-66231471D01*
X68059895Y-66231475D01*
X67898193Y-66313866D01*
X67751371Y-66420539D01*
X67751363Y-66420546D01*
X67623047Y-66548862D01*
X67623040Y-66548870D01*
X67516367Y-66695692D01*
X67433976Y-66857394D01*
X67433972Y-66857402D01*
X67377890Y-67030005D01*
X67377890Y-67030006D01*
X67349501Y-67209242D01*
X67349500Y-67209258D01*
X67349500Y-67390739D01*
X67349501Y-67390755D01*
X67377890Y-67569991D01*
X67377890Y-67569992D01*
X67433972Y-67742595D01*
X67433976Y-67742603D01*
X67516367Y-67904305D01*
X67623040Y-68051127D01*
X67623047Y-68051135D01*
X67751363Y-68179451D01*
X67751371Y-68179458D01*
X67898196Y-68286133D01*
X68030958Y-68353778D01*
X68062025Y-68390152D01*
X68058272Y-68437840D01*
X68021898Y-68468907D01*
X67944936Y-68493914D01*
X67944927Y-68493918D01*
X67741226Y-68597709D01*
X67556252Y-68732100D01*
X67394601Y-68893751D01*
X67260210Y-69078725D01*
X67156419Y-69282426D01*
X67156415Y-69282434D01*
X67085765Y-69499872D01*
X67085765Y-69499873D01*
X67071490Y-69589998D01*
X67071491Y-69589999D01*
X68059252Y-69589999D01*
X68037482Y-69627707D01*
X68000000Y-69767590D01*
X68000000Y-69912408D01*
X68037482Y-70052291D01*
X68059252Y-70089999D01*
X67071490Y-70089999D01*
X63151900Y-70089999D01*
X63151900Y-61550001D01*
X76394318Y-61550001D01*
X76414954Y-61706755D01*
X76414957Y-61706765D01*
X76475462Y-61852838D01*
X76475464Y-61852841D01*
X76571717Y-61978282D01*
X76667971Y-62052139D01*
X76697159Y-62074536D01*
X76843238Y-62135044D01*
X76843242Y-62135044D01*
X76843244Y-62135045D01*
X76999998Y-62155682D01*
X77000000Y-62155682D01*
X77000002Y-62155682D01*
X77156755Y-62135045D01*
X77156755Y-62135044D01*
X77156762Y-62135044D01*
X77302841Y-62074536D01*
X77428282Y-61978282D01*
X77524536Y-61852841D01*
X77585044Y-61706762D01*
X77605682Y-61550000D01*
X77585044Y-61393238D01*
X77524536Y-61247159D01*
X77502139Y-61217971D01*
X77428282Y-61121717D01*
X77302841Y-61025464D01*
X77302838Y-61025462D01*
X77156765Y-60964957D01*
X77156755Y-60964954D01*
X77000002Y-60944318D01*
X76999998Y-60944318D01*
X76843244Y-60964954D01*
X76843234Y-60964957D01*
X76697161Y-61025462D01*
X76697158Y-61025464D01*
X76571717Y-61121717D01*
X76475464Y-61247158D01*
X76475462Y-61247161D01*
X76414957Y-61393234D01*
X76414954Y-61393244D01*
X76394318Y-61549998D01*
X76394318Y-61550001D01*
X63151900Y-61550001D01*
X63151900Y-59519748D01*
X71699500Y-59519748D01*
X71711132Y-59578230D01*
X71711133Y-59578232D01*
X71755447Y-59644552D01*
X71821767Y-59688866D01*
X71821769Y-59688867D01*
X71880252Y-59700500D01*
X73519748Y-59700500D01*
X73578231Y-59688867D01*
X73644552Y-59644552D01*
X73688867Y-59578231D01*
X73700500Y-59519748D01*
X73700500Y-58700002D01*
X73895034Y-58700002D01*
X73914858Y-58926601D01*
X73914861Y-58926617D01*
X73973731Y-59146321D01*
X73973732Y-59146323D01*
X74069864Y-59352479D01*
X74120974Y-59425471D01*
X74800000Y-58746445D01*
X74800000Y-58752661D01*
X74827259Y-58854394D01*
X74879920Y-58945606D01*
X74954394Y-59020080D01*
X75045606Y-59072741D01*
X75147339Y-59100000D01*
X75153553Y-59100000D01*
X74474527Y-59779024D01*
X74547517Y-59830134D01*
X74753676Y-59926267D01*
X74753678Y-59926268D01*
X74973382Y-59985138D01*
X74973398Y-59985141D01*
X75199998Y-60004966D01*
X75200002Y-60004966D01*
X75426601Y-59985141D01*
X75426617Y-59985138D01*
X75646321Y-59926268D01*
X75646323Y-59926267D01*
X75852484Y-59830133D01*
X75852487Y-59830131D01*
X75925471Y-59779025D01*
X75925472Y-59779025D01*
X75246447Y-59100000D01*
X75252661Y-59100000D01*
X75354394Y-59072741D01*
X75445606Y-59020080D01*
X75520080Y-58945606D01*
X75572741Y-58854394D01*
X75600000Y-58752661D01*
X75600000Y-58746447D01*
X76279025Y-59425472D01*
X76279025Y-59425471D01*
X76330131Y-59352487D01*
X76330133Y-59352484D01*
X76426267Y-59146323D01*
X76426268Y-59146321D01*
X76485138Y-58926617D01*
X76485141Y-58926601D01*
X76504966Y-58700002D01*
X76504966Y-58699997D01*
X76485141Y-58473398D01*
X76485138Y-58473382D01*
X76426268Y-58253678D01*
X76426267Y-58253676D01*
X76330134Y-58047517D01*
X76279024Y-57974527D01*
X75600000Y-58653551D01*
X75600000Y-58647339D01*
X75572741Y-58545606D01*
X75520080Y-58454394D01*
X75445606Y-58379920D01*
X75354394Y-58327259D01*
X75252661Y-58300000D01*
X75246445Y-58300000D01*
X75925472Y-57620974D01*
X75852479Y-57569864D01*
X75788438Y-57540001D01*
X87519363Y-57540001D01*
X87576567Y-57753487D01*
X87576568Y-57753489D01*
X87676398Y-57967575D01*
X87811892Y-58161081D01*
X87978918Y-58328107D01*
X88172426Y-58463603D01*
X88386503Y-58563428D01*
X88386519Y-58563434D01*
X88599998Y-58620635D01*
X88600000Y-58620634D01*
X88600000Y-57723012D01*
X88657007Y-57755925D01*
X88784174Y-57790000D01*
X88915826Y-57790000D01*
X89042993Y-57755925D01*
X89100000Y-57723012D01*
X89100000Y-58620634D01*
X89100001Y-58620635D01*
X89313480Y-58563434D01*
X89313496Y-58563428D01*
X89527573Y-58463603D01*
X89721081Y-58328107D01*
X89888107Y-58161081D01*
X90023601Y-57967575D01*
X90123431Y-57753489D01*
X90123432Y-57753487D01*
X90180636Y-57540001D01*
X90180636Y-57540000D01*
X89283012Y-57540000D01*
X89315925Y-57482993D01*
X89350000Y-57355826D01*
X89350000Y-57290000D01*
X90334417Y-57290000D01*
X90354699Y-57495930D01*
X90354700Y-57495935D01*
X90414766Y-57693949D01*
X90414768Y-57693954D01*
X90512311Y-57876444D01*
X90512319Y-57876455D01*
X90643588Y-58036408D01*
X90643591Y-58036411D01*
X90755951Y-58128622D01*
X90803550Y-58167685D01*
X90803553Y-58167686D01*
X90803555Y-58167688D01*
X90878912Y-58207967D01*
X90986046Y-58265232D01*
X91184066Y-58325300D01*
X91390000Y-58345583D01*
X91595934Y-58325300D01*
X91793954Y-58265232D01*
X91976450Y-58167685D01*
X92136410Y-58036410D01*
X92267685Y-57876450D01*
X92365232Y-57693954D01*
X92411933Y-57540001D01*
X92599363Y-57540001D01*
X92656567Y-57753487D01*
X92656568Y-57753489D01*
X92756398Y-57967575D01*
X92891892Y-58161081D01*
X93058918Y-58328107D01*
X93252426Y-58463603D01*
X93466503Y-58563428D01*
X93466519Y-58563434D01*
X93679998Y-58620635D01*
X93680000Y-58620634D01*
X93680000Y-57723012D01*
X93737007Y-57755925D01*
X93864174Y-57790000D01*
X93995826Y-57790000D01*
X94122993Y-57755925D01*
X94180000Y-57723012D01*
X94180000Y-58620634D01*
X94180001Y-58620635D01*
X94393480Y-58563434D01*
X94393496Y-58563428D01*
X94607573Y-58463603D01*
X94801081Y-58328107D01*
X94968107Y-58161081D01*
X95103601Y-57967575D01*
X95203431Y-57753489D01*
X95203432Y-57753487D01*
X95260636Y-57540001D01*
X95260636Y-57540000D01*
X94363012Y-57540000D01*
X94395925Y-57482993D01*
X94430000Y-57355826D01*
X94430000Y-57290000D01*
X95414417Y-57290000D01*
X95434699Y-57495930D01*
X95434700Y-57495935D01*
X95494766Y-57693949D01*
X95494768Y-57693954D01*
X95592311Y-57876444D01*
X95592319Y-57876455D01*
X95723588Y-58036408D01*
X95723591Y-58036411D01*
X95835951Y-58128622D01*
X95883550Y-58167685D01*
X95883553Y-58167686D01*
X95883555Y-58167688D01*
X95958912Y-58207967D01*
X96066046Y-58265232D01*
X96264066Y-58325300D01*
X96470000Y-58345583D01*
X96675934Y-58325300D01*
X96873954Y-58265232D01*
X97056450Y-58167685D01*
X97216410Y-58036410D01*
X97347685Y-57876450D01*
X97445232Y-57693954D01*
X97491933Y-57540001D01*
X97679363Y-57540001D01*
X97736567Y-57753487D01*
X97736568Y-57753489D01*
X97836398Y-57967575D01*
X97971892Y-58161081D01*
X98138918Y-58328107D01*
X98332426Y-58463603D01*
X98546503Y-58563428D01*
X98546519Y-58563434D01*
X98759998Y-58620635D01*
X98760000Y-58620634D01*
X98760000Y-57723012D01*
X98817007Y-57755925D01*
X98944174Y-57790000D01*
X99075826Y-57790000D01*
X99202993Y-57755925D01*
X99260000Y-57723012D01*
X99260000Y-58620634D01*
X99260001Y-58620635D01*
X99473480Y-58563434D01*
X99473496Y-58563428D01*
X99687573Y-58463603D01*
X99881081Y-58328107D01*
X100048107Y-58161081D01*
X100183601Y-57967575D01*
X100283431Y-57753489D01*
X100283432Y-57753487D01*
X100340636Y-57540001D01*
X100340636Y-57540000D01*
X99443012Y-57540000D01*
X99475925Y-57482993D01*
X99510000Y-57355826D01*
X99510000Y-57290000D01*
X100494417Y-57290000D01*
X100514699Y-57495930D01*
X100514700Y-57495935D01*
X100574766Y-57693949D01*
X100574768Y-57693954D01*
X100672311Y-57876444D01*
X100672319Y-57876455D01*
X100803588Y-58036408D01*
X100803591Y-58036411D01*
X100915951Y-58128622D01*
X100963550Y-58167685D01*
X100963553Y-58167686D01*
X100963555Y-58167688D01*
X101023308Y-58199626D01*
X101146046Y-58265232D01*
X101146048Y-58265232D01*
X101146051Y-58265234D01*
X101167790Y-58271827D01*
X101180141Y-58275574D01*
X101217119Y-58305919D01*
X101224500Y-58335383D01*
X101224500Y-59155449D01*
X101224501Y-59155457D01*
X101246680Y-59238233D01*
X101246684Y-59238242D01*
X101289532Y-59312456D01*
X101289539Y-59312465D01*
X108183907Y-66206832D01*
X108202213Y-66251026D01*
X108201678Y-66259183D01*
X108188792Y-66357068D01*
X108188792Y-66357074D01*
X108209428Y-66513827D01*
X108209431Y-66513837D01*
X108269936Y-66659910D01*
X108269938Y-66659913D01*
X108366191Y-66785354D01*
X108452230Y-66851373D01*
X108491633Y-66881608D01*
X108637712Y-66942116D01*
X108637716Y-66942116D01*
X108637718Y-66942117D01*
X108794472Y-66962754D01*
X108794474Y-66962754D01*
X108794476Y-66962754D01*
X108951229Y-66942117D01*
X108951229Y-66942116D01*
X108951236Y-66942116D01*
X109097315Y-66881608D01*
X109222756Y-66785354D01*
X109319010Y-66659913D01*
X109379518Y-66513834D01*
X109391800Y-66420540D01*
X109400156Y-66357073D01*
X109400156Y-66357070D01*
X109379519Y-66200316D01*
X109379518Y-66200314D01*
X109379518Y-66200310D01*
X109333827Y-66090002D01*
X124184843Y-66090002D01*
X124205430Y-66325317D01*
X124205433Y-66325333D01*
X124266567Y-66553487D01*
X124266568Y-66553489D01*
X124366399Y-66767578D01*
X124425072Y-66851372D01*
X124425072Y-66851373D01*
X125057037Y-66219407D01*
X125074075Y-66282993D01*
X125139901Y-66397007D01*
X125232993Y-66490099D01*
X125347007Y-66555925D01*
X125410590Y-66572962D01*
X124778625Y-67204926D01*
X124862422Y-67263600D01*
X124862420Y-67263600D01*
X125076510Y-67363431D01*
X125076512Y-67363432D01*
X125304666Y-67424566D01*
X125304682Y-67424569D01*
X125539998Y-67445157D01*
X125540002Y-67445157D01*
X125775317Y-67424569D01*
X125775333Y-67424566D01*
X126003487Y-67363432D01*
X126003489Y-67363431D01*
X126217575Y-67263601D01*
X126301372Y-67204925D01*
X125669409Y-66572962D01*
X125732993Y-66555925D01*
X125847007Y-66490099D01*
X125940099Y-66397007D01*
X126005925Y-66282993D01*
X126022962Y-66219409D01*
X126654925Y-66851372D01*
X126713601Y-66767575D01*
X126813431Y-66553489D01*
X126813432Y-66553487D01*
X126874566Y-66325333D01*
X126874569Y-66325317D01*
X126895157Y-66090002D01*
X126895157Y-66089997D01*
X126874569Y-65854682D01*
X126874566Y-65854666D01*
X126813432Y-65626512D01*
X126813431Y-65626510D01*
X126713600Y-65412422D01*
X126654926Y-65328625D01*
X126022962Y-65960589D01*
X126005925Y-65897007D01*
X125940099Y-65782993D01*
X125847007Y-65689901D01*
X125732993Y-65624075D01*
X125669407Y-65607037D01*
X126301373Y-64975072D01*
X126217577Y-64916399D01*
X126217579Y-64916399D01*
X126003489Y-64816568D01*
X126003487Y-64816567D01*
X125775333Y-64755433D01*
X125775317Y-64755430D01*
X125540002Y-64734843D01*
X125539998Y-64734843D01*
X125304682Y-64755430D01*
X125304666Y-64755433D01*
X125076512Y-64816567D01*
X125076510Y-64816568D01*
X124862426Y-64916397D01*
X124778626Y-64975073D01*
X125410590Y-65607037D01*
X125347007Y-65624075D01*
X125232993Y-65689901D01*
X125139901Y-65782993D01*
X125074075Y-65897007D01*
X125057037Y-65960590D01*
X124425073Y-65328626D01*
X124366397Y-65412426D01*
X124266568Y-65626510D01*
X124266567Y-65626512D01*
X124205433Y-65854666D01*
X124205430Y-65854682D01*
X124184843Y-66089997D01*
X124184843Y-66090002D01*
X109333827Y-66090002D01*
X109319010Y-66054231D01*
X109295947Y-66024174D01*
X109222756Y-65928789D01*
X109097315Y-65832536D01*
X109097312Y-65832534D01*
X108951239Y-65772029D01*
X108951229Y-65772026D01*
X108794476Y-65751390D01*
X108794471Y-65751390D01*
X108696585Y-65764276D01*
X108650380Y-65751895D01*
X108644234Y-65746505D01*
X106447729Y-63550000D01*
X124484417Y-63550000D01*
X124504699Y-63755930D01*
X124504700Y-63755935D01*
X124564766Y-63953949D01*
X124564768Y-63953954D01*
X124662311Y-64136444D01*
X124662313Y-64136448D01*
X124662315Y-64136450D01*
X124793590Y-64296410D01*
X124953550Y-64427685D01*
X124953553Y-64427686D01*
X124953555Y-64427688D01*
X125028912Y-64467967D01*
X125136046Y-64525232D01*
X125334066Y-64585300D01*
X125540000Y-64605583D01*
X125745934Y-64585300D01*
X125943954Y-64525232D01*
X126126450Y-64427685D01*
X126286410Y-64296410D01*
X126417685Y-64136450D01*
X126515232Y-63953954D01*
X126575300Y-63755934D01*
X126595583Y-63550000D01*
X126575300Y-63344066D01*
X126515232Y-63146046D01*
X126417685Y-62963550D01*
X126286410Y-62803590D01*
X126221111Y-62750001D01*
X126126455Y-62672319D01*
X126126453Y-62672318D01*
X126126450Y-62672315D01*
X126126448Y-62672313D01*
X126126444Y-62672311D01*
X125943954Y-62574768D01*
X125943949Y-62574766D01*
X125745935Y-62514700D01*
X125745930Y-62514699D01*
X125540000Y-62494417D01*
X125334069Y-62514699D01*
X125334064Y-62514700D01*
X125136050Y-62574766D01*
X125136045Y-62574768D01*
X124953555Y-62672311D01*
X124953544Y-62672319D01*
X124793591Y-62803588D01*
X124793588Y-62803591D01*
X124662319Y-62963544D01*
X124662311Y-62963555D01*
X124564768Y-63146045D01*
X124564766Y-63146050D01*
X124504700Y-63344064D01*
X124504699Y-63344069D01*
X124484417Y-63549999D01*
X124484417Y-63550000D01*
X106447729Y-63550000D01*
X105647730Y-62750001D01*
X107269318Y-62750001D01*
X107289954Y-62906755D01*
X107289957Y-62906765D01*
X107350462Y-63052838D01*
X107350464Y-63052841D01*
X107446717Y-63178282D01*
X107542971Y-63252139D01*
X107572159Y-63274536D01*
X107718238Y-63335044D01*
X107718242Y-63335044D01*
X107718244Y-63335045D01*
X107874998Y-63355682D01*
X107875000Y-63355682D01*
X107875002Y-63355682D01*
X108031755Y-63335045D01*
X108031755Y-63335044D01*
X108031762Y-63335044D01*
X108177841Y-63274536D01*
X108303282Y-63178282D01*
X108399536Y-63052841D01*
X108460044Y-62906762D01*
X108480682Y-62750000D01*
X108460044Y-62593238D01*
X108399536Y-62447159D01*
X108377139Y-62417971D01*
X108303282Y-62321717D01*
X108177841Y-62225464D01*
X108177838Y-62225462D01*
X108031765Y-62164957D01*
X108031755Y-62164954D01*
X107875002Y-62144318D01*
X107874998Y-62144318D01*
X107718244Y-62164954D01*
X107718234Y-62164957D01*
X107572161Y-62225462D01*
X107572158Y-62225464D01*
X107446717Y-62321717D01*
X107350464Y-62447158D01*
X107350462Y-62447161D01*
X107289957Y-62593234D01*
X107289954Y-62593244D01*
X107269318Y-62749998D01*
X107269318Y-62750001D01*
X105647730Y-62750001D01*
X103672477Y-60774748D01*
X111324500Y-60774748D01*
X111336132Y-60833230D01*
X111336133Y-60833232D01*
X111380447Y-60899552D01*
X111446767Y-60943866D01*
X111446769Y-60943867D01*
X111505252Y-60955500D01*
X113244748Y-60955500D01*
X113303231Y-60943867D01*
X113369552Y-60899552D01*
X113413867Y-60833231D01*
X113425500Y-60774748D01*
X113425500Y-59905000D01*
X113859417Y-59905000D01*
X113879699Y-60110930D01*
X113879700Y-60110935D01*
X113939766Y-60308949D01*
X113939768Y-60308954D01*
X114037311Y-60491444D01*
X114037313Y-60491448D01*
X114037315Y-60491450D01*
X114168590Y-60651410D01*
X114328550Y-60782685D01*
X114328553Y-60782686D01*
X114328555Y-60782688D01*
X114372068Y-60805946D01*
X114511046Y-60880232D01*
X114709066Y-60940300D01*
X114915000Y-60960583D01*
X115120934Y-60940300D01*
X115318954Y-60880232D01*
X115501450Y-60782685D01*
X115661410Y-60651410D01*
X115792685Y-60491450D01*
X115890232Y-60308954D01*
X115950300Y-60110934D01*
X115970583Y-59905000D01*
X116399417Y-59905000D01*
X116419699Y-60110930D01*
X116419700Y-60110935D01*
X116479766Y-60308949D01*
X116479768Y-60308954D01*
X116577311Y-60491444D01*
X116577313Y-60491448D01*
X116577315Y-60491450D01*
X116708590Y-60651410D01*
X116868550Y-60782685D01*
X116868553Y-60782686D01*
X116868555Y-60782688D01*
X116912068Y-60805946D01*
X117051046Y-60880232D01*
X117249066Y-60940300D01*
X117455000Y-60960583D01*
X117660934Y-60940300D01*
X117858954Y-60880232D01*
X118041450Y-60782685D01*
X118201410Y-60651410D01*
X118332685Y-60491450D01*
X118430232Y-60308954D01*
X118490300Y-60110934D01*
X118510583Y-59905000D01*
X118505164Y-59849983D01*
X123634500Y-59849983D01*
X123634501Y-59849999D01*
X123668910Y-60067246D01*
X123668910Y-60067247D01*
X123736886Y-60276455D01*
X123736887Y-60276457D01*
X123836751Y-60472449D01*
X123966047Y-60650410D01*
X123966050Y-60650413D01*
X123966053Y-60650417D01*
X124121582Y-60805946D01*
X124121585Y-60805948D01*
X124121590Y-60805953D01*
X124299551Y-60935249D01*
X124495546Y-61035114D01*
X124704751Y-61103089D01*
X124796322Y-61117592D01*
X124922000Y-61137498D01*
X124922006Y-61137498D01*
X124922014Y-61137500D01*
X124922016Y-61137500D01*
X125141984Y-61137500D01*
X125141986Y-61137500D01*
X125359249Y-61103089D01*
X125568454Y-61035114D01*
X125764449Y-60935249D01*
X125942410Y-60805953D01*
X126097953Y-60650410D01*
X126227249Y-60472449D01*
X126327114Y-60276454D01*
X126395089Y-60067249D01*
X126429500Y-59849986D01*
X126429500Y-59630014D01*
X126395089Y-59412751D01*
X126327114Y-59203546D01*
X126227249Y-59007551D01*
X126097953Y-58829590D01*
X126097948Y-58829585D01*
X126097946Y-58829582D01*
X125942417Y-58674053D01*
X125942413Y-58674050D01*
X125942410Y-58674047D01*
X125764449Y-58544751D01*
X125624412Y-58473398D01*
X125568457Y-58444887D01*
X125568455Y-58444886D01*
X125359247Y-58376910D01*
X125141999Y-58342501D01*
X125141987Y-58342500D01*
X125141986Y-58342500D01*
X124922014Y-58342500D01*
X124922012Y-58342500D01*
X124922000Y-58342501D01*
X124704753Y-58376910D01*
X124704752Y-58376910D01*
X124495544Y-58444886D01*
X124495542Y-58444887D01*
X124299550Y-58544751D01*
X124121582Y-58674053D01*
X123966053Y-58829582D01*
X123836751Y-59007550D01*
X123736887Y-59203542D01*
X123736886Y-59203544D01*
X123668910Y-59412752D01*
X123668910Y-59412753D01*
X123634501Y-59630000D01*
X123634500Y-59630016D01*
X123634500Y-59849983D01*
X118505164Y-59849983D01*
X118490300Y-59699066D01*
X118430232Y-59501046D01*
X118332685Y-59318550D01*
X118201410Y-59158590D01*
X118197592Y-59155457D01*
X118041455Y-59027319D01*
X118041453Y-59027318D01*
X118041450Y-59027315D01*
X118041448Y-59027313D01*
X118041444Y-59027311D01*
X117858954Y-58929768D01*
X117858949Y-58929766D01*
X117660935Y-58869700D01*
X117660930Y-58869699D01*
X117455000Y-58849417D01*
X117249069Y-58869699D01*
X117249064Y-58869700D01*
X117051050Y-58929766D01*
X117051045Y-58929768D01*
X116868555Y-59027311D01*
X116868544Y-59027319D01*
X116708591Y-59158588D01*
X116708588Y-59158591D01*
X116577319Y-59318544D01*
X116577311Y-59318555D01*
X116479768Y-59501045D01*
X116479766Y-59501050D01*
X116419700Y-59699064D01*
X116419699Y-59699069D01*
X116399417Y-59904999D01*
X116399417Y-59905000D01*
X115970583Y-59905000D01*
X115950300Y-59699066D01*
X115890232Y-59501046D01*
X115792685Y-59318550D01*
X115661410Y-59158590D01*
X115657592Y-59155457D01*
X115501455Y-59027319D01*
X115501453Y-59027318D01*
X115501450Y-59027315D01*
X115501448Y-59027313D01*
X115501444Y-59027311D01*
X115318954Y-58929768D01*
X115318949Y-58929766D01*
X115120935Y-58869700D01*
X115120930Y-58869699D01*
X114915000Y-58849417D01*
X114709069Y-58869699D01*
X114709064Y-58869700D01*
X114511050Y-58929766D01*
X114511045Y-58929768D01*
X114328555Y-59027311D01*
X114328544Y-59027319D01*
X114168591Y-59158588D01*
X114168588Y-59158591D01*
X114037319Y-59318544D01*
X114037311Y-59318555D01*
X113939768Y-59501045D01*
X113939766Y-59501050D01*
X113879700Y-59699064D01*
X113879699Y-59699069D01*
X113859417Y-59904999D01*
X113859417Y-59905000D01*
X113425500Y-59905000D01*
X113425500Y-59035252D01*
X113423920Y-59027311D01*
X113413867Y-58976769D01*
X113413866Y-58976767D01*
X113369552Y-58910447D01*
X113303232Y-58866133D01*
X113303230Y-58866132D01*
X113244748Y-58854500D01*
X111505252Y-58854500D01*
X111446769Y-58866132D01*
X111446767Y-58866133D01*
X111380447Y-58910447D01*
X111336133Y-58976767D01*
X111336132Y-58976769D01*
X111324500Y-59035251D01*
X111324500Y-60774748D01*
X103672477Y-60774748D01*
X101893806Y-58996077D01*
X101875500Y-58951883D01*
X101875500Y-58335383D01*
X101893806Y-58291189D01*
X101919858Y-58275574D01*
X101940450Y-58269328D01*
X101953948Y-58265234D01*
X101953948Y-58265233D01*
X101953954Y-58265232D01*
X102136450Y-58167685D01*
X102296410Y-58036410D01*
X102427685Y-57876450D01*
X102525232Y-57693954D01*
X102571933Y-57540001D01*
X102759363Y-57540001D01*
X102816567Y-57753487D01*
X102816568Y-57753489D01*
X102916398Y-57967575D01*
X103051892Y-58161081D01*
X103218918Y-58328107D01*
X103412426Y-58463603D01*
X103626503Y-58563428D01*
X103626519Y-58563434D01*
X103839998Y-58620635D01*
X103840000Y-58620634D01*
X103840000Y-57723012D01*
X103897007Y-57755925D01*
X104024174Y-57790000D01*
X104155826Y-57790000D01*
X104282993Y-57755925D01*
X104340000Y-57723012D01*
X104340000Y-58620634D01*
X104340001Y-58620635D01*
X104553480Y-58563434D01*
X104553496Y-58563428D01*
X104767573Y-58463603D01*
X104961081Y-58328107D01*
X105128107Y-58161081D01*
X105129040Y-58159748D01*
X105579500Y-58159748D01*
X105591132Y-58218230D01*
X105591133Y-58218232D01*
X105635447Y-58284552D01*
X105701767Y-58328866D01*
X105701769Y-58328867D01*
X105760252Y-58340500D01*
X107499748Y-58340500D01*
X107558231Y-58328867D01*
X107624552Y-58284552D01*
X107668867Y-58218231D01*
X107680500Y-58159748D01*
X107680500Y-57365000D01*
X111319417Y-57365000D01*
X111339699Y-57570930D01*
X111339700Y-57570935D01*
X111399766Y-57768949D01*
X111399768Y-57768954D01*
X111497311Y-57951444D01*
X111497319Y-57951455D01*
X111576154Y-58047517D01*
X111628590Y-58111410D01*
X111788550Y-58242685D01*
X111788553Y-58242686D01*
X111788555Y-58242688D01*
X111809116Y-58253678D01*
X111971046Y-58340232D01*
X112169066Y-58400300D01*
X112375000Y-58420583D01*
X112580934Y-58400300D01*
X112778954Y-58340232D01*
X112961450Y-58242685D01*
X113121410Y-58111410D01*
X113252685Y-57951450D01*
X113350232Y-57768954D01*
X113410300Y-57570934D01*
X113430583Y-57365000D01*
X113859417Y-57365000D01*
X113879699Y-57570930D01*
X113879700Y-57570935D01*
X113939766Y-57768949D01*
X113939768Y-57768954D01*
X114037311Y-57951444D01*
X114037319Y-57951455D01*
X114116154Y-58047517D01*
X114168590Y-58111410D01*
X114328550Y-58242685D01*
X114328553Y-58242686D01*
X114328555Y-58242688D01*
X114349116Y-58253678D01*
X114511046Y-58340232D01*
X114709066Y-58400300D01*
X114915000Y-58420583D01*
X115120934Y-58400300D01*
X115318954Y-58340232D01*
X115501450Y-58242685D01*
X115661410Y-58111410D01*
X115792685Y-57951450D01*
X115890232Y-57768954D01*
X115936933Y-57615001D01*
X116124363Y-57615001D01*
X116181567Y-57828487D01*
X116181568Y-57828489D01*
X116281398Y-58042575D01*
X116416892Y-58236081D01*
X116583918Y-58403107D01*
X116777426Y-58538603D01*
X116991503Y-58638428D01*
X116991519Y-58638434D01*
X117204998Y-58695635D01*
X117205000Y-58695634D01*
X117205000Y-57798012D01*
X117262007Y-57830925D01*
X117389174Y-57865000D01*
X117520826Y-57865000D01*
X117647993Y-57830925D01*
X117705000Y-57798012D01*
X117705000Y-58695634D01*
X117705001Y-58695635D01*
X117918480Y-58638434D01*
X117918496Y-58638428D01*
X118132573Y-58538603D01*
X118326081Y-58403107D01*
X118493107Y-58236081D01*
X118628601Y-58042575D01*
X118728431Y-57828489D01*
X118728432Y-57828487D01*
X118785636Y-57615001D01*
X118785636Y-57615000D01*
X117888012Y-57615000D01*
X117920925Y-57557993D01*
X117955000Y-57430826D01*
X117955000Y-57299174D01*
X117920925Y-57172007D01*
X117888012Y-57115000D01*
X118785636Y-57115000D01*
X118785636Y-57114998D01*
X118728432Y-56901512D01*
X118728431Y-56901510D01*
X118628600Y-56687422D01*
X118493109Y-56493920D01*
X118326081Y-56326892D01*
X118132575Y-56191398D01*
X117918489Y-56091568D01*
X117918487Y-56091567D01*
X117705001Y-56034363D01*
X117705000Y-56034364D01*
X117705000Y-56931988D01*
X117647993Y-56899075D01*
X117520826Y-56865000D01*
X117389174Y-56865000D01*
X117262007Y-56899075D01*
X117205000Y-56931988D01*
X117205000Y-56034364D01*
X117204998Y-56034363D01*
X116991512Y-56091567D01*
X116991510Y-56091568D01*
X116777422Y-56191399D01*
X116583920Y-56326890D01*
X116416890Y-56493920D01*
X116281399Y-56687422D01*
X116181568Y-56901510D01*
X116181567Y-56901512D01*
X116124363Y-57114998D01*
X116124364Y-57115000D01*
X117021988Y-57115000D01*
X116989075Y-57172007D01*
X116955000Y-57299174D01*
X116955000Y-57430826D01*
X116989075Y-57557993D01*
X117021988Y-57615000D01*
X116124364Y-57615000D01*
X116124363Y-57615001D01*
X115936933Y-57615001D01*
X115950300Y-57570934D01*
X115970583Y-57365000D01*
X115969679Y-57355826D01*
X115963196Y-57289999D01*
X115950300Y-57159066D01*
X115890232Y-56961046D01*
X115829821Y-56848026D01*
X115792688Y-56778555D01*
X115792686Y-56778553D01*
X115792685Y-56778550D01*
X115753622Y-56730951D01*
X115661411Y-56618591D01*
X115661408Y-56618588D01*
X115501455Y-56487319D01*
X115501453Y-56487318D01*
X115501450Y-56487315D01*
X115501448Y-56487313D01*
X115501444Y-56487311D01*
X115318954Y-56389768D01*
X115318949Y-56389766D01*
X115120935Y-56329700D01*
X115120930Y-56329699D01*
X114915000Y-56309417D01*
X114709069Y-56329699D01*
X114709064Y-56329700D01*
X114511050Y-56389766D01*
X114511045Y-56389768D01*
X114328555Y-56487311D01*
X114328544Y-56487319D01*
X114168591Y-56618588D01*
X114168588Y-56618591D01*
X114037319Y-56778544D01*
X114037311Y-56778555D01*
X113939768Y-56961045D01*
X113939766Y-56961050D01*
X113879700Y-57159064D01*
X113879699Y-57159069D01*
X113859417Y-57364999D01*
X113859417Y-57365000D01*
X113430583Y-57365000D01*
X113429679Y-57355826D01*
X113423196Y-57289999D01*
X113410300Y-57159066D01*
X113350232Y-56961046D01*
X113289821Y-56848026D01*
X113252688Y-56778555D01*
X113252686Y-56778553D01*
X113252685Y-56778550D01*
X113213622Y-56730951D01*
X113121411Y-56618591D01*
X113121408Y-56618588D01*
X112961455Y-56487319D01*
X112961453Y-56487318D01*
X112961450Y-56487315D01*
X112961448Y-56487313D01*
X112961444Y-56487311D01*
X112778954Y-56389768D01*
X112778949Y-56389766D01*
X112580935Y-56329700D01*
X112580930Y-56329699D01*
X112375000Y-56309417D01*
X112169069Y-56329699D01*
X112169064Y-56329700D01*
X111971050Y-56389766D01*
X111971045Y-56389768D01*
X111788555Y-56487311D01*
X111788544Y-56487319D01*
X111628591Y-56618588D01*
X111628588Y-56618591D01*
X111497319Y-56778544D01*
X111497311Y-56778555D01*
X111399768Y-56961045D01*
X111399766Y-56961050D01*
X111339700Y-57159064D01*
X111339699Y-57159069D01*
X111319417Y-57364999D01*
X111319417Y-57365000D01*
X107680500Y-57365000D01*
X107680500Y-56420252D01*
X107668867Y-56361769D01*
X107647439Y-56329700D01*
X107624552Y-56295447D01*
X107558232Y-56251133D01*
X107558230Y-56251132D01*
X107499748Y-56239500D01*
X105760252Y-56239500D01*
X105701769Y-56251132D01*
X105701767Y-56251133D01*
X105635447Y-56295447D01*
X105591133Y-56361767D01*
X105591132Y-56361769D01*
X105579500Y-56420251D01*
X105579500Y-58159748D01*
X105129040Y-58159748D01*
X105263601Y-57967575D01*
X105363431Y-57753489D01*
X105363432Y-57753487D01*
X105420636Y-57540001D01*
X105420636Y-57540000D01*
X104523012Y-57540000D01*
X104555925Y-57482993D01*
X104590000Y-57355826D01*
X104590000Y-57224174D01*
X104555925Y-57097007D01*
X104523012Y-57040000D01*
X105420636Y-57040000D01*
X105420636Y-57039998D01*
X105363432Y-56826512D01*
X105363431Y-56826510D01*
X105263600Y-56612422D01*
X105128109Y-56418920D01*
X104961081Y-56251892D01*
X104767575Y-56116398D01*
X104553489Y-56016568D01*
X104553487Y-56016567D01*
X104340001Y-55959363D01*
X104340000Y-55959364D01*
X104340000Y-56856988D01*
X104282993Y-56824075D01*
X104155826Y-56790000D01*
X104024174Y-56790000D01*
X103897007Y-56824075D01*
X103840000Y-56856988D01*
X103840000Y-55959364D01*
X103839998Y-55959363D01*
X103626512Y-56016567D01*
X103626510Y-56016568D01*
X103412422Y-56116399D01*
X103218920Y-56251890D01*
X103051890Y-56418920D01*
X102916399Y-56612422D01*
X102816568Y-56826510D01*
X102816567Y-56826512D01*
X102759363Y-57039998D01*
X102759364Y-57040000D01*
X103656988Y-57040000D01*
X103624075Y-57097007D01*
X103590000Y-57224174D01*
X103590000Y-57355826D01*
X103624075Y-57482993D01*
X103656988Y-57540000D01*
X102759364Y-57540000D01*
X102759363Y-57540001D01*
X102571933Y-57540001D01*
X102585300Y-57495934D01*
X102605583Y-57290000D01*
X102585300Y-57084066D01*
X102525232Y-56886046D01*
X102431843Y-56711329D01*
X102427688Y-56703555D01*
X102427686Y-56703553D01*
X102427685Y-56703550D01*
X102296410Y-56543590D01*
X102284579Y-56533881D01*
X102136455Y-56412319D01*
X102136453Y-56412318D01*
X102136450Y-56412315D01*
X102136448Y-56412313D01*
X102136444Y-56412311D01*
X101953954Y-56314768D01*
X101953949Y-56314766D01*
X101755935Y-56254700D01*
X101755930Y-56254699D01*
X101550000Y-56234417D01*
X101344069Y-56254699D01*
X101344064Y-56254700D01*
X101146050Y-56314766D01*
X101146045Y-56314768D01*
X100963555Y-56412311D01*
X100963544Y-56412319D01*
X100803591Y-56543588D01*
X100803588Y-56543591D01*
X100672319Y-56703544D01*
X100672311Y-56703555D01*
X100574768Y-56886045D01*
X100574766Y-56886050D01*
X100514700Y-57084064D01*
X100514699Y-57084069D01*
X100494417Y-57289999D01*
X100494417Y-57290000D01*
X99510000Y-57290000D01*
X99510000Y-57224174D01*
X99475925Y-57097007D01*
X99443012Y-57040000D01*
X100340636Y-57040000D01*
X100340636Y-57039998D01*
X100283432Y-56826512D01*
X100283431Y-56826510D01*
X100183600Y-56612422D01*
X100048109Y-56418920D01*
X99881081Y-56251892D01*
X99687575Y-56116398D01*
X99473489Y-56016568D01*
X99473487Y-56016567D01*
X99260001Y-55959363D01*
X99260000Y-55959364D01*
X99260000Y-56856988D01*
X99202993Y-56824075D01*
X99075826Y-56790000D01*
X98944174Y-56790000D01*
X98817007Y-56824075D01*
X98760000Y-56856988D01*
X98760000Y-55959364D01*
X98759998Y-55959363D01*
X98546512Y-56016567D01*
X98546510Y-56016568D01*
X98332422Y-56116399D01*
X98138920Y-56251890D01*
X97971890Y-56418920D01*
X97836399Y-56612422D01*
X97736568Y-56826510D01*
X97736567Y-56826512D01*
X97679363Y-57039998D01*
X97679364Y-57040000D01*
X98576988Y-57040000D01*
X98544075Y-57097007D01*
X98510000Y-57224174D01*
X98510000Y-57355826D01*
X98544075Y-57482993D01*
X98576988Y-57540000D01*
X97679364Y-57540000D01*
X97679363Y-57540001D01*
X97491933Y-57540001D01*
X97505300Y-57495934D01*
X97525583Y-57290000D01*
X97505300Y-57084066D01*
X97445232Y-56886046D01*
X97351843Y-56711329D01*
X97347688Y-56703555D01*
X97347686Y-56703553D01*
X97347685Y-56703550D01*
X97216410Y-56543590D01*
X97204579Y-56533881D01*
X97056455Y-56412319D01*
X97056453Y-56412318D01*
X97056450Y-56412315D01*
X97056448Y-56412313D01*
X97056444Y-56412311D01*
X96873954Y-56314768D01*
X96873949Y-56314766D01*
X96675935Y-56254700D01*
X96675930Y-56254699D01*
X96470000Y-56234417D01*
X96264069Y-56254699D01*
X96264064Y-56254700D01*
X96066050Y-56314766D01*
X96066045Y-56314768D01*
X95883555Y-56412311D01*
X95883544Y-56412319D01*
X95723591Y-56543588D01*
X95723588Y-56543591D01*
X95592319Y-56703544D01*
X95592311Y-56703555D01*
X95494768Y-56886045D01*
X95494766Y-56886050D01*
X95434700Y-57084064D01*
X95434699Y-57084069D01*
X95414417Y-57289999D01*
X95414417Y-57290000D01*
X94430000Y-57290000D01*
X94430000Y-57224174D01*
X94395925Y-57097007D01*
X94363012Y-57040000D01*
X95260636Y-57040000D01*
X95260636Y-57039998D01*
X95203432Y-56826512D01*
X95203431Y-56826510D01*
X95103600Y-56612422D01*
X94968109Y-56418920D01*
X94801081Y-56251892D01*
X94607575Y-56116398D01*
X94393489Y-56016568D01*
X94393487Y-56016567D01*
X94180001Y-55959363D01*
X94180000Y-55959364D01*
X94180000Y-56856988D01*
X94122993Y-56824075D01*
X93995826Y-56790000D01*
X93864174Y-56790000D01*
X93737007Y-56824075D01*
X93680000Y-56856988D01*
X93680000Y-55959364D01*
X93679998Y-55959363D01*
X93466512Y-56016567D01*
X93466510Y-56016568D01*
X93252422Y-56116399D01*
X93058920Y-56251890D01*
X92891890Y-56418920D01*
X92756399Y-56612422D01*
X92656568Y-56826510D01*
X92656567Y-56826512D01*
X92599363Y-57039998D01*
X92599364Y-57040000D01*
X93496988Y-57040000D01*
X93464075Y-57097007D01*
X93430000Y-57224174D01*
X93430000Y-57355826D01*
X93464075Y-57482993D01*
X93496988Y-57540000D01*
X92599364Y-57540000D01*
X92599363Y-57540001D01*
X92411933Y-57540001D01*
X92425300Y-57495934D01*
X92445583Y-57290000D01*
X92425300Y-57084066D01*
X92365232Y-56886046D01*
X92271843Y-56711329D01*
X92267688Y-56703555D01*
X92267686Y-56703553D01*
X92267685Y-56703550D01*
X92136410Y-56543590D01*
X92124579Y-56533881D01*
X91976455Y-56412319D01*
X91976453Y-56412318D01*
X91976450Y-56412315D01*
X91976448Y-56412313D01*
X91976444Y-56412311D01*
X91793954Y-56314768D01*
X91793949Y-56314766D01*
X91595935Y-56254700D01*
X91595930Y-56254699D01*
X91390000Y-56234417D01*
X91184069Y-56254699D01*
X91184064Y-56254700D01*
X90986050Y-56314766D01*
X90986045Y-56314768D01*
X90803555Y-56412311D01*
X90803544Y-56412319D01*
X90643591Y-56543588D01*
X90643588Y-56543591D01*
X90512319Y-56703544D01*
X90512311Y-56703555D01*
X90414768Y-56886045D01*
X90414766Y-56886050D01*
X90354700Y-57084064D01*
X90354699Y-57084069D01*
X90334417Y-57289999D01*
X90334417Y-57290000D01*
X89350000Y-57290000D01*
X89350000Y-57224174D01*
X89315925Y-57097007D01*
X89283012Y-57040000D01*
X90180636Y-57040000D01*
X90180636Y-57039998D01*
X90123432Y-56826512D01*
X90123431Y-56826510D01*
X90023600Y-56612422D01*
X89888109Y-56418920D01*
X89721081Y-56251892D01*
X89527575Y-56116398D01*
X89313489Y-56016568D01*
X89313487Y-56016567D01*
X89100001Y-55959363D01*
X89100000Y-55959364D01*
X89100000Y-56856988D01*
X89042993Y-56824075D01*
X88915826Y-56790000D01*
X88784174Y-56790000D01*
X88657007Y-56824075D01*
X88600000Y-56856988D01*
X88600000Y-55959364D01*
X88599998Y-55959363D01*
X88386512Y-56016567D01*
X88386510Y-56016568D01*
X88172422Y-56116399D01*
X87978920Y-56251890D01*
X87811890Y-56418920D01*
X87676399Y-56612422D01*
X87576568Y-56826510D01*
X87576567Y-56826512D01*
X87519363Y-57039998D01*
X87519364Y-57040000D01*
X88416988Y-57040000D01*
X88384075Y-57097007D01*
X88350000Y-57224174D01*
X88350000Y-57355826D01*
X88384075Y-57482993D01*
X88416988Y-57540000D01*
X87519364Y-57540000D01*
X87519363Y-57540001D01*
X75788438Y-57540001D01*
X75646323Y-57473732D01*
X75646321Y-57473731D01*
X75426617Y-57414861D01*
X75426601Y-57414858D01*
X75200002Y-57395034D01*
X75199998Y-57395034D01*
X74973398Y-57414858D01*
X74973382Y-57414861D01*
X74753678Y-57473731D01*
X74753676Y-57473732D01*
X74547517Y-57569865D01*
X74474527Y-57620973D01*
X74474526Y-57620973D01*
X75153553Y-58300000D01*
X75147339Y-58300000D01*
X75045606Y-58327259D01*
X74954394Y-58379920D01*
X74879920Y-58454394D01*
X74827259Y-58545606D01*
X74800000Y-58647339D01*
X74800000Y-58653553D01*
X74120973Y-57974526D01*
X74120973Y-57974527D01*
X74069865Y-58047517D01*
X73973732Y-58253676D01*
X73973731Y-58253678D01*
X73914861Y-58473382D01*
X73914858Y-58473398D01*
X73895034Y-58699997D01*
X73895034Y-58700002D01*
X73700500Y-58700002D01*
X73700500Y-57880252D01*
X73688867Y-57821769D01*
X73688866Y-57821767D01*
X73644552Y-57755447D01*
X73578232Y-57711133D01*
X73578230Y-57711132D01*
X73519748Y-57699500D01*
X71880252Y-57699500D01*
X71821769Y-57711132D01*
X71821767Y-57711133D01*
X71755447Y-57755447D01*
X71711133Y-57821767D01*
X71711132Y-57821769D01*
X71699500Y-57880251D01*
X71699500Y-59519748D01*
X63151900Y-59519748D01*
X63151900Y-58091279D01*
X64497500Y-58091279D01*
X64497501Y-58091295D01*
X64533880Y-58320979D01*
X64533880Y-58320980D01*
X64605746Y-58542161D01*
X64605750Y-58542169D01*
X64711329Y-58749381D01*
X64848025Y-58937526D01*
X64848032Y-58937534D01*
X65012465Y-59101967D01*
X65012473Y-59101974D01*
X65152271Y-59203544D01*
X65200621Y-59238672D01*
X65407837Y-59344253D01*
X65629018Y-59416119D01*
X65725829Y-59431452D01*
X65858704Y-59452498D01*
X65858710Y-59452498D01*
X65858718Y-59452500D01*
X65858720Y-59452500D01*
X66091280Y-59452500D01*
X66091282Y-59452500D01*
X66320982Y-59416119D01*
X66542163Y-59344253D01*
X66749379Y-59238672D01*
X66937527Y-59101974D01*
X67101974Y-58937527D01*
X67238672Y-58749379D01*
X67344253Y-58542163D01*
X67416119Y-58320982D01*
X67452500Y-58091282D01*
X67452500Y-57858718D01*
X67416119Y-57629018D01*
X67344253Y-57407837D01*
X67238672Y-57200621D01*
X67208480Y-57159066D01*
X67101974Y-57012473D01*
X67101967Y-57012465D01*
X66937534Y-56848032D01*
X66937526Y-56848025D01*
X66749381Y-56711329D01*
X66542169Y-56605750D01*
X66542161Y-56605746D01*
X66320980Y-56533880D01*
X66091295Y-56497501D01*
X66091283Y-56497500D01*
X66091282Y-56497500D01*
X65858718Y-56497500D01*
X65858716Y-56497500D01*
X65858704Y-56497501D01*
X65629020Y-56533880D01*
X65629019Y-56533880D01*
X65407838Y-56605746D01*
X65407830Y-56605750D01*
X65200618Y-56711329D01*
X65012473Y-56848025D01*
X65012465Y-56848032D01*
X64848032Y-57012465D01*
X64848025Y-57012473D01*
X64711329Y-57200618D01*
X64605750Y-57407830D01*
X64605746Y-57407838D01*
X64533880Y-57629019D01*
X64533880Y-57629020D01*
X64497501Y-57858704D01*
X64497500Y-57858720D01*
X64497500Y-58091279D01*
X63151900Y-58091279D01*
X63151900Y-55215400D01*
X63170206Y-55171206D01*
X63214400Y-55152900D01*
X129009600Y-55152900D01*
X129053794Y-55171206D01*
G37*
%TD.AperFunction*%
%TD*%
M02*
