M48
; DRILL file {KiCad 8.0.1} date 2024-04-26T19:34:00+0200
; FORMAT={-:-/ absolute / metric / decimal}
; #@! TF.CreationDate,2024-04-26T19:34:00+02:00
; #@! TF.GenerationSoftware,Kicad,Pcbnew,8.0.1
; #@! TF.FileFunction,Plated,1,4,PTH
FMAT,2
METRIC
; #@! TA.AperFunction,Plated,PTH,ViaDrill
T1C0.400
; #@! TA.AperFunction,Plated,PTH,ComponentDrill
T2C0.800
; #@! TA.AperFunction,Plated,PTH,ComponentDrill
T3C1.000
; #@! TA.AperFunction,Plated,PTH,ComponentDrill
T4C1.100
%
G90
G05
T1
X77.0Y-61.55
X86.725Y-72.65
X107.875Y-62.75
X108.794Y-66.357
X113.575Y-69.825
X113.575Y-70.825
X115.3Y-75.85
X117.09Y-77.2
X117.68Y-69.82
X117.73Y-65.61
X117.74Y-72.98
T2
X72.7Y-58.7
X75.2Y-58.7
X79.098Y-71.296
X79.098Y-73.796
T3
X83.125Y-82.5
X85.665Y-82.5
X88.205Y-82.5
X88.85Y-57.29
X90.745Y-82.5
X91.39Y-57.29
X93.285Y-82.5
X93.93Y-57.29
X95.825Y-82.5
X96.47Y-57.29
X99.01Y-57.29
X101.55Y-57.29
X104.09Y-57.29
X106.63Y-57.29
X112.375Y-57.365
X112.375Y-59.905
X114.915Y-57.365
X114.915Y-59.905
X117.455Y-57.365
X117.455Y-59.905
X125.54Y-63.55
X125.54Y-66.09
X125.54Y-68.63
X125.54Y-71.17
X125.54Y-73.71
X125.54Y-76.25
T4
X68.55Y-67.3
X68.55Y-69.84
X68.55Y-72.38
M30
