%TF.GenerationSoftware,KiCad,Pcbnew,8.0.1*%
%TF.CreationDate,2024-04-25T19:13:21+02:00*%
%TF.ProjectId,lps-1,6c70732d-312e-46b6-9963-61645f706362,1.01*%
%TF.SameCoordinates,Original*%
%TF.FileFunction,Soldermask,Top*%
%TF.FilePolarity,Negative*%
%FSLAX46Y46*%
G04 Gerber Fmt 4.6, Leading zero omitted, Abs format (unit mm)*
G04 Created by KiCad (PCBNEW 8.0.1) date 2024-04-25 19:13:21*
%MOMM*%
%LPD*%
G01*
G04 APERTURE LIST*
G04 Aperture macros list*
%AMRoundRect*
0 Rectangle with rounded corners*
0 $1 Rounding radius*
0 $2 $3 $4 $5 $6 $7 $8 $9 X,Y pos of 4 corners*
0 Add a 4 corners polygon primitive as box body*
4,1,4,$2,$3,$4,$5,$6,$7,$8,$9,$2,$3,0*
0 Add four circle primitives for the rounded corners*
1,1,$1+$1,$2,$3*
1,1,$1+$1,$4,$5*
1,1,$1+$1,$6,$7*
1,1,$1+$1,$8,$9*
0 Add four rect primitives between the rounded corners*
20,1,$1+$1,$2,$3,$4,$5,0*
20,1,$1+$1,$4,$5,$6,$7,0*
20,1,$1+$1,$6,$7,$8,$9,0*
20,1,$1+$1,$8,$9,$2,$3,0*%
%AMFreePoly0*
4,1,19,0.500000,-0.750000,0.000000,-0.750000,0.000000,-0.744911,-0.071157,-0.744911,-0.207708,-0.704816,-0.327430,-0.627875,-0.420627,-0.520320,-0.479746,-0.390866,-0.500000,-0.250000,-0.500000,0.250000,-0.479746,0.390866,-0.420627,0.520320,-0.327430,0.627875,-0.207708,0.704816,-0.071157,0.744911,0.000000,0.744911,0.000000,0.750000,0.500000,0.750000,0.500000,-0.750000,0.500000,-0.750000,
$1*%
%AMFreePoly1*
4,1,19,0.000000,0.744911,0.071157,0.744911,0.207708,0.704816,0.327430,0.627875,0.420627,0.520320,0.479746,0.390866,0.500000,0.250000,0.500000,-0.250000,0.479746,-0.390866,0.420627,-0.520320,0.327430,-0.627875,0.207708,-0.704816,0.071157,-0.744911,0.000000,-0.744911,0.000000,-0.750000,-0.500000,-0.750000,-0.500000,0.750000,0.000000,0.750000,0.000000,0.744911,0.000000,0.744911,
$1*%
G04 Aperture macros list end*
%ADD10C,2.540000*%
%ADD11C,1.700000*%
%ADD12RoundRect,0.250000X0.475000X-0.337500X0.475000X0.337500X-0.475000X0.337500X-0.475000X-0.337500X0*%
%ADD13RoundRect,0.250000X0.450000X-0.262500X0.450000X0.262500X-0.450000X0.262500X-0.450000X-0.262500X0*%
%ADD14FreePoly0,180.000000*%
%ADD15FreePoly1,180.000000*%
%ADD16C,2.700000*%
%ADD17RoundRect,0.250000X0.262500X0.450000X-0.262500X0.450000X-0.262500X-0.450000X0.262500X-0.450000X0*%
%ADD18R,2.000000X1.905000*%
%ADD19O,2.000000X1.905000*%
%ADD20RoundRect,0.375000X-0.625000X-0.375000X0.625000X-0.375000X0.625000X0.375000X-0.625000X0.375000X0*%
%ADD21RoundRect,0.500000X-0.500000X-1.400000X0.500000X-1.400000X0.500000X1.400000X-0.500000X1.400000X0*%
%ADD22R,1.700000X1.700000*%
%ADD23O,1.700000X1.700000*%
%ADD24RoundRect,0.250000X-0.250000X-0.475000X0.250000X-0.475000X0.250000X0.475000X-0.250000X0.475000X0*%
%ADD25R,1.600000X1.600000*%
%ADD26C,1.600000*%
%ADD27RoundRect,0.250000X-0.475000X0.337500X-0.475000X-0.337500X0.475000X-0.337500X0.475000X0.337500X0*%
%ADD28RoundRect,0.250000X-1.000000X-0.650000X1.000000X-0.650000X1.000000X0.650000X-1.000000X0.650000X0*%
%ADD29RoundRect,0.243750X0.243750X0.456250X-0.243750X0.456250X-0.243750X-0.456250X0.243750X-0.456250X0*%
%ADD30R,1.600000X0.550000*%
%ADD31R,0.550000X1.600000*%
%ADD32RoundRect,0.250000X0.475000X-0.250000X0.475000X0.250000X-0.475000X0.250000X-0.475000X-0.250000X0*%
G04 APERTURE END LIST*
D10*
%TO.C,J4*%
X125032000Y-80060000D03*
X125032000Y-59740000D03*
D11*
X125540000Y-63550000D03*
X125540000Y-66090000D03*
X125540000Y-68630000D03*
X125540000Y-71170000D03*
X125540000Y-73710000D03*
X125540000Y-76250000D03*
%TD*%
D12*
%TO.C,C4*%
X71500000Y-73500000D03*
X71500000Y-71425000D03*
%TD*%
%TO.C,C7*%
X85675000Y-70162500D03*
X85675000Y-68087500D03*
%TD*%
D13*
%TO.C,R2*%
X109625000Y-65330000D03*
X109625000Y-63505000D03*
%TD*%
D14*
%TO.C,JP1*%
X79587501Y-59725000D03*
D15*
X78287501Y-59725000D03*
%TD*%
D16*
%TO.C,H4*%
X65975000Y-57975000D03*
%TD*%
D17*
%TO.C,R4*%
X100987500Y-75325000D03*
X99162500Y-75325000D03*
%TD*%
D18*
%TO.C,U1*%
X68550000Y-72379999D03*
D19*
X68550000Y-69839999D03*
X68550000Y-67299999D03*
%TD*%
D20*
%TO.C,U3*%
X88725000Y-66425000D03*
X88725000Y-68725000D03*
D21*
X95025000Y-68725000D03*
D20*
X88725000Y-71025000D03*
%TD*%
D22*
%TO.C,J5*%
X112375000Y-59905000D03*
D23*
X112375000Y-57365000D03*
X114915000Y-59905000D03*
X114915000Y-57365000D03*
X117455000Y-59905000D03*
X117455000Y-57365000D03*
%TD*%
D24*
%TO.C,C2*%
X111675000Y-65255000D03*
X113575000Y-65255000D03*
%TD*%
D25*
%TO.C,C6*%
X72700000Y-58700000D03*
D26*
X75200000Y-58700000D03*
%TD*%
D22*
%TO.C,J6*%
X106630000Y-57290000D03*
D23*
X104090000Y-57290000D03*
X101550000Y-57290000D03*
X99010000Y-57290000D03*
X96470000Y-57290000D03*
X93930000Y-57290000D03*
X91390000Y-57290000D03*
X88850000Y-57290000D03*
%TD*%
D17*
%TO.C,R3*%
X99475000Y-73225000D03*
X97650000Y-73225000D03*
%TD*%
D27*
%TO.C,C5*%
X71500000Y-66262500D03*
X71500000Y-68337500D03*
%TD*%
D28*
%TO.C,D1*%
X74600000Y-82525000D03*
X78600000Y-82525000D03*
%TD*%
D25*
%TO.C,C1*%
X79098257Y-73796363D03*
D26*
X79098257Y-71296363D03*
%TD*%
D29*
%TO.C,D2*%
X83525000Y-59725000D03*
X81650000Y-59725000D03*
%TD*%
D16*
%TO.C,H3*%
X65975000Y-82025000D03*
%TD*%
D22*
%TO.C,J15*%
X83125000Y-82500000D03*
D23*
X85665000Y-82500000D03*
X88205000Y-82500000D03*
X90745000Y-82500000D03*
X93285000Y-82500000D03*
X95825000Y-82500000D03*
%TD*%
D30*
%TO.C,U2*%
X103375000Y-69205000D03*
X103375000Y-70005000D03*
X103375000Y-70805000D03*
X103375000Y-71605000D03*
X103375000Y-72405000D03*
X103375000Y-73205000D03*
X103375000Y-74005000D03*
X103375000Y-74805000D03*
D31*
X104825000Y-76255000D03*
X105625000Y-76255000D03*
X106425000Y-76255000D03*
X107225000Y-76255000D03*
X108025000Y-76255000D03*
X108825000Y-76255000D03*
X109625000Y-76255000D03*
X110425000Y-76255000D03*
D30*
X111875000Y-74805000D03*
X111875000Y-74005000D03*
X111875000Y-73205000D03*
X111875000Y-72405000D03*
X111875000Y-71605000D03*
X111875000Y-70805000D03*
X111875000Y-70005000D03*
X111875000Y-69205000D03*
D31*
X110425000Y-67755000D03*
X109625000Y-67755000D03*
X108825000Y-67755000D03*
X108025000Y-67755000D03*
X107225000Y-67755000D03*
X106425000Y-67755000D03*
X105625000Y-67755000D03*
X104825000Y-67755000D03*
%TD*%
D32*
%TO.C,C3*%
X114575000Y-74455000D03*
X114575000Y-72555000D03*
%TD*%
D17*
%TO.C,R1*%
X83565972Y-57396336D03*
X81740972Y-57396336D03*
%TD*%
M02*
