%TF.GenerationSoftware,KiCad,Pcbnew,8.0.1*%
%TF.CreationDate,2024-04-25T19:13:20+02:00*%
%TF.ProjectId,lps-1,6c70732d-312e-46b6-9963-61645f706362,1.01*%
%TF.SameCoordinates,Original*%
%TF.FileFunction,Copper,L2,Inr*%
%TF.FilePolarity,Positive*%
%FSLAX46Y46*%
G04 Gerber Fmt 4.6, Leading zero omitted, Abs format (unit mm)*
G04 Created by KiCad (PCBNEW 8.0.1) date 2024-04-25 19:13:20*
%MOMM*%
%LPD*%
G01*
G04 APERTURE LIST*
%TA.AperFunction,ComponentPad*%
%ADD10C,1.700000*%
%TD*%
%TA.AperFunction,ComponentPad*%
%ADD11R,2.000000X1.905000*%
%TD*%
%TA.AperFunction,ComponentPad*%
%ADD12O,2.000000X1.905000*%
%TD*%
%TA.AperFunction,ComponentPad*%
%ADD13R,1.700000X1.700000*%
%TD*%
%TA.AperFunction,ComponentPad*%
%ADD14O,1.700000X1.700000*%
%TD*%
%TA.AperFunction,ComponentPad*%
%ADD15R,1.600000X1.600000*%
%TD*%
%TA.AperFunction,ComponentPad*%
%ADD16C,1.600000*%
%TD*%
%TA.AperFunction,ViaPad*%
%ADD17C,0.800000*%
%TD*%
G04 APERTURE END LIST*
D10*
%TO.N,+3.3V*%
%TO.C,J4*%
X125540000Y-63550000D03*
%TO.N,GND*%
X125540000Y-66090000D03*
%TO.N,/SCL*%
X125540000Y-68630000D03*
%TO.N,/SDA*%
X125540000Y-71170000D03*
%TO.N,unconnected-(J4-Pin_5-Pad5)*%
X125540000Y-73710000D03*
%TO.N,unconnected-(J4-Pin_6-Pad6)*%
X125540000Y-76250000D03*
%TD*%
D11*
%TO.N,Net-(D1-K)*%
%TO.C,U1*%
X68550000Y-72379999D03*
D12*
%TO.N,GND*%
X68550000Y-69839999D03*
%TO.N,+5V*%
X68550000Y-67299999D03*
%TD*%
D13*
%TO.N,/TxD0*%
%TO.C,J5*%
X112375000Y-59905000D03*
D14*
%TO.N,/RxD0*%
X112375000Y-57365000D03*
%TO.N,/MODEM_SLEEP*%
X114915000Y-59905000D03*
%TO.N,/MODEM_RESET*%
X114915000Y-57365000D03*
%TO.N,+3.3V*%
X117455000Y-59905000D03*
%TO.N,GND*%
X117455000Y-57365000D03*
%TD*%
D15*
%TO.N,+5V*%
%TO.C,C6*%
X72700000Y-58700000D03*
D16*
%TO.N,GND*%
X75200000Y-58700000D03*
%TD*%
D13*
%TO.N,+3.3V*%
%TO.C,J6*%
X106630000Y-57290000D03*
D14*
%TO.N,GND*%
X104090000Y-57290000D03*
%TO.N,/UPDI*%
X101550000Y-57290000D03*
%TO.N,GND*%
X99010000Y-57290000D03*
%TO.N,/DIN*%
X96470000Y-57290000D03*
%TO.N,GND*%
X93930000Y-57290000D03*
%TO.N,/DOUT*%
X91390000Y-57290000D03*
%TO.N,GND*%
X88850000Y-57290000D03*
%TD*%
D15*
%TO.N,Net-(D1-K)*%
%TO.C,C1*%
X79098257Y-73796363D03*
D16*
%TO.N,GND*%
X79098257Y-71296363D03*
%TD*%
D13*
%TO.N,/12VIN*%
%TO.C,J15*%
X83125000Y-82500000D03*
D14*
%TO.N,GND*%
X85665000Y-82500000D03*
%TO.N,+5V*%
X88205000Y-82500000D03*
%TO.N,GND*%
X90745000Y-82500000D03*
%TO.N,+3.3V*%
X93285000Y-82500000D03*
%TO.N,GND*%
X95825000Y-82500000D03*
%TD*%
D17*
%TO.N,+3.3V*%
X107875000Y-62750000D03*
X115300000Y-75850000D03*
X77000000Y-61550000D03*
X86725000Y-72650000D03*
%TO.N,GND*%
X117730000Y-65610000D03*
X117090000Y-77200000D03*
X117740000Y-72980000D03*
X117680000Y-69820000D03*
%TO.N,/SCL*%
X113575000Y-69824997D03*
%TO.N,/SDA*%
X113575000Y-70825000D03*
%TO.N,/UPDI*%
X108794474Y-66357072D03*
%TD*%
%TA.AperFunction,Conductor*%
%TO.N,GND*%
G36*
X129053794Y-55171206D02*
G01*
X129072100Y-55215400D01*
X129072100Y-84784600D01*
X129053794Y-84828794D01*
X129009600Y-84847100D01*
X63214400Y-84847100D01*
X63170206Y-84828794D01*
X63151900Y-84784600D01*
X63151900Y-82141279D01*
X64497500Y-82141279D01*
X64497501Y-82141295D01*
X64533880Y-82370979D01*
X64533880Y-82370980D01*
X64605746Y-82592161D01*
X64605750Y-82592169D01*
X64711329Y-82799381D01*
X64848025Y-82987526D01*
X64848032Y-82987534D01*
X65012465Y-83151967D01*
X65012473Y-83151974D01*
X65142452Y-83246410D01*
X65200621Y-83288672D01*
X65407837Y-83394253D01*
X65629018Y-83466119D01*
X65725829Y-83481452D01*
X65858704Y-83502498D01*
X65858710Y-83502498D01*
X65858718Y-83502500D01*
X65858720Y-83502500D01*
X66091280Y-83502500D01*
X66091282Y-83502500D01*
X66320982Y-83466119D01*
X66542163Y-83394253D01*
X66590257Y-83369748D01*
X82074500Y-83369748D01*
X82086132Y-83428230D01*
X82086133Y-83428232D01*
X82130447Y-83494552D01*
X82196767Y-83538866D01*
X82196769Y-83538867D01*
X82255252Y-83550500D01*
X83994748Y-83550500D01*
X84053231Y-83538867D01*
X84119552Y-83494552D01*
X84163867Y-83428231D01*
X84175500Y-83369748D01*
X84175500Y-82754000D01*
X84328457Y-82754000D01*
X84376178Y-82942451D01*
X84376179Y-82942455D01*
X84466583Y-83148554D01*
X84466585Y-83148557D01*
X84589674Y-83336957D01*
X84589677Y-83336962D01*
X84742101Y-83502538D01*
X84742104Y-83502541D01*
X84919697Y-83640767D01*
X84919699Y-83640768D01*
X85117627Y-83747880D01*
X85117628Y-83747881D01*
X85330487Y-83820956D01*
X85411000Y-83834391D01*
X85411000Y-82930702D01*
X85472007Y-82965925D01*
X85599174Y-83000000D01*
X85730826Y-83000000D01*
X85857993Y-82965925D01*
X85919000Y-82930702D01*
X85919000Y-83834391D01*
X85999512Y-83820956D01*
X86212371Y-83747881D01*
X86212372Y-83747880D01*
X86410300Y-83640768D01*
X86410302Y-83640767D01*
X86587895Y-83502541D01*
X86587898Y-83502538D01*
X86740322Y-83336962D01*
X86740325Y-83336957D01*
X86863414Y-83148557D01*
X86863416Y-83148554D01*
X86953820Y-82942455D01*
X86953821Y-82942451D01*
X87001543Y-82754000D01*
X86095703Y-82754000D01*
X86130925Y-82692993D01*
X86165000Y-82565826D01*
X86165000Y-82500000D01*
X87149417Y-82500000D01*
X87169699Y-82705930D01*
X87169700Y-82705935D01*
X87229766Y-82903949D01*
X87229768Y-82903954D01*
X87327311Y-83086444D01*
X87327319Y-83086455D01*
X87378284Y-83148557D01*
X87458590Y-83246410D01*
X87618550Y-83377685D01*
X87618553Y-83377686D01*
X87618555Y-83377688D01*
X87649546Y-83394253D01*
X87801046Y-83475232D01*
X87999066Y-83535300D01*
X88205000Y-83555583D01*
X88410934Y-83535300D01*
X88608954Y-83475232D01*
X88791450Y-83377685D01*
X88951410Y-83246410D01*
X89082685Y-83086450D01*
X89180232Y-82903954D01*
X89225720Y-82754000D01*
X89408457Y-82754000D01*
X89456178Y-82942451D01*
X89456179Y-82942455D01*
X89546583Y-83148554D01*
X89546585Y-83148557D01*
X89669674Y-83336957D01*
X89669677Y-83336962D01*
X89822101Y-83502538D01*
X89822104Y-83502541D01*
X89999697Y-83640767D01*
X89999699Y-83640768D01*
X90197627Y-83747880D01*
X90197628Y-83747881D01*
X90410487Y-83820956D01*
X90491000Y-83834391D01*
X90491000Y-82930702D01*
X90552007Y-82965925D01*
X90679174Y-83000000D01*
X90810826Y-83000000D01*
X90937993Y-82965925D01*
X90999000Y-82930702D01*
X90999000Y-83834391D01*
X91079512Y-83820956D01*
X91292371Y-83747881D01*
X91292372Y-83747880D01*
X91490300Y-83640768D01*
X91490302Y-83640767D01*
X91667895Y-83502541D01*
X91667898Y-83502538D01*
X91820322Y-83336962D01*
X91820325Y-83336957D01*
X91943414Y-83148557D01*
X91943416Y-83148554D01*
X92033820Y-82942455D01*
X92033821Y-82942451D01*
X92081543Y-82754000D01*
X91175703Y-82754000D01*
X91210925Y-82692993D01*
X91245000Y-82565826D01*
X91245000Y-82500000D01*
X92229417Y-82500000D01*
X92249699Y-82705930D01*
X92249700Y-82705935D01*
X92309766Y-82903949D01*
X92309768Y-82903954D01*
X92407311Y-83086444D01*
X92407319Y-83086455D01*
X92458284Y-83148557D01*
X92538590Y-83246410D01*
X92698550Y-83377685D01*
X92698553Y-83377686D01*
X92698555Y-83377688D01*
X92729546Y-83394253D01*
X92881046Y-83475232D01*
X93079066Y-83535300D01*
X93285000Y-83555583D01*
X93490934Y-83535300D01*
X93688954Y-83475232D01*
X93871450Y-83377685D01*
X94031410Y-83246410D01*
X94162685Y-83086450D01*
X94260232Y-82903954D01*
X94305720Y-82754000D01*
X94488457Y-82754000D01*
X94536178Y-82942451D01*
X94536179Y-82942455D01*
X94626583Y-83148554D01*
X94626585Y-83148557D01*
X94749674Y-83336957D01*
X94749677Y-83336962D01*
X94902101Y-83502538D01*
X94902104Y-83502541D01*
X95079697Y-83640767D01*
X95079699Y-83640768D01*
X95277627Y-83747880D01*
X95277628Y-83747881D01*
X95490487Y-83820956D01*
X95571000Y-83834391D01*
X95571000Y-82930702D01*
X95632007Y-82965925D01*
X95759174Y-83000000D01*
X95890826Y-83000000D01*
X96017993Y-82965925D01*
X96079000Y-82930702D01*
X96079000Y-83834391D01*
X96159512Y-83820956D01*
X96372371Y-83747881D01*
X96372372Y-83747880D01*
X96570300Y-83640768D01*
X96570302Y-83640767D01*
X96747895Y-83502541D01*
X96747898Y-83502538D01*
X96900322Y-83336962D01*
X96900325Y-83336957D01*
X97023414Y-83148557D01*
X97023416Y-83148554D01*
X97113820Y-82942455D01*
X97113821Y-82942451D01*
X97161543Y-82754000D01*
X96255703Y-82754000D01*
X96290925Y-82692993D01*
X96325000Y-82565826D01*
X96325000Y-82434174D01*
X96290925Y-82307007D01*
X96255703Y-82246000D01*
X97161543Y-82246000D01*
X97113821Y-82057548D01*
X97113820Y-82057544D01*
X97023416Y-81851445D01*
X97023414Y-81851442D01*
X96900325Y-81663042D01*
X96900322Y-81663037D01*
X96747898Y-81497461D01*
X96747895Y-81497458D01*
X96570302Y-81359232D01*
X96570300Y-81359231D01*
X96372372Y-81252119D01*
X96372371Y-81252118D01*
X96159507Y-81179041D01*
X96079000Y-81165606D01*
X96079000Y-82069297D01*
X96017993Y-82034075D01*
X95890826Y-82000000D01*
X95759174Y-82000000D01*
X95632007Y-82034075D01*
X95571000Y-82069297D01*
X95571000Y-81165606D01*
X95490492Y-81179041D01*
X95277628Y-81252118D01*
X95277627Y-81252119D01*
X95079699Y-81359231D01*
X95079697Y-81359232D01*
X94902104Y-81497458D01*
X94902101Y-81497461D01*
X94749677Y-81663037D01*
X94749674Y-81663042D01*
X94626585Y-81851442D01*
X94626583Y-81851445D01*
X94536179Y-82057544D01*
X94536178Y-82057548D01*
X94488457Y-82246000D01*
X95394297Y-82246000D01*
X95359075Y-82307007D01*
X95325000Y-82434174D01*
X95325000Y-82565826D01*
X95359075Y-82692993D01*
X95394297Y-82754000D01*
X94488457Y-82754000D01*
X94305720Y-82754000D01*
X94320300Y-82705934D01*
X94340583Y-82500000D01*
X94320300Y-82294066D01*
X94260232Y-82096046D01*
X94162685Y-81913550D01*
X94031410Y-81753590D01*
X93940544Y-81679019D01*
X93871455Y-81622319D01*
X93871453Y-81622318D01*
X93871450Y-81622315D01*
X93871448Y-81622313D01*
X93871444Y-81622311D01*
X93688954Y-81524768D01*
X93688949Y-81524766D01*
X93490935Y-81464700D01*
X93490930Y-81464699D01*
X93285000Y-81444417D01*
X93079069Y-81464699D01*
X93079064Y-81464700D01*
X92881050Y-81524766D01*
X92881045Y-81524768D01*
X92698555Y-81622311D01*
X92698544Y-81622319D01*
X92538591Y-81753588D01*
X92538588Y-81753591D01*
X92407319Y-81913544D01*
X92407311Y-81913555D01*
X92309768Y-82096045D01*
X92309766Y-82096050D01*
X92249700Y-82294064D01*
X92249699Y-82294069D01*
X92229417Y-82499999D01*
X92229417Y-82500000D01*
X91245000Y-82500000D01*
X91245000Y-82434174D01*
X91210925Y-82307007D01*
X91175703Y-82246000D01*
X92081543Y-82246000D01*
X92033821Y-82057548D01*
X92033820Y-82057544D01*
X91943416Y-81851445D01*
X91943414Y-81851442D01*
X91820325Y-81663042D01*
X91820322Y-81663037D01*
X91667898Y-81497461D01*
X91667895Y-81497458D01*
X91490302Y-81359232D01*
X91490300Y-81359231D01*
X91292372Y-81252119D01*
X91292371Y-81252118D01*
X91079507Y-81179041D01*
X90999000Y-81165606D01*
X90999000Y-82069297D01*
X90937993Y-82034075D01*
X90810826Y-82000000D01*
X90679174Y-82000000D01*
X90552007Y-82034075D01*
X90491000Y-82069297D01*
X90491000Y-81165606D01*
X90410492Y-81179041D01*
X90197628Y-81252118D01*
X90197627Y-81252119D01*
X89999699Y-81359231D01*
X89999697Y-81359232D01*
X89822104Y-81497458D01*
X89822101Y-81497461D01*
X89669677Y-81663037D01*
X89669674Y-81663042D01*
X89546585Y-81851442D01*
X89546583Y-81851445D01*
X89456179Y-82057544D01*
X89456178Y-82057548D01*
X89408457Y-82246000D01*
X90314297Y-82246000D01*
X90279075Y-82307007D01*
X90245000Y-82434174D01*
X90245000Y-82565826D01*
X90279075Y-82692993D01*
X90314297Y-82754000D01*
X89408457Y-82754000D01*
X89225720Y-82754000D01*
X89240300Y-82705934D01*
X89260583Y-82500000D01*
X89240300Y-82294066D01*
X89180232Y-82096046D01*
X89082685Y-81913550D01*
X88951410Y-81753590D01*
X88860544Y-81679019D01*
X88791455Y-81622319D01*
X88791453Y-81622318D01*
X88791450Y-81622315D01*
X88791448Y-81622313D01*
X88791444Y-81622311D01*
X88608954Y-81524768D01*
X88608949Y-81524766D01*
X88410935Y-81464700D01*
X88410930Y-81464699D01*
X88205000Y-81444417D01*
X87999069Y-81464699D01*
X87999064Y-81464700D01*
X87801050Y-81524766D01*
X87801045Y-81524768D01*
X87618555Y-81622311D01*
X87618544Y-81622319D01*
X87458591Y-81753588D01*
X87458588Y-81753591D01*
X87327319Y-81913544D01*
X87327311Y-81913555D01*
X87229768Y-82096045D01*
X87229766Y-82096050D01*
X87169700Y-82294064D01*
X87169699Y-82294069D01*
X87149417Y-82499999D01*
X87149417Y-82500000D01*
X86165000Y-82500000D01*
X86165000Y-82434174D01*
X86130925Y-82307007D01*
X86095703Y-82246000D01*
X87001543Y-82246000D01*
X86953821Y-82057548D01*
X86953820Y-82057544D01*
X86863416Y-81851445D01*
X86863414Y-81851442D01*
X86740325Y-81663042D01*
X86740322Y-81663037D01*
X86587898Y-81497461D01*
X86587895Y-81497458D01*
X86410302Y-81359232D01*
X86410300Y-81359231D01*
X86212372Y-81252119D01*
X86212371Y-81252118D01*
X85999507Y-81179041D01*
X85919000Y-81165606D01*
X85919000Y-82069297D01*
X85857993Y-82034075D01*
X85730826Y-82000000D01*
X85599174Y-82000000D01*
X85472007Y-82034075D01*
X85411000Y-82069297D01*
X85411000Y-81165606D01*
X85330492Y-81179041D01*
X85117628Y-81252118D01*
X85117627Y-81252119D01*
X84919699Y-81359231D01*
X84919697Y-81359232D01*
X84742104Y-81497458D01*
X84742101Y-81497461D01*
X84589677Y-81663037D01*
X84589674Y-81663042D01*
X84466585Y-81851442D01*
X84466583Y-81851445D01*
X84376179Y-82057544D01*
X84376178Y-82057548D01*
X84328457Y-82246000D01*
X85234297Y-82246000D01*
X85199075Y-82307007D01*
X85165000Y-82434174D01*
X85165000Y-82565826D01*
X85199075Y-82692993D01*
X85234297Y-82754000D01*
X84328457Y-82754000D01*
X84175500Y-82754000D01*
X84175500Y-81630252D01*
X84163867Y-81571769D01*
X84163866Y-81571767D01*
X84119552Y-81505447D01*
X84053232Y-81461133D01*
X84053230Y-81461132D01*
X83994748Y-81449500D01*
X82255252Y-81449500D01*
X82196769Y-81461132D01*
X82196767Y-81461133D01*
X82130447Y-81505447D01*
X82086133Y-81571767D01*
X82086132Y-81571769D01*
X82074500Y-81630251D01*
X82074500Y-83369748D01*
X66590257Y-83369748D01*
X66749379Y-83288672D01*
X66937527Y-83151974D01*
X67101974Y-82987527D01*
X67238672Y-82799379D01*
X67344253Y-82592163D01*
X67416119Y-82370982D01*
X67452500Y-82141282D01*
X67452500Y-81908718D01*
X67416119Y-81679018D01*
X67344253Y-81457837D01*
X67238672Y-81250621D01*
X67101974Y-81062473D01*
X67101967Y-81062465D01*
X66937534Y-80898032D01*
X66937526Y-80898025D01*
X66749381Y-80761329D01*
X66542169Y-80655750D01*
X66542161Y-80655746D01*
X66320980Y-80583880D01*
X66091295Y-80547501D01*
X66091283Y-80547500D01*
X66091282Y-80547500D01*
X65858718Y-80547500D01*
X65858716Y-80547500D01*
X65858704Y-80547501D01*
X65629020Y-80583880D01*
X65629019Y-80583880D01*
X65407838Y-80655746D01*
X65407830Y-80655750D01*
X65200618Y-80761329D01*
X65012473Y-80898025D01*
X65012465Y-80898032D01*
X64848032Y-81062465D01*
X64848025Y-81062473D01*
X64711329Y-81250618D01*
X64605750Y-81457830D01*
X64605746Y-81457838D01*
X64533880Y-81679019D01*
X64533880Y-81679020D01*
X64497501Y-81908704D01*
X64497500Y-81908720D01*
X64497500Y-82141279D01*
X63151900Y-82141279D01*
X63151900Y-80169983D01*
X123634500Y-80169983D01*
X123634501Y-80169999D01*
X123668910Y-80387246D01*
X123668910Y-80387247D01*
X123736886Y-80596455D01*
X123736887Y-80596457D01*
X123767097Y-80655746D01*
X123836751Y-80792449D01*
X123966047Y-80970410D01*
X123966050Y-80970413D01*
X123966053Y-80970417D01*
X124121582Y-81125946D01*
X124121585Y-81125948D01*
X124121590Y-81125953D01*
X124299551Y-81255249D01*
X124495546Y-81355114D01*
X124704751Y-81423089D01*
X124796322Y-81437592D01*
X124922000Y-81457498D01*
X124922006Y-81457498D01*
X124922014Y-81457500D01*
X124922016Y-81457500D01*
X125141984Y-81457500D01*
X125141986Y-81457500D01*
X125359249Y-81423089D01*
X125568454Y-81355114D01*
X125764449Y-81255249D01*
X125942410Y-81125953D01*
X126097953Y-80970410D01*
X126227249Y-80792449D01*
X126327114Y-80596454D01*
X126395089Y-80387249D01*
X126429500Y-80169986D01*
X126429500Y-79950014D01*
X126395089Y-79732751D01*
X126327114Y-79523546D01*
X126227249Y-79327551D01*
X126097953Y-79149590D01*
X126097948Y-79149585D01*
X126097946Y-79149582D01*
X125942417Y-78994053D01*
X125942413Y-78994050D01*
X125942410Y-78994047D01*
X125764449Y-78864751D01*
X125568457Y-78764887D01*
X125568455Y-78764886D01*
X125359247Y-78696910D01*
X125141999Y-78662501D01*
X125141987Y-78662500D01*
X125141986Y-78662500D01*
X124922014Y-78662500D01*
X124922012Y-78662500D01*
X124922000Y-78662501D01*
X124704753Y-78696910D01*
X124704752Y-78696910D01*
X124495544Y-78764886D01*
X124495542Y-78764887D01*
X124299550Y-78864751D01*
X124121582Y-78994053D01*
X123966053Y-79149582D01*
X123836751Y-79327550D01*
X123736887Y-79523542D01*
X123736886Y-79523544D01*
X123668910Y-79732752D01*
X123668910Y-79732753D01*
X123634501Y-79950000D01*
X123634500Y-79950016D01*
X123634500Y-80169983D01*
X63151900Y-80169983D01*
X63151900Y-75850001D01*
X114694318Y-75850001D01*
X114714954Y-76006755D01*
X114714957Y-76006765D01*
X114775462Y-76152838D01*
X114775464Y-76152841D01*
X114871717Y-76278282D01*
X114967971Y-76352139D01*
X114997159Y-76374536D01*
X115143238Y-76435044D01*
X115143242Y-76435044D01*
X115143244Y-76435045D01*
X115299998Y-76455682D01*
X115300000Y-76455682D01*
X115300002Y-76455682D01*
X115456755Y-76435045D01*
X115456755Y-76435044D01*
X115456762Y-76435044D01*
X115602841Y-76374536D01*
X115728282Y-76278282D01*
X115749983Y-76250000D01*
X124484417Y-76250000D01*
X124504699Y-76455930D01*
X124504700Y-76455935D01*
X124564766Y-76653949D01*
X124564768Y-76653954D01*
X124662311Y-76836444D01*
X124662313Y-76836448D01*
X124662315Y-76836450D01*
X124793590Y-76996410D01*
X124953550Y-77127685D01*
X124953553Y-77127686D01*
X124953555Y-77127688D01*
X125028912Y-77167967D01*
X125136046Y-77225232D01*
X125334066Y-77285300D01*
X125540000Y-77305583D01*
X125745934Y-77285300D01*
X125943954Y-77225232D01*
X126126450Y-77127685D01*
X126286410Y-76996410D01*
X126417685Y-76836450D01*
X126515232Y-76653954D01*
X126575300Y-76455934D01*
X126595583Y-76250000D01*
X126575300Y-76044066D01*
X126515232Y-75846046D01*
X126417685Y-75663550D01*
X126286410Y-75503590D01*
X126126450Y-75372315D01*
X126126448Y-75372313D01*
X126126444Y-75372311D01*
X125943954Y-75274768D01*
X125943949Y-75274766D01*
X125745935Y-75214700D01*
X125745930Y-75214699D01*
X125540000Y-75194417D01*
X125334069Y-75214699D01*
X125334064Y-75214700D01*
X125136050Y-75274766D01*
X125136045Y-75274768D01*
X124953555Y-75372311D01*
X124953544Y-75372319D01*
X124793591Y-75503588D01*
X124793588Y-75503591D01*
X124662319Y-75663544D01*
X124662311Y-75663555D01*
X124564768Y-75846045D01*
X124564766Y-75846050D01*
X124504700Y-76044064D01*
X124504699Y-76044069D01*
X124484417Y-76249999D01*
X124484417Y-76250000D01*
X115749983Y-76250000D01*
X115824536Y-76152841D01*
X115885044Y-76006762D01*
X115905682Y-75850000D01*
X115905161Y-75846046D01*
X115885045Y-75693244D01*
X115885044Y-75693242D01*
X115885044Y-75693238D01*
X115824536Y-75547159D01*
X115791105Y-75503591D01*
X115728282Y-75421717D01*
X115602841Y-75325464D01*
X115602838Y-75325462D01*
X115456765Y-75264957D01*
X115456755Y-75264954D01*
X115300002Y-75244318D01*
X115299998Y-75244318D01*
X115143244Y-75264954D01*
X115143234Y-75264957D01*
X114997161Y-75325462D01*
X114997158Y-75325464D01*
X114871717Y-75421717D01*
X114775464Y-75547158D01*
X114775462Y-75547161D01*
X114714957Y-75693234D01*
X114714954Y-75693244D01*
X114694318Y-75849998D01*
X114694318Y-75850001D01*
X63151900Y-75850001D01*
X63151900Y-74616111D01*
X78097757Y-74616111D01*
X78109389Y-74674593D01*
X78109390Y-74674595D01*
X78153704Y-74740915D01*
X78220024Y-74785229D01*
X78220026Y-74785230D01*
X78278509Y-74796863D01*
X79918005Y-74796863D01*
X79976488Y-74785230D01*
X80042809Y-74740915D01*
X80087124Y-74674594D01*
X80098757Y-74616111D01*
X80098757Y-73710000D01*
X124484417Y-73710000D01*
X124504699Y-73915930D01*
X124504700Y-73915935D01*
X124564766Y-74113949D01*
X124564768Y-74113954D01*
X124662311Y-74296444D01*
X124662313Y-74296448D01*
X124662315Y-74296450D01*
X124793590Y-74456410D01*
X124953550Y-74587685D01*
X124953553Y-74587686D01*
X124953555Y-74587688D01*
X125006731Y-74616111D01*
X125136046Y-74685232D01*
X125334066Y-74745300D01*
X125540000Y-74765583D01*
X125745934Y-74745300D01*
X125943954Y-74685232D01*
X126126450Y-74587685D01*
X126286410Y-74456410D01*
X126417685Y-74296450D01*
X126515232Y-74113954D01*
X126575300Y-73915934D01*
X126595583Y-73710000D01*
X126575300Y-73504066D01*
X126515232Y-73306046D01*
X126417685Y-73123550D01*
X126297099Y-72976615D01*
X126286411Y-72963591D01*
X126286408Y-72963588D01*
X126126455Y-72832319D01*
X126126453Y-72832318D01*
X126126450Y-72832315D01*
X126126448Y-72832313D01*
X126126444Y-72832311D01*
X125943954Y-72734768D01*
X125943949Y-72734766D01*
X125745935Y-72674700D01*
X125745930Y-72674699D01*
X125540000Y-72654417D01*
X125334069Y-72674699D01*
X125334064Y-72674700D01*
X125136050Y-72734766D01*
X125136045Y-72734768D01*
X124953555Y-72832311D01*
X124953544Y-72832319D01*
X124793591Y-72963588D01*
X124793588Y-72963591D01*
X124662319Y-73123544D01*
X124662311Y-73123555D01*
X124564768Y-73306045D01*
X124564766Y-73306050D01*
X124504700Y-73504064D01*
X124504699Y-73504069D01*
X124484417Y-73709999D01*
X124484417Y-73710000D01*
X80098757Y-73710000D01*
X80098757Y-72976615D01*
X80087124Y-72918132D01*
X80087123Y-72918130D01*
X80042809Y-72851810D01*
X79976489Y-72807496D01*
X79976487Y-72807495D01*
X79918005Y-72795863D01*
X78278509Y-72795863D01*
X78220026Y-72807495D01*
X78220024Y-72807496D01*
X78153704Y-72851810D01*
X78109390Y-72918130D01*
X78109389Y-72918132D01*
X78097757Y-72976614D01*
X78097757Y-74616111D01*
X63151900Y-74616111D01*
X63151900Y-70093999D01*
X67064024Y-70093999D01*
X67077962Y-70181997D01*
X67077962Y-70181998D01*
X67149001Y-70400634D01*
X67149005Y-70400642D01*
X67253368Y-70605465D01*
X67388499Y-70791458D01*
X67551040Y-70953999D01*
X67737030Y-71089129D01*
X67775658Y-71108811D01*
X67806724Y-71145186D01*
X67802971Y-71192874D01*
X67766596Y-71223940D01*
X67747283Y-71226999D01*
X67530252Y-71226999D01*
X67471769Y-71238631D01*
X67471767Y-71238632D01*
X67405447Y-71282946D01*
X67361133Y-71349266D01*
X67361132Y-71349268D01*
X67349500Y-71407750D01*
X67349500Y-73352247D01*
X67361132Y-73410729D01*
X67361133Y-73410731D01*
X67405447Y-73477051D01*
X67471767Y-73521365D01*
X67471769Y-73521366D01*
X67530252Y-73532999D01*
X69569748Y-73532999D01*
X69628231Y-73521366D01*
X69694552Y-73477051D01*
X69738867Y-73410730D01*
X69750500Y-73352247D01*
X69750500Y-72650001D01*
X86119318Y-72650001D01*
X86139954Y-72806755D01*
X86139957Y-72806765D01*
X86200462Y-72952838D01*
X86200464Y-72952841D01*
X86296717Y-73078282D01*
X86355719Y-73123555D01*
X86422159Y-73174536D01*
X86568238Y-73235044D01*
X86568242Y-73235044D01*
X86568244Y-73235045D01*
X86724998Y-73255682D01*
X86725000Y-73255682D01*
X86725002Y-73255682D01*
X86881755Y-73235045D01*
X86881755Y-73235044D01*
X86881762Y-73235044D01*
X87027841Y-73174536D01*
X87153282Y-73078282D01*
X87249536Y-72952841D01*
X87310044Y-72806762D01*
X87319522Y-72734768D01*
X87330682Y-72650001D01*
X87330682Y-72649998D01*
X87310045Y-72493244D01*
X87310044Y-72493242D01*
X87310044Y-72493238D01*
X87249536Y-72347159D01*
X87156248Y-72225583D01*
X87153282Y-72221717D01*
X87027841Y-72125464D01*
X87027838Y-72125462D01*
X86881765Y-72064957D01*
X86881755Y-72064954D01*
X86725002Y-72044318D01*
X86724998Y-72044318D01*
X86568244Y-72064954D01*
X86568234Y-72064957D01*
X86422161Y-72125462D01*
X86422158Y-72125464D01*
X86296717Y-72221717D01*
X86200464Y-72347158D01*
X86200462Y-72347161D01*
X86139957Y-72493234D01*
X86139954Y-72493244D01*
X86119318Y-72649998D01*
X86119318Y-72650001D01*
X69750500Y-72650001D01*
X69750500Y-71407751D01*
X69738867Y-71349268D01*
X69703518Y-71296365D01*
X77785261Y-71296365D01*
X77805207Y-71524358D01*
X77805210Y-71524374D01*
X77864442Y-71745430D01*
X77864443Y-71745432D01*
X77961168Y-71952860D01*
X78011156Y-72024252D01*
X78698257Y-71337151D01*
X78698257Y-71349024D01*
X78725516Y-71450757D01*
X78778177Y-71541969D01*
X78852651Y-71616443D01*
X78943863Y-71669104D01*
X79045596Y-71696363D01*
X79057467Y-71696363D01*
X78370366Y-72383462D01*
X78441760Y-72433451D01*
X78441758Y-72433451D01*
X78649187Y-72530176D01*
X78649189Y-72530177D01*
X78870245Y-72589409D01*
X78870261Y-72589412D01*
X79098255Y-72609359D01*
X79098259Y-72609359D01*
X79326252Y-72589412D01*
X79326268Y-72589409D01*
X79547324Y-72530177D01*
X79547326Y-72530176D01*
X79754751Y-72433452D01*
X79826145Y-72383461D01*
X79139047Y-71696363D01*
X79150918Y-71696363D01*
X79252651Y-71669104D01*
X79343863Y-71616443D01*
X79418337Y-71541969D01*
X79470998Y-71450757D01*
X79498257Y-71349024D01*
X79498257Y-71337153D01*
X80185355Y-72024251D01*
X80235346Y-71952857D01*
X80332070Y-71745432D01*
X80332071Y-71745430D01*
X80391303Y-71524374D01*
X80391306Y-71524358D01*
X80411253Y-71296365D01*
X80411253Y-71296360D01*
X80391306Y-71068367D01*
X80391303Y-71068351D01*
X80332071Y-70847295D01*
X80332070Y-70847293D01*
X80321675Y-70825001D01*
X112969318Y-70825001D01*
X112989954Y-70981755D01*
X112989957Y-70981765D01*
X113050462Y-71127838D01*
X113050464Y-71127841D01*
X113146717Y-71253282D01*
X113185378Y-71282947D01*
X113272159Y-71349536D01*
X113418238Y-71410044D01*
X113418242Y-71410044D01*
X113418244Y-71410045D01*
X113574998Y-71430682D01*
X113575000Y-71430682D01*
X113575002Y-71430682D01*
X113731755Y-71410045D01*
X113731755Y-71410044D01*
X113731762Y-71410044D01*
X113877841Y-71349536D01*
X114003282Y-71253282D01*
X114067186Y-71170000D01*
X124484417Y-71170000D01*
X124504699Y-71375930D01*
X124504700Y-71375935D01*
X124564766Y-71573949D01*
X124564768Y-71573954D01*
X124662311Y-71756444D01*
X124662313Y-71756448D01*
X124662315Y-71756450D01*
X124793590Y-71916410D01*
X124953550Y-72047685D01*
X124953553Y-72047686D01*
X124953555Y-72047688D01*
X124985861Y-72064956D01*
X125136046Y-72145232D01*
X125334066Y-72205300D01*
X125540000Y-72225583D01*
X125745934Y-72205300D01*
X125943954Y-72145232D01*
X126126450Y-72047685D01*
X126286410Y-71916410D01*
X126417685Y-71756450D01*
X126515232Y-71573954D01*
X126575300Y-71375934D01*
X126595583Y-71170000D01*
X126575300Y-70964066D01*
X126515232Y-70766046D01*
X126417685Y-70583550D01*
X126286410Y-70423590D01*
X126253666Y-70396718D01*
X126126455Y-70292319D01*
X126126453Y-70292318D01*
X126126450Y-70292315D01*
X126126448Y-70292313D01*
X126126444Y-70292311D01*
X125943954Y-70194768D01*
X125943949Y-70194766D01*
X125745935Y-70134700D01*
X125745930Y-70134699D01*
X125540000Y-70114417D01*
X125334069Y-70134699D01*
X125334064Y-70134700D01*
X125136050Y-70194766D01*
X125136045Y-70194768D01*
X124953555Y-70292311D01*
X124953544Y-70292319D01*
X124793591Y-70423588D01*
X124793588Y-70423591D01*
X124662319Y-70583544D01*
X124662311Y-70583555D01*
X124564768Y-70766045D01*
X124564766Y-70766050D01*
X124504700Y-70964064D01*
X124504699Y-70964069D01*
X124484417Y-71169999D01*
X124484417Y-71170000D01*
X114067186Y-71170000D01*
X114099536Y-71127841D01*
X114160044Y-70981762D01*
X114180682Y-70825000D01*
X114172920Y-70766045D01*
X114160045Y-70668244D01*
X114160044Y-70668242D01*
X114160044Y-70668238D01*
X114099536Y-70522159D01*
X114003282Y-70396718D01*
X114003279Y-70396716D01*
X114003278Y-70396714D01*
X113974434Y-70374581D01*
X113950517Y-70333154D01*
X113962898Y-70286949D01*
X113974427Y-70275419D01*
X114003282Y-70253279D01*
X114099536Y-70127838D01*
X114160044Y-69981759D01*
X114180682Y-69824997D01*
X114173124Y-69767590D01*
X114160045Y-69668241D01*
X114160044Y-69668239D01*
X114160044Y-69668235D01*
X114099536Y-69522156D01*
X114077139Y-69492968D01*
X114003282Y-69396714D01*
X113877841Y-69300461D01*
X113877838Y-69300459D01*
X113731765Y-69239954D01*
X113731755Y-69239951D01*
X113575002Y-69219315D01*
X113574998Y-69219315D01*
X113418244Y-69239951D01*
X113418234Y-69239954D01*
X113272161Y-69300459D01*
X113272158Y-69300461D01*
X113146717Y-69396714D01*
X113050464Y-69522155D01*
X113050462Y-69522158D01*
X112989957Y-69668231D01*
X112989954Y-69668241D01*
X112969318Y-69824995D01*
X112969318Y-69824998D01*
X112989954Y-69981752D01*
X112989957Y-69981762D01*
X113044904Y-70114417D01*
X113050464Y-70127838D01*
X113146718Y-70253279D01*
X113146719Y-70253280D01*
X113146721Y-70253282D01*
X113175563Y-70275413D01*
X113199481Y-70316840D01*
X113187101Y-70363045D01*
X113175564Y-70374582D01*
X113146722Y-70396714D01*
X113146720Y-70396716D01*
X113146718Y-70396718D01*
X113126098Y-70423591D01*
X113050462Y-70522162D01*
X112989957Y-70668234D01*
X112989954Y-70668244D01*
X112969318Y-70824998D01*
X112969318Y-70825001D01*
X80321675Y-70825001D01*
X80235345Y-70639865D01*
X80185356Y-70568473D01*
X80185356Y-70568472D01*
X79498257Y-71255571D01*
X79498257Y-71243702D01*
X79470998Y-71141969D01*
X79418337Y-71050757D01*
X79343863Y-70976283D01*
X79252651Y-70923622D01*
X79150918Y-70896363D01*
X79139045Y-70896363D01*
X79826146Y-70209262D01*
X79754753Y-70159274D01*
X79754755Y-70159274D01*
X79547326Y-70062549D01*
X79547324Y-70062548D01*
X79326268Y-70003316D01*
X79326252Y-70003313D01*
X79098259Y-69983367D01*
X79098255Y-69983367D01*
X78870261Y-70003313D01*
X78870245Y-70003316D01*
X78649189Y-70062548D01*
X78649187Y-70062549D01*
X78441759Y-70159274D01*
X78370366Y-70209262D01*
X79057467Y-70896363D01*
X79045596Y-70896363D01*
X78943863Y-70923622D01*
X78852651Y-70976283D01*
X78778177Y-71050757D01*
X78725516Y-71141969D01*
X78698257Y-71243702D01*
X78698257Y-71255573D01*
X78011156Y-70568472D01*
X77961168Y-70639865D01*
X77864443Y-70847293D01*
X77864442Y-70847295D01*
X77805210Y-71068351D01*
X77805207Y-71068367D01*
X77785261Y-71296360D01*
X77785261Y-71296365D01*
X69703518Y-71296365D01*
X69694552Y-71282946D01*
X69628232Y-71238632D01*
X69628230Y-71238631D01*
X69569748Y-71226999D01*
X69352717Y-71226999D01*
X69308523Y-71208693D01*
X69290217Y-71164499D01*
X69308523Y-71120305D01*
X69324342Y-71108811D01*
X69362969Y-71089129D01*
X69548959Y-70953999D01*
X69711500Y-70791458D01*
X69846631Y-70605465D01*
X69950994Y-70400642D01*
X69950998Y-70400634D01*
X70022037Y-70181998D01*
X70022037Y-70181997D01*
X70035975Y-70093999D01*
X69038438Y-70093999D01*
X69062518Y-70052291D01*
X69100000Y-69912408D01*
X69100000Y-69767590D01*
X69062518Y-69627707D01*
X69038438Y-69585999D01*
X70035975Y-69585999D01*
X70035975Y-69585998D01*
X70022037Y-69498000D01*
X70022037Y-69497999D01*
X69950998Y-69279363D01*
X69950994Y-69279355D01*
X69846631Y-69074532D01*
X69711500Y-68888539D01*
X69548959Y-68725998D01*
X69416828Y-68630000D01*
X124484417Y-68630000D01*
X124504699Y-68835930D01*
X124504700Y-68835935D01*
X124564766Y-69033949D01*
X124564768Y-69033954D01*
X124662311Y-69216444D01*
X124662319Y-69216455D01*
X124793588Y-69376408D01*
X124793591Y-69376411D01*
X124818332Y-69396715D01*
X124953550Y-69507685D01*
X124953553Y-69507686D01*
X124953555Y-69507688D01*
X125028912Y-69547967D01*
X125136046Y-69605232D01*
X125334066Y-69665300D01*
X125540000Y-69685583D01*
X125745934Y-69665300D01*
X125943954Y-69605232D01*
X126126450Y-69507685D01*
X126286410Y-69376410D01*
X126417685Y-69216450D01*
X126515232Y-69033954D01*
X126575300Y-68835934D01*
X126595583Y-68630000D01*
X126575300Y-68424066D01*
X126515232Y-68226046D01*
X126457967Y-68118912D01*
X126417688Y-68043555D01*
X126417686Y-68043553D01*
X126417685Y-68043550D01*
X126286410Y-67883590D01*
X126126450Y-67752315D01*
X126126448Y-67752313D01*
X126126444Y-67752311D01*
X125943954Y-67654768D01*
X125943949Y-67654766D01*
X125745935Y-67594700D01*
X125745930Y-67594699D01*
X125540000Y-67574417D01*
X125334069Y-67594699D01*
X125334064Y-67594700D01*
X125136050Y-67654766D01*
X125136045Y-67654768D01*
X124953555Y-67752311D01*
X124953544Y-67752319D01*
X124793591Y-67883588D01*
X124793588Y-67883591D01*
X124662319Y-68043544D01*
X124662311Y-68043555D01*
X124564768Y-68226045D01*
X124564766Y-68226050D01*
X124504700Y-68424064D01*
X124504699Y-68424069D01*
X124484417Y-68629999D01*
X124484417Y-68630000D01*
X69416828Y-68630000D01*
X69362966Y-68590867D01*
X69158143Y-68486504D01*
X69158135Y-68486500D01*
X69088181Y-68463771D01*
X69051807Y-68432704D01*
X69048054Y-68385016D01*
X69079119Y-68348643D01*
X69201804Y-68286133D01*
X69348629Y-68179458D01*
X69476959Y-68051128D01*
X69583634Y-67904303D01*
X69666027Y-67742597D01*
X69722109Y-67569994D01*
X69750500Y-67390742D01*
X69750500Y-67209256D01*
X69722109Y-67030004D01*
X69666027Y-66857401D01*
X69583634Y-66695695D01*
X69476959Y-66548870D01*
X69476952Y-66548862D01*
X69348636Y-66420546D01*
X69348628Y-66420539D01*
X69261275Y-66357073D01*
X108188792Y-66357073D01*
X108209428Y-66513827D01*
X108209431Y-66513837D01*
X108269936Y-66659910D01*
X108269938Y-66659913D01*
X108366191Y-66785354D01*
X108455479Y-66853866D01*
X108491633Y-66881608D01*
X108637712Y-66942116D01*
X108637716Y-66942116D01*
X108637718Y-66942117D01*
X108794472Y-66962754D01*
X108794474Y-66962754D01*
X108794476Y-66962754D01*
X108951229Y-66942117D01*
X108951229Y-66942116D01*
X108951236Y-66942116D01*
X109097315Y-66881608D01*
X109222756Y-66785354D01*
X109319010Y-66659913D01*
X109379518Y-66513834D01*
X109391800Y-66420540D01*
X109400156Y-66357073D01*
X109400156Y-66357070D01*
X109379519Y-66200316D01*
X109379518Y-66200314D01*
X109379518Y-66200310D01*
X109333826Y-66090000D01*
X124177346Y-66090000D01*
X124195931Y-66314284D01*
X124251178Y-66532451D01*
X124251179Y-66532455D01*
X124341583Y-66738554D01*
X124341585Y-66738558D01*
X124416920Y-66853866D01*
X124416921Y-66853866D01*
X125055841Y-66214945D01*
X125074075Y-66282993D01*
X125139901Y-66397007D01*
X125232993Y-66490099D01*
X125347007Y-66555925D01*
X125415051Y-66574157D01*
X124774311Y-67214898D01*
X124774311Y-67214899D01*
X124794698Y-67230767D01*
X124992627Y-67337880D01*
X124992628Y-67337881D01*
X125205487Y-67410956D01*
X125427476Y-67448000D01*
X125652524Y-67448000D01*
X125874512Y-67410956D01*
X126087371Y-67337881D01*
X126087372Y-67337881D01*
X126285303Y-67230766D01*
X126305688Y-67214899D01*
X125664947Y-66574158D01*
X125732993Y-66555925D01*
X125847007Y-66490099D01*
X125940099Y-66397007D01*
X126005925Y-66282993D01*
X126024158Y-66214947D01*
X126663077Y-66853866D01*
X126738416Y-66738553D01*
X126828820Y-66532455D01*
X126828821Y-66532451D01*
X126884068Y-66314284D01*
X126902653Y-66090000D01*
X126884068Y-65865715D01*
X126828821Y-65647548D01*
X126828820Y-65647544D01*
X126738416Y-65441445D01*
X126738414Y-65441442D01*
X126663078Y-65326132D01*
X126663077Y-65326132D01*
X126024157Y-65965051D01*
X126005925Y-65897007D01*
X125940099Y-65782993D01*
X125847007Y-65689901D01*
X125732993Y-65624075D01*
X125664947Y-65605841D01*
X126305688Y-64965100D01*
X126285301Y-64949232D01*
X126087372Y-64842119D01*
X126087371Y-64842118D01*
X125874512Y-64769043D01*
X125652524Y-64732000D01*
X125427476Y-64732000D01*
X125205487Y-64769043D01*
X124992628Y-64842118D01*
X124992627Y-64842119D01*
X124794694Y-64949234D01*
X124774311Y-64965099D01*
X124774310Y-64965099D01*
X125415052Y-65605841D01*
X125347007Y-65624075D01*
X125232993Y-65689901D01*
X125139901Y-65782993D01*
X125074075Y-65897007D01*
X125055841Y-65965052D01*
X124416921Y-65326132D01*
X124416920Y-65326132D01*
X124341585Y-65441441D01*
X124341583Y-65441445D01*
X124251179Y-65647544D01*
X124251178Y-65647548D01*
X124195931Y-65865715D01*
X124177346Y-66090000D01*
X109333826Y-66090000D01*
X109319010Y-66054231D01*
X109295947Y-66024174D01*
X109222756Y-65928789D01*
X109097315Y-65832536D01*
X109097312Y-65832534D01*
X108951239Y-65772029D01*
X108951229Y-65772026D01*
X108794476Y-65751390D01*
X108794472Y-65751390D01*
X108637718Y-65772026D01*
X108637708Y-65772029D01*
X108491635Y-65832534D01*
X108491632Y-65832536D01*
X108366191Y-65928789D01*
X108269938Y-66054230D01*
X108269936Y-66054233D01*
X108209431Y-66200306D01*
X108209428Y-66200316D01*
X108188792Y-66357070D01*
X108188792Y-66357073D01*
X69261275Y-66357073D01*
X69201806Y-66313866D01*
X69040104Y-66231475D01*
X69040096Y-66231471D01*
X68867493Y-66175389D01*
X68688256Y-66147000D01*
X68688244Y-66146999D01*
X68688243Y-66146999D01*
X68411757Y-66146999D01*
X68411755Y-66146999D01*
X68411743Y-66147000D01*
X68232507Y-66175389D01*
X68232506Y-66175389D01*
X68059903Y-66231471D01*
X68059895Y-66231475D01*
X67898193Y-66313866D01*
X67751371Y-66420539D01*
X67751363Y-66420546D01*
X67623047Y-66548862D01*
X67623040Y-66548870D01*
X67516367Y-66695692D01*
X67433976Y-66857394D01*
X67433972Y-66857402D01*
X67377890Y-67030005D01*
X67377890Y-67030006D01*
X67349501Y-67209242D01*
X67349500Y-67209258D01*
X67349500Y-67390739D01*
X67349501Y-67390755D01*
X67377890Y-67569991D01*
X67377890Y-67569992D01*
X67433972Y-67742595D01*
X67433976Y-67742603D01*
X67516367Y-67904305D01*
X67623040Y-68051127D01*
X67623047Y-68051135D01*
X67751363Y-68179451D01*
X67751371Y-68179458D01*
X67898196Y-68286133D01*
X68020878Y-68348642D01*
X68051945Y-68385016D01*
X68048192Y-68432704D01*
X68011818Y-68463771D01*
X67941864Y-68486500D01*
X67941856Y-68486504D01*
X67737033Y-68590867D01*
X67551040Y-68725998D01*
X67388499Y-68888539D01*
X67253368Y-69074532D01*
X67149005Y-69279355D01*
X67149001Y-69279363D01*
X67077962Y-69497999D01*
X67077962Y-69498000D01*
X67064024Y-69585998D01*
X67064025Y-69585999D01*
X68061562Y-69585999D01*
X68037482Y-69627707D01*
X68000000Y-69767590D01*
X68000000Y-69912408D01*
X68037482Y-70052291D01*
X68061562Y-70093999D01*
X67064024Y-70093999D01*
X63151900Y-70093999D01*
X63151900Y-63550000D01*
X124484417Y-63550000D01*
X124504699Y-63755930D01*
X124504700Y-63755935D01*
X124564766Y-63953949D01*
X124564768Y-63953954D01*
X124662311Y-64136444D01*
X124662313Y-64136448D01*
X124662315Y-64136450D01*
X124793590Y-64296410D01*
X124953550Y-64427685D01*
X124953553Y-64427686D01*
X124953555Y-64427688D01*
X125028912Y-64467967D01*
X125136046Y-64525232D01*
X125334066Y-64585300D01*
X125540000Y-64605583D01*
X125745934Y-64585300D01*
X125943954Y-64525232D01*
X126126450Y-64427685D01*
X126286410Y-64296410D01*
X126417685Y-64136450D01*
X126515232Y-63953954D01*
X126575300Y-63755934D01*
X126595583Y-63550000D01*
X126575300Y-63344066D01*
X126515232Y-63146046D01*
X126417685Y-62963550D01*
X126286410Y-62803590D01*
X126221111Y-62750001D01*
X126126455Y-62672319D01*
X126126453Y-62672318D01*
X126126450Y-62672315D01*
X126126448Y-62672313D01*
X126126444Y-62672311D01*
X125943954Y-62574768D01*
X125943949Y-62574766D01*
X125745935Y-62514700D01*
X125745930Y-62514699D01*
X125540000Y-62494417D01*
X125334069Y-62514699D01*
X125334064Y-62514700D01*
X125136050Y-62574766D01*
X125136045Y-62574768D01*
X124953555Y-62672311D01*
X124953544Y-62672319D01*
X124793591Y-62803588D01*
X124793588Y-62803591D01*
X124662319Y-62963544D01*
X124662311Y-62963555D01*
X124564768Y-63146045D01*
X124564766Y-63146050D01*
X124504700Y-63344064D01*
X124504699Y-63344069D01*
X124484417Y-63549999D01*
X124484417Y-63550000D01*
X63151900Y-63550000D01*
X63151900Y-62750001D01*
X107269318Y-62750001D01*
X107289954Y-62906755D01*
X107289957Y-62906765D01*
X107350462Y-63052838D01*
X107350464Y-63052841D01*
X107446717Y-63178282D01*
X107542971Y-63252139D01*
X107572159Y-63274536D01*
X107718238Y-63335044D01*
X107718242Y-63335044D01*
X107718244Y-63335045D01*
X107874998Y-63355682D01*
X107875000Y-63355682D01*
X107875002Y-63355682D01*
X108031755Y-63335045D01*
X108031755Y-63335044D01*
X108031762Y-63335044D01*
X108177841Y-63274536D01*
X108303282Y-63178282D01*
X108399536Y-63052841D01*
X108460044Y-62906762D01*
X108480682Y-62750000D01*
X108460044Y-62593238D01*
X108399536Y-62447159D01*
X108377139Y-62417971D01*
X108303282Y-62321717D01*
X108177841Y-62225464D01*
X108177838Y-62225462D01*
X108031765Y-62164957D01*
X108031755Y-62164954D01*
X107875002Y-62144318D01*
X107874998Y-62144318D01*
X107718244Y-62164954D01*
X107718234Y-62164957D01*
X107572161Y-62225462D01*
X107572158Y-62225464D01*
X107446717Y-62321717D01*
X107350464Y-62447158D01*
X107350462Y-62447161D01*
X107289957Y-62593234D01*
X107289954Y-62593244D01*
X107269318Y-62749998D01*
X107269318Y-62750001D01*
X63151900Y-62750001D01*
X63151900Y-61550001D01*
X76394318Y-61550001D01*
X76414954Y-61706755D01*
X76414957Y-61706765D01*
X76475462Y-61852838D01*
X76475464Y-61852841D01*
X76571717Y-61978282D01*
X76667971Y-62052139D01*
X76697159Y-62074536D01*
X76843238Y-62135044D01*
X76843242Y-62135044D01*
X76843244Y-62135045D01*
X76999998Y-62155682D01*
X77000000Y-62155682D01*
X77000002Y-62155682D01*
X77156755Y-62135045D01*
X77156755Y-62135044D01*
X77156762Y-62135044D01*
X77302841Y-62074536D01*
X77428282Y-61978282D01*
X77524536Y-61852841D01*
X77585044Y-61706762D01*
X77605682Y-61550000D01*
X77585044Y-61393238D01*
X77524536Y-61247159D01*
X77502139Y-61217971D01*
X77428282Y-61121717D01*
X77302841Y-61025464D01*
X77302838Y-61025462D01*
X77156765Y-60964957D01*
X77156755Y-60964954D01*
X77000002Y-60944318D01*
X76999998Y-60944318D01*
X76843244Y-60964954D01*
X76843234Y-60964957D01*
X76697161Y-61025462D01*
X76697158Y-61025464D01*
X76571717Y-61121717D01*
X76475464Y-61247158D01*
X76475462Y-61247161D01*
X76414957Y-61393234D01*
X76414954Y-61393244D01*
X76394318Y-61549998D01*
X76394318Y-61550001D01*
X63151900Y-61550001D01*
X63151900Y-60774748D01*
X111324500Y-60774748D01*
X111336132Y-60833230D01*
X111336133Y-60833232D01*
X111380447Y-60899552D01*
X111446767Y-60943866D01*
X111446769Y-60943867D01*
X111505252Y-60955500D01*
X113244748Y-60955500D01*
X113303231Y-60943867D01*
X113369552Y-60899552D01*
X113413867Y-60833231D01*
X113425500Y-60774748D01*
X113425500Y-59905000D01*
X113859417Y-59905000D01*
X113879699Y-60110930D01*
X113879700Y-60110935D01*
X113939766Y-60308949D01*
X113939768Y-60308954D01*
X114037311Y-60491444D01*
X114037313Y-60491448D01*
X114037315Y-60491450D01*
X114168590Y-60651410D01*
X114328550Y-60782685D01*
X114328553Y-60782686D01*
X114328555Y-60782688D01*
X114372068Y-60805946D01*
X114511046Y-60880232D01*
X114709066Y-60940300D01*
X114915000Y-60960583D01*
X115120934Y-60940300D01*
X115318954Y-60880232D01*
X115501450Y-60782685D01*
X115661410Y-60651410D01*
X115792685Y-60491450D01*
X115890232Y-60308954D01*
X115950300Y-60110934D01*
X115970583Y-59905000D01*
X116399417Y-59905000D01*
X116419699Y-60110930D01*
X116419700Y-60110935D01*
X116479766Y-60308949D01*
X116479768Y-60308954D01*
X116577311Y-60491444D01*
X116577313Y-60491448D01*
X116577315Y-60491450D01*
X116708590Y-60651410D01*
X116868550Y-60782685D01*
X116868553Y-60782686D01*
X116868555Y-60782688D01*
X116912068Y-60805946D01*
X117051046Y-60880232D01*
X117249066Y-60940300D01*
X117455000Y-60960583D01*
X117660934Y-60940300D01*
X117858954Y-60880232D01*
X118041450Y-60782685D01*
X118201410Y-60651410D01*
X118332685Y-60491450D01*
X118430232Y-60308954D01*
X118490300Y-60110934D01*
X118510583Y-59905000D01*
X118505164Y-59849983D01*
X123634500Y-59849983D01*
X123634501Y-59849999D01*
X123668910Y-60067246D01*
X123668910Y-60067247D01*
X123736886Y-60276455D01*
X123736887Y-60276457D01*
X123836751Y-60472449D01*
X123966047Y-60650410D01*
X123966050Y-60650413D01*
X123966053Y-60650417D01*
X124121582Y-60805946D01*
X124121585Y-60805948D01*
X124121590Y-60805953D01*
X124299551Y-60935249D01*
X124495546Y-61035114D01*
X124704751Y-61103089D01*
X124796322Y-61117592D01*
X124922000Y-61137498D01*
X124922006Y-61137498D01*
X124922014Y-61137500D01*
X124922016Y-61137500D01*
X125141984Y-61137500D01*
X125141986Y-61137500D01*
X125359249Y-61103089D01*
X125568454Y-61035114D01*
X125764449Y-60935249D01*
X125942410Y-60805953D01*
X126097953Y-60650410D01*
X126227249Y-60472449D01*
X126327114Y-60276454D01*
X126395089Y-60067249D01*
X126429500Y-59849986D01*
X126429500Y-59630014D01*
X126395089Y-59412751D01*
X126327114Y-59203546D01*
X126227249Y-59007551D01*
X126097953Y-58829590D01*
X126097948Y-58829585D01*
X126097946Y-58829582D01*
X125942417Y-58674053D01*
X125942413Y-58674050D01*
X125942410Y-58674047D01*
X125764449Y-58544751D01*
X125687939Y-58505767D01*
X125568457Y-58444887D01*
X125568455Y-58444886D01*
X125359247Y-58376910D01*
X125141999Y-58342501D01*
X125141987Y-58342500D01*
X125141986Y-58342500D01*
X124922014Y-58342500D01*
X124922012Y-58342500D01*
X124922000Y-58342501D01*
X124704753Y-58376910D01*
X124704752Y-58376910D01*
X124495544Y-58444886D01*
X124495542Y-58444887D01*
X124299550Y-58544751D01*
X124121582Y-58674053D01*
X123966053Y-58829582D01*
X123836751Y-59007550D01*
X123736887Y-59203542D01*
X123736886Y-59203544D01*
X123668910Y-59412752D01*
X123668910Y-59412753D01*
X123634501Y-59630000D01*
X123634500Y-59630016D01*
X123634500Y-59849983D01*
X118505164Y-59849983D01*
X118490300Y-59699066D01*
X118430232Y-59501046D01*
X118332685Y-59318550D01*
X118201410Y-59158590D01*
X118189806Y-59149067D01*
X118041455Y-59027319D01*
X118041453Y-59027318D01*
X118041450Y-59027315D01*
X118041448Y-59027313D01*
X118041444Y-59027311D01*
X117858954Y-58929768D01*
X117858949Y-58929766D01*
X117660935Y-58869700D01*
X117660930Y-58869699D01*
X117455000Y-58849417D01*
X117249069Y-58869699D01*
X117249064Y-58869700D01*
X117051050Y-58929766D01*
X117051045Y-58929768D01*
X116868555Y-59027311D01*
X116868544Y-59027319D01*
X116708591Y-59158588D01*
X116708588Y-59158591D01*
X116577319Y-59318544D01*
X116577311Y-59318555D01*
X116479768Y-59501045D01*
X116479766Y-59501050D01*
X116419700Y-59699064D01*
X116419699Y-59699069D01*
X116399417Y-59904999D01*
X116399417Y-59905000D01*
X115970583Y-59905000D01*
X115950300Y-59699066D01*
X115890232Y-59501046D01*
X115792685Y-59318550D01*
X115661410Y-59158590D01*
X115649806Y-59149067D01*
X115501455Y-59027319D01*
X115501453Y-59027318D01*
X115501450Y-59027315D01*
X115501448Y-59027313D01*
X115501444Y-59027311D01*
X115318954Y-58929768D01*
X115318949Y-58929766D01*
X115120935Y-58869700D01*
X115120930Y-58869699D01*
X114915000Y-58849417D01*
X114709069Y-58869699D01*
X114709064Y-58869700D01*
X114511050Y-58929766D01*
X114511045Y-58929768D01*
X114328555Y-59027311D01*
X114328544Y-59027319D01*
X114168591Y-59158588D01*
X114168588Y-59158591D01*
X114037319Y-59318544D01*
X114037311Y-59318555D01*
X113939768Y-59501045D01*
X113939766Y-59501050D01*
X113879700Y-59699064D01*
X113879699Y-59699069D01*
X113859417Y-59904999D01*
X113859417Y-59905000D01*
X113425500Y-59905000D01*
X113425500Y-59035252D01*
X113413867Y-58976769D01*
X113413866Y-58976767D01*
X113369552Y-58910447D01*
X113303232Y-58866133D01*
X113303230Y-58866132D01*
X113244748Y-58854500D01*
X111505252Y-58854500D01*
X111446769Y-58866132D01*
X111446767Y-58866133D01*
X111380447Y-58910447D01*
X111336133Y-58976767D01*
X111336132Y-58976769D01*
X111324500Y-59035251D01*
X111324500Y-60774748D01*
X63151900Y-60774748D01*
X63151900Y-59519748D01*
X71699500Y-59519748D01*
X71711132Y-59578230D01*
X71711133Y-59578232D01*
X71755447Y-59644552D01*
X71821767Y-59688866D01*
X71821769Y-59688867D01*
X71880252Y-59700500D01*
X73519748Y-59700500D01*
X73578231Y-59688867D01*
X73644552Y-59644552D01*
X73688867Y-59578231D01*
X73700500Y-59519748D01*
X73700500Y-58700002D01*
X73887004Y-58700002D01*
X73906950Y-58927995D01*
X73906953Y-58928011D01*
X73966185Y-59149067D01*
X73966186Y-59149069D01*
X74062911Y-59356497D01*
X74112899Y-59427889D01*
X74800000Y-58740788D01*
X74800000Y-58752661D01*
X74827259Y-58854394D01*
X74879920Y-58945606D01*
X74954394Y-59020080D01*
X75045606Y-59072741D01*
X75147339Y-59100000D01*
X75159210Y-59100000D01*
X74472109Y-59787099D01*
X74543503Y-59837088D01*
X74543501Y-59837088D01*
X74750930Y-59933813D01*
X74750932Y-59933814D01*
X74971988Y-59993046D01*
X74972004Y-59993049D01*
X75199998Y-60012996D01*
X75200002Y-60012996D01*
X75427995Y-59993049D01*
X75428011Y-59993046D01*
X75649067Y-59933814D01*
X75649069Y-59933813D01*
X75856494Y-59837089D01*
X75927888Y-59787098D01*
X75240790Y-59100000D01*
X75252661Y-59100000D01*
X75354394Y-59072741D01*
X75445606Y-59020080D01*
X75520080Y-58945606D01*
X75572741Y-58854394D01*
X75600000Y-58752661D01*
X75600000Y-58740790D01*
X76287098Y-59427888D01*
X76337089Y-59356494D01*
X76433813Y-59149069D01*
X76433814Y-59149067D01*
X76493046Y-58928011D01*
X76493049Y-58927995D01*
X76512996Y-58700002D01*
X76512996Y-58699997D01*
X76493049Y-58472004D01*
X76493046Y-58471988D01*
X76433814Y-58250932D01*
X76433813Y-58250930D01*
X76337088Y-58043502D01*
X76287099Y-57972110D01*
X76287099Y-57972109D01*
X75600000Y-58659208D01*
X75600000Y-58647339D01*
X75572741Y-58545606D01*
X75520080Y-58454394D01*
X75445606Y-58379920D01*
X75354394Y-58327259D01*
X75252661Y-58300000D01*
X75240788Y-58300000D01*
X75927889Y-57612899D01*
X75856496Y-57562911D01*
X75856498Y-57562911D01*
X75815943Y-57544000D01*
X87513457Y-57544000D01*
X87561178Y-57732451D01*
X87561179Y-57732455D01*
X87651583Y-57938554D01*
X87651585Y-57938557D01*
X87774674Y-58126957D01*
X87774677Y-58126962D01*
X87927101Y-58292538D01*
X87927104Y-58292541D01*
X88104697Y-58430767D01*
X88104699Y-58430768D01*
X88302627Y-58537880D01*
X88302628Y-58537881D01*
X88515487Y-58610956D01*
X88596000Y-58624391D01*
X88596000Y-57720702D01*
X88657007Y-57755925D01*
X88784174Y-57790000D01*
X88915826Y-57790000D01*
X89042993Y-57755925D01*
X89104000Y-57720702D01*
X89104000Y-58624391D01*
X89184512Y-58610956D01*
X89397371Y-58537881D01*
X89397372Y-58537880D01*
X89595300Y-58430768D01*
X89595302Y-58430767D01*
X89772895Y-58292541D01*
X89772898Y-58292538D01*
X89925322Y-58126962D01*
X89925325Y-58126957D01*
X90048414Y-57938557D01*
X90048416Y-57938554D01*
X90138820Y-57732455D01*
X90138821Y-57732451D01*
X90186543Y-57544000D01*
X89280703Y-57544000D01*
X89315925Y-57482993D01*
X89350000Y-57355826D01*
X89350000Y-57290000D01*
X90334417Y-57290000D01*
X90354699Y-57495930D01*
X90354700Y-57495935D01*
X90414766Y-57693949D01*
X90414768Y-57693954D01*
X90512311Y-57876444D01*
X90512319Y-57876455D01*
X90643588Y-58036408D01*
X90643591Y-58036411D01*
X90753922Y-58126957D01*
X90803550Y-58167685D01*
X90803553Y-58167686D01*
X90803555Y-58167688D01*
X90867668Y-58201957D01*
X90986046Y-58265232D01*
X91184066Y-58325300D01*
X91390000Y-58345583D01*
X91595934Y-58325300D01*
X91793954Y-58265232D01*
X91976450Y-58167685D01*
X92136410Y-58036410D01*
X92267685Y-57876450D01*
X92365232Y-57693954D01*
X92410720Y-57544000D01*
X92593457Y-57544000D01*
X92641178Y-57732451D01*
X92641179Y-57732455D01*
X92731583Y-57938554D01*
X92731585Y-57938557D01*
X92854674Y-58126957D01*
X92854677Y-58126962D01*
X93007101Y-58292538D01*
X93007104Y-58292541D01*
X93184697Y-58430767D01*
X93184699Y-58430768D01*
X93382627Y-58537880D01*
X93382628Y-58537881D01*
X93595487Y-58610956D01*
X93676000Y-58624391D01*
X93676000Y-57720702D01*
X93737007Y-57755925D01*
X93864174Y-57790000D01*
X93995826Y-57790000D01*
X94122993Y-57755925D01*
X94184000Y-57720702D01*
X94184000Y-58624391D01*
X94264512Y-58610956D01*
X94477371Y-58537881D01*
X94477372Y-58537880D01*
X94675300Y-58430768D01*
X94675302Y-58430767D01*
X94852895Y-58292541D01*
X94852898Y-58292538D01*
X95005322Y-58126962D01*
X95005325Y-58126957D01*
X95128414Y-57938557D01*
X95128416Y-57938554D01*
X95218820Y-57732455D01*
X95218821Y-57732451D01*
X95266543Y-57544000D01*
X94360703Y-57544000D01*
X94395925Y-57482993D01*
X94430000Y-57355826D01*
X94430000Y-57290000D01*
X95414417Y-57290000D01*
X95434699Y-57495930D01*
X95434700Y-57495935D01*
X95494766Y-57693949D01*
X95494768Y-57693954D01*
X95592311Y-57876444D01*
X95592319Y-57876455D01*
X95723588Y-58036408D01*
X95723591Y-58036411D01*
X95833922Y-58126957D01*
X95883550Y-58167685D01*
X95883553Y-58167686D01*
X95883555Y-58167688D01*
X95947668Y-58201957D01*
X96066046Y-58265232D01*
X96264066Y-58325300D01*
X96470000Y-58345583D01*
X96675934Y-58325300D01*
X96873954Y-58265232D01*
X97056450Y-58167685D01*
X97216410Y-58036410D01*
X97347685Y-57876450D01*
X97445232Y-57693954D01*
X97490720Y-57544000D01*
X97673457Y-57544000D01*
X97721178Y-57732451D01*
X97721179Y-57732455D01*
X97811583Y-57938554D01*
X97811585Y-57938557D01*
X97934674Y-58126957D01*
X97934677Y-58126962D01*
X98087101Y-58292538D01*
X98087104Y-58292541D01*
X98264697Y-58430767D01*
X98264699Y-58430768D01*
X98462627Y-58537880D01*
X98462628Y-58537881D01*
X98675487Y-58610956D01*
X98756000Y-58624391D01*
X98756000Y-57720702D01*
X98817007Y-57755925D01*
X98944174Y-57790000D01*
X99075826Y-57790000D01*
X99202993Y-57755925D01*
X99264000Y-57720702D01*
X99264000Y-58624391D01*
X99344512Y-58610956D01*
X99557371Y-58537881D01*
X99557372Y-58537880D01*
X99755300Y-58430768D01*
X99755302Y-58430767D01*
X99932895Y-58292541D01*
X99932898Y-58292538D01*
X100085322Y-58126962D01*
X100085325Y-58126957D01*
X100208414Y-57938557D01*
X100208416Y-57938554D01*
X100298820Y-57732455D01*
X100298821Y-57732451D01*
X100346543Y-57544000D01*
X99440703Y-57544000D01*
X99475925Y-57482993D01*
X99510000Y-57355826D01*
X99510000Y-57290000D01*
X100494417Y-57290000D01*
X100514699Y-57495930D01*
X100514700Y-57495935D01*
X100574766Y-57693949D01*
X100574768Y-57693954D01*
X100672311Y-57876444D01*
X100672319Y-57876455D01*
X100803588Y-58036408D01*
X100803591Y-58036411D01*
X100913922Y-58126957D01*
X100963550Y-58167685D01*
X100963553Y-58167686D01*
X100963555Y-58167688D01*
X101027668Y-58201957D01*
X101146046Y-58265232D01*
X101344066Y-58325300D01*
X101550000Y-58345583D01*
X101755934Y-58325300D01*
X101953954Y-58265232D01*
X102136450Y-58167685D01*
X102296410Y-58036410D01*
X102427685Y-57876450D01*
X102525232Y-57693954D01*
X102570720Y-57544000D01*
X102753457Y-57544000D01*
X102801178Y-57732451D01*
X102801179Y-57732455D01*
X102891583Y-57938554D01*
X102891585Y-57938557D01*
X103014674Y-58126957D01*
X103014677Y-58126962D01*
X103167101Y-58292538D01*
X103167104Y-58292541D01*
X103344697Y-58430767D01*
X103344699Y-58430768D01*
X103542627Y-58537880D01*
X103542628Y-58537881D01*
X103755487Y-58610956D01*
X103836000Y-58624391D01*
X103836000Y-57720702D01*
X103897007Y-57755925D01*
X104024174Y-57790000D01*
X104155826Y-57790000D01*
X104282993Y-57755925D01*
X104344000Y-57720702D01*
X104344000Y-58624391D01*
X104424512Y-58610956D01*
X104637371Y-58537881D01*
X104637372Y-58537880D01*
X104835300Y-58430768D01*
X104835302Y-58430767D01*
X105012895Y-58292541D01*
X105012898Y-58292538D01*
X105135140Y-58159748D01*
X105579500Y-58159748D01*
X105591132Y-58218230D01*
X105591133Y-58218232D01*
X105635447Y-58284552D01*
X105701767Y-58328866D01*
X105701769Y-58328867D01*
X105760252Y-58340500D01*
X107499748Y-58340500D01*
X107558231Y-58328867D01*
X107624552Y-58284552D01*
X107668867Y-58218231D01*
X107680500Y-58159748D01*
X107680500Y-57365000D01*
X111319417Y-57365000D01*
X111339699Y-57570930D01*
X111339700Y-57570935D01*
X111399766Y-57768949D01*
X111399768Y-57768954D01*
X111497311Y-57951444D01*
X111497319Y-57951455D01*
X111572859Y-58043502D01*
X111628590Y-58111410D01*
X111788550Y-58242685D01*
X111788553Y-58242686D01*
X111788555Y-58242688D01*
X111830730Y-58265231D01*
X111971046Y-58340232D01*
X112169066Y-58400300D01*
X112375000Y-58420583D01*
X112580934Y-58400300D01*
X112778954Y-58340232D01*
X112961450Y-58242685D01*
X113121410Y-58111410D01*
X113252685Y-57951450D01*
X113350232Y-57768954D01*
X113410300Y-57570934D01*
X113430583Y-57365000D01*
X113859417Y-57365000D01*
X113879699Y-57570930D01*
X113879700Y-57570935D01*
X113939766Y-57768949D01*
X113939768Y-57768954D01*
X114037311Y-57951444D01*
X114037319Y-57951455D01*
X114112859Y-58043502D01*
X114168590Y-58111410D01*
X114328550Y-58242685D01*
X114328553Y-58242686D01*
X114328555Y-58242688D01*
X114370730Y-58265231D01*
X114511046Y-58340232D01*
X114709066Y-58400300D01*
X114915000Y-58420583D01*
X115120934Y-58400300D01*
X115318954Y-58340232D01*
X115501450Y-58242685D01*
X115661410Y-58111410D01*
X115792685Y-57951450D01*
X115890232Y-57768954D01*
X115935720Y-57619000D01*
X116118457Y-57619000D01*
X116166178Y-57807451D01*
X116166179Y-57807455D01*
X116256583Y-58013554D01*
X116256585Y-58013557D01*
X116379674Y-58201957D01*
X116379677Y-58201962D01*
X116532101Y-58367538D01*
X116532104Y-58367541D01*
X116709697Y-58505767D01*
X116709699Y-58505768D01*
X116907627Y-58612880D01*
X116907628Y-58612881D01*
X117120487Y-58685956D01*
X117201000Y-58699391D01*
X117201000Y-57795702D01*
X117262007Y-57830925D01*
X117389174Y-57865000D01*
X117520826Y-57865000D01*
X117647993Y-57830925D01*
X117709000Y-57795702D01*
X117709000Y-58699391D01*
X117789512Y-58685956D01*
X118002371Y-58612881D01*
X118002372Y-58612880D01*
X118200300Y-58505768D01*
X118200302Y-58505767D01*
X118377895Y-58367541D01*
X118377898Y-58367538D01*
X118530322Y-58201962D01*
X118530325Y-58201957D01*
X118653414Y-58013557D01*
X118653416Y-58013554D01*
X118743820Y-57807455D01*
X118743821Y-57807451D01*
X118791543Y-57619000D01*
X117885703Y-57619000D01*
X117920925Y-57557993D01*
X117955000Y-57430826D01*
X117955000Y-57299174D01*
X117920925Y-57172007D01*
X117885703Y-57111000D01*
X118791543Y-57111000D01*
X118743821Y-56922548D01*
X118743820Y-56922544D01*
X118653416Y-56716445D01*
X118653414Y-56716442D01*
X118530325Y-56528042D01*
X118530322Y-56528037D01*
X118377898Y-56362461D01*
X118377895Y-56362458D01*
X118200302Y-56224232D01*
X118200300Y-56224231D01*
X118002372Y-56117119D01*
X118002371Y-56117118D01*
X117789507Y-56044041D01*
X117709000Y-56030606D01*
X117709000Y-56934297D01*
X117647993Y-56899075D01*
X117520826Y-56865000D01*
X117389174Y-56865000D01*
X117262007Y-56899075D01*
X117201000Y-56934297D01*
X117201000Y-56030606D01*
X117120492Y-56044041D01*
X116907628Y-56117118D01*
X116907627Y-56117119D01*
X116709699Y-56224231D01*
X116709697Y-56224232D01*
X116532104Y-56362458D01*
X116532101Y-56362461D01*
X116379677Y-56528037D01*
X116379674Y-56528042D01*
X116256585Y-56716442D01*
X116256583Y-56716445D01*
X116166179Y-56922544D01*
X116166178Y-56922548D01*
X116118457Y-57111000D01*
X117024297Y-57111000D01*
X116989075Y-57172007D01*
X116955000Y-57299174D01*
X116955000Y-57430826D01*
X116989075Y-57557993D01*
X117024297Y-57619000D01*
X116118457Y-57619000D01*
X115935720Y-57619000D01*
X115950300Y-57570934D01*
X115970583Y-57365000D01*
X115969679Y-57355826D01*
X115963196Y-57289999D01*
X115950300Y-57159066D01*
X115890232Y-56961046D01*
X115829821Y-56848026D01*
X115792688Y-56778555D01*
X115792686Y-56778553D01*
X115792685Y-56778550D01*
X115741715Y-56716442D01*
X115661411Y-56618591D01*
X115661408Y-56618588D01*
X115501455Y-56487319D01*
X115501453Y-56487318D01*
X115501450Y-56487315D01*
X115501448Y-56487313D01*
X115501444Y-56487311D01*
X115318954Y-56389768D01*
X115318949Y-56389766D01*
X115120935Y-56329700D01*
X115120930Y-56329699D01*
X114915000Y-56309417D01*
X114709069Y-56329699D01*
X114709064Y-56329700D01*
X114511050Y-56389766D01*
X114511045Y-56389768D01*
X114328555Y-56487311D01*
X114328544Y-56487319D01*
X114168591Y-56618588D01*
X114168588Y-56618591D01*
X114037319Y-56778544D01*
X114037311Y-56778555D01*
X113939768Y-56961045D01*
X113939766Y-56961050D01*
X113879700Y-57159064D01*
X113879699Y-57159069D01*
X113859417Y-57364999D01*
X113859417Y-57365000D01*
X113430583Y-57365000D01*
X113429679Y-57355826D01*
X113423196Y-57289999D01*
X113410300Y-57159066D01*
X113350232Y-56961046D01*
X113289821Y-56848026D01*
X113252688Y-56778555D01*
X113252686Y-56778553D01*
X113252685Y-56778550D01*
X113201715Y-56716442D01*
X113121411Y-56618591D01*
X113121408Y-56618588D01*
X112961455Y-56487319D01*
X112961453Y-56487318D01*
X112961450Y-56487315D01*
X112961448Y-56487313D01*
X112961444Y-56487311D01*
X112778954Y-56389768D01*
X112778949Y-56389766D01*
X112580935Y-56329700D01*
X112580930Y-56329699D01*
X112375000Y-56309417D01*
X112169069Y-56329699D01*
X112169064Y-56329700D01*
X111971050Y-56389766D01*
X111971045Y-56389768D01*
X111788555Y-56487311D01*
X111788544Y-56487319D01*
X111628591Y-56618588D01*
X111628588Y-56618591D01*
X111497319Y-56778544D01*
X111497311Y-56778555D01*
X111399768Y-56961045D01*
X111399766Y-56961050D01*
X111339700Y-57159064D01*
X111339699Y-57159069D01*
X111319417Y-57364999D01*
X111319417Y-57365000D01*
X107680500Y-57365000D01*
X107680500Y-56420252D01*
X107668867Y-56361769D01*
X107647439Y-56329700D01*
X107624552Y-56295447D01*
X107558232Y-56251133D01*
X107558230Y-56251132D01*
X107499748Y-56239500D01*
X105760252Y-56239500D01*
X105701769Y-56251132D01*
X105701767Y-56251133D01*
X105635447Y-56295447D01*
X105591133Y-56361767D01*
X105591132Y-56361769D01*
X105579500Y-56420251D01*
X105579500Y-58159748D01*
X105135140Y-58159748D01*
X105165322Y-58126962D01*
X105165325Y-58126957D01*
X105288414Y-57938557D01*
X105288416Y-57938554D01*
X105378820Y-57732455D01*
X105378821Y-57732451D01*
X105426543Y-57544000D01*
X104520703Y-57544000D01*
X104555925Y-57482993D01*
X104590000Y-57355826D01*
X104590000Y-57224174D01*
X104555925Y-57097007D01*
X104520703Y-57036000D01*
X105426543Y-57036000D01*
X105378821Y-56847548D01*
X105378820Y-56847544D01*
X105288416Y-56641445D01*
X105288414Y-56641442D01*
X105165325Y-56453042D01*
X105165322Y-56453037D01*
X105012898Y-56287461D01*
X105012895Y-56287458D01*
X104835302Y-56149232D01*
X104835300Y-56149231D01*
X104637372Y-56042119D01*
X104637371Y-56042118D01*
X104424507Y-55969041D01*
X104344000Y-55955606D01*
X104344000Y-56859297D01*
X104282993Y-56824075D01*
X104155826Y-56790000D01*
X104024174Y-56790000D01*
X103897007Y-56824075D01*
X103836000Y-56859297D01*
X103836000Y-55955606D01*
X103755492Y-55969041D01*
X103542628Y-56042118D01*
X103542627Y-56042119D01*
X103344699Y-56149231D01*
X103344697Y-56149232D01*
X103167104Y-56287458D01*
X103167101Y-56287461D01*
X103014677Y-56453037D01*
X103014674Y-56453042D01*
X102891585Y-56641442D01*
X102891583Y-56641445D01*
X102801179Y-56847544D01*
X102801178Y-56847548D01*
X102753457Y-57036000D01*
X103659297Y-57036000D01*
X103624075Y-57097007D01*
X103590000Y-57224174D01*
X103590000Y-57355826D01*
X103624075Y-57482993D01*
X103659297Y-57544000D01*
X102753457Y-57544000D01*
X102570720Y-57544000D01*
X102585300Y-57495934D01*
X102605583Y-57290000D01*
X102585300Y-57084066D01*
X102525232Y-56886046D01*
X102431843Y-56711329D01*
X102427688Y-56703555D01*
X102427686Y-56703553D01*
X102427685Y-56703550D01*
X102296410Y-56543590D01*
X102284579Y-56533881D01*
X102136455Y-56412319D01*
X102136453Y-56412318D01*
X102136450Y-56412315D01*
X102136448Y-56412313D01*
X102136444Y-56412311D01*
X101953954Y-56314768D01*
X101953949Y-56314766D01*
X101755935Y-56254700D01*
X101755930Y-56254699D01*
X101550000Y-56234417D01*
X101344069Y-56254699D01*
X101344064Y-56254700D01*
X101146050Y-56314766D01*
X101146045Y-56314768D01*
X100963555Y-56412311D01*
X100963544Y-56412319D01*
X100803591Y-56543588D01*
X100803588Y-56543591D01*
X100672319Y-56703544D01*
X100672311Y-56703555D01*
X100574768Y-56886045D01*
X100574766Y-56886050D01*
X100514700Y-57084064D01*
X100514699Y-57084069D01*
X100494417Y-57289999D01*
X100494417Y-57290000D01*
X99510000Y-57290000D01*
X99510000Y-57224174D01*
X99475925Y-57097007D01*
X99440703Y-57036000D01*
X100346543Y-57036000D01*
X100298821Y-56847548D01*
X100298820Y-56847544D01*
X100208416Y-56641445D01*
X100208414Y-56641442D01*
X100085325Y-56453042D01*
X100085322Y-56453037D01*
X99932898Y-56287461D01*
X99932895Y-56287458D01*
X99755302Y-56149232D01*
X99755300Y-56149231D01*
X99557372Y-56042119D01*
X99557371Y-56042118D01*
X99344507Y-55969041D01*
X99264000Y-55955606D01*
X99264000Y-56859297D01*
X99202993Y-56824075D01*
X99075826Y-56790000D01*
X98944174Y-56790000D01*
X98817007Y-56824075D01*
X98756000Y-56859297D01*
X98756000Y-55955606D01*
X98675492Y-55969041D01*
X98462628Y-56042118D01*
X98462627Y-56042119D01*
X98264699Y-56149231D01*
X98264697Y-56149232D01*
X98087104Y-56287458D01*
X98087101Y-56287461D01*
X97934677Y-56453037D01*
X97934674Y-56453042D01*
X97811585Y-56641442D01*
X97811583Y-56641445D01*
X97721179Y-56847544D01*
X97721178Y-56847548D01*
X97673457Y-57036000D01*
X98579297Y-57036000D01*
X98544075Y-57097007D01*
X98510000Y-57224174D01*
X98510000Y-57355826D01*
X98544075Y-57482993D01*
X98579297Y-57544000D01*
X97673457Y-57544000D01*
X97490720Y-57544000D01*
X97505300Y-57495934D01*
X97525583Y-57290000D01*
X97505300Y-57084066D01*
X97445232Y-56886046D01*
X97351843Y-56711329D01*
X97347688Y-56703555D01*
X97347686Y-56703553D01*
X97347685Y-56703550D01*
X97216410Y-56543590D01*
X97204579Y-56533881D01*
X97056455Y-56412319D01*
X97056453Y-56412318D01*
X97056450Y-56412315D01*
X97056448Y-56412313D01*
X97056444Y-56412311D01*
X96873954Y-56314768D01*
X96873949Y-56314766D01*
X96675935Y-56254700D01*
X96675930Y-56254699D01*
X96470000Y-56234417D01*
X96264069Y-56254699D01*
X96264064Y-56254700D01*
X96066050Y-56314766D01*
X96066045Y-56314768D01*
X95883555Y-56412311D01*
X95883544Y-56412319D01*
X95723591Y-56543588D01*
X95723588Y-56543591D01*
X95592319Y-56703544D01*
X95592311Y-56703555D01*
X95494768Y-56886045D01*
X95494766Y-56886050D01*
X95434700Y-57084064D01*
X95434699Y-57084069D01*
X95414417Y-57289999D01*
X95414417Y-57290000D01*
X94430000Y-57290000D01*
X94430000Y-57224174D01*
X94395925Y-57097007D01*
X94360703Y-57036000D01*
X95266543Y-57036000D01*
X95218821Y-56847548D01*
X95218820Y-56847544D01*
X95128416Y-56641445D01*
X95128414Y-56641442D01*
X95005325Y-56453042D01*
X95005322Y-56453037D01*
X94852898Y-56287461D01*
X94852895Y-56287458D01*
X94675302Y-56149232D01*
X94675300Y-56149231D01*
X94477372Y-56042119D01*
X94477371Y-56042118D01*
X94264507Y-55969041D01*
X94184000Y-55955606D01*
X94184000Y-56859297D01*
X94122993Y-56824075D01*
X93995826Y-56790000D01*
X93864174Y-56790000D01*
X93737007Y-56824075D01*
X93676000Y-56859297D01*
X93676000Y-55955606D01*
X93595492Y-55969041D01*
X93382628Y-56042118D01*
X93382627Y-56042119D01*
X93184699Y-56149231D01*
X93184697Y-56149232D01*
X93007104Y-56287458D01*
X93007101Y-56287461D01*
X92854677Y-56453037D01*
X92854674Y-56453042D01*
X92731585Y-56641442D01*
X92731583Y-56641445D01*
X92641179Y-56847544D01*
X92641178Y-56847548D01*
X92593457Y-57036000D01*
X93499297Y-57036000D01*
X93464075Y-57097007D01*
X93430000Y-57224174D01*
X93430000Y-57355826D01*
X93464075Y-57482993D01*
X93499297Y-57544000D01*
X92593457Y-57544000D01*
X92410720Y-57544000D01*
X92425300Y-57495934D01*
X92445583Y-57290000D01*
X92425300Y-57084066D01*
X92365232Y-56886046D01*
X92271843Y-56711329D01*
X92267688Y-56703555D01*
X92267686Y-56703553D01*
X92267685Y-56703550D01*
X92136410Y-56543590D01*
X92124579Y-56533881D01*
X91976455Y-56412319D01*
X91976453Y-56412318D01*
X91976450Y-56412315D01*
X91976448Y-56412313D01*
X91976444Y-56412311D01*
X91793954Y-56314768D01*
X91793949Y-56314766D01*
X91595935Y-56254700D01*
X91595930Y-56254699D01*
X91390000Y-56234417D01*
X91184069Y-56254699D01*
X91184064Y-56254700D01*
X90986050Y-56314766D01*
X90986045Y-56314768D01*
X90803555Y-56412311D01*
X90803544Y-56412319D01*
X90643591Y-56543588D01*
X90643588Y-56543591D01*
X90512319Y-56703544D01*
X90512311Y-56703555D01*
X90414768Y-56886045D01*
X90414766Y-56886050D01*
X90354700Y-57084064D01*
X90354699Y-57084069D01*
X90334417Y-57289999D01*
X90334417Y-57290000D01*
X89350000Y-57290000D01*
X89350000Y-57224174D01*
X89315925Y-57097007D01*
X89280703Y-57036000D01*
X90186543Y-57036000D01*
X90138821Y-56847548D01*
X90138820Y-56847544D01*
X90048416Y-56641445D01*
X90048414Y-56641442D01*
X89925325Y-56453042D01*
X89925322Y-56453037D01*
X89772898Y-56287461D01*
X89772895Y-56287458D01*
X89595302Y-56149232D01*
X89595300Y-56149231D01*
X89397372Y-56042119D01*
X89397371Y-56042118D01*
X89184507Y-55969041D01*
X89104000Y-55955606D01*
X89104000Y-56859297D01*
X89042993Y-56824075D01*
X88915826Y-56790000D01*
X88784174Y-56790000D01*
X88657007Y-56824075D01*
X88596000Y-56859297D01*
X88596000Y-55955606D01*
X88515492Y-55969041D01*
X88302628Y-56042118D01*
X88302627Y-56042119D01*
X88104699Y-56149231D01*
X88104697Y-56149232D01*
X87927104Y-56287458D01*
X87927101Y-56287461D01*
X87774677Y-56453037D01*
X87774674Y-56453042D01*
X87651585Y-56641442D01*
X87651583Y-56641445D01*
X87561179Y-56847544D01*
X87561178Y-56847548D01*
X87513457Y-57036000D01*
X88419297Y-57036000D01*
X88384075Y-57097007D01*
X88350000Y-57224174D01*
X88350000Y-57355826D01*
X88384075Y-57482993D01*
X88419297Y-57544000D01*
X87513457Y-57544000D01*
X75815943Y-57544000D01*
X75649069Y-57466186D01*
X75649067Y-57466185D01*
X75428011Y-57406953D01*
X75427995Y-57406950D01*
X75200002Y-57387004D01*
X75199998Y-57387004D01*
X74972004Y-57406950D01*
X74971988Y-57406953D01*
X74750932Y-57466185D01*
X74750930Y-57466186D01*
X74543502Y-57562911D01*
X74472109Y-57612899D01*
X75159210Y-58300000D01*
X75147339Y-58300000D01*
X75045606Y-58327259D01*
X74954394Y-58379920D01*
X74879920Y-58454394D01*
X74827259Y-58545606D01*
X74800000Y-58647339D01*
X74800000Y-58659210D01*
X74112899Y-57972109D01*
X74062911Y-58043502D01*
X73966186Y-58250930D01*
X73966185Y-58250932D01*
X73906953Y-58471988D01*
X73906950Y-58472004D01*
X73887004Y-58699997D01*
X73887004Y-58700002D01*
X73700500Y-58700002D01*
X73700500Y-57880252D01*
X73688867Y-57821769D01*
X73679300Y-57807451D01*
X73644552Y-57755447D01*
X73578232Y-57711133D01*
X73578230Y-57711132D01*
X73519748Y-57699500D01*
X71880252Y-57699500D01*
X71821769Y-57711132D01*
X71821767Y-57711133D01*
X71755447Y-57755447D01*
X71711133Y-57821767D01*
X71711132Y-57821769D01*
X71699500Y-57880251D01*
X71699500Y-59519748D01*
X63151900Y-59519748D01*
X63151900Y-58091279D01*
X64497500Y-58091279D01*
X64497501Y-58091295D01*
X64533880Y-58320979D01*
X64533880Y-58320980D01*
X64605746Y-58542161D01*
X64605750Y-58542169D01*
X64711329Y-58749381D01*
X64848025Y-58937526D01*
X64848032Y-58937534D01*
X65012465Y-59101967D01*
X65012473Y-59101974D01*
X65152271Y-59203544D01*
X65200621Y-59238672D01*
X65407837Y-59344253D01*
X65629018Y-59416119D01*
X65703331Y-59427889D01*
X65858704Y-59452498D01*
X65858710Y-59452498D01*
X65858718Y-59452500D01*
X65858720Y-59452500D01*
X66091280Y-59452500D01*
X66091282Y-59452500D01*
X66320982Y-59416119D01*
X66542163Y-59344253D01*
X66749379Y-59238672D01*
X66937527Y-59101974D01*
X67101974Y-58937527D01*
X67238672Y-58749379D01*
X67344253Y-58542163D01*
X67416119Y-58320982D01*
X67452500Y-58091282D01*
X67452500Y-57858718D01*
X67416119Y-57629018D01*
X67344253Y-57407837D01*
X67238672Y-57200621D01*
X67208480Y-57159066D01*
X67101974Y-57012473D01*
X67101967Y-57012465D01*
X66937534Y-56848032D01*
X66937526Y-56848025D01*
X66749381Y-56711329D01*
X66542169Y-56605750D01*
X66542161Y-56605746D01*
X66320980Y-56533880D01*
X66091295Y-56497501D01*
X66091283Y-56497500D01*
X66091282Y-56497500D01*
X65858718Y-56497500D01*
X65858716Y-56497500D01*
X65858704Y-56497501D01*
X65629020Y-56533880D01*
X65629019Y-56533880D01*
X65407838Y-56605746D01*
X65407830Y-56605750D01*
X65200618Y-56711329D01*
X65012473Y-56848025D01*
X65012465Y-56848032D01*
X64848032Y-57012465D01*
X64848025Y-57012473D01*
X64711329Y-57200618D01*
X64605750Y-57407830D01*
X64605746Y-57407838D01*
X64533880Y-57629019D01*
X64533880Y-57629020D01*
X64497501Y-57858704D01*
X64497500Y-57858720D01*
X64497500Y-58091279D01*
X63151900Y-58091279D01*
X63151900Y-55215400D01*
X63170206Y-55171206D01*
X63214400Y-55152900D01*
X129009600Y-55152900D01*
X129053794Y-55171206D01*
G37*
%TD.AperFunction*%
%TD*%
M02*
