%TF.GenerationSoftware,KiCad,Pcbnew,8.0.1*%
%TF.CreationDate,2024-05-12T19:19:51+02:00*%
%TF.ProjectId,lps-1,6c70732d-312e-46b6-9963-61645f706362,1.2*%
%TF.SameCoordinates,Original*%
%TF.FileFunction,Copper,L1,Top*%
%TF.FilePolarity,Positive*%
%FSLAX46Y46*%
G04 Gerber Fmt 4.6, Leading zero omitted, Abs format (unit mm)*
G04 Created by KiCad (PCBNEW 8.0.1) date 2024-05-12 19:19:51*
%MOMM*%
%LPD*%
G01*
G04 APERTURE LIST*
G04 Aperture macros list*
%AMRoundRect*
0 Rectangle with rounded corners*
0 $1 Rounding radius*
0 $2 $3 $4 $5 $6 $7 $8 $9 X,Y pos of 4 corners*
0 Add a 4 corners polygon primitive as box body*
4,1,4,$2,$3,$4,$5,$6,$7,$8,$9,$2,$3,0*
0 Add four circle primitives for the rounded corners*
1,1,$1+$1,$2,$3*
1,1,$1+$1,$4,$5*
1,1,$1+$1,$6,$7*
1,1,$1+$1,$8,$9*
0 Add four rect primitives between the rounded corners*
20,1,$1+$1,$2,$3,$4,$5,0*
20,1,$1+$1,$4,$5,$6,$7,0*
20,1,$1+$1,$6,$7,$8,$9,0*
20,1,$1+$1,$8,$9,$2,$3,0*%
%AMFreePoly0*
4,1,19,0.500000,-0.750000,0.000000,-0.750000,0.000000,-0.744911,-0.071157,-0.744911,-0.207708,-0.704816,-0.327430,-0.627875,-0.420627,-0.520320,-0.479746,-0.390866,-0.500000,-0.250000,-0.500000,0.250000,-0.479746,0.390866,-0.420627,0.520320,-0.327430,0.627875,-0.207708,0.704816,-0.071157,0.744911,0.000000,0.744911,0.000000,0.750000,0.500000,0.750000,0.500000,-0.750000,0.500000,-0.750000,
$1*%
%AMFreePoly1*
4,1,19,0.000000,0.744911,0.071157,0.744911,0.207708,0.704816,0.327430,0.627875,0.420627,0.520320,0.479746,0.390866,0.500000,0.250000,0.500000,-0.250000,0.479746,-0.390866,0.420627,-0.520320,0.327430,-0.627875,0.207708,-0.704816,0.071157,-0.744911,0.000000,-0.744911,0.000000,-0.750000,-0.500000,-0.750000,-0.500000,0.750000,0.000000,0.750000,0.000000,0.744911,0.000000,0.744911,
$1*%
G04 Aperture macros list end*
%TA.AperFunction,EtchedComponent*%
%ADD10C,0.000000*%
%TD*%
%TA.AperFunction,SMDPad,CuDef*%
%ADD11RoundRect,0.250000X0.475000X-0.337500X0.475000X0.337500X-0.475000X0.337500X-0.475000X-0.337500X0*%
%TD*%
%TA.AperFunction,SMDPad,CuDef*%
%ADD12RoundRect,0.250000X0.450000X-0.262500X0.450000X0.262500X-0.450000X0.262500X-0.450000X-0.262500X0*%
%TD*%
%TA.AperFunction,ComponentPad*%
%ADD13C,1.700000*%
%TD*%
%TA.AperFunction,SMDPad,CuDef*%
%ADD14FreePoly0,180.000000*%
%TD*%
%TA.AperFunction,SMDPad,CuDef*%
%ADD15FreePoly1,180.000000*%
%TD*%
%TA.AperFunction,SMDPad,CuDef*%
%ADD16RoundRect,0.250000X0.262500X0.450000X-0.262500X0.450000X-0.262500X-0.450000X0.262500X-0.450000X0*%
%TD*%
%TA.AperFunction,ComponentPad*%
%ADD17R,2.000000X1.905000*%
%TD*%
%TA.AperFunction,ComponentPad*%
%ADD18O,2.000000X1.905000*%
%TD*%
%TA.AperFunction,SMDPad,CuDef*%
%ADD19RoundRect,0.375000X-0.625000X-0.375000X0.625000X-0.375000X0.625000X0.375000X-0.625000X0.375000X0*%
%TD*%
%TA.AperFunction,SMDPad,CuDef*%
%ADD20RoundRect,0.500000X-0.500000X-1.400000X0.500000X-1.400000X0.500000X1.400000X-0.500000X1.400000X0*%
%TD*%
%TA.AperFunction,ComponentPad*%
%ADD21R,1.700000X1.700000*%
%TD*%
%TA.AperFunction,ComponentPad*%
%ADD22O,1.700000X1.700000*%
%TD*%
%TA.AperFunction,SMDPad,CuDef*%
%ADD23RoundRect,0.250000X-0.250000X-0.475000X0.250000X-0.475000X0.250000X0.475000X-0.250000X0.475000X0*%
%TD*%
%TA.AperFunction,ComponentPad*%
%ADD24R,1.600000X1.600000*%
%TD*%
%TA.AperFunction,ComponentPad*%
%ADD25C,1.600000*%
%TD*%
%TA.AperFunction,SMDPad,CuDef*%
%ADD26RoundRect,0.250000X-0.475000X0.337500X-0.475000X-0.337500X0.475000X-0.337500X0.475000X0.337500X0*%
%TD*%
%TA.AperFunction,SMDPad,CuDef*%
%ADD27RoundRect,0.250000X-1.000000X-0.650000X1.000000X-0.650000X1.000000X0.650000X-1.000000X0.650000X0*%
%TD*%
%TA.AperFunction,SMDPad,CuDef*%
%ADD28RoundRect,0.243750X0.243750X0.456250X-0.243750X0.456250X-0.243750X-0.456250X0.243750X-0.456250X0*%
%TD*%
%TA.AperFunction,SMDPad,CuDef*%
%ADD29R,1.600000X0.550000*%
%TD*%
%TA.AperFunction,SMDPad,CuDef*%
%ADD30R,0.550000X1.600000*%
%TD*%
%TA.AperFunction,SMDPad,CuDef*%
%ADD31RoundRect,0.250000X0.475000X-0.250000X0.475000X0.250000X-0.475000X0.250000X-0.475000X-0.250000X0*%
%TD*%
%TA.AperFunction,ViaPad*%
%ADD32C,0.800000*%
%TD*%
%TA.AperFunction,Conductor*%
%ADD33C,0.508000*%
%TD*%
%TA.AperFunction,Conductor*%
%ADD34C,0.635000*%
%TD*%
%TA.AperFunction,Conductor*%
%ADD35C,0.381000*%
%TD*%
%TA.AperFunction,Conductor*%
%ADD36C,0.254000*%
%TD*%
%TA.AperFunction,Conductor*%
%ADD37C,0.152400*%
%TD*%
%TA.AperFunction,Conductor*%
%ADD38C,0.762000*%
%TD*%
%TA.AperFunction,Conductor*%
%ADD39C,0.127000*%
%TD*%
%TA.AperFunction,Conductor*%
%ADD40C,0.250000*%
%TD*%
G04 APERTURE END LIST*
D10*
%TA.AperFunction,EtchedComponent*%
%TO.C,JP1*%
G36*
X79187501Y-60025000D02*
G01*
X78687501Y-60025000D01*
X78687501Y-59425000D01*
X79187501Y-59425000D01*
X79187501Y-60025000D01*
G37*
%TD.AperFunction*%
%TD*%
D11*
%TO.P,C4,1*%
%TO.N,Net-(D1-K)*%
X71500000Y-73500000D03*
%TO.P,C4,2*%
%TO.N,GND*%
X71500000Y-71425000D03*
%TD*%
%TO.P,C7,1*%
%TO.N,+3.3V*%
X85675000Y-70162500D03*
%TO.P,C7,2*%
%TO.N,GND*%
X85675000Y-68087500D03*
%TD*%
D12*
%TO.P,R2,1*%
%TO.N,/~{RESET}*%
X109625000Y-65330000D03*
%TO.P,R2,2*%
%TO.N,+3.3V*%
X109625000Y-63505000D03*
%TD*%
D13*
%TO.P,J4,1,Pin_1*%
%TO.N,+3.3V*%
X125540000Y-63550000D03*
%TO.P,J4,2,Pin_2*%
%TO.N,GND*%
X125540000Y-66090000D03*
%TO.P,J4,3,Pin_3*%
%TO.N,/SCL*%
X125540000Y-68630000D03*
%TO.P,J4,4,Pin_4*%
%TO.N,/SDA*%
X125540000Y-71170000D03*
%TO.P,J4,5,Pin_5*%
%TO.N,unconnected-(J4-Pin_5-Pad5)*%
X125540000Y-73710000D03*
%TO.P,J4,6,Pin_6*%
%TO.N,unconnected-(J4-Pin_6-Pad6)*%
X125540000Y-76250000D03*
%TD*%
D14*
%TO.P,JP1,1,A*%
%TO.N,Net-(D2-A)*%
X79587501Y-59725000D03*
D15*
%TO.P,JP1,2,B*%
%TO.N,+3.3V*%
X78287501Y-59725000D03*
%TD*%
D16*
%TO.P,R4,1*%
%TO.N,Net-(U2-PC1{slash}RxD1-IN1)*%
X100987500Y-75325000D03*
%TO.P,R4,2*%
%TO.N,/DIN*%
X99162500Y-75325000D03*
%TD*%
D17*
%TO.P,U1,1,IN*%
%TO.N,Net-(D1-K)*%
X68550000Y-72379999D03*
D18*
%TO.P,U1,2,GND*%
%TO.N,GND*%
X68550000Y-69839999D03*
%TO.P,U1,3,OUT*%
%TO.N,+5V*%
X68550000Y-67299999D03*
%TD*%
D19*
%TO.P,U3,1,VI*%
%TO.N,+5V*%
X88725000Y-66425000D03*
%TO.P,U3,2,GND*%
%TO.N,GND*%
X88725000Y-68725000D03*
D20*
X95025000Y-68725000D03*
D19*
%TO.P,U3,3,VO*%
%TO.N,+3.3V*%
X88725000Y-71025000D03*
%TD*%
D21*
%TO.P,J5,1,Pin_1*%
%TO.N,/TxD0*%
X112375000Y-59905000D03*
D22*
%TO.P,J5,2,Pin_2*%
%TO.N,/RxD0*%
X112375000Y-57365000D03*
%TO.P,J5,3,Pin_3*%
%TO.N,/MODEM_SLEEP*%
X114915000Y-59905000D03*
%TO.P,J5,4,Pin_4*%
%TO.N,/MODEM_RESET*%
X114915000Y-57365000D03*
%TO.P,J5,5,Pin_5*%
%TO.N,+3.3V*%
X117455000Y-59905000D03*
%TO.P,J5,6,Pin_6*%
%TO.N,GND*%
X117455000Y-57365000D03*
%TD*%
D23*
%TO.P,C2,1*%
%TO.N,/~{RESET}*%
X111675000Y-65255000D03*
%TO.P,C2,2*%
%TO.N,GND*%
X113575000Y-65255000D03*
%TD*%
D24*
%TO.P,C6,1*%
%TO.N,+5V*%
X72700000Y-58700000D03*
D25*
%TO.P,C6,2*%
%TO.N,GND*%
X75200000Y-58700000D03*
%TD*%
D21*
%TO.P,J6,1,Pin_1*%
%TO.N,+3.3V*%
X106630000Y-57290000D03*
D22*
%TO.P,J6,2,Pin_2*%
%TO.N,GND*%
X104090000Y-57290000D03*
%TO.P,J6,3,Pin_3*%
%TO.N,/UPDI*%
X101550000Y-57290000D03*
%TO.P,J6,4,Pin_4*%
%TO.N,GND*%
X99010000Y-57290000D03*
%TO.P,J6,5,Pin_5*%
%TO.N,/DIN*%
X96470000Y-57290000D03*
%TO.P,J6,6,Pin_6*%
%TO.N,GND*%
X93930000Y-57290000D03*
%TO.P,J6,7,Pin_7*%
%TO.N,/DOUT*%
X91390000Y-57290000D03*
%TO.P,J6,8,Pin_8*%
%TO.N,GND*%
X88850000Y-57290000D03*
%TD*%
D16*
%TO.P,R3,1*%
%TO.N,Net-(U2-PC0{slash}TxD1{slash}2-WO{slash}1-IN0)*%
X99475000Y-73225000D03*
%TO.P,R3,2*%
%TO.N,/DOUT*%
X97650000Y-73225000D03*
%TD*%
D26*
%TO.P,C5,1*%
%TO.N,+5V*%
X71500000Y-66262500D03*
%TO.P,C5,2*%
%TO.N,GND*%
X71500000Y-68337500D03*
%TD*%
D27*
%TO.P,D1,1,K*%
%TO.N,Net-(D1-K)*%
X74600000Y-82525000D03*
%TO.P,D1,2,A*%
%TO.N,/12VIN*%
X78600000Y-82525000D03*
%TD*%
D24*
%TO.P,C1,1*%
%TO.N,Net-(D1-K)*%
X79098257Y-73796363D03*
D25*
%TO.P,C1,2*%
%TO.N,GND*%
X79098257Y-71296363D03*
%TD*%
D28*
%TO.P,D2,1,K*%
%TO.N,Net-(D2-K)*%
X83525000Y-59725000D03*
%TO.P,D2,2,A*%
%TO.N,Net-(D2-A)*%
X81650000Y-59725000D03*
%TD*%
D21*
%TO.P,J15,1,Pin_1*%
%TO.N,/12VIN*%
X83125000Y-82500000D03*
D22*
%TO.P,J15,2,Pin_2*%
%TO.N,GND*%
X85665000Y-82500000D03*
%TO.P,J15,3,Pin_3*%
%TO.N,+5V*%
X88205000Y-82500000D03*
%TO.P,J15,4,Pin_4*%
%TO.N,GND*%
X90745000Y-82500000D03*
%TO.P,J15,5,Pin_5*%
%TO.N,+3.3V*%
X93285000Y-82500000D03*
%TO.P,J15,6,Pin_6*%
%TO.N,GND*%
X95825000Y-82500000D03*
%TD*%
D29*
%TO.P,U2,1,PA3/TWI/XDIR0/SCL/0-WO3/1-WO/0-OUT*%
%TO.N,/SCL*%
X103375000Y-69205000D03*
%TO.P,U2,2,PA4/MOSI/0-WO4*%
%TO.N,/TxD0*%
X103375000Y-70005000D03*
%TO.P,U2,3,PA5/MISO/0-WO5*%
%TO.N,/RxD0*%
X103375000Y-70805000D03*
%TO.P,U2,4,PA6/SCK*%
%TO.N,/SCK*%
X103375000Y-71605000D03*
%TO.P,U2,5,PA7/CLKOUT/ADC0-OUT/SS*%
%TO.N,/SS*%
X103375000Y-72405000D03*
%TO.P,U2,6,PC0/TxD1/2-WO/1-IN0*%
%TO.N,Net-(U2-PC0{slash}TxD1{slash}2-WO{slash}1-IN0)*%
X103375000Y-73205000D03*
%TO.P,U2,7,PC1/RxD1-IN1*%
%TO.N,Net-(U2-PC1{slash}RxD1-IN1)*%
X103375000Y-74005000D03*
%TO.P,U2,8,PC2/TWI/XCK1/EVOUTC/1-IN2*%
%TO.N,/PC2*%
X103375000Y-74805000D03*
D30*
%TO.P,U2,9,PC3/TWI/XDIR1/1-OUT*%
%TO.N,/PC3*%
X104825000Y-76255000D03*
%TO.P,U2,10,PD0/AIN0/2-IN0*%
%TO.N,/MODEM_RESET*%
X105625000Y-76255000D03*
%TO.P,U2,11,PD1/AIN1/ADC0-P3/2-IN1*%
%TO.N,/MODEM_SLEEP*%
X106425000Y-76255000D03*
%TO.P,U2,12,PD2/AIN2/ADC0-P0/EVOUTD/2-IN2*%
%TO.N,/PD2*%
X107225000Y-76255000D03*
%TO.P,U2,13,PD3/AIN3/ADC0-N0/2-OUT*%
%TO.N,/PD3*%
X108025000Y-76255000D03*
%TO.P,U2,14,PD4/AIN4/ADC0-P1*%
%TO.N,/PD4*%
X108825000Y-76255000D03*
%TO.P,U2,15,PD5/AIN5/ADC0-N1*%
%TO.N,/PD5*%
X109625000Y-76255000D03*
%TO.P,U2,16,PD6/AIN6/ADC0-P2*%
%TO.N,/PD6*%
X110425000Y-76255000D03*
D29*
%TO.P,U2,17,PD7/VREFA/AIN7/ACD0-N2*%
%TO.N,/PD7*%
X111875000Y-74805000D03*
%TO.P,U2,18,AVDD*%
%TO.N,+3.3V*%
X111875000Y-74005000D03*
%TO.P,U2,19,GND*%
%TO.N,GND*%
X111875000Y-73205000D03*
%TO.P,U2,20,PF0/TOSC1/TxD2/3-IN0*%
%TO.N,/PF0*%
X111875000Y-72405000D03*
%TO.P,U2,21,PF1/TOSC2/RxD2/3-IN1*%
%TO.N,/PF1*%
X111875000Y-71605000D03*
%TO.P,U2,22,PF2/TWI/AIN12/XCK2/VOUTF/2-IN2*%
%TO.N,/PF2*%
X111875000Y-70805000D03*
%TO.P,U2,23,PF3/TWI/AIN13/XDIR2/3-OUT*%
%TO.N,/PF3*%
X111875000Y-70005000D03*
%TO.P,U2,24,PF4*%
%TO.N,/PF4*%
X111875000Y-69205000D03*
D30*
%TO.P,U2,25,PF5*%
%TO.N,/PF5*%
X110425000Y-67755000D03*
%TO.P,U2,26,PF6/~{RESET}*%
%TO.N,/~{RESET}*%
X109625000Y-67755000D03*
%TO.P,U2,27,UPDI*%
%TO.N,/UPDI*%
X108825000Y-67755000D03*
%TO.P,U2,28,VDD*%
%TO.N,+3.3V*%
X108025000Y-67755000D03*
%TO.P,U2,29,GND*%
%TO.N,GND*%
X107225000Y-67755000D03*
%TO.P,U2,30,PA0/EXTCLK/TxD0/0-WO0/0-IND0*%
%TO.N,/PA0*%
X106425000Y-67755000D03*
%TO.P,U2,31,PA1/RxD0/0-WO1/0-IN1*%
%TO.N,/PA1*%
X105625000Y-67755000D03*
%TO.P,U2,32,PA2/TWI/XCK0/SDA/0-WO/EVOUTA/0-IN2*%
%TO.N,/SDA*%
X104825000Y-67755000D03*
%TD*%
D31*
%TO.P,C3,1*%
%TO.N,+3.3V*%
X114575000Y-74455000D03*
%TO.P,C3,2*%
%TO.N,GND*%
X114575000Y-72555000D03*
%TD*%
D16*
%TO.P,R1,1*%
%TO.N,Net-(D2-K)*%
X83565972Y-57396336D03*
%TO.P,R1,2*%
%TO.N,GND*%
X81740972Y-57396336D03*
%TD*%
D32*
%TO.N,+3.3V*%
X107330732Y-62545937D03*
X115300000Y-75850000D03*
X77000000Y-61550000D03*
X86725000Y-72650000D03*
%TO.N,GND*%
X117730000Y-65610000D03*
X117090000Y-77200000D03*
X117740000Y-72980000D03*
X106680000Y-66040000D03*
X119970834Y-70386500D03*
%TO.N,/SCL*%
X106426000Y-69723000D03*
%TO.N,/SDA*%
X108458000Y-70485000D03*
%TO.N,/UPDI*%
X108794474Y-66357072D03*
%TD*%
D33*
%TO.N,+3.3V*%
X107940474Y-66710811D02*
X108025000Y-66795337D01*
D34*
X86375000Y-71025000D02*
X88725000Y-71025000D01*
D33*
X109625000Y-63505000D02*
X107940474Y-65189526D01*
D35*
X114575000Y-74455000D02*
X114575000Y-75125000D01*
D34*
X78287501Y-60262499D02*
X77000000Y-61550000D01*
D35*
X114545000Y-74455000D02*
X114575000Y-74455000D01*
D34*
X88725000Y-71025000D02*
X87750000Y-71025000D01*
D33*
X107940474Y-65189526D02*
X107940474Y-66710811D01*
D34*
X85675000Y-70162500D02*
X85675000Y-70325000D01*
X107519795Y-62735000D02*
X107330732Y-62545937D01*
X107867000Y-62735000D02*
X107519795Y-62735000D01*
X109625000Y-63505000D02*
X108637000Y-63505000D01*
X86725000Y-72050000D02*
X86725000Y-72650000D01*
D33*
X111875000Y-74005000D02*
X113675000Y-74005000D01*
X108025000Y-66795337D02*
X108025000Y-67755000D01*
X113675000Y-74005000D02*
X114125000Y-74455000D01*
D34*
X107677937Y-62545937D02*
X107330732Y-62545937D01*
D35*
X114575000Y-75125000D02*
X115300000Y-75850000D01*
D34*
X108637000Y-63505000D02*
X107677937Y-62545937D01*
X78287501Y-59725000D02*
X78287501Y-60262499D01*
X87750000Y-71025000D02*
X86725000Y-72050000D01*
X85675000Y-70325000D02*
X86375000Y-71025000D01*
%TO.N,GND*%
X79098257Y-71296363D02*
X75058863Y-71296363D01*
D36*
X107225000Y-67755000D02*
X107225000Y-66585000D01*
D34*
X72100000Y-68337500D02*
X72100000Y-70825000D01*
D36*
X107225000Y-66585000D02*
X106680000Y-66040000D01*
D33*
X113925000Y-73205000D02*
X114575000Y-72555000D01*
D34*
X72100000Y-70825000D02*
X71500000Y-71425000D01*
D33*
X111875000Y-73205000D02*
X113925000Y-73205000D01*
D34*
X75058863Y-71296363D02*
X72100000Y-68337500D01*
D37*
%TO.N,/~{RESET}*%
X111675000Y-65255000D02*
X109700000Y-65255000D01*
X109625000Y-65330000D02*
X109625000Y-67755000D01*
X109700000Y-65255000D02*
X109625000Y-65330000D01*
D38*
%TO.N,+5V*%
X72700000Y-58700000D02*
X72700000Y-65062500D01*
D33*
X71662500Y-66425000D02*
X71500000Y-66262500D01*
X91860000Y-67560000D02*
X91860000Y-78845000D01*
X88725000Y-66425000D02*
X71662500Y-66425000D01*
X91860000Y-78845000D02*
X88205000Y-82500000D01*
X90725000Y-66425000D02*
X91860000Y-67560000D01*
D38*
X72700000Y-65062500D02*
X71500000Y-66262500D01*
X69587500Y-66262500D02*
X71500000Y-66262500D01*
X68550000Y-67300000D02*
X69587500Y-66262500D01*
D33*
X88725000Y-66425000D02*
X90725000Y-66425000D01*
D34*
%TO.N,Net-(D1-K)*%
X69670001Y-73500000D02*
X68550000Y-72379999D01*
X71500000Y-73500000D02*
X69670001Y-73500000D01*
X71500000Y-73500000D02*
X71525000Y-73500000D01*
X73200000Y-82525000D02*
X71500000Y-80825000D01*
X71821363Y-73796363D02*
X79098257Y-73796363D01*
X71500000Y-80825000D02*
X71500000Y-73500000D01*
X71525000Y-73500000D02*
X71821363Y-73796363D01*
X74600000Y-82525000D02*
X73200000Y-82525000D01*
%TO.N,/12VIN*%
X78625000Y-82500000D02*
X78600000Y-82525000D01*
X83125000Y-82500000D02*
X78625000Y-82500000D01*
D39*
%TO.N,/SCL*%
X103375000Y-69205000D02*
X105908000Y-69205000D01*
X105908000Y-69205000D02*
X106426000Y-69723000D01*
%TO.N,/SDA*%
X104825000Y-67755000D02*
X104825000Y-68557000D01*
X106807000Y-68834000D02*
X108458000Y-70485000D01*
X105102000Y-68834000D02*
X106807000Y-68834000D01*
X104825000Y-68557000D02*
X105102000Y-68834000D01*
%TO.N,/TxD0*%
X101927000Y-66221000D02*
X101927000Y-69484000D01*
X112375000Y-59905000D02*
X108243000Y-59905000D01*
X108243000Y-59905000D02*
X101927000Y-66221000D01*
X102448000Y-70005000D02*
X103375000Y-70005000D01*
X101927000Y-69484000D02*
X102448000Y-70005000D01*
%TO.N,/RxD0*%
X101600000Y-66040000D02*
X101600000Y-69957000D01*
X101600000Y-69957000D02*
X102448000Y-70805000D01*
X110275000Y-57365000D02*
X101600000Y-66040000D01*
X102448000Y-70805000D02*
X103375000Y-70805000D01*
X112375000Y-57365000D02*
X110275000Y-57365000D01*
D37*
%TO.N,/MODEM_SLEEP*%
X116875000Y-75725000D02*
X114775000Y-77825000D01*
X107042600Y-77825000D02*
X106425000Y-77207400D01*
X114915000Y-63465000D02*
X116875000Y-65425000D01*
X116875000Y-65425000D02*
X116875000Y-75725000D01*
X114775000Y-77825000D02*
X107042600Y-77825000D01*
X106425000Y-77207400D02*
X106425000Y-76255000D01*
X114915000Y-59905000D02*
X114915000Y-63465000D01*
%TO.N,/MODEM_RESET*%
X117175000Y-78625000D02*
X107042600Y-78625000D01*
X114915000Y-57365000D02*
X116041200Y-58491200D01*
X107042600Y-78625000D02*
X105625000Y-77207400D01*
X116041200Y-58491200D02*
X116041200Y-62391200D01*
X120647034Y-75152966D02*
X117175000Y-78625000D01*
X120647034Y-66997034D02*
X120647034Y-75152966D01*
X116041200Y-62391200D02*
X120647034Y-66997034D01*
X105625000Y-77207400D02*
X105625000Y-76255000D01*
%TO.N,/UPDI*%
X108794474Y-66357072D02*
X108794474Y-67724474D01*
X108794474Y-67724474D02*
X108825000Y-67755000D01*
D40*
%TO.N,/DIN*%
X98637500Y-59457500D02*
X96470000Y-57290000D01*
X98637500Y-74800000D02*
X98637500Y-59457500D01*
X99162500Y-75325000D02*
X98637500Y-74800000D01*
%TO.N,/DOUT*%
X97650000Y-73225000D02*
X97650000Y-63550000D01*
X97650000Y-63550000D02*
X91390000Y-57290000D01*
D37*
%TO.N,Net-(U2-PC1{slash}RxD1-IN1)*%
X102307500Y-74005000D02*
X103375000Y-74005000D01*
X100987500Y-75325000D02*
X102307500Y-74005000D01*
%TO.N,Net-(U2-PC0{slash}TxD1{slash}2-WO{slash}1-IN0)*%
X99475000Y-73225000D02*
X103355000Y-73225000D01*
X103355000Y-73225000D02*
X103375000Y-73205000D01*
D36*
%TO.N,Net-(D2-A)*%
X79587501Y-59725000D02*
X81650000Y-59725000D01*
%TO.N,Net-(D2-K)*%
X83565972Y-57396336D02*
X83565972Y-59684028D01*
X83565972Y-59684028D02*
X83525000Y-59725000D01*
%TD*%
%TA.AperFunction,Conductor*%
%TO.N,GND*%
G36*
X115750313Y-60659302D02*
G01*
X115764500Y-60698951D01*
X115764500Y-62427626D01*
X115764501Y-62427634D01*
X115783355Y-62498002D01*
X115783356Y-62498004D01*
X115819784Y-62561097D01*
X115819789Y-62561103D01*
X120352028Y-67093341D01*
X120370334Y-67137535D01*
X120370334Y-75012465D01*
X120352028Y-75056659D01*
X117078693Y-78329994D01*
X117034499Y-78348300D01*
X107183101Y-78348300D01*
X107138907Y-78329994D01*
X107017307Y-78208394D01*
X106999001Y-78164200D01*
X107017307Y-78120006D01*
X107061501Y-78101700D01*
X114811427Y-78101700D01*
X114811428Y-78101700D01*
X114881803Y-78082844D01*
X114944898Y-78046415D01*
X117096415Y-75894898D01*
X117132843Y-75831803D01*
X117132844Y-75831802D01*
X117151700Y-75761428D01*
X117151700Y-65388572D01*
X117132844Y-65318198D01*
X117132844Y-65318197D01*
X117096415Y-65255102D01*
X117096410Y-65255096D01*
X115210006Y-63368692D01*
X115191700Y-63324498D01*
X115191700Y-60965186D01*
X115210006Y-60920992D01*
X115236056Y-60905378D01*
X115318954Y-60880232D01*
X115501450Y-60782685D01*
X115636108Y-60672175D01*
X115662351Y-60650638D01*
X115708126Y-60636752D01*
X115750313Y-60659302D01*
G37*
%TD.AperFunction*%
%TA.AperFunction,Conductor*%
G36*
X129053794Y-55171206D02*
G01*
X129072100Y-55215400D01*
X129072100Y-84784600D01*
X129053794Y-84828794D01*
X129009600Y-84847100D01*
X63214400Y-84847100D01*
X63170206Y-84828794D01*
X63151900Y-84784600D01*
X63151900Y-82141279D01*
X64497500Y-82141279D01*
X64497501Y-82141295D01*
X64533880Y-82370979D01*
X64533880Y-82370980D01*
X64605746Y-82592161D01*
X64605750Y-82592169D01*
X64711329Y-82799381D01*
X64848025Y-82987526D01*
X64848032Y-82987534D01*
X65012465Y-83151967D01*
X65012473Y-83151974D01*
X65142452Y-83246410D01*
X65200621Y-83288672D01*
X65407837Y-83394253D01*
X65629018Y-83466119D01*
X65725829Y-83481452D01*
X65858704Y-83502498D01*
X65858710Y-83502498D01*
X65858718Y-83502500D01*
X65858720Y-83502500D01*
X66091280Y-83502500D01*
X66091282Y-83502500D01*
X66320982Y-83466119D01*
X66542163Y-83394253D01*
X66749379Y-83288672D01*
X66937527Y-83151974D01*
X67101974Y-82987527D01*
X67238672Y-82799379D01*
X67344253Y-82592163D01*
X67416119Y-82370982D01*
X67452500Y-82141282D01*
X67452500Y-81908718D01*
X67416119Y-81679018D01*
X67344253Y-81457837D01*
X67238672Y-81250621D01*
X67221196Y-81226568D01*
X67101974Y-81062473D01*
X67101967Y-81062465D01*
X66937534Y-80898032D01*
X66937526Y-80898025D01*
X66749381Y-80761329D01*
X66542169Y-80655750D01*
X66542161Y-80655746D01*
X66320980Y-80583880D01*
X66091295Y-80547501D01*
X66091283Y-80547500D01*
X66091282Y-80547500D01*
X65858718Y-80547500D01*
X65858716Y-80547500D01*
X65858704Y-80547501D01*
X65629020Y-80583880D01*
X65629019Y-80583880D01*
X65407838Y-80655746D01*
X65407830Y-80655750D01*
X65200618Y-80761329D01*
X65012473Y-80898025D01*
X65012465Y-80898032D01*
X64848032Y-81062465D01*
X64848025Y-81062473D01*
X64711329Y-81250618D01*
X64605750Y-81457830D01*
X64605746Y-81457838D01*
X64533880Y-81679019D01*
X64533880Y-81679020D01*
X64497501Y-81908704D01*
X64497500Y-81908720D01*
X64497500Y-82141279D01*
X63151900Y-82141279D01*
X63151900Y-70089999D01*
X67071490Y-70089999D01*
X67085765Y-70180124D01*
X67085765Y-70180125D01*
X67156415Y-70397563D01*
X67156419Y-70397571D01*
X67260210Y-70601272D01*
X67394601Y-70786246D01*
X67556252Y-70947897D01*
X67741226Y-71082288D01*
X67793279Y-71108811D01*
X67824346Y-71145185D01*
X67820593Y-71192873D01*
X67784219Y-71223940D01*
X67764905Y-71226999D01*
X67530252Y-71226999D01*
X67471769Y-71238631D01*
X67471767Y-71238632D01*
X67405447Y-71282946D01*
X67361133Y-71349266D01*
X67361132Y-71349268D01*
X67349500Y-71407750D01*
X67349500Y-73352247D01*
X67361132Y-73410729D01*
X67361133Y-73410731D01*
X67405447Y-73477051D01*
X67471767Y-73521365D01*
X67471769Y-73521366D01*
X67530252Y-73532999D01*
X68944550Y-73532999D01*
X68988744Y-73551305D01*
X69253310Y-73815871D01*
X69253315Y-73815877D01*
X69255498Y-73818060D01*
X69351941Y-73914503D01*
X69420138Y-73953876D01*
X69470061Y-73982700D01*
X69601806Y-74018001D01*
X69601807Y-74018001D01*
X69742022Y-74018001D01*
X69742038Y-74018000D01*
X70567433Y-74018000D01*
X70611627Y-74036306D01*
X70619300Y-74046704D01*
X70619425Y-74046613D01*
X70622207Y-74050382D01*
X70702850Y-74159650D01*
X70776875Y-74214283D01*
X70812116Y-74240292D01*
X70812117Y-74240292D01*
X70812118Y-74240293D01*
X70940142Y-74285090D01*
X70975810Y-74316965D01*
X70982000Y-74344083D01*
X70982000Y-80893194D01*
X70982001Y-80893202D01*
X71017299Y-81024937D01*
X71017300Y-81024940D01*
X71017301Y-81024941D01*
X71079838Y-81133259D01*
X71085498Y-81143061D01*
X71085501Y-81143065D01*
X71185495Y-81243059D01*
X71185509Y-81243071D01*
X72783309Y-82840871D01*
X72783314Y-82840877D01*
X72881934Y-82939498D01*
X72881938Y-82939501D01*
X72881940Y-82939503D01*
X72986724Y-83000000D01*
X73000059Y-83007699D01*
X73000062Y-83007700D01*
X73038503Y-83018000D01*
X73103176Y-83035329D01*
X73141126Y-83064449D01*
X73149500Y-83095699D01*
X73149500Y-83229262D01*
X73152353Y-83259696D01*
X73152354Y-83259701D01*
X73197207Y-83387882D01*
X73197207Y-83387883D01*
X73226985Y-83428230D01*
X73277850Y-83497150D01*
X73387118Y-83577793D01*
X73515301Y-83622646D01*
X73545734Y-83625500D01*
X73545738Y-83625500D01*
X75654262Y-83625500D01*
X75654266Y-83625500D01*
X75684699Y-83622646D01*
X75812882Y-83577793D01*
X75922150Y-83497150D01*
X76002793Y-83387882D01*
X76047646Y-83259699D01*
X76050500Y-83229266D01*
X76050500Y-83229262D01*
X77149500Y-83229262D01*
X77152353Y-83259696D01*
X77152354Y-83259701D01*
X77197207Y-83387882D01*
X77197207Y-83387883D01*
X77226985Y-83428230D01*
X77277850Y-83497150D01*
X77387118Y-83577793D01*
X77515301Y-83622646D01*
X77545734Y-83625500D01*
X77545738Y-83625500D01*
X79654262Y-83625500D01*
X79654266Y-83625500D01*
X79684699Y-83622646D01*
X79812882Y-83577793D01*
X79922150Y-83497150D01*
X80002793Y-83387882D01*
X80047646Y-83259699D01*
X80050500Y-83229266D01*
X80050500Y-83080500D01*
X80068806Y-83036306D01*
X80113000Y-83018000D01*
X82012000Y-83018000D01*
X82056194Y-83036306D01*
X82074500Y-83080500D01*
X82074500Y-83369748D01*
X82086132Y-83428230D01*
X82086133Y-83428232D01*
X82130447Y-83494552D01*
X82196767Y-83538866D01*
X82196769Y-83538867D01*
X82255252Y-83550500D01*
X83994748Y-83550500D01*
X84053231Y-83538867D01*
X84119552Y-83494552D01*
X84163867Y-83428231D01*
X84175500Y-83369748D01*
X84175500Y-82750001D01*
X84334363Y-82750001D01*
X84391567Y-82963487D01*
X84391568Y-82963489D01*
X84491398Y-83177575D01*
X84626892Y-83371081D01*
X84793918Y-83538107D01*
X84987426Y-83673603D01*
X85201503Y-83773428D01*
X85201519Y-83773434D01*
X85414998Y-83830635D01*
X85415000Y-83830634D01*
X85415000Y-82933012D01*
X85472007Y-82965925D01*
X85599174Y-83000000D01*
X85730826Y-83000000D01*
X85857993Y-82965925D01*
X85915000Y-82933012D01*
X85915000Y-83830634D01*
X85915001Y-83830635D01*
X86128480Y-83773434D01*
X86128496Y-83773428D01*
X86342573Y-83673603D01*
X86536081Y-83538107D01*
X86703107Y-83371081D01*
X86838601Y-83177575D01*
X86938431Y-82963489D01*
X86938432Y-82963487D01*
X86995636Y-82750001D01*
X86995636Y-82750000D01*
X86098012Y-82750000D01*
X86130925Y-82692993D01*
X86165000Y-82565826D01*
X86165000Y-82434174D01*
X86130925Y-82307007D01*
X86098012Y-82250000D01*
X86995636Y-82250000D01*
X86995636Y-82249998D01*
X86938432Y-82036512D01*
X86938431Y-82036510D01*
X86838600Y-81822422D01*
X86703109Y-81628920D01*
X86536081Y-81461892D01*
X86342575Y-81326398D01*
X86128489Y-81226568D01*
X86128487Y-81226567D01*
X85915001Y-81169363D01*
X85915000Y-81169364D01*
X85915000Y-82066988D01*
X85857993Y-82034075D01*
X85730826Y-82000000D01*
X85599174Y-82000000D01*
X85472007Y-82034075D01*
X85415000Y-82066988D01*
X85415000Y-81169364D01*
X85414998Y-81169363D01*
X85201512Y-81226567D01*
X85201510Y-81226568D01*
X84987422Y-81326399D01*
X84793920Y-81461890D01*
X84626890Y-81628920D01*
X84491399Y-81822422D01*
X84391568Y-82036510D01*
X84391567Y-82036512D01*
X84334363Y-82249998D01*
X84334364Y-82250000D01*
X85231988Y-82250000D01*
X85199075Y-82307007D01*
X85165000Y-82434174D01*
X85165000Y-82565826D01*
X85199075Y-82692993D01*
X85231988Y-82750000D01*
X84334364Y-82750000D01*
X84334363Y-82750001D01*
X84175500Y-82750001D01*
X84175500Y-81630252D01*
X84163867Y-81571769D01*
X84151226Y-81552850D01*
X84119552Y-81505447D01*
X84053232Y-81461133D01*
X84053230Y-81461132D01*
X83994748Y-81449500D01*
X82255252Y-81449500D01*
X82196769Y-81461132D01*
X82196767Y-81461133D01*
X82130447Y-81505447D01*
X82086133Y-81571767D01*
X82086132Y-81571769D01*
X82074500Y-81630251D01*
X82074500Y-81919500D01*
X82056194Y-81963694D01*
X82012000Y-81982000D01*
X80113000Y-81982000D01*
X80068806Y-81963694D01*
X80050500Y-81919500D01*
X80050500Y-81820737D01*
X80047646Y-81790303D01*
X80047645Y-81790298D01*
X80034800Y-81753590D01*
X80002793Y-81662118D01*
X79922150Y-81552850D01*
X79812882Y-81472207D01*
X79791428Y-81464700D01*
X79684701Y-81427354D01*
X79684696Y-81427353D01*
X79664699Y-81425478D01*
X79654266Y-81424500D01*
X77545734Y-81424500D01*
X77536124Y-81425401D01*
X77515303Y-81427353D01*
X77515298Y-81427354D01*
X77387117Y-81472207D01*
X77387116Y-81472207D01*
X77277850Y-81552850D01*
X77197207Y-81662116D01*
X77197207Y-81662117D01*
X77152354Y-81790298D01*
X77152353Y-81790303D01*
X77149500Y-81820737D01*
X77149500Y-83229262D01*
X76050500Y-83229262D01*
X76050500Y-81820734D01*
X76047646Y-81790301D01*
X76002793Y-81662118D01*
X75922150Y-81552850D01*
X75812882Y-81472207D01*
X75791428Y-81464700D01*
X75684701Y-81427354D01*
X75684696Y-81427353D01*
X75664699Y-81425478D01*
X75654266Y-81424500D01*
X73545734Y-81424500D01*
X73536124Y-81425401D01*
X73515303Y-81427353D01*
X73515298Y-81427354D01*
X73387117Y-81472207D01*
X73387116Y-81472207D01*
X73277850Y-81552850D01*
X73197205Y-81662119D01*
X73197205Y-81662120D01*
X73196999Y-81662709D01*
X73196741Y-81662996D01*
X73195017Y-81666260D01*
X73194207Y-81665832D01*
X73165120Y-81698373D01*
X73117359Y-81701049D01*
X73093815Y-81686253D01*
X72036306Y-80628744D01*
X72018000Y-80584550D01*
X72018000Y-74376863D01*
X72036306Y-74332669D01*
X72080500Y-74314363D01*
X78035257Y-74314363D01*
X78079451Y-74332669D01*
X78097757Y-74376863D01*
X78097757Y-74616111D01*
X78109389Y-74674593D01*
X78109390Y-74674595D01*
X78153704Y-74740915D01*
X78220024Y-74785229D01*
X78220026Y-74785230D01*
X78278509Y-74796863D01*
X79918005Y-74796863D01*
X79976488Y-74785230D01*
X80042809Y-74740915D01*
X80087124Y-74674594D01*
X80098757Y-74616111D01*
X80098757Y-72976615D01*
X80087124Y-72918132D01*
X80073668Y-72897994D01*
X80042809Y-72851810D01*
X79976489Y-72807496D01*
X79976487Y-72807495D01*
X79918005Y-72795863D01*
X78278509Y-72795863D01*
X78220026Y-72807495D01*
X78220024Y-72807496D01*
X78153704Y-72851810D01*
X78109390Y-72918130D01*
X78109389Y-72918132D01*
X78097757Y-72976614D01*
X78097757Y-73215863D01*
X78079451Y-73260057D01*
X78035257Y-73278363D01*
X72488000Y-73278363D01*
X72443806Y-73260057D01*
X72425500Y-73215863D01*
X72425500Y-73108237D01*
X72422646Y-73077803D01*
X72422645Y-73077798D01*
X72419457Y-73068687D01*
X72377793Y-72949618D01*
X72376820Y-72948300D01*
X72330693Y-72885800D01*
X72297150Y-72840350D01*
X72187882Y-72759707D01*
X72183661Y-72758230D01*
X72059701Y-72714854D01*
X72059696Y-72714853D01*
X72039699Y-72712978D01*
X72029266Y-72712000D01*
X70970734Y-72712000D01*
X70961124Y-72712901D01*
X70940303Y-72714853D01*
X70940298Y-72714854D01*
X70812117Y-72759707D01*
X70812116Y-72759707D01*
X70702850Y-72840350D01*
X70619425Y-72953387D01*
X70618160Y-72952453D01*
X70585863Y-72979221D01*
X70567433Y-72982000D01*
X69910451Y-72982000D01*
X69866257Y-72963694D01*
X69768806Y-72866243D01*
X69750500Y-72822049D01*
X69750500Y-71675000D01*
X70275001Y-71675000D01*
X70275001Y-71812487D01*
X70285492Y-71915187D01*
X70285493Y-71915194D01*
X70340641Y-72081621D01*
X70432682Y-72230843D01*
X70556656Y-72354817D01*
X70705878Y-72446858D01*
X70872308Y-72502007D01*
X70975018Y-72512499D01*
X71249999Y-72512499D01*
X71250000Y-72512498D01*
X71250000Y-71675000D01*
X71750000Y-71675000D01*
X71750000Y-72512499D01*
X72024976Y-72512499D01*
X72024987Y-72512498D01*
X72127687Y-72502007D01*
X72127694Y-72502006D01*
X72294121Y-72446858D01*
X72443343Y-72354817D01*
X72567317Y-72230843D01*
X72659358Y-72081621D01*
X72714507Y-71915191D01*
X72724999Y-71812486D01*
X72725000Y-71812477D01*
X72725000Y-71675000D01*
X71750000Y-71675000D01*
X71250000Y-71675000D01*
X70275001Y-71675000D01*
X69750500Y-71675000D01*
X69750500Y-71407751D01*
X69738867Y-71349268D01*
X69734719Y-71343060D01*
X69703518Y-71296365D01*
X77793291Y-71296365D01*
X77813115Y-71522964D01*
X77813118Y-71522980D01*
X77871988Y-71742684D01*
X77871989Y-71742686D01*
X77968121Y-71948842D01*
X78019231Y-72021834D01*
X78698257Y-71342808D01*
X78698257Y-71349024D01*
X78725516Y-71450757D01*
X78778177Y-71541969D01*
X78852651Y-71616443D01*
X78943863Y-71669104D01*
X79045596Y-71696363D01*
X79051810Y-71696363D01*
X78372784Y-72375387D01*
X78445774Y-72426497D01*
X78651933Y-72522630D01*
X78651935Y-72522631D01*
X78871639Y-72581501D01*
X78871655Y-72581504D01*
X79098255Y-72601329D01*
X79098259Y-72601329D01*
X79324858Y-72581504D01*
X79324874Y-72581501D01*
X79544578Y-72522631D01*
X79544580Y-72522630D01*
X79750741Y-72426496D01*
X79750744Y-72426494D01*
X79823728Y-72375388D01*
X79823729Y-72375388D01*
X79144704Y-71696363D01*
X79150918Y-71696363D01*
X79252651Y-71669104D01*
X79343863Y-71616443D01*
X79418337Y-71541969D01*
X79470998Y-71450757D01*
X79498257Y-71349024D01*
X79498257Y-71342810D01*
X80177282Y-72021835D01*
X80177282Y-72021834D01*
X80228388Y-71948850D01*
X80228390Y-71948847D01*
X80324524Y-71742686D01*
X80324525Y-71742684D01*
X80383395Y-71522980D01*
X80383398Y-71522964D01*
X80403223Y-71296365D01*
X80403223Y-71296360D01*
X80383398Y-71069761D01*
X80383395Y-71069745D01*
X80324525Y-70850041D01*
X80324524Y-70850039D01*
X80228391Y-70643880D01*
X80177281Y-70570890D01*
X79498257Y-71249914D01*
X79498257Y-71243702D01*
X79470998Y-71141969D01*
X79418337Y-71050757D01*
X79343863Y-70976283D01*
X79252651Y-70923622D01*
X79150918Y-70896363D01*
X79144702Y-70896363D01*
X79486804Y-70554262D01*
X84749500Y-70554262D01*
X84752353Y-70584696D01*
X84752354Y-70584701D01*
X84797207Y-70712882D01*
X84797207Y-70712883D01*
X84836443Y-70766045D01*
X84877850Y-70822150D01*
X84987118Y-70902793D01*
X85115301Y-70947646D01*
X85145734Y-70950500D01*
X85542050Y-70950500D01*
X85586244Y-70968806D01*
X85960496Y-71343059D01*
X85960497Y-71343060D01*
X86056934Y-71439498D01*
X86056938Y-71439501D01*
X86056940Y-71439503D01*
X86175059Y-71507699D01*
X86175062Y-71507700D01*
X86232088Y-71522980D01*
X86306804Y-71543000D01*
X86348549Y-71543000D01*
X86392743Y-71561306D01*
X86411049Y-71605500D01*
X86392743Y-71649694D01*
X86310501Y-71731934D01*
X86310498Y-71731938D01*
X86242300Y-71850059D01*
X86242299Y-71850062D01*
X86207001Y-71981797D01*
X86207000Y-71981805D01*
X86207000Y-72319091D01*
X86200653Y-72342804D01*
X86202031Y-72343375D01*
X86139957Y-72493234D01*
X86139954Y-72493244D01*
X86119318Y-72649998D01*
X86119318Y-72650001D01*
X86139954Y-72806755D01*
X86139957Y-72806765D01*
X86200462Y-72952838D01*
X86200464Y-72952841D01*
X86296717Y-73078282D01*
X86392971Y-73152139D01*
X86422159Y-73174536D01*
X86568238Y-73235044D01*
X86568242Y-73235044D01*
X86568244Y-73235045D01*
X86724998Y-73255682D01*
X86725000Y-73255682D01*
X86725002Y-73255682D01*
X86881755Y-73235045D01*
X86881755Y-73235044D01*
X86881762Y-73235044D01*
X87027841Y-73174536D01*
X87153282Y-73078282D01*
X87249536Y-72952841D01*
X87310044Y-72806762D01*
X87319522Y-72734768D01*
X87330682Y-72650001D01*
X87330682Y-72649998D01*
X87310045Y-72493244D01*
X87310044Y-72493242D01*
X87310044Y-72493238D01*
X87261229Y-72375388D01*
X87247969Y-72343375D01*
X87249346Y-72342804D01*
X87243000Y-72319091D01*
X87243000Y-72290449D01*
X87261305Y-72246256D01*
X87655070Y-71852490D01*
X87699263Y-71834185D01*
X87737310Y-71847100D01*
X87744336Y-71852491D01*
X87805922Y-71899748D01*
X87809766Y-71902697D01*
X87809769Y-71902699D01*
X87842873Y-71916411D01*
X87949764Y-71960687D01*
X87949770Y-71960687D01*
X87949771Y-71960688D01*
X88006022Y-71968093D01*
X88062280Y-71975500D01*
X88062286Y-71975500D01*
X89387714Y-71975500D01*
X89387720Y-71975500D01*
X89500236Y-71960687D01*
X89640233Y-71902698D01*
X89760451Y-71810451D01*
X89852698Y-71690233D01*
X89910687Y-71550236D01*
X89925500Y-71437720D01*
X89925500Y-70612280D01*
X89910687Y-70499764D01*
X89852698Y-70359767D01*
X89760451Y-70239549D01*
X89640233Y-70147302D01*
X89640229Y-70147300D01*
X89500239Y-70089314D01*
X89500230Y-70089311D01*
X89498440Y-70089076D01*
X89497651Y-70088620D01*
X89496276Y-70088252D01*
X89496374Y-70087883D01*
X89457014Y-70065156D01*
X89444636Y-70018950D01*
X89468556Y-69977524D01*
X89491517Y-69966458D01*
X89653522Y-69926169D01*
X89824028Y-69841604D01*
X89824029Y-69841604D01*
X89972366Y-69722366D01*
X90091604Y-69574029D01*
X90091604Y-69574028D01*
X90176169Y-69403522D01*
X90222102Y-69218821D01*
X90222103Y-69218816D01*
X90224999Y-69176095D01*
X90225000Y-69176087D01*
X90225000Y-68975000D01*
X87225000Y-68975000D01*
X87225000Y-69176095D01*
X87227896Y-69218816D01*
X87227897Y-69218821D01*
X87273830Y-69403522D01*
X87358395Y-69574028D01*
X87358395Y-69574029D01*
X87477633Y-69722366D01*
X87625971Y-69841604D01*
X87796477Y-69926169D01*
X87958482Y-69966458D01*
X87996952Y-69994889D01*
X88004051Y-70042195D01*
X87975620Y-70080665D01*
X87951560Y-70089076D01*
X87949769Y-70089311D01*
X87949760Y-70089314D01*
X87809770Y-70147300D01*
X87809767Y-70147301D01*
X87809767Y-70147302D01*
X87689549Y-70239549D01*
X87606338Y-70347992D01*
X87597300Y-70359770D01*
X87552296Y-70468418D01*
X87518471Y-70502243D01*
X87494554Y-70507000D01*
X86663000Y-70507000D01*
X86618806Y-70488694D01*
X86600500Y-70444500D01*
X86600500Y-69770737D01*
X86597646Y-69740303D01*
X86597645Y-69740298D01*
X86571402Y-69665300D01*
X86552793Y-69612118D01*
X86547710Y-69605231D01*
X86513021Y-69558229D01*
X86472150Y-69502850D01*
X86362882Y-69422207D01*
X86320166Y-69407260D01*
X86234701Y-69377354D01*
X86234696Y-69377353D01*
X86214699Y-69375478D01*
X86204266Y-69374500D01*
X85145734Y-69374500D01*
X85136124Y-69375401D01*
X85115303Y-69377353D01*
X85115298Y-69377354D01*
X84987117Y-69422207D01*
X84987116Y-69422207D01*
X84877850Y-69502850D01*
X84797207Y-69612116D01*
X84797207Y-69612117D01*
X84752354Y-69740298D01*
X84752353Y-69740303D01*
X84749500Y-69770737D01*
X84749500Y-70554262D01*
X79486804Y-70554262D01*
X79823729Y-70217337D01*
X79750736Y-70166227D01*
X79544580Y-70070095D01*
X79544578Y-70070094D01*
X79324874Y-70011224D01*
X79324858Y-70011221D01*
X79098259Y-69991397D01*
X79098255Y-69991397D01*
X78871655Y-70011221D01*
X78871639Y-70011224D01*
X78651935Y-70070094D01*
X78651933Y-70070095D01*
X78445774Y-70166228D01*
X78372784Y-70217336D01*
X78372783Y-70217336D01*
X79051810Y-70896363D01*
X79045596Y-70896363D01*
X78943863Y-70923622D01*
X78852651Y-70976283D01*
X78778177Y-71050757D01*
X78725516Y-71141969D01*
X78698257Y-71243702D01*
X78698257Y-71249916D01*
X78019230Y-70570889D01*
X78019230Y-70570890D01*
X77968122Y-70643880D01*
X77871989Y-70850039D01*
X77871988Y-70850041D01*
X77813118Y-71069745D01*
X77813115Y-71069761D01*
X77793291Y-71296360D01*
X77793291Y-71296365D01*
X69703518Y-71296365D01*
X69694552Y-71282946D01*
X69628232Y-71238632D01*
X69628230Y-71238631D01*
X69569748Y-71226999D01*
X69335095Y-71226999D01*
X69290901Y-71208693D01*
X69276945Y-71175000D01*
X70275000Y-71175000D01*
X71250000Y-71175000D01*
X71250000Y-70337500D01*
X71750000Y-70337500D01*
X71750000Y-71175000D01*
X72724999Y-71175000D01*
X72724999Y-71037524D01*
X72724998Y-71037512D01*
X72714507Y-70934812D01*
X72714506Y-70934805D01*
X72659358Y-70768378D01*
X72567317Y-70619156D01*
X72443343Y-70495182D01*
X72294121Y-70403141D01*
X72127691Y-70347992D01*
X72024986Y-70337500D01*
X71750000Y-70337500D01*
X71250000Y-70337500D01*
X70975024Y-70337500D01*
X70975012Y-70337501D01*
X70872312Y-70347992D01*
X70872305Y-70347993D01*
X70705878Y-70403141D01*
X70556656Y-70495182D01*
X70432682Y-70619156D01*
X70340641Y-70768378D01*
X70285492Y-70934808D01*
X70275000Y-71037513D01*
X70275000Y-71175000D01*
X69276945Y-71175000D01*
X69272595Y-71164499D01*
X69290901Y-71120305D01*
X69306721Y-71108811D01*
X69358773Y-71082288D01*
X69543747Y-70947897D01*
X69705398Y-70786246D01*
X69839789Y-70601272D01*
X69943580Y-70397571D01*
X69943584Y-70397563D01*
X70014234Y-70180125D01*
X70014234Y-70180124D01*
X70028509Y-70089999D01*
X69040748Y-70089999D01*
X69062518Y-70052291D01*
X69100000Y-69912408D01*
X69100000Y-69767590D01*
X69062518Y-69627707D01*
X69040748Y-69589999D01*
X70028509Y-69589999D01*
X70028509Y-69589998D01*
X70014234Y-69499873D01*
X70014234Y-69499872D01*
X69943584Y-69282434D01*
X69943580Y-69282426D01*
X69839789Y-69078725D01*
X69705398Y-68893751D01*
X69543747Y-68732100D01*
X69358773Y-68597709D01*
X69338737Y-68587500D01*
X70275001Y-68587500D01*
X70275001Y-68724987D01*
X70285492Y-68827687D01*
X70285493Y-68827694D01*
X70340641Y-68994121D01*
X70432682Y-69143343D01*
X70556656Y-69267317D01*
X70705878Y-69359358D01*
X70872308Y-69414507D01*
X70975018Y-69424999D01*
X71249999Y-69424999D01*
X71250000Y-69424998D01*
X71250000Y-68587500D01*
X71750000Y-68587500D01*
X71750000Y-69424999D01*
X72024976Y-69424999D01*
X72024987Y-69424998D01*
X72127687Y-69414507D01*
X72127694Y-69414506D01*
X72294121Y-69359358D01*
X72443343Y-69267317D01*
X72567317Y-69143343D01*
X72659358Y-68994121D01*
X72714507Y-68827691D01*
X72724999Y-68724986D01*
X72725000Y-68724977D01*
X72725000Y-68587500D01*
X71750000Y-68587500D01*
X71250000Y-68587500D01*
X70275001Y-68587500D01*
X69338737Y-68587500D01*
X69155072Y-68493918D01*
X69155064Y-68493914D01*
X69078101Y-68468907D01*
X69041727Y-68437840D01*
X69037974Y-68390152D01*
X69069039Y-68353779D01*
X69100989Y-68337500D01*
X84450001Y-68337500D01*
X84450001Y-68474987D01*
X84460492Y-68577687D01*
X84460493Y-68577694D01*
X84515641Y-68744121D01*
X84607682Y-68893343D01*
X84731656Y-69017317D01*
X84880878Y-69109358D01*
X85047308Y-69164507D01*
X85150018Y-69174999D01*
X85424999Y-69174999D01*
X85425000Y-69174998D01*
X85425000Y-68337500D01*
X85925000Y-68337500D01*
X85925000Y-69174999D01*
X86199976Y-69174999D01*
X86199987Y-69174998D01*
X86302687Y-69164507D01*
X86302694Y-69164506D01*
X86469121Y-69109358D01*
X86618343Y-69017317D01*
X86742317Y-68893343D01*
X86834358Y-68744121D01*
X86889507Y-68577691D01*
X86899999Y-68474986D01*
X86900000Y-68474977D01*
X86900000Y-68337500D01*
X85925000Y-68337500D01*
X85425000Y-68337500D01*
X84450001Y-68337500D01*
X69100989Y-68337500D01*
X69201804Y-68286133D01*
X69348629Y-68179458D01*
X69440587Y-68087500D01*
X70275000Y-68087500D01*
X71250000Y-68087500D01*
X71250000Y-67250000D01*
X71750000Y-67250000D01*
X71750000Y-68087500D01*
X72724999Y-68087500D01*
X72724999Y-67950024D01*
X72724998Y-67950012D01*
X72714507Y-67847312D01*
X72714506Y-67847305D01*
X72659358Y-67680878D01*
X72567317Y-67531656D01*
X72443343Y-67407682D01*
X72294121Y-67315641D01*
X72127691Y-67260492D01*
X72024986Y-67250000D01*
X71750000Y-67250000D01*
X71250000Y-67250000D01*
X70975024Y-67250000D01*
X70975012Y-67250001D01*
X70872312Y-67260492D01*
X70872305Y-67260493D01*
X70705878Y-67315641D01*
X70556656Y-67407682D01*
X70432682Y-67531656D01*
X70340641Y-67680878D01*
X70285492Y-67847308D01*
X70275000Y-67950013D01*
X70275000Y-68087500D01*
X69440587Y-68087500D01*
X69476959Y-68051128D01*
X69583634Y-67904303D01*
X69666027Y-67742597D01*
X69722109Y-67569994D01*
X69750500Y-67390742D01*
X69750500Y-67209256D01*
X69748449Y-67196309D01*
X69735040Y-67111647D01*
X69722109Y-67030004D01*
X69722107Y-67029999D01*
X69722107Y-67029996D01*
X69714387Y-67006240D01*
X69718138Y-66958552D01*
X69729627Y-66942737D01*
X69810060Y-66862304D01*
X69854253Y-66844000D01*
X70613622Y-66844000D01*
X70657816Y-66862306D01*
X70663905Y-66869381D01*
X70702850Y-66922150D01*
X70812118Y-67002793D01*
X70940301Y-67047646D01*
X70970734Y-67050500D01*
X70970738Y-67050500D01*
X72029262Y-67050500D01*
X72029266Y-67050500D01*
X72059699Y-67047646D01*
X72187882Y-67002793D01*
X72297150Y-66922150D01*
X72309891Y-66904886D01*
X72350862Y-66880198D01*
X72360178Y-66879500D01*
X85102796Y-66879500D01*
X85146990Y-66897806D01*
X85165296Y-66942000D01*
X85146990Y-66986194D01*
X85109147Y-67004176D01*
X85047312Y-67010492D01*
X85047305Y-67010493D01*
X84880878Y-67065641D01*
X84731656Y-67157682D01*
X84607682Y-67281656D01*
X84515641Y-67430878D01*
X84460492Y-67597308D01*
X84450000Y-67700013D01*
X84450000Y-67837500D01*
X86899999Y-67837500D01*
X86899999Y-67700024D01*
X86899998Y-67700012D01*
X86889507Y-67597312D01*
X86889506Y-67597305D01*
X86834358Y-67430878D01*
X86742317Y-67281656D01*
X86618343Y-67157682D01*
X86469121Y-67065641D01*
X86302691Y-67010492D01*
X86240859Y-67004176D01*
X86198754Y-66981474D01*
X86185035Y-66935648D01*
X86207737Y-66893543D01*
X86247211Y-66879500D01*
X87475189Y-66879500D01*
X87519383Y-66897806D01*
X87537154Y-66933842D01*
X87539311Y-66950232D01*
X87539312Y-66950235D01*
X87597300Y-67090229D01*
X87597302Y-67090233D01*
X87689549Y-67210451D01*
X87809767Y-67302698D01*
X87949764Y-67360687D01*
X87951550Y-67360922D01*
X87952336Y-67361376D01*
X87953724Y-67361748D01*
X87953624Y-67362119D01*
X87992979Y-67384836D01*
X88005364Y-67431040D01*
X87981450Y-67472469D01*
X87958482Y-67483540D01*
X87796484Y-67523828D01*
X87796479Y-67523829D01*
X87625971Y-67608395D01*
X87625970Y-67608395D01*
X87477633Y-67727633D01*
X87358395Y-67875970D01*
X87358395Y-67875971D01*
X87273830Y-68046477D01*
X87227897Y-68231178D01*
X87227896Y-68231183D01*
X87225000Y-68273904D01*
X87225000Y-68475000D01*
X90225000Y-68475000D01*
X90225000Y-68273912D01*
X90224999Y-68273904D01*
X90222103Y-68231183D01*
X90222102Y-68231178D01*
X90176169Y-68046477D01*
X90091604Y-67875971D01*
X90091604Y-67875970D01*
X89972366Y-67727633D01*
X89824028Y-67608395D01*
X89653520Y-67523829D01*
X89653516Y-67523828D01*
X89491517Y-67483540D01*
X89453047Y-67455110D01*
X89445949Y-67407804D01*
X89474379Y-67369334D01*
X89498449Y-67360922D01*
X89500236Y-67360687D01*
X89640233Y-67302698D01*
X89760451Y-67210451D01*
X89852698Y-67090233D01*
X89910687Y-66950236D01*
X89910688Y-66950232D01*
X89912846Y-66933842D01*
X89936763Y-66892416D01*
X89974811Y-66879500D01*
X90510852Y-66879500D01*
X90555046Y-66897806D01*
X91387194Y-67729954D01*
X91405500Y-67774148D01*
X91405500Y-78630851D01*
X91387194Y-78675045D01*
X88580597Y-81481641D01*
X88536403Y-81499947D01*
X88518261Y-81497256D01*
X88410935Y-81464700D01*
X88410930Y-81464699D01*
X88205000Y-81444417D01*
X87999069Y-81464699D01*
X87999064Y-81464700D01*
X87801050Y-81524766D01*
X87801045Y-81524768D01*
X87618555Y-81622311D01*
X87618544Y-81622319D01*
X87458591Y-81753588D01*
X87458588Y-81753591D01*
X87327319Y-81913544D01*
X87327311Y-81913555D01*
X87229768Y-82096045D01*
X87229766Y-82096050D01*
X87169700Y-82294064D01*
X87169699Y-82294069D01*
X87149417Y-82499999D01*
X87149417Y-82500000D01*
X87169699Y-82705930D01*
X87169700Y-82705935D01*
X87229766Y-82903949D01*
X87229768Y-82903954D01*
X87327311Y-83086444D01*
X87327313Y-83086448D01*
X87327315Y-83086450D01*
X87458590Y-83246410D01*
X87618550Y-83377685D01*
X87618553Y-83377686D01*
X87618555Y-83377688D01*
X87649546Y-83394253D01*
X87801046Y-83475232D01*
X87999066Y-83535300D01*
X88205000Y-83555583D01*
X88410934Y-83535300D01*
X88608954Y-83475232D01*
X88791450Y-83377685D01*
X88951410Y-83246410D01*
X89082685Y-83086450D01*
X89180232Y-82903954D01*
X89240300Y-82705934D01*
X89260583Y-82500000D01*
X89240300Y-82294066D01*
X89207742Y-82186737D01*
X89212431Y-82139133D01*
X89223354Y-82124404D01*
X89365316Y-81982442D01*
X89409509Y-81964137D01*
X89453703Y-81982443D01*
X89472009Y-82026637D01*
X89469879Y-82042813D01*
X89414363Y-82249998D01*
X89414364Y-82250000D01*
X90311988Y-82250000D01*
X90279075Y-82307007D01*
X90245000Y-82434174D01*
X90245000Y-82565826D01*
X90279075Y-82692993D01*
X90311988Y-82750000D01*
X89414364Y-82750000D01*
X89414363Y-82750001D01*
X89471567Y-82963487D01*
X89471568Y-82963489D01*
X89571398Y-83177575D01*
X89706892Y-83371081D01*
X89873918Y-83538107D01*
X90067426Y-83673603D01*
X90281503Y-83773428D01*
X90281519Y-83773434D01*
X90494998Y-83830635D01*
X90495000Y-83830634D01*
X90495000Y-82933012D01*
X90552007Y-82965925D01*
X90679174Y-83000000D01*
X90810826Y-83000000D01*
X90937993Y-82965925D01*
X90995000Y-82933012D01*
X90995000Y-83830634D01*
X90995001Y-83830635D01*
X91208480Y-83773434D01*
X91208496Y-83773428D01*
X91422573Y-83673603D01*
X91616081Y-83538107D01*
X91783107Y-83371081D01*
X91918601Y-83177575D01*
X92018431Y-82963489D01*
X92018432Y-82963487D01*
X92075636Y-82750001D01*
X92075636Y-82750000D01*
X91178012Y-82750000D01*
X91210925Y-82692993D01*
X91245000Y-82565826D01*
X91245000Y-82500000D01*
X92229417Y-82500000D01*
X92249699Y-82705930D01*
X92249700Y-82705935D01*
X92309766Y-82903949D01*
X92309768Y-82903954D01*
X92407311Y-83086444D01*
X92407313Y-83086448D01*
X92407315Y-83086450D01*
X92538590Y-83246410D01*
X92698550Y-83377685D01*
X92698553Y-83377686D01*
X92698555Y-83377688D01*
X92729546Y-83394253D01*
X92881046Y-83475232D01*
X93079066Y-83535300D01*
X93285000Y-83555583D01*
X93490934Y-83535300D01*
X93688954Y-83475232D01*
X93871450Y-83377685D01*
X94031410Y-83246410D01*
X94162685Y-83086450D01*
X94260232Y-82903954D01*
X94306933Y-82750001D01*
X94494363Y-82750001D01*
X94551567Y-82963487D01*
X94551568Y-82963489D01*
X94651398Y-83177575D01*
X94786892Y-83371081D01*
X94953918Y-83538107D01*
X95147426Y-83673603D01*
X95361503Y-83773428D01*
X95361519Y-83773434D01*
X95574998Y-83830635D01*
X95575000Y-83830634D01*
X95575000Y-82933012D01*
X95632007Y-82965925D01*
X95759174Y-83000000D01*
X95890826Y-83000000D01*
X96017993Y-82965925D01*
X96075000Y-82933012D01*
X96075000Y-83830634D01*
X96075001Y-83830635D01*
X96288480Y-83773434D01*
X96288496Y-83773428D01*
X96502573Y-83673603D01*
X96696081Y-83538107D01*
X96863107Y-83371081D01*
X96998601Y-83177575D01*
X97098431Y-82963489D01*
X97098432Y-82963487D01*
X97155636Y-82750001D01*
X97155636Y-82750000D01*
X96258012Y-82750000D01*
X96290925Y-82692993D01*
X96325000Y-82565826D01*
X96325000Y-82434174D01*
X96290925Y-82307007D01*
X96258012Y-82250000D01*
X97155636Y-82250000D01*
X97155636Y-82249998D01*
X97098432Y-82036512D01*
X97098431Y-82036510D01*
X96998600Y-81822422D01*
X96863109Y-81628920D01*
X96696081Y-81461892D01*
X96502575Y-81326398D01*
X96288489Y-81226568D01*
X96288487Y-81226567D01*
X96075001Y-81169363D01*
X96075000Y-81169364D01*
X96075000Y-82066988D01*
X96017993Y-82034075D01*
X95890826Y-82000000D01*
X95759174Y-82000000D01*
X95632007Y-82034075D01*
X95575000Y-82066988D01*
X95575000Y-81169364D01*
X95574998Y-81169363D01*
X95361512Y-81226567D01*
X95361510Y-81226568D01*
X95147422Y-81326399D01*
X94953920Y-81461890D01*
X94786890Y-81628920D01*
X94651399Y-81822422D01*
X94551568Y-82036510D01*
X94551567Y-82036512D01*
X94494363Y-82249998D01*
X94494364Y-82250000D01*
X95391988Y-82250000D01*
X95359075Y-82307007D01*
X95325000Y-82434174D01*
X95325000Y-82565826D01*
X95359075Y-82692993D01*
X95391988Y-82750000D01*
X94494364Y-82750000D01*
X94494363Y-82750001D01*
X94306933Y-82750001D01*
X94320300Y-82705934D01*
X94340583Y-82500000D01*
X94320300Y-82294066D01*
X94260232Y-82096046D01*
X94189488Y-81963694D01*
X94162688Y-81913555D01*
X94162686Y-81913553D01*
X94162685Y-81913550D01*
X94086513Y-81820734D01*
X94031411Y-81753591D01*
X94031408Y-81753588D01*
X93871455Y-81622319D01*
X93871453Y-81622318D01*
X93871450Y-81622315D01*
X93871448Y-81622313D01*
X93871444Y-81622311D01*
X93688954Y-81524768D01*
X93688949Y-81524766D01*
X93490935Y-81464700D01*
X93490930Y-81464699D01*
X93285000Y-81444417D01*
X93079069Y-81464699D01*
X93079064Y-81464700D01*
X92881050Y-81524766D01*
X92881045Y-81524768D01*
X92698555Y-81622311D01*
X92698544Y-81622319D01*
X92538591Y-81753588D01*
X92538588Y-81753591D01*
X92407319Y-81913544D01*
X92407311Y-81913555D01*
X92309768Y-82096045D01*
X92309766Y-82096050D01*
X92249700Y-82294064D01*
X92249699Y-82294069D01*
X92229417Y-82499999D01*
X92229417Y-82500000D01*
X91245000Y-82500000D01*
X91245000Y-82434174D01*
X91210925Y-82307007D01*
X91178012Y-82250000D01*
X92075636Y-82250000D01*
X92075636Y-82249998D01*
X92018432Y-82036512D01*
X92018431Y-82036510D01*
X91918600Y-81822422D01*
X91783109Y-81628920D01*
X91616081Y-81461892D01*
X91422575Y-81326398D01*
X91208489Y-81226568D01*
X91208487Y-81226567D01*
X90995001Y-81169363D01*
X90995000Y-81169364D01*
X90995000Y-82066988D01*
X90937993Y-82034075D01*
X90810826Y-82000000D01*
X90679174Y-82000000D01*
X90552007Y-82034075D01*
X90495000Y-82066988D01*
X90495000Y-81169364D01*
X90494998Y-81169363D01*
X90287812Y-81224879D01*
X90240386Y-81218636D01*
X90211266Y-81180685D01*
X90217509Y-81133259D01*
X90227435Y-81120323D01*
X91177775Y-80169983D01*
X123634500Y-80169983D01*
X123634501Y-80169999D01*
X123668910Y-80387246D01*
X123668910Y-80387247D01*
X123736886Y-80596455D01*
X123736887Y-80596457D01*
X123767097Y-80655746D01*
X123836751Y-80792449D01*
X123966047Y-80970410D01*
X123966050Y-80970413D01*
X123966053Y-80970417D01*
X124121582Y-81125946D01*
X124121585Y-81125948D01*
X124121590Y-81125953D01*
X124299551Y-81255249D01*
X124495546Y-81355114D01*
X124704751Y-81423089D01*
X124796322Y-81437592D01*
X124922000Y-81457498D01*
X124922006Y-81457498D01*
X124922014Y-81457500D01*
X124922016Y-81457500D01*
X125141984Y-81457500D01*
X125141986Y-81457500D01*
X125359249Y-81423089D01*
X125568454Y-81355114D01*
X125764449Y-81255249D01*
X125942410Y-81125953D01*
X126097953Y-80970410D01*
X126227249Y-80792449D01*
X126327114Y-80596454D01*
X126395089Y-80387249D01*
X126429500Y-80169986D01*
X126429500Y-79950014D01*
X126395089Y-79732751D01*
X126327114Y-79523546D01*
X126227249Y-79327551D01*
X126097953Y-79149590D01*
X126097948Y-79149585D01*
X126097946Y-79149582D01*
X125942417Y-78994053D01*
X125942413Y-78994050D01*
X125942410Y-78994047D01*
X125764449Y-78864751D01*
X125608252Y-78785164D01*
X125568457Y-78764887D01*
X125568455Y-78764886D01*
X125359247Y-78696910D01*
X125141999Y-78662501D01*
X125141987Y-78662500D01*
X125141986Y-78662500D01*
X124922014Y-78662500D01*
X124922012Y-78662500D01*
X124922000Y-78662501D01*
X124704753Y-78696910D01*
X124704752Y-78696910D01*
X124495544Y-78764886D01*
X124495542Y-78764887D01*
X124299550Y-78864751D01*
X124121582Y-78994053D01*
X123966053Y-79149582D01*
X123836751Y-79327550D01*
X123736887Y-79523542D01*
X123736886Y-79523544D01*
X123668910Y-79732752D01*
X123668910Y-79732753D01*
X123634501Y-79950000D01*
X123634500Y-79950016D01*
X123634500Y-80169983D01*
X91177775Y-80169983D01*
X92133923Y-79213836D01*
X92133928Y-79213832D01*
X92139068Y-79208691D01*
X92139070Y-79208691D01*
X92223691Y-79124070D01*
X92237831Y-79099577D01*
X92283528Y-79020431D01*
X92314499Y-78904842D01*
X92314501Y-78904834D01*
X92314501Y-78781340D01*
X92314500Y-78781322D01*
X92314500Y-68975000D01*
X93525000Y-68975000D01*
X93525000Y-70183007D01*
X93535608Y-70302322D01*
X93535610Y-70302334D01*
X93591557Y-70497861D01*
X93685721Y-70678128D01*
X93685722Y-70678131D01*
X93814247Y-70835752D01*
X93971868Y-70964277D01*
X93971871Y-70964278D01*
X94152138Y-71058442D01*
X94347665Y-71114389D01*
X94347677Y-71114391D01*
X94466993Y-71125000D01*
X94775000Y-71125000D01*
X94775000Y-68975000D01*
X95275000Y-68975000D01*
X95275000Y-71125000D01*
X95583007Y-71125000D01*
X95702322Y-71114391D01*
X95702334Y-71114389D01*
X95897861Y-71058442D01*
X96078128Y-70964278D01*
X96078131Y-70964277D01*
X96235752Y-70835752D01*
X96364277Y-70678131D01*
X96364278Y-70678128D01*
X96458442Y-70497861D01*
X96514389Y-70302334D01*
X96514391Y-70302322D01*
X96525000Y-70183007D01*
X96525000Y-68975000D01*
X95275000Y-68975000D01*
X94775000Y-68975000D01*
X93525000Y-68975000D01*
X92314500Y-68975000D01*
X92314500Y-68475000D01*
X93525000Y-68475000D01*
X94775000Y-68475000D01*
X94775000Y-66325000D01*
X95275000Y-66325000D01*
X95275000Y-68475000D01*
X96525000Y-68475000D01*
X96525000Y-67266992D01*
X96514391Y-67147677D01*
X96514389Y-67147665D01*
X96458442Y-66952138D01*
X96364278Y-66771871D01*
X96364277Y-66771868D01*
X96235752Y-66614247D01*
X96078131Y-66485722D01*
X96078128Y-66485721D01*
X95897861Y-66391557D01*
X95702334Y-66335610D01*
X95702322Y-66335608D01*
X95583007Y-66325000D01*
X95275000Y-66325000D01*
X94775000Y-66325000D01*
X94466993Y-66325000D01*
X94347677Y-66335608D01*
X94347665Y-66335610D01*
X94152138Y-66391557D01*
X93971871Y-66485721D01*
X93971868Y-66485722D01*
X93814247Y-66614247D01*
X93685722Y-66771868D01*
X93685721Y-66771871D01*
X93591557Y-66952138D01*
X93535610Y-67147665D01*
X93535608Y-67147677D01*
X93525000Y-67266992D01*
X93525000Y-68475000D01*
X92314500Y-68475000D01*
X92314500Y-67500165D01*
X92314498Y-67500157D01*
X92283528Y-67384572D01*
X92283527Y-67384569D01*
X92274731Y-67369334D01*
X92223691Y-67280930D01*
X92223689Y-67280928D01*
X92223686Y-67280924D01*
X92136892Y-67194131D01*
X92136881Y-67194121D01*
X91092259Y-66149499D01*
X91092247Y-66149485D01*
X91004075Y-66061313D01*
X91004071Y-66061310D01*
X91004070Y-66061309D01*
X90900431Y-66001473D01*
X90900429Y-66001472D01*
X90900427Y-66001471D01*
X90876003Y-65994927D01*
X90876002Y-65994927D01*
X90784840Y-65970499D01*
X90784836Y-65970499D01*
X90665164Y-65970499D01*
X90661339Y-65970499D01*
X90661323Y-65970500D01*
X89974811Y-65970500D01*
X89930617Y-65952194D01*
X89912846Y-65916158D01*
X89910688Y-65899767D01*
X89910687Y-65899764D01*
X89876070Y-65816192D01*
X89852698Y-65759767D01*
X89760451Y-65639549D01*
X89640233Y-65547302D01*
X89640229Y-65547300D01*
X89500239Y-65489314D01*
X89500237Y-65489313D01*
X89500236Y-65489313D01*
X89500234Y-65489312D01*
X89500228Y-65489311D01*
X89387726Y-65474500D01*
X89387720Y-65474500D01*
X88062280Y-65474500D01*
X88062273Y-65474500D01*
X87949771Y-65489311D01*
X87949760Y-65489314D01*
X87809770Y-65547300D01*
X87809767Y-65547301D01*
X87809767Y-65547302D01*
X87689549Y-65639549D01*
X87660658Y-65677201D01*
X87597300Y-65759770D01*
X87539312Y-65899764D01*
X87539311Y-65899767D01*
X87537154Y-65916158D01*
X87513237Y-65957584D01*
X87475189Y-65970500D01*
X72765254Y-65970500D01*
X72721060Y-65952194D01*
X72702754Y-65908000D01*
X72721060Y-65863806D01*
X73165311Y-65419555D01*
X73165316Y-65419550D01*
X73241872Y-65286951D01*
X73281500Y-65139056D01*
X73281500Y-64985945D01*
X73281500Y-61550001D01*
X76394318Y-61550001D01*
X76414954Y-61706755D01*
X76414957Y-61706765D01*
X76475462Y-61852838D01*
X76475464Y-61852841D01*
X76571717Y-61978282D01*
X76627909Y-62021399D01*
X76697159Y-62074536D01*
X76843238Y-62135044D01*
X76843242Y-62135044D01*
X76843244Y-62135045D01*
X76999998Y-62155682D01*
X77000000Y-62155682D01*
X77000002Y-62155682D01*
X77156755Y-62135045D01*
X77156755Y-62135044D01*
X77156762Y-62135044D01*
X77302841Y-62074536D01*
X77428282Y-61978282D01*
X77524536Y-61852841D01*
X77585044Y-61706762D01*
X77585044Y-61706757D01*
X77586611Y-61702976D01*
X77588010Y-61703555D01*
X77600267Y-61682293D01*
X78583757Y-60698806D01*
X78627951Y-60680500D01*
X78787499Y-60680500D01*
X78787501Y-60680500D01*
X78833229Y-60675348D01*
X78912673Y-60637088D01*
X78960431Y-60634406D01*
X78978758Y-60644534D01*
X78998338Y-60660149D01*
X79087501Y-60680500D01*
X79659392Y-60680500D01*
X79676040Y-60678106D01*
X79717286Y-60672176D01*
X79855241Y-60631669D01*
X79908446Y-60607371D01*
X80029400Y-60529639D01*
X80073606Y-60491334D01*
X80167760Y-60382673D01*
X80199382Y-60333468D01*
X80259110Y-60202683D01*
X80275589Y-60146561D01*
X80281406Y-60106104D01*
X80305816Y-60064966D01*
X80343270Y-60052500D01*
X80899500Y-60052500D01*
X80943694Y-60070806D01*
X80962000Y-60115000D01*
X80962000Y-60234760D01*
X80964813Y-60264771D01*
X80964813Y-60264772D01*
X80964814Y-60264774D01*
X80980273Y-60308954D01*
X81009045Y-60391180D01*
X81048807Y-60445054D01*
X81088570Y-60498930D01*
X81130179Y-60529639D01*
X81196319Y-60578454D01*
X81196320Y-60578454D01*
X81196321Y-60578455D01*
X81322726Y-60622686D01*
X81352736Y-60625500D01*
X81352739Y-60625500D01*
X81947261Y-60625500D01*
X81947264Y-60625500D01*
X81977274Y-60622686D01*
X82103679Y-60578455D01*
X82211430Y-60498930D01*
X82290955Y-60391179D01*
X82335186Y-60264774D01*
X82338000Y-60234764D01*
X82338000Y-59215236D01*
X82335186Y-59185226D01*
X82290955Y-59058821D01*
X82211430Y-58951070D01*
X82156389Y-58910447D01*
X82103680Y-58871545D01*
X82040441Y-58849417D01*
X81977274Y-58827314D01*
X81977272Y-58827313D01*
X81977271Y-58827313D01*
X81955703Y-58825291D01*
X81947264Y-58824500D01*
X81352736Y-58824500D01*
X81345020Y-58825223D01*
X81322728Y-58827313D01*
X81322726Y-58827314D01*
X81196319Y-58871545D01*
X81088570Y-58951070D01*
X81009045Y-59058819D01*
X80964814Y-59185226D01*
X80964813Y-59185228D01*
X80962000Y-59215239D01*
X80962000Y-59335000D01*
X80943694Y-59379194D01*
X80899500Y-59397500D01*
X80343270Y-59397500D01*
X80299076Y-59379194D01*
X80281406Y-59343896D01*
X80279675Y-59331861D01*
X80275589Y-59303439D01*
X80259110Y-59247317D01*
X80218589Y-59158590D01*
X80199384Y-59116536D01*
X80199383Y-59116535D01*
X80199382Y-59116532D01*
X80185345Y-59094689D01*
X80167762Y-59067329D01*
X80167761Y-59067328D01*
X80073609Y-58958668D01*
X80029401Y-58920361D01*
X79953440Y-58871545D01*
X79908446Y-58842629D01*
X79908439Y-58842626D01*
X79908438Y-58842625D01*
X79855241Y-58818331D01*
X79717288Y-58777824D01*
X79659392Y-58769500D01*
X79659390Y-58769500D01*
X79087501Y-58769500D01*
X79079801Y-58770367D01*
X79041772Y-58774651D01*
X78962329Y-58812910D01*
X78914569Y-58815593D01*
X78896244Y-58805465D01*
X78876664Y-58789851D01*
X78876663Y-58789850D01*
X78787501Y-58769500D01*
X78215612Y-58769500D01*
X78215610Y-58769500D01*
X78157713Y-58777824D01*
X78019761Y-58818331D01*
X78019760Y-58818331D01*
X77966563Y-58842625D01*
X77966558Y-58842627D01*
X77966556Y-58842629D01*
X77932753Y-58864352D01*
X77845600Y-58920361D01*
X77801392Y-58958668D01*
X77707240Y-59067328D01*
X77707239Y-59067329D01*
X77675617Y-59116536D01*
X77615892Y-59247315D01*
X77599413Y-59303436D01*
X77578951Y-59445752D01*
X77578951Y-59504245D01*
X77581365Y-59521033D01*
X77582001Y-59529929D01*
X77582001Y-59920070D01*
X77581365Y-59928965D01*
X77578951Y-59945753D01*
X77578951Y-60004247D01*
X77599413Y-60146561D01*
X77605186Y-60166224D01*
X77600071Y-60213785D01*
X77589411Y-60228024D01*
X76867706Y-60949730D01*
X76846455Y-60962020D01*
X76847022Y-60963388D01*
X76697161Y-61025462D01*
X76697158Y-61025464D01*
X76571717Y-61121717D01*
X76475464Y-61247158D01*
X76475462Y-61247161D01*
X76414957Y-61393234D01*
X76414954Y-61393244D01*
X76394318Y-61549998D01*
X76394318Y-61550001D01*
X73281500Y-61550001D01*
X73281500Y-59763000D01*
X73299806Y-59718806D01*
X73344000Y-59700500D01*
X73519748Y-59700500D01*
X73578231Y-59688867D01*
X73644552Y-59644552D01*
X73688867Y-59578231D01*
X73700500Y-59519748D01*
X73700500Y-58700002D01*
X73895034Y-58700002D01*
X73914858Y-58926601D01*
X73914861Y-58926617D01*
X73973731Y-59146321D01*
X73973732Y-59146323D01*
X74069864Y-59352479D01*
X74120974Y-59425471D01*
X74800000Y-58746445D01*
X74800000Y-58752661D01*
X74827259Y-58854394D01*
X74879920Y-58945606D01*
X74954394Y-59020080D01*
X75045606Y-59072741D01*
X75147339Y-59100000D01*
X75153553Y-59100000D01*
X74474527Y-59779024D01*
X74547517Y-59830134D01*
X74753676Y-59926267D01*
X74753678Y-59926268D01*
X74973382Y-59985138D01*
X74973398Y-59985141D01*
X75199998Y-60004966D01*
X75200002Y-60004966D01*
X75426601Y-59985141D01*
X75426617Y-59985138D01*
X75646321Y-59926268D01*
X75646323Y-59926267D01*
X75852484Y-59830133D01*
X75852487Y-59830131D01*
X75925471Y-59779025D01*
X75925472Y-59779025D01*
X75246447Y-59100000D01*
X75252661Y-59100000D01*
X75354394Y-59072741D01*
X75445606Y-59020080D01*
X75520080Y-58945606D01*
X75572741Y-58854394D01*
X75600000Y-58752661D01*
X75600000Y-58746447D01*
X76279025Y-59425472D01*
X76279025Y-59425471D01*
X76330131Y-59352487D01*
X76330133Y-59352484D01*
X76426267Y-59146323D01*
X76426268Y-59146321D01*
X76485138Y-58926617D01*
X76485141Y-58926601D01*
X76504966Y-58700002D01*
X76504966Y-58699997D01*
X76485141Y-58473398D01*
X76485138Y-58473382D01*
X76426268Y-58253678D01*
X76426267Y-58253676D01*
X76330134Y-58047517D01*
X76279024Y-57974527D01*
X75600000Y-58653551D01*
X75600000Y-58647339D01*
X75572741Y-58545606D01*
X75520080Y-58454394D01*
X75445606Y-58379920D01*
X75354394Y-58327259D01*
X75252661Y-58300000D01*
X75246445Y-58300000D01*
X75900110Y-57646336D01*
X80728473Y-57646336D01*
X80728473Y-57896323D01*
X80738964Y-57999023D01*
X80738965Y-57999030D01*
X80794113Y-58165457D01*
X80886154Y-58314679D01*
X81010128Y-58438653D01*
X81159350Y-58530694D01*
X81325780Y-58585843D01*
X81428490Y-58596335D01*
X81490971Y-58596335D01*
X81490972Y-58596334D01*
X81490972Y-57646336D01*
X80728473Y-57646336D01*
X75900110Y-57646336D01*
X75925472Y-57620974D01*
X75852479Y-57569864D01*
X75646323Y-57473732D01*
X75646321Y-57473731D01*
X75426617Y-57414861D01*
X75426601Y-57414858D01*
X75200002Y-57395034D01*
X75199998Y-57395034D01*
X74973398Y-57414858D01*
X74973382Y-57414861D01*
X74753678Y-57473731D01*
X74753676Y-57473732D01*
X74547517Y-57569865D01*
X74474527Y-57620973D01*
X74474526Y-57620973D01*
X75153553Y-58300000D01*
X75147339Y-58300000D01*
X75045606Y-58327259D01*
X74954394Y-58379920D01*
X74879920Y-58454394D01*
X74827259Y-58545606D01*
X74800000Y-58647339D01*
X74800000Y-58653553D01*
X74120973Y-57974526D01*
X74120973Y-57974527D01*
X74069865Y-58047517D01*
X73973732Y-58253676D01*
X73973731Y-58253678D01*
X73914861Y-58473382D01*
X73914858Y-58473398D01*
X73895034Y-58699997D01*
X73895034Y-58700002D01*
X73700500Y-58700002D01*
X73700500Y-57880252D01*
X73688867Y-57821769D01*
X73673676Y-57799034D01*
X73644552Y-57755447D01*
X73578232Y-57711133D01*
X73578230Y-57711132D01*
X73519748Y-57699500D01*
X71880252Y-57699500D01*
X71821769Y-57711132D01*
X71821767Y-57711133D01*
X71755447Y-57755447D01*
X71711133Y-57821767D01*
X71711132Y-57821769D01*
X71699500Y-57880251D01*
X71699500Y-59519748D01*
X71711132Y-59578230D01*
X71711133Y-59578232D01*
X71755447Y-59644552D01*
X71821767Y-59688866D01*
X71821769Y-59688867D01*
X71880252Y-59700500D01*
X72056000Y-59700500D01*
X72100194Y-59718806D01*
X72118500Y-59763000D01*
X72118500Y-64795746D01*
X72100194Y-64839940D01*
X71483941Y-65456194D01*
X71439747Y-65474500D01*
X70970734Y-65474500D01*
X70961124Y-65475401D01*
X70940303Y-65477353D01*
X70940298Y-65477354D01*
X70812117Y-65522207D01*
X70812116Y-65522207D01*
X70702850Y-65602849D01*
X70687185Y-65624075D01*
X70663908Y-65655613D01*
X70622938Y-65680302D01*
X70613622Y-65681000D01*
X69667897Y-65681000D01*
X69667881Y-65680999D01*
X69664056Y-65680999D01*
X69510945Y-65680999D01*
X69510940Y-65680999D01*
X69420722Y-65705174D01*
X69402678Y-65710009D01*
X69363052Y-65720626D01*
X69230448Y-65797185D01*
X69230444Y-65797188D01*
X69122184Y-65905450D01*
X69122182Y-65905452D01*
X68876848Y-66150785D01*
X68832654Y-66169091D01*
X68822877Y-66168322D01*
X68688244Y-66146999D01*
X68688243Y-66146999D01*
X68411757Y-66146999D01*
X68411755Y-66146999D01*
X68411743Y-66147000D01*
X68232507Y-66175389D01*
X68232506Y-66175389D01*
X68059903Y-66231471D01*
X68059895Y-66231475D01*
X67898193Y-66313866D01*
X67751371Y-66420539D01*
X67751363Y-66420546D01*
X67623047Y-66548862D01*
X67623040Y-66548870D01*
X67516367Y-66695692D01*
X67433976Y-66857394D01*
X67433972Y-66857402D01*
X67377890Y-67030005D01*
X67377890Y-67030006D01*
X67349501Y-67209242D01*
X67349500Y-67209258D01*
X67349500Y-67390739D01*
X67349501Y-67390755D01*
X67377890Y-67569991D01*
X67377890Y-67569992D01*
X67433972Y-67742595D01*
X67433976Y-67742603D01*
X67516367Y-67904305D01*
X67623040Y-68051127D01*
X67623047Y-68051135D01*
X67751363Y-68179451D01*
X67751371Y-68179458D01*
X67898196Y-68286133D01*
X68030958Y-68353778D01*
X68062025Y-68390152D01*
X68058272Y-68437840D01*
X68021898Y-68468907D01*
X67944936Y-68493914D01*
X67944927Y-68493918D01*
X67741226Y-68597709D01*
X67556252Y-68732100D01*
X67394601Y-68893751D01*
X67260210Y-69078725D01*
X67156419Y-69282426D01*
X67156415Y-69282434D01*
X67085765Y-69499872D01*
X67085765Y-69499873D01*
X67071490Y-69589998D01*
X67071491Y-69589999D01*
X68059252Y-69589999D01*
X68037482Y-69627707D01*
X68000000Y-69767590D01*
X68000000Y-69912408D01*
X68037482Y-70052291D01*
X68059252Y-70089999D01*
X67071490Y-70089999D01*
X63151900Y-70089999D01*
X63151900Y-58091279D01*
X64497500Y-58091279D01*
X64497501Y-58091295D01*
X64533880Y-58320979D01*
X64533880Y-58320980D01*
X64605746Y-58542161D01*
X64605750Y-58542169D01*
X64711329Y-58749381D01*
X64848025Y-58937526D01*
X64848032Y-58937534D01*
X65012465Y-59101967D01*
X65012473Y-59101974D01*
X65152271Y-59203544D01*
X65200621Y-59238672D01*
X65407837Y-59344253D01*
X65629018Y-59416119D01*
X65725829Y-59431452D01*
X65858704Y-59452498D01*
X65858710Y-59452498D01*
X65858718Y-59452500D01*
X65858720Y-59452500D01*
X66091280Y-59452500D01*
X66091282Y-59452500D01*
X66320982Y-59416119D01*
X66542163Y-59344253D01*
X66749379Y-59238672D01*
X66937527Y-59101974D01*
X67101974Y-58937527D01*
X67238672Y-58749379D01*
X67344253Y-58542163D01*
X67416119Y-58320982D01*
X67452500Y-58091282D01*
X67452500Y-57858718D01*
X67416119Y-57629018D01*
X67344253Y-57407837D01*
X67238672Y-57200621D01*
X67208480Y-57159066D01*
X67199231Y-57146336D01*
X80728472Y-57146336D01*
X81490972Y-57146336D01*
X81490972Y-56196336D01*
X81990972Y-56196336D01*
X81990972Y-58596335D01*
X82053448Y-58596335D01*
X82053459Y-58596334D01*
X82156159Y-58585843D01*
X82156166Y-58585842D01*
X82322593Y-58530694D01*
X82471815Y-58438653D01*
X82595789Y-58314679D01*
X82687830Y-58165457D01*
X82742979Y-57999027D01*
X82745345Y-57975870D01*
X82768047Y-57933765D01*
X82813873Y-57920046D01*
X82855978Y-57942748D01*
X82866514Y-57961580D01*
X82900679Y-58059218D01*
X82900679Y-58059219D01*
X82939197Y-58111408D01*
X82981322Y-58168486D01*
X83048726Y-58218232D01*
X83090588Y-58249128D01*
X83090589Y-58249128D01*
X83090590Y-58249129D01*
X83196614Y-58286228D01*
X83232282Y-58318103D01*
X83238472Y-58345221D01*
X83238472Y-58768709D01*
X83220166Y-58812903D01*
X83196615Y-58827702D01*
X83071320Y-58871545D01*
X82963570Y-58951070D01*
X82884045Y-59058819D01*
X82839814Y-59185226D01*
X82839813Y-59185228D01*
X82837000Y-59215239D01*
X82837000Y-60234760D01*
X82839813Y-60264771D01*
X82839813Y-60264772D01*
X82839814Y-60264774D01*
X82855273Y-60308954D01*
X82884045Y-60391180D01*
X82923807Y-60445054D01*
X82963570Y-60498930D01*
X83005179Y-60529639D01*
X83071319Y-60578454D01*
X83071320Y-60578454D01*
X83071321Y-60578455D01*
X83197726Y-60622686D01*
X83227736Y-60625500D01*
X83227739Y-60625500D01*
X83822261Y-60625500D01*
X83822264Y-60625500D01*
X83852274Y-60622686D01*
X83978679Y-60578455D01*
X84086430Y-60498930D01*
X84165955Y-60391179D01*
X84210186Y-60264774D01*
X84213000Y-60234764D01*
X84213000Y-59215236D01*
X84210186Y-59185226D01*
X84165955Y-59058821D01*
X84086430Y-58951070D01*
X83978679Y-58871545D01*
X83978674Y-58871542D01*
X83935328Y-58856374D01*
X83899661Y-58824498D01*
X83893472Y-58797382D01*
X83893472Y-58345221D01*
X83911778Y-58301027D01*
X83935329Y-58286228D01*
X84041354Y-58249129D01*
X84150622Y-58168486D01*
X84231265Y-58059218D01*
X84276118Y-57931035D01*
X84278972Y-57900602D01*
X84278972Y-57540001D01*
X87519363Y-57540001D01*
X87576567Y-57753487D01*
X87576568Y-57753489D01*
X87676398Y-57967575D01*
X87811892Y-58161081D01*
X87978918Y-58328107D01*
X88172426Y-58463603D01*
X88386503Y-58563428D01*
X88386519Y-58563434D01*
X88599998Y-58620635D01*
X88600000Y-58620634D01*
X88600000Y-57723012D01*
X88657007Y-57755925D01*
X88784174Y-57790000D01*
X88915826Y-57790000D01*
X89042993Y-57755925D01*
X89100000Y-57723012D01*
X89100000Y-58620634D01*
X89100001Y-58620635D01*
X89313480Y-58563434D01*
X89313496Y-58563428D01*
X89527573Y-58463603D01*
X89721081Y-58328107D01*
X89888107Y-58161081D01*
X90023601Y-57967575D01*
X90123431Y-57753489D01*
X90123432Y-57753487D01*
X90180636Y-57540001D01*
X90180636Y-57540000D01*
X89283012Y-57540000D01*
X89315925Y-57482993D01*
X89350000Y-57355826D01*
X89350000Y-57290000D01*
X90334417Y-57290000D01*
X90354699Y-57495930D01*
X90354700Y-57495935D01*
X90414766Y-57693949D01*
X90414768Y-57693954D01*
X90512311Y-57876444D01*
X90512319Y-57876455D01*
X90643588Y-58036408D01*
X90643591Y-58036411D01*
X90755951Y-58128622D01*
X90803550Y-58167685D01*
X90803553Y-58167686D01*
X90803555Y-58167688D01*
X90847676Y-58191271D01*
X90986046Y-58265232D01*
X91184066Y-58325300D01*
X91390000Y-58345583D01*
X91595934Y-58325300D01*
X91793954Y-58265232D01*
X91825378Y-58248434D01*
X91872982Y-58243746D01*
X91899034Y-58259361D01*
X97306194Y-63666521D01*
X97324500Y-63710715D01*
X97324500Y-72275414D01*
X97306194Y-72319608D01*
X97282643Y-72334407D01*
X97174616Y-72372207D01*
X97065350Y-72452850D01*
X96984707Y-72562116D01*
X96984707Y-72562117D01*
X96939854Y-72690298D01*
X96939853Y-72690303D01*
X96937000Y-72720737D01*
X96937000Y-73729262D01*
X96939853Y-73759696D01*
X96939854Y-73759701D01*
X96984707Y-73887882D01*
X96984707Y-73887883D01*
X96987999Y-73892343D01*
X97065350Y-73997150D01*
X97174618Y-74077793D01*
X97302801Y-74122646D01*
X97333234Y-74125500D01*
X97333238Y-74125500D01*
X97966762Y-74125500D01*
X97966766Y-74125500D01*
X97997199Y-74122646D01*
X98125382Y-74077793D01*
X98212386Y-74013580D01*
X98258815Y-74002066D01*
X98299787Y-74026754D01*
X98312000Y-74063868D01*
X98312000Y-74842851D01*
X98312001Y-74842859D01*
X98334180Y-74925635D01*
X98334184Y-74925644D01*
X98377032Y-74999858D01*
X98377035Y-74999862D01*
X98431194Y-75054021D01*
X98449500Y-75098214D01*
X98449500Y-75829262D01*
X98452353Y-75859696D01*
X98452354Y-75859701D01*
X98497207Y-75987882D01*
X98497207Y-75987883D01*
X98511141Y-76006762D01*
X98577850Y-76097150D01*
X98687118Y-76177793D01*
X98815301Y-76222646D01*
X98845734Y-76225500D01*
X98845738Y-76225500D01*
X99479262Y-76225500D01*
X99479266Y-76225500D01*
X99509699Y-76222646D01*
X99637882Y-76177793D01*
X99747150Y-76097150D01*
X99827793Y-75987882D01*
X99872646Y-75859699D01*
X99875500Y-75829266D01*
X99875500Y-74820734D01*
X99872646Y-74790301D01*
X99827793Y-74662118D01*
X99747150Y-74552850D01*
X99637882Y-74472207D01*
X99627582Y-74468603D01*
X99509701Y-74427354D01*
X99509696Y-74427353D01*
X99489699Y-74425478D01*
X99479266Y-74424500D01*
X99479262Y-74424500D01*
X99025500Y-74424500D01*
X98981306Y-74406194D01*
X98963000Y-74362000D01*
X98963000Y-74153065D01*
X98981306Y-74108871D01*
X99025500Y-74090565D01*
X99046138Y-74094071D01*
X99127801Y-74122646D01*
X99158234Y-74125500D01*
X99158238Y-74125500D01*
X99791762Y-74125500D01*
X99791766Y-74125500D01*
X99822199Y-74122646D01*
X99950382Y-74077793D01*
X100059650Y-73997150D01*
X100140293Y-73887882D01*
X100185146Y-73759699D01*
X100188000Y-73729266D01*
X100188000Y-73564200D01*
X100206306Y-73520006D01*
X100250500Y-73501700D01*
X102323596Y-73501700D01*
X102367790Y-73520006D01*
X102384895Y-73552007D01*
X102386132Y-73558230D01*
X102386133Y-73558231D01*
X102394182Y-73570278D01*
X102403513Y-73617195D01*
X102394182Y-73639722D01*
X102386133Y-73651768D01*
X102386132Y-73651769D01*
X102380917Y-73677993D01*
X102354342Y-73717767D01*
X102319618Y-73728300D01*
X102271072Y-73728300D01*
X102271071Y-73728300D01*
X102271065Y-73728301D01*
X102200697Y-73747155D01*
X102200695Y-73747156D01*
X102137602Y-73783584D01*
X102137596Y-73783589D01*
X101480352Y-74440833D01*
X101436158Y-74459139D01*
X101415516Y-74455632D01*
X101334701Y-74427354D01*
X101334696Y-74427353D01*
X101314699Y-74425478D01*
X101304266Y-74424500D01*
X100670734Y-74424500D01*
X100661124Y-74425401D01*
X100640303Y-74427353D01*
X100640298Y-74427354D01*
X100512117Y-74472207D01*
X100512116Y-74472207D01*
X100402850Y-74552850D01*
X100322207Y-74662116D01*
X100322207Y-74662117D01*
X100277354Y-74790298D01*
X100277353Y-74790303D01*
X100274500Y-74820737D01*
X100274500Y-75829262D01*
X100277353Y-75859696D01*
X100277354Y-75859701D01*
X100322207Y-75987882D01*
X100322207Y-75987883D01*
X100336141Y-76006762D01*
X100402850Y-76097150D01*
X100512118Y-76177793D01*
X100640301Y-76222646D01*
X100670734Y-76225500D01*
X100670738Y-76225500D01*
X101304262Y-76225500D01*
X101304266Y-76225500D01*
X101334699Y-76222646D01*
X101462882Y-76177793D01*
X101572150Y-76097150D01*
X101652793Y-75987882D01*
X101697646Y-75859699D01*
X101700500Y-75829266D01*
X101700500Y-75029200D01*
X101718805Y-74985007D01*
X102273740Y-74430071D01*
X102317933Y-74411766D01*
X102362127Y-74430072D01*
X102380433Y-74474266D01*
X102379232Y-74486458D01*
X102374500Y-74510248D01*
X102374500Y-75099748D01*
X102386132Y-75158230D01*
X102386133Y-75158232D01*
X102430447Y-75224552D01*
X102496767Y-75268866D01*
X102496769Y-75268867D01*
X102555252Y-75280500D01*
X103912500Y-75280500D01*
X103956694Y-75298806D01*
X103975000Y-75343000D01*
X103975000Y-75625000D01*
X104287000Y-75625000D01*
X104331194Y-75643306D01*
X104349500Y-75687500D01*
X104349500Y-77074748D01*
X104361132Y-77133230D01*
X104361133Y-77133232D01*
X104405447Y-77199552D01*
X104471767Y-77243866D01*
X104471769Y-77243867D01*
X104530252Y-77255500D01*
X105119748Y-77255500D01*
X105178231Y-77243867D01*
X105190277Y-77235817D01*
X105237192Y-77226485D01*
X105259721Y-77235817D01*
X105271769Y-77243867D01*
X105314500Y-77252366D01*
X105354273Y-77278941D01*
X105362677Y-77297488D01*
X105367156Y-77314203D01*
X105367156Y-77314204D01*
X105403584Y-77377297D01*
X105403589Y-77377303D01*
X106872696Y-78846410D01*
X106872702Y-78846415D01*
X106935797Y-78882844D01*
X107006172Y-78901700D01*
X107006173Y-78901700D01*
X117211427Y-78901700D01*
X117211428Y-78901700D01*
X117281803Y-78882844D01*
X117344898Y-78846415D01*
X119941313Y-76250000D01*
X124484417Y-76250000D01*
X124504699Y-76455930D01*
X124504700Y-76455935D01*
X124564766Y-76653949D01*
X124564768Y-76653954D01*
X124662311Y-76836444D01*
X124662313Y-76836448D01*
X124662315Y-76836450D01*
X124793590Y-76996410D01*
X124953550Y-77127685D01*
X124953553Y-77127686D01*
X124953555Y-77127688D01*
X125028912Y-77167967D01*
X125136046Y-77225232D01*
X125334066Y-77285300D01*
X125540000Y-77305583D01*
X125745934Y-77285300D01*
X125943954Y-77225232D01*
X126126450Y-77127685D01*
X126286410Y-76996410D01*
X126417685Y-76836450D01*
X126515232Y-76653954D01*
X126575300Y-76455934D01*
X126595583Y-76250000D01*
X126575300Y-76044066D01*
X126515232Y-75846046D01*
X126417685Y-75663550D01*
X126286410Y-75503590D01*
X126126450Y-75372315D01*
X126126448Y-75372313D01*
X126126444Y-75372311D01*
X125943954Y-75274768D01*
X125943949Y-75274766D01*
X125745935Y-75214700D01*
X125745930Y-75214699D01*
X125540000Y-75194417D01*
X125334069Y-75214699D01*
X125334064Y-75214700D01*
X125136050Y-75274766D01*
X125136045Y-75274768D01*
X124953555Y-75372311D01*
X124953544Y-75372319D01*
X124793591Y-75503588D01*
X124793588Y-75503591D01*
X124662319Y-75663544D01*
X124662311Y-75663555D01*
X124564768Y-75846045D01*
X124564766Y-75846050D01*
X124504700Y-76044064D01*
X124504699Y-76044069D01*
X124484417Y-76249999D01*
X124484417Y-76250000D01*
X119941313Y-76250000D01*
X120868449Y-75322864D01*
X120904878Y-75259769D01*
X120923734Y-75189394D01*
X120923734Y-75116538D01*
X120923734Y-73710000D01*
X124484417Y-73710000D01*
X124504699Y-73915930D01*
X124504700Y-73915935D01*
X124564766Y-74113949D01*
X124564768Y-74113954D01*
X124662311Y-74296444D01*
X124662319Y-74296455D01*
X124792951Y-74455632D01*
X124793590Y-74456410D01*
X124953550Y-74587685D01*
X124953553Y-74587686D01*
X124953555Y-74587688D01*
X124983987Y-74603954D01*
X125136046Y-74685232D01*
X125334066Y-74745300D01*
X125540000Y-74765583D01*
X125745934Y-74745300D01*
X125943954Y-74685232D01*
X126126450Y-74587685D01*
X126286410Y-74456410D01*
X126417685Y-74296450D01*
X126515232Y-74113954D01*
X126575300Y-73915934D01*
X126595583Y-73710000D01*
X126575300Y-73504066D01*
X126515232Y-73306046D01*
X126444937Y-73174535D01*
X126417688Y-73123555D01*
X126417686Y-73123553D01*
X126417685Y-73123550D01*
X126297099Y-72976615D01*
X126286411Y-72963591D01*
X126286408Y-72963588D01*
X126126455Y-72832319D01*
X126126453Y-72832318D01*
X126126450Y-72832315D01*
X126126448Y-72832313D01*
X126126444Y-72832311D01*
X125943954Y-72734768D01*
X125943949Y-72734766D01*
X125745935Y-72674700D01*
X125745930Y-72674699D01*
X125540000Y-72654417D01*
X125334069Y-72674699D01*
X125334064Y-72674700D01*
X125136050Y-72734766D01*
X125136045Y-72734768D01*
X124953555Y-72832311D01*
X124953544Y-72832319D01*
X124793591Y-72963588D01*
X124793588Y-72963591D01*
X124662319Y-73123544D01*
X124662311Y-73123555D01*
X124564768Y-73306045D01*
X124564766Y-73306050D01*
X124504700Y-73504064D01*
X124504699Y-73504069D01*
X124484417Y-73709999D01*
X124484417Y-73710000D01*
X120923734Y-73710000D01*
X120923734Y-71170000D01*
X124484417Y-71170000D01*
X124504699Y-71375930D01*
X124504700Y-71375935D01*
X124564766Y-71573949D01*
X124564768Y-71573954D01*
X124662311Y-71756444D01*
X124662319Y-71756455D01*
X124793588Y-71916408D01*
X124793591Y-71916411D01*
X124886682Y-71992808D01*
X124953550Y-72047685D01*
X124953553Y-72047686D01*
X124953555Y-72047688D01*
X124961192Y-72051770D01*
X125136046Y-72145232D01*
X125334066Y-72205300D01*
X125540000Y-72225583D01*
X125745934Y-72205300D01*
X125943954Y-72145232D01*
X126126450Y-72047685D01*
X126286410Y-71916410D01*
X126417685Y-71756450D01*
X126515232Y-71573954D01*
X126575300Y-71375934D01*
X126595583Y-71170000D01*
X126575300Y-70964066D01*
X126515232Y-70766046D01*
X126427158Y-70601272D01*
X126417688Y-70583555D01*
X126417686Y-70583553D01*
X126417685Y-70583550D01*
X126354862Y-70507000D01*
X126286411Y-70423591D01*
X126286408Y-70423588D01*
X126126455Y-70292319D01*
X126126453Y-70292318D01*
X126126450Y-70292315D01*
X126126448Y-70292313D01*
X126126444Y-70292311D01*
X125943954Y-70194768D01*
X125943949Y-70194766D01*
X125745935Y-70134700D01*
X125745930Y-70134699D01*
X125540000Y-70114417D01*
X125334069Y-70134699D01*
X125334064Y-70134700D01*
X125136050Y-70194766D01*
X125136045Y-70194768D01*
X124953555Y-70292311D01*
X124953544Y-70292319D01*
X124793591Y-70423588D01*
X124793588Y-70423591D01*
X124662319Y-70583544D01*
X124662311Y-70583555D01*
X124564768Y-70766045D01*
X124564766Y-70766050D01*
X124504700Y-70964064D01*
X124504699Y-70964069D01*
X124484417Y-71169999D01*
X124484417Y-71170000D01*
X120923734Y-71170000D01*
X120923734Y-68630000D01*
X124484417Y-68630000D01*
X124504699Y-68835930D01*
X124504700Y-68835935D01*
X124564766Y-69033949D01*
X124564768Y-69033954D01*
X124662311Y-69216444D01*
X124662319Y-69216455D01*
X124793588Y-69376408D01*
X124793591Y-69376411D01*
X124849394Y-69422207D01*
X124953550Y-69507685D01*
X124953553Y-69507686D01*
X124953555Y-69507688D01*
X125028912Y-69547967D01*
X125136046Y-69605232D01*
X125334066Y-69665300D01*
X125540000Y-69685583D01*
X125745934Y-69665300D01*
X125943954Y-69605232D01*
X126126450Y-69507685D01*
X126286410Y-69376410D01*
X126417685Y-69216450D01*
X126515232Y-69033954D01*
X126575300Y-68835934D01*
X126595583Y-68630000D01*
X126575300Y-68424066D01*
X126515232Y-68226046D01*
X126441177Y-68087500D01*
X126417688Y-68043555D01*
X126417686Y-68043553D01*
X126417685Y-68043550D01*
X126286410Y-67883590D01*
X126277126Y-67875971D01*
X126126455Y-67752319D01*
X126126453Y-67752318D01*
X126126450Y-67752315D01*
X126126448Y-67752313D01*
X126126444Y-67752311D01*
X125943954Y-67654768D01*
X125943949Y-67654766D01*
X125745935Y-67594700D01*
X125745930Y-67594699D01*
X125540000Y-67574417D01*
X125334069Y-67594699D01*
X125334064Y-67594700D01*
X125136050Y-67654766D01*
X125136045Y-67654768D01*
X124953555Y-67752311D01*
X124953544Y-67752319D01*
X124793591Y-67883588D01*
X124793588Y-67883591D01*
X124662319Y-68043544D01*
X124662311Y-68043555D01*
X124564768Y-68226045D01*
X124564766Y-68226050D01*
X124504700Y-68424064D01*
X124504699Y-68424069D01*
X124484417Y-68629999D01*
X124484417Y-68630000D01*
X120923734Y-68630000D01*
X120923734Y-66960606D01*
X120904878Y-66890231D01*
X120897105Y-66876769D01*
X120868449Y-66827136D01*
X120868444Y-66827130D01*
X120131316Y-66090002D01*
X124184843Y-66090002D01*
X124205430Y-66325317D01*
X124205433Y-66325333D01*
X124266567Y-66553487D01*
X124266568Y-66553489D01*
X124366399Y-66767578D01*
X124425072Y-66851372D01*
X124425072Y-66851373D01*
X125057037Y-66219407D01*
X125074075Y-66282993D01*
X125139901Y-66397007D01*
X125232993Y-66490099D01*
X125347007Y-66555925D01*
X125410590Y-66572962D01*
X124778625Y-67204926D01*
X124862422Y-67263600D01*
X124862420Y-67263600D01*
X125076510Y-67363431D01*
X125076512Y-67363432D01*
X125304666Y-67424566D01*
X125304682Y-67424569D01*
X125539998Y-67445157D01*
X125540002Y-67445157D01*
X125775317Y-67424569D01*
X125775333Y-67424566D01*
X126003487Y-67363432D01*
X126003489Y-67363431D01*
X126217575Y-67263601D01*
X126301372Y-67204925D01*
X125669409Y-66572962D01*
X125732993Y-66555925D01*
X125847007Y-66490099D01*
X125940099Y-66397007D01*
X126005925Y-66282993D01*
X126022962Y-66219409D01*
X126654925Y-66851372D01*
X126713601Y-66767575D01*
X126813431Y-66553489D01*
X126813432Y-66553487D01*
X126874566Y-66325333D01*
X126874569Y-66325317D01*
X126895157Y-66090002D01*
X126895157Y-66089997D01*
X126874569Y-65854682D01*
X126874566Y-65854666D01*
X126813432Y-65626512D01*
X126813431Y-65626510D01*
X126713600Y-65412422D01*
X126654926Y-65328625D01*
X126022962Y-65960589D01*
X126005925Y-65897007D01*
X125940099Y-65782993D01*
X125847007Y-65689901D01*
X125732993Y-65624075D01*
X125669407Y-65607037D01*
X126301373Y-64975072D01*
X126217577Y-64916399D01*
X126217579Y-64916399D01*
X126003489Y-64816568D01*
X126003487Y-64816567D01*
X125775333Y-64755433D01*
X125775317Y-64755430D01*
X125540002Y-64734843D01*
X125539998Y-64734843D01*
X125304682Y-64755430D01*
X125304666Y-64755433D01*
X125076512Y-64816567D01*
X125076510Y-64816568D01*
X124862426Y-64916397D01*
X124778626Y-64975073D01*
X125410590Y-65607037D01*
X125347007Y-65624075D01*
X125232993Y-65689901D01*
X125139901Y-65782993D01*
X125074075Y-65897007D01*
X125057037Y-65960590D01*
X124425073Y-65328626D01*
X124366397Y-65412426D01*
X124266568Y-65626510D01*
X124266567Y-65626512D01*
X124205433Y-65854666D01*
X124205430Y-65854682D01*
X124184843Y-66089997D01*
X124184843Y-66090002D01*
X120131316Y-66090002D01*
X117591314Y-63550000D01*
X124484417Y-63550000D01*
X124504699Y-63755930D01*
X124504700Y-63755935D01*
X124564766Y-63953949D01*
X124564768Y-63953954D01*
X124662311Y-64136444D01*
X124662319Y-64136455D01*
X124793588Y-64296408D01*
X124793591Y-64296411D01*
X124837387Y-64332353D01*
X124953550Y-64427685D01*
X124953553Y-64427686D01*
X124953555Y-64427688D01*
X125009984Y-64457850D01*
X125136046Y-64525232D01*
X125334066Y-64585300D01*
X125540000Y-64605583D01*
X125745934Y-64585300D01*
X125943954Y-64525232D01*
X126126450Y-64427685D01*
X126286410Y-64296410D01*
X126417685Y-64136450D01*
X126515232Y-63953954D01*
X126575300Y-63755934D01*
X126595583Y-63550000D01*
X126575300Y-63344066D01*
X126515232Y-63146046D01*
X126417685Y-62963550D01*
X126286410Y-62803590D01*
X126275765Y-62794854D01*
X126126455Y-62672319D01*
X126126453Y-62672318D01*
X126126450Y-62672315D01*
X126126448Y-62672313D01*
X126126444Y-62672311D01*
X125943954Y-62574768D01*
X125943949Y-62574766D01*
X125745935Y-62514700D01*
X125745930Y-62514699D01*
X125540000Y-62494417D01*
X125334069Y-62514699D01*
X125334064Y-62514700D01*
X125136050Y-62574766D01*
X125136045Y-62574768D01*
X124953555Y-62672311D01*
X124953544Y-62672319D01*
X124793591Y-62803588D01*
X124793588Y-62803591D01*
X124662319Y-62963544D01*
X124662311Y-62963555D01*
X124564768Y-63146045D01*
X124564766Y-63146050D01*
X124504700Y-63344064D01*
X124504699Y-63344069D01*
X124484417Y-63549999D01*
X124484417Y-63550000D01*
X117591314Y-63550000D01*
X116336206Y-62294892D01*
X116317900Y-62250698D01*
X116317900Y-60196686D01*
X116336206Y-60152492D01*
X116380400Y-60134186D01*
X116424594Y-60152492D01*
X116440209Y-60178544D01*
X116479766Y-60308949D01*
X116479768Y-60308954D01*
X116577311Y-60491444D01*
X116577319Y-60491455D01*
X116708588Y-60651408D01*
X116708591Y-60651411D01*
X116766519Y-60698951D01*
X116868550Y-60782685D01*
X116868553Y-60782686D01*
X116868555Y-60782688D01*
X116912068Y-60805946D01*
X117051046Y-60880232D01*
X117249066Y-60940300D01*
X117455000Y-60960583D01*
X117660934Y-60940300D01*
X117858954Y-60880232D01*
X118041450Y-60782685D01*
X118201410Y-60651410D01*
X118332685Y-60491450D01*
X118430232Y-60308954D01*
X118490300Y-60110934D01*
X118510583Y-59905000D01*
X118505164Y-59849983D01*
X123634500Y-59849983D01*
X123634501Y-59849999D01*
X123668910Y-60067246D01*
X123668910Y-60067247D01*
X123736886Y-60276455D01*
X123736887Y-60276457D01*
X123795342Y-60391180D01*
X123836751Y-60472449D01*
X123966047Y-60650410D01*
X123966050Y-60650413D01*
X123966053Y-60650417D01*
X124121582Y-60805946D01*
X124121585Y-60805948D01*
X124121590Y-60805953D01*
X124299551Y-60935249D01*
X124495546Y-61035114D01*
X124704751Y-61103089D01*
X124796322Y-61117592D01*
X124922000Y-61137498D01*
X124922006Y-61137498D01*
X124922014Y-61137500D01*
X124922016Y-61137500D01*
X125141984Y-61137500D01*
X125141986Y-61137500D01*
X125359249Y-61103089D01*
X125568454Y-61035114D01*
X125764449Y-60935249D01*
X125942410Y-60805953D01*
X126097953Y-60650410D01*
X126227249Y-60472449D01*
X126327114Y-60276454D01*
X126395089Y-60067249D01*
X126429500Y-59849986D01*
X126429500Y-59630014D01*
X126395089Y-59412751D01*
X126327114Y-59203546D01*
X126227249Y-59007551D01*
X126097953Y-58829590D01*
X126097948Y-58829585D01*
X126097946Y-58829582D01*
X125942417Y-58674053D01*
X125942413Y-58674050D01*
X125942410Y-58674047D01*
X125764449Y-58544751D01*
X125624412Y-58473398D01*
X125568457Y-58444887D01*
X125568455Y-58444886D01*
X125359247Y-58376910D01*
X125141999Y-58342501D01*
X125141987Y-58342500D01*
X125141986Y-58342500D01*
X124922014Y-58342500D01*
X124922012Y-58342500D01*
X124922000Y-58342501D01*
X124704753Y-58376910D01*
X124704752Y-58376910D01*
X124495544Y-58444886D01*
X124495542Y-58444887D01*
X124299550Y-58544751D01*
X124121582Y-58674053D01*
X123966053Y-58829582D01*
X123836751Y-59007550D01*
X123736887Y-59203542D01*
X123736886Y-59203544D01*
X123668910Y-59412752D01*
X123668910Y-59412753D01*
X123634501Y-59630000D01*
X123634500Y-59630016D01*
X123634500Y-59849983D01*
X118505164Y-59849983D01*
X118490300Y-59699066D01*
X118430232Y-59501046D01*
X118332685Y-59318550D01*
X118223271Y-59185228D01*
X118201411Y-59158591D01*
X118201408Y-59158588D01*
X118041455Y-59027319D01*
X118041453Y-59027318D01*
X118041450Y-59027315D01*
X118041448Y-59027313D01*
X118041444Y-59027311D01*
X117858954Y-58929768D01*
X117858949Y-58929766D01*
X117660935Y-58869700D01*
X117660930Y-58869699D01*
X117455000Y-58849417D01*
X117249069Y-58869699D01*
X117249064Y-58869700D01*
X117051050Y-58929766D01*
X117051045Y-58929768D01*
X116868555Y-59027311D01*
X116868544Y-59027319D01*
X116708591Y-59158588D01*
X116708588Y-59158591D01*
X116577319Y-59318544D01*
X116577311Y-59318555D01*
X116479768Y-59501045D01*
X116479767Y-59501047D01*
X116440209Y-59631456D01*
X116409863Y-59668433D01*
X116362257Y-59673122D01*
X116325280Y-59642776D01*
X116317900Y-59613313D01*
X116317900Y-58454773D01*
X116317898Y-58454765D01*
X116299045Y-58384401D01*
X116299041Y-58384392D01*
X116262617Y-58321305D01*
X116262614Y-58321301D01*
X116237142Y-58295829D01*
X116211098Y-58269785D01*
X115860321Y-57919008D01*
X115842015Y-57874814D01*
X115849393Y-57845356D01*
X115890232Y-57768954D01*
X115936933Y-57615001D01*
X116124363Y-57615001D01*
X116181567Y-57828487D01*
X116181568Y-57828489D01*
X116281398Y-58042575D01*
X116416892Y-58236081D01*
X116583918Y-58403107D01*
X116777426Y-58538603D01*
X116991503Y-58638428D01*
X116991519Y-58638434D01*
X117204998Y-58695635D01*
X117205000Y-58695634D01*
X117205000Y-57798012D01*
X117262007Y-57830925D01*
X117389174Y-57865000D01*
X117520826Y-57865000D01*
X117647993Y-57830925D01*
X117705000Y-57798012D01*
X117705000Y-58695634D01*
X117705001Y-58695635D01*
X117918480Y-58638434D01*
X117918496Y-58638428D01*
X118132573Y-58538603D01*
X118326081Y-58403107D01*
X118493107Y-58236081D01*
X118628601Y-58042575D01*
X118728431Y-57828489D01*
X118728432Y-57828487D01*
X118785636Y-57615001D01*
X118785636Y-57615000D01*
X117888012Y-57615000D01*
X117920925Y-57557993D01*
X117955000Y-57430826D01*
X117955000Y-57299174D01*
X117920925Y-57172007D01*
X117888012Y-57115000D01*
X118785636Y-57115000D01*
X118785636Y-57114998D01*
X118728432Y-56901512D01*
X118728431Y-56901510D01*
X118628600Y-56687422D01*
X118493109Y-56493920D01*
X118326081Y-56326892D01*
X118132575Y-56191398D01*
X117918489Y-56091568D01*
X117918487Y-56091567D01*
X117705001Y-56034363D01*
X117705000Y-56034364D01*
X117705000Y-56931988D01*
X117647993Y-56899075D01*
X117520826Y-56865000D01*
X117389174Y-56865000D01*
X117262007Y-56899075D01*
X117205000Y-56931988D01*
X117205000Y-56034364D01*
X117204998Y-56034363D01*
X116991512Y-56091567D01*
X116991510Y-56091568D01*
X116777422Y-56191399D01*
X116583920Y-56326890D01*
X116416890Y-56493920D01*
X116281399Y-56687422D01*
X116181568Y-56901510D01*
X116181567Y-56901512D01*
X116124363Y-57114998D01*
X116124364Y-57115000D01*
X117021988Y-57115000D01*
X116989075Y-57172007D01*
X116955000Y-57299174D01*
X116955000Y-57430826D01*
X116989075Y-57557993D01*
X117021988Y-57615000D01*
X116124364Y-57615000D01*
X116124363Y-57615001D01*
X115936933Y-57615001D01*
X115950300Y-57570934D01*
X115970583Y-57365000D01*
X115969679Y-57355826D01*
X115963196Y-57289999D01*
X115950300Y-57159066D01*
X115890232Y-56961046D01*
X115829821Y-56848026D01*
X115792688Y-56778555D01*
X115792686Y-56778553D01*
X115792685Y-56778550D01*
X115753622Y-56730951D01*
X115661411Y-56618591D01*
X115661408Y-56618588D01*
X115501455Y-56487319D01*
X115501453Y-56487318D01*
X115501450Y-56487315D01*
X115501448Y-56487313D01*
X115501444Y-56487311D01*
X115318954Y-56389768D01*
X115318949Y-56389766D01*
X115120935Y-56329700D01*
X115120930Y-56329699D01*
X114915000Y-56309417D01*
X114709069Y-56329699D01*
X114709064Y-56329700D01*
X114511050Y-56389766D01*
X114511045Y-56389768D01*
X114328555Y-56487311D01*
X114328544Y-56487319D01*
X114168591Y-56618588D01*
X114168588Y-56618591D01*
X114037319Y-56778544D01*
X114037311Y-56778555D01*
X113939768Y-56961045D01*
X113939766Y-56961050D01*
X113879700Y-57159064D01*
X113879699Y-57159069D01*
X113859417Y-57364999D01*
X113859417Y-57365000D01*
X113879699Y-57570930D01*
X113879700Y-57570935D01*
X113939766Y-57768949D01*
X113939768Y-57768954D01*
X114037311Y-57951444D01*
X114037319Y-57951455D01*
X114168588Y-58111408D01*
X114168591Y-58111411D01*
X114238138Y-58168486D01*
X114328550Y-58242685D01*
X114328553Y-58242686D01*
X114328555Y-58242688D01*
X114349116Y-58253678D01*
X114511046Y-58340232D01*
X114709066Y-58400300D01*
X114915000Y-58420583D01*
X115120934Y-58400300D01*
X115318954Y-58340232D01*
X115395354Y-58299394D01*
X115442956Y-58294706D01*
X115469008Y-58310321D01*
X115746194Y-58587507D01*
X115764500Y-58631701D01*
X115764500Y-59111048D01*
X115746194Y-59155242D01*
X115702000Y-59173548D01*
X115662351Y-59159361D01*
X115501455Y-59027319D01*
X115501453Y-59027318D01*
X115501450Y-59027315D01*
X115501448Y-59027313D01*
X115501444Y-59027311D01*
X115318954Y-58929768D01*
X115318949Y-58929766D01*
X115120935Y-58869700D01*
X115120930Y-58869699D01*
X114915000Y-58849417D01*
X114709069Y-58869699D01*
X114709064Y-58869700D01*
X114511050Y-58929766D01*
X114511045Y-58929768D01*
X114328555Y-59027311D01*
X114328544Y-59027319D01*
X114168591Y-59158588D01*
X114168588Y-59158591D01*
X114037319Y-59318544D01*
X114037311Y-59318555D01*
X113939768Y-59501045D01*
X113939766Y-59501050D01*
X113879700Y-59699064D01*
X113879699Y-59699069D01*
X113859417Y-59904999D01*
X113859417Y-59905000D01*
X113879699Y-60110930D01*
X113879700Y-60110935D01*
X113939766Y-60308949D01*
X113939768Y-60308954D01*
X114037311Y-60491444D01*
X114037319Y-60491455D01*
X114168588Y-60651408D01*
X114168591Y-60651411D01*
X114226519Y-60698951D01*
X114328550Y-60782685D01*
X114328553Y-60782686D01*
X114328555Y-60782688D01*
X114369328Y-60804481D01*
X114511046Y-60880232D01*
X114593943Y-60905377D01*
X114630920Y-60935723D01*
X114638300Y-60965186D01*
X114638300Y-63501426D01*
X114638301Y-63501434D01*
X114657155Y-63571802D01*
X114657156Y-63571804D01*
X114693584Y-63634897D01*
X114693589Y-63634903D01*
X116579994Y-65521307D01*
X116598300Y-65565501D01*
X116598300Y-75584499D01*
X116579994Y-75628693D01*
X114678693Y-77529994D01*
X114634499Y-77548300D01*
X107183101Y-77548300D01*
X107138907Y-77529994D01*
X106971107Y-77362194D01*
X106952801Y-77318000D01*
X106971107Y-77273806D01*
X107015301Y-77255500D01*
X107519748Y-77255500D01*
X107578231Y-77243867D01*
X107590277Y-77235817D01*
X107637192Y-77226485D01*
X107659721Y-77235817D01*
X107671769Y-77243867D01*
X107730252Y-77255500D01*
X108319748Y-77255500D01*
X108378231Y-77243867D01*
X108390277Y-77235817D01*
X108437192Y-77226485D01*
X108459721Y-77235817D01*
X108471769Y-77243867D01*
X108530252Y-77255500D01*
X109119748Y-77255500D01*
X109178231Y-77243867D01*
X109190277Y-77235817D01*
X109237192Y-77226485D01*
X109259721Y-77235817D01*
X109271769Y-77243867D01*
X109330252Y-77255500D01*
X109919748Y-77255500D01*
X109978231Y-77243867D01*
X109990277Y-77235817D01*
X110037192Y-77226485D01*
X110059721Y-77235817D01*
X110071769Y-77243867D01*
X110130252Y-77255500D01*
X110719748Y-77255500D01*
X110778231Y-77243867D01*
X110844552Y-77199552D01*
X110888867Y-77133231D01*
X110900500Y-77074748D01*
X110900500Y-75687500D01*
X110918806Y-75643306D01*
X110963000Y-75625000D01*
X111275000Y-75625000D01*
X111275000Y-75343000D01*
X111293306Y-75298806D01*
X111337500Y-75280500D01*
X112694748Y-75280500D01*
X112753231Y-75268867D01*
X112819552Y-75224552D01*
X112863867Y-75158231D01*
X112875500Y-75099748D01*
X112875500Y-74522000D01*
X112893806Y-74477806D01*
X112938000Y-74459500D01*
X113460852Y-74459500D01*
X113505046Y-74477806D01*
X113631194Y-74603954D01*
X113649500Y-74648148D01*
X113649500Y-74759266D01*
X113650478Y-74769699D01*
X113652353Y-74789696D01*
X113652354Y-74789701D01*
X113697207Y-74917882D01*
X113697207Y-74917883D01*
X113737528Y-74972516D01*
X113777850Y-75027150D01*
X113887118Y-75107793D01*
X114015301Y-75152646D01*
X114045734Y-75155500D01*
X114130421Y-75155500D01*
X114174615Y-75173806D01*
X114190791Y-75201823D01*
X114210645Y-75275918D01*
X114210645Y-75275920D01*
X114262123Y-75365081D01*
X114262126Y-75365085D01*
X114678657Y-75781615D01*
X114696963Y-75825809D01*
X114696429Y-75833961D01*
X114694319Y-75849998D01*
X114694318Y-75850002D01*
X114714954Y-76006755D01*
X114714957Y-76006765D01*
X114775462Y-76152838D01*
X114775464Y-76152841D01*
X114871717Y-76278282D01*
X114967971Y-76352139D01*
X114997159Y-76374536D01*
X115143238Y-76435044D01*
X115143242Y-76435044D01*
X115143244Y-76435045D01*
X115299998Y-76455682D01*
X115300000Y-76455682D01*
X115300002Y-76455682D01*
X115456755Y-76435045D01*
X115456755Y-76435044D01*
X115456762Y-76435044D01*
X115602841Y-76374536D01*
X115728282Y-76278282D01*
X115824536Y-76152841D01*
X115885044Y-76006762D01*
X115885045Y-76006755D01*
X115905682Y-75850001D01*
X115905682Y-75849998D01*
X115885045Y-75693244D01*
X115885044Y-75693242D01*
X115885044Y-75693238D01*
X115824536Y-75547159D01*
X115791105Y-75503591D01*
X115728282Y-75421717D01*
X115602841Y-75325464D01*
X115602838Y-75325462D01*
X115456765Y-75264957D01*
X115456755Y-75264954D01*
X115300003Y-75244318D01*
X115300001Y-75244318D01*
X115300000Y-75244318D01*
X115283964Y-75246428D01*
X115237760Y-75234047D01*
X115231615Y-75228657D01*
X115220519Y-75217561D01*
X115202213Y-75173367D01*
X115220519Y-75129173D01*
X115244067Y-75114376D01*
X115262882Y-75107793D01*
X115372150Y-75027150D01*
X115452793Y-74917882D01*
X115497646Y-74789699D01*
X115500500Y-74759266D01*
X115500500Y-74150734D01*
X115497646Y-74120301D01*
X115452793Y-73992118D01*
X115445842Y-73982700D01*
X115404111Y-73926156D01*
X115372150Y-73882850D01*
X115262882Y-73802207D01*
X115209675Y-73783589D01*
X115134701Y-73757354D01*
X115134696Y-73757353D01*
X115114699Y-73755478D01*
X115104266Y-73754500D01*
X115104262Y-73754500D01*
X114093148Y-73754500D01*
X114048954Y-73736194D01*
X114042259Y-73729499D01*
X114042247Y-73729485D01*
X113971248Y-73658486D01*
X113952942Y-73614292D01*
X113971248Y-73570098D01*
X114015442Y-73551792D01*
X114021795Y-73552116D01*
X114050019Y-73554999D01*
X114324999Y-73554999D01*
X114325000Y-73554998D01*
X114325000Y-72805000D01*
X114825000Y-72805000D01*
X114825000Y-73554999D01*
X115099976Y-73554999D01*
X115099987Y-73554998D01*
X115202687Y-73544507D01*
X115202694Y-73544506D01*
X115369121Y-73489358D01*
X115518343Y-73397317D01*
X115642317Y-73273343D01*
X115734358Y-73124121D01*
X115789507Y-72957691D01*
X115799999Y-72854986D01*
X115800000Y-72854977D01*
X115800000Y-72805000D01*
X114825000Y-72805000D01*
X114325000Y-72805000D01*
X113350001Y-72805000D01*
X113350001Y-72854987D01*
X113360492Y-72957687D01*
X113360493Y-72957694D01*
X113415641Y-73124121D01*
X113507682Y-73273343D01*
X113631656Y-73397317D01*
X113692432Y-73434804D01*
X113720436Y-73473585D01*
X113712816Y-73520810D01*
X113674035Y-73548814D01*
X113659621Y-73550499D01*
X113611339Y-73550499D01*
X113611323Y-73550500D01*
X113237500Y-73550500D01*
X113193306Y-73532194D01*
X113175000Y-73488000D01*
X113175000Y-73455000D01*
X110575000Y-73455000D01*
X110575000Y-73527835D01*
X110581402Y-73587377D01*
X110631647Y-73722091D01*
X110631649Y-73722094D01*
X110717808Y-73837186D01*
X110717809Y-73837187D01*
X110832910Y-73923352D01*
X110833832Y-73923696D01*
X110834249Y-73924084D01*
X110836836Y-73925497D01*
X110836475Y-73926156D01*
X110868848Y-73956287D01*
X110874500Y-73982259D01*
X110874500Y-74299748D01*
X110881048Y-74332669D01*
X110884557Y-74350307D01*
X110875225Y-74397223D01*
X110835451Y-74423799D01*
X110823258Y-74425000D01*
X109637500Y-74425000D01*
X109593306Y-74406694D01*
X109575000Y-74362500D01*
X109575000Y-72287500D01*
X109593306Y-72243306D01*
X109637500Y-72225000D01*
X110812000Y-72225000D01*
X110856194Y-72243306D01*
X110874500Y-72287500D01*
X110874500Y-72427740D01*
X110856194Y-72471934D01*
X110836783Y-72484410D01*
X110836835Y-72484504D01*
X110835528Y-72485217D01*
X110833849Y-72486297D01*
X110832912Y-72486646D01*
X110717808Y-72572813D01*
X110631649Y-72687905D01*
X110631647Y-72687908D01*
X110581402Y-72822622D01*
X110575000Y-72882164D01*
X110575000Y-72955000D01*
X113175000Y-72955000D01*
X113175000Y-72882177D01*
X113174999Y-72882164D01*
X113168597Y-72822622D01*
X113118352Y-72687908D01*
X113118350Y-72687905D01*
X113032191Y-72572813D01*
X112917087Y-72486646D01*
X112916151Y-72486297D01*
X112915729Y-72485904D01*
X112913165Y-72484504D01*
X112913522Y-72483849D01*
X112881145Y-72453696D01*
X112875500Y-72427740D01*
X112875500Y-72305000D01*
X113350000Y-72305000D01*
X114325000Y-72305000D01*
X114325000Y-71555000D01*
X114825000Y-71555000D01*
X114825000Y-72305000D01*
X115799999Y-72305000D01*
X115799999Y-72255024D01*
X115799998Y-72255012D01*
X115789507Y-72152312D01*
X115789506Y-72152305D01*
X115734358Y-71985878D01*
X115642317Y-71836656D01*
X115518343Y-71712682D01*
X115369121Y-71620641D01*
X115202691Y-71565492D01*
X115099986Y-71555000D01*
X114825000Y-71555000D01*
X114325000Y-71555000D01*
X114050024Y-71555000D01*
X114050012Y-71555001D01*
X113947312Y-71565492D01*
X113947305Y-71565493D01*
X113780878Y-71620641D01*
X113631656Y-71712682D01*
X113507682Y-71836656D01*
X113415641Y-71985878D01*
X113360492Y-72152308D01*
X113350000Y-72255013D01*
X113350000Y-72305000D01*
X112875500Y-72305000D01*
X112875500Y-72110252D01*
X112863867Y-72051769D01*
X112855817Y-72039722D01*
X112846485Y-71992808D01*
X112855817Y-71970278D01*
X112863867Y-71958231D01*
X112875500Y-71899748D01*
X112875500Y-71310252D01*
X112863867Y-71251769D01*
X112855817Y-71239722D01*
X112846485Y-71192808D01*
X112855817Y-71170278D01*
X112863867Y-71158231D01*
X112875500Y-71099748D01*
X112875500Y-70510252D01*
X112863867Y-70451769D01*
X112855817Y-70439722D01*
X112846485Y-70392808D01*
X112855817Y-70370278D01*
X112863867Y-70358231D01*
X112875500Y-70299748D01*
X112875500Y-69710252D01*
X112863867Y-69651769D01*
X112855817Y-69639722D01*
X112846485Y-69592808D01*
X112855817Y-69570278D01*
X112863867Y-69558231D01*
X112875500Y-69499748D01*
X112875500Y-68910252D01*
X112863867Y-68851769D01*
X112853287Y-68835935D01*
X112819552Y-68785447D01*
X112753232Y-68741133D01*
X112753230Y-68741132D01*
X112694748Y-68729500D01*
X111337500Y-68729500D01*
X111293306Y-68711194D01*
X111275000Y-68667000D01*
X111275000Y-68425000D01*
X110963000Y-68425000D01*
X110918806Y-68406694D01*
X110900500Y-68362500D01*
X110900500Y-66935252D01*
X110888867Y-66876769D01*
X110888866Y-66876767D01*
X110844552Y-66810447D01*
X110778232Y-66766133D01*
X110778230Y-66766132D01*
X110719748Y-66754500D01*
X110130252Y-66754500D01*
X110071769Y-66766132D01*
X110071768Y-66766133D01*
X110059722Y-66774182D01*
X110012805Y-66783513D01*
X109990278Y-66774182D01*
X109978231Y-66766133D01*
X109978230Y-66766132D01*
X109952006Y-66760916D01*
X109912232Y-66734339D01*
X109901700Y-66699617D01*
X109901700Y-66105500D01*
X109920006Y-66061306D01*
X109964200Y-66043000D01*
X110129262Y-66043000D01*
X110129266Y-66043000D01*
X110159699Y-66040146D01*
X110287882Y-65995293D01*
X110397150Y-65914650D01*
X110477793Y-65805382D01*
X110522646Y-65677199D01*
X110525500Y-65646766D01*
X110525500Y-65594200D01*
X110543806Y-65550006D01*
X110588000Y-65531700D01*
X110912000Y-65531700D01*
X110956194Y-65550006D01*
X110974500Y-65594200D01*
X110974500Y-65784262D01*
X110977353Y-65814696D01*
X110977354Y-65814701D01*
X111022207Y-65942882D01*
X111022207Y-65942883D01*
X111055127Y-65987487D01*
X111102850Y-66052150D01*
X111212118Y-66132793D01*
X111340301Y-66177646D01*
X111370734Y-66180500D01*
X111370738Y-66180500D01*
X111979262Y-66180500D01*
X111979266Y-66180500D01*
X112009699Y-66177646D01*
X112137882Y-66132793D01*
X112247150Y-66052150D01*
X112327793Y-65942882D01*
X112372646Y-65814699D01*
X112375500Y-65784266D01*
X112375500Y-65505000D01*
X112575001Y-65505000D01*
X112575001Y-65779987D01*
X112585492Y-65882687D01*
X112585493Y-65882694D01*
X112640641Y-66049121D01*
X112732682Y-66198343D01*
X112856656Y-66322317D01*
X113005878Y-66414358D01*
X113172308Y-66469507D01*
X113275017Y-66479999D01*
X113325000Y-66479998D01*
X113325000Y-65505000D01*
X113825000Y-65505000D01*
X113825000Y-66479999D01*
X113874976Y-66479999D01*
X113874987Y-66479998D01*
X113977687Y-66469507D01*
X113977694Y-66469506D01*
X114144121Y-66414358D01*
X114293343Y-66322317D01*
X114417317Y-66198343D01*
X114509358Y-66049121D01*
X114564507Y-65882691D01*
X114574999Y-65779986D01*
X114575000Y-65779977D01*
X114575000Y-65505000D01*
X113825000Y-65505000D01*
X113325000Y-65505000D01*
X112575001Y-65505000D01*
X112375500Y-65505000D01*
X112375500Y-65005000D01*
X112575000Y-65005000D01*
X113325000Y-65005000D01*
X113325000Y-64030000D01*
X113825000Y-64030000D01*
X113825000Y-65005000D01*
X114574999Y-65005000D01*
X114574999Y-64730024D01*
X114574998Y-64730012D01*
X114564507Y-64627312D01*
X114564506Y-64627305D01*
X114509358Y-64460878D01*
X114417317Y-64311656D01*
X114293343Y-64187682D01*
X114144121Y-64095641D01*
X113977691Y-64040492D01*
X113874986Y-64030000D01*
X113825000Y-64030000D01*
X113325000Y-64030000D01*
X113324999Y-64029999D01*
X113275025Y-64030000D01*
X113275011Y-64030001D01*
X113172312Y-64040492D01*
X113172305Y-64040493D01*
X113005878Y-64095641D01*
X112856656Y-64187682D01*
X112732682Y-64311656D01*
X112640641Y-64460878D01*
X112585492Y-64627308D01*
X112575000Y-64730013D01*
X112575000Y-65005000D01*
X112375500Y-65005000D01*
X112375500Y-64725734D01*
X112372646Y-64695301D01*
X112327793Y-64567118D01*
X112247150Y-64457850D01*
X112137882Y-64377207D01*
X112009701Y-64332354D01*
X112009696Y-64332353D01*
X111989699Y-64330478D01*
X111979266Y-64329500D01*
X111370734Y-64329500D01*
X111361124Y-64330401D01*
X111340303Y-64332353D01*
X111340298Y-64332354D01*
X111212117Y-64377207D01*
X111212116Y-64377207D01*
X111102850Y-64457850D01*
X111022207Y-64567116D01*
X111022207Y-64567117D01*
X110977354Y-64695298D01*
X110977353Y-64695303D01*
X110974500Y-64725737D01*
X110974500Y-64915800D01*
X110956194Y-64959994D01*
X110912000Y-64978300D01*
X110565417Y-64978300D01*
X110521223Y-64959994D01*
X110506424Y-64936442D01*
X110497331Y-64910456D01*
X110477793Y-64854618D01*
X110397150Y-64745350D01*
X110287882Y-64664707D01*
X110159701Y-64619854D01*
X110159696Y-64619853D01*
X110139699Y-64617978D01*
X110129266Y-64617000D01*
X110129262Y-64617000D01*
X109306648Y-64617000D01*
X109262454Y-64598694D01*
X109244148Y-64554500D01*
X109262454Y-64510306D01*
X109536454Y-64236306D01*
X109580648Y-64218000D01*
X110129262Y-64218000D01*
X110129266Y-64218000D01*
X110159699Y-64215146D01*
X110287882Y-64170293D01*
X110397150Y-64089650D01*
X110477793Y-63980382D01*
X110522646Y-63852199D01*
X110525500Y-63821766D01*
X110525500Y-63188234D01*
X110522646Y-63157801D01*
X110477793Y-63029618D01*
X110397150Y-62920350D01*
X110287882Y-62839707D01*
X110159701Y-62794854D01*
X110159696Y-62794853D01*
X110139699Y-62792978D01*
X110129266Y-62792000D01*
X109120734Y-62792000D01*
X109111124Y-62792901D01*
X109090303Y-62794853D01*
X109090298Y-62794854D01*
X108962117Y-62839707D01*
X108857035Y-62917260D01*
X108810606Y-62928774D01*
X108775728Y-62911166D01*
X108285071Y-62420509D01*
X108285059Y-62420495D01*
X108182882Y-62318319D01*
X108182871Y-62318309D01*
X108096008Y-62231446D01*
X108095996Y-62231432D01*
X107996002Y-62131438D01*
X107995998Y-62131435D01*
X107995997Y-62131434D01*
X107936937Y-62097336D01*
X107877877Y-62063237D01*
X107877874Y-62063236D01*
X107746139Y-62027938D01*
X107746134Y-62027937D01*
X107746133Y-62027937D01*
X107746132Y-62027937D01*
X107661640Y-62027937D01*
X107637932Y-62021577D01*
X107637357Y-62022968D01*
X107487497Y-61960894D01*
X107487487Y-61960891D01*
X107330734Y-61940255D01*
X107330730Y-61940255D01*
X107173976Y-61960891D01*
X107173966Y-61960894D01*
X107027893Y-62021399D01*
X107027890Y-62021401D01*
X106902449Y-62117654D01*
X106806196Y-62243095D01*
X106806194Y-62243098D01*
X106745689Y-62389171D01*
X106745686Y-62389181D01*
X106725050Y-62545935D01*
X106725050Y-62545938D01*
X106745686Y-62702692D01*
X106745689Y-62702702D01*
X106806194Y-62848775D01*
X106806196Y-62848778D01*
X106902449Y-62974219D01*
X107027890Y-63070472D01*
X107027893Y-63070474D01*
X107177755Y-63132549D01*
X107177173Y-63133953D01*
X107198438Y-63146206D01*
X107201735Y-63149503D01*
X107319854Y-63217699D01*
X107319857Y-63217700D01*
X107400479Y-63239302D01*
X107451599Y-63253000D01*
X107626550Y-63253000D01*
X107670744Y-63271306D01*
X108220309Y-63820871D01*
X108220314Y-63820877D01*
X108318934Y-63919498D01*
X108318938Y-63919501D01*
X108318940Y-63919503D01*
X108406131Y-63969843D01*
X108435251Y-64007793D01*
X108429008Y-64055219D01*
X108419075Y-64068163D01*
X107661406Y-64825833D01*
X107661404Y-64825835D01*
X107576787Y-64910450D01*
X107576784Y-64910454D01*
X107516947Y-65014094D01*
X107514818Y-65022042D01*
X107514817Y-65022044D01*
X107485973Y-65129684D01*
X107485973Y-65254393D01*
X107485974Y-65254406D01*
X107485974Y-66418138D01*
X107475000Y-66444631D01*
X107475000Y-67942500D01*
X107456694Y-67986694D01*
X107412500Y-68005000D01*
X107037500Y-68005000D01*
X106993306Y-67986694D01*
X106975000Y-67942500D01*
X106975000Y-66455000D01*
X106902164Y-66455000D01*
X106842622Y-66461402D01*
X106707908Y-66511647D01*
X106707905Y-66511649D01*
X106592813Y-66597808D01*
X106506646Y-66712912D01*
X106506301Y-66713839D01*
X106505911Y-66714257D01*
X106504504Y-66716835D01*
X106503846Y-66716475D01*
X106473707Y-66748851D01*
X106447741Y-66754500D01*
X106130252Y-66754500D01*
X106071769Y-66766132D01*
X106071768Y-66766133D01*
X106059722Y-66774182D01*
X106012805Y-66783513D01*
X105990278Y-66774182D01*
X105978231Y-66766133D01*
X105978230Y-66766132D01*
X105919748Y-66754500D01*
X105330252Y-66754500D01*
X105271769Y-66766132D01*
X105271768Y-66766133D01*
X105259722Y-66774182D01*
X105212805Y-66783513D01*
X105190278Y-66774182D01*
X105178231Y-66766133D01*
X105178230Y-66766132D01*
X105119748Y-66754500D01*
X104530252Y-66754500D01*
X104471769Y-66766132D01*
X104471767Y-66766133D01*
X104405447Y-66810447D01*
X104361133Y-66876767D01*
X104361132Y-66876769D01*
X104349500Y-66935251D01*
X104349500Y-68362500D01*
X104331194Y-68406694D01*
X104287000Y-68425000D01*
X103975000Y-68425000D01*
X103975000Y-68667000D01*
X103956694Y-68711194D01*
X103912500Y-68729500D01*
X102555252Y-68729500D01*
X102496769Y-68741132D01*
X102496767Y-68741133D01*
X102430447Y-68785447D01*
X102386133Y-68851767D01*
X102386132Y-68851769D01*
X102374500Y-68910251D01*
X102374500Y-69407260D01*
X102356194Y-69451454D01*
X102312000Y-69469760D01*
X102267806Y-69451454D01*
X102209306Y-69392954D01*
X102191000Y-69348760D01*
X102191000Y-66356240D01*
X102209306Y-66312046D01*
X108334047Y-60187306D01*
X108378241Y-60169000D01*
X111262000Y-60169000D01*
X111306194Y-60187306D01*
X111324500Y-60231500D01*
X111324500Y-60774748D01*
X111336132Y-60833230D01*
X111336133Y-60833232D01*
X111380447Y-60899552D01*
X111446767Y-60943866D01*
X111446769Y-60943867D01*
X111505252Y-60955500D01*
X113244748Y-60955500D01*
X113303231Y-60943867D01*
X113369552Y-60899552D01*
X113413867Y-60833231D01*
X113425500Y-60774748D01*
X113425500Y-59035252D01*
X113423920Y-59027311D01*
X113413867Y-58976769D01*
X113413866Y-58976767D01*
X113369552Y-58910447D01*
X113303232Y-58866133D01*
X113303230Y-58866132D01*
X113244748Y-58854500D01*
X111505252Y-58854500D01*
X111446769Y-58866132D01*
X111446767Y-58866133D01*
X111380447Y-58910447D01*
X111336133Y-58976767D01*
X111336132Y-58976769D01*
X111324500Y-59035251D01*
X111324500Y-59578500D01*
X111306194Y-59622694D01*
X111262000Y-59641000D01*
X108523241Y-59641000D01*
X108479047Y-59622694D01*
X108460741Y-59578500D01*
X108479047Y-59534306D01*
X110366047Y-57647306D01*
X110410241Y-57629000D01*
X111310960Y-57629000D01*
X111355154Y-57647306D01*
X111370769Y-57673357D01*
X111399767Y-57768952D01*
X111399768Y-57768954D01*
X111497311Y-57951444D01*
X111497319Y-57951455D01*
X111628588Y-58111408D01*
X111628591Y-58111411D01*
X111698138Y-58168486D01*
X111788550Y-58242685D01*
X111788553Y-58242686D01*
X111788555Y-58242688D01*
X111809116Y-58253678D01*
X111971046Y-58340232D01*
X112169066Y-58400300D01*
X112375000Y-58420583D01*
X112580934Y-58400300D01*
X112778954Y-58340232D01*
X112961450Y-58242685D01*
X113121410Y-58111410D01*
X113252685Y-57951450D01*
X113350232Y-57768954D01*
X113410300Y-57570934D01*
X113430583Y-57365000D01*
X113429679Y-57355826D01*
X113423196Y-57289999D01*
X113410300Y-57159066D01*
X113350232Y-56961046D01*
X113289821Y-56848026D01*
X113252688Y-56778555D01*
X113252686Y-56778553D01*
X113252685Y-56778550D01*
X113213622Y-56730951D01*
X113121411Y-56618591D01*
X113121408Y-56618588D01*
X112961455Y-56487319D01*
X112961453Y-56487318D01*
X112961450Y-56487315D01*
X112961448Y-56487313D01*
X112961444Y-56487311D01*
X112778954Y-56389768D01*
X112778949Y-56389766D01*
X112580935Y-56329700D01*
X112580930Y-56329699D01*
X112375000Y-56309417D01*
X112169069Y-56329699D01*
X112169064Y-56329700D01*
X111971050Y-56389766D01*
X111971045Y-56389768D01*
X111788555Y-56487311D01*
X111788544Y-56487319D01*
X111628591Y-56618588D01*
X111628588Y-56618591D01*
X111497319Y-56778544D01*
X111497311Y-56778555D01*
X111399768Y-56961045D01*
X111399767Y-56961047D01*
X111370769Y-57056643D01*
X111340422Y-57093620D01*
X111310960Y-57101000D01*
X110222484Y-57101000D01*
X110194066Y-57112771D01*
X110125459Y-57141188D01*
X110125454Y-57141192D01*
X101450456Y-65816192D01*
X101376193Y-65890454D01*
X101376189Y-65890459D01*
X101336000Y-65987484D01*
X101336000Y-70009515D01*
X101376189Y-70106540D01*
X101376191Y-70106543D01*
X101376192Y-70106544D01*
X102224192Y-70954544D01*
X102298456Y-71028808D01*
X102335918Y-71044325D01*
X102369742Y-71078148D01*
X102373445Y-71096766D01*
X102374199Y-71096692D01*
X102374500Y-71099748D01*
X102386132Y-71158230D01*
X102386133Y-71158231D01*
X102394182Y-71170278D01*
X102403513Y-71217195D01*
X102394182Y-71239722D01*
X102386133Y-71251768D01*
X102386132Y-71251769D01*
X102374500Y-71310251D01*
X102374500Y-71899748D01*
X102386132Y-71958230D01*
X102386133Y-71958231D01*
X102394182Y-71970278D01*
X102403513Y-72017195D01*
X102394182Y-72039722D01*
X102386133Y-72051768D01*
X102386132Y-72051769D01*
X102374500Y-72110251D01*
X102374500Y-72699748D01*
X102386132Y-72758230D01*
X102386133Y-72758231D01*
X102394182Y-72770278D01*
X102403513Y-72817195D01*
X102394182Y-72839722D01*
X102386133Y-72851768D01*
X102376938Y-72897994D01*
X102350362Y-72937767D01*
X102315639Y-72948300D01*
X100250500Y-72948300D01*
X100206306Y-72929994D01*
X100188000Y-72885800D01*
X100188000Y-72720737D01*
X100187448Y-72714854D01*
X100185146Y-72690301D01*
X100140293Y-72562118D01*
X100059650Y-72452850D01*
X99950382Y-72372207D01*
X99822201Y-72327354D01*
X99822196Y-72327353D01*
X99800499Y-72325319D01*
X99791766Y-72324500D01*
X99158234Y-72324500D01*
X99149501Y-72325319D01*
X99127803Y-72327353D01*
X99127798Y-72327354D01*
X99046142Y-72355927D01*
X98998382Y-72353244D01*
X98966507Y-72317576D01*
X98963000Y-72296934D01*
X98963000Y-59414647D01*
X98962999Y-59414644D01*
X98953521Y-59379273D01*
X98953521Y-59379272D01*
X98940818Y-59331861D01*
X98933129Y-59318544D01*
X98897967Y-59257641D01*
X98897960Y-59257632D01*
X98075388Y-58435060D01*
X98057082Y-58390866D01*
X98075388Y-58346672D01*
X98119582Y-58328366D01*
X98155431Y-58339669D01*
X98332426Y-58463603D01*
X98546503Y-58563428D01*
X98546519Y-58563434D01*
X98759998Y-58620635D01*
X98760000Y-58620634D01*
X98760000Y-57723012D01*
X98817007Y-57755925D01*
X98944174Y-57790000D01*
X99075826Y-57790000D01*
X99202993Y-57755925D01*
X99260000Y-57723012D01*
X99260000Y-58620634D01*
X99260001Y-58620635D01*
X99473480Y-58563434D01*
X99473496Y-58563428D01*
X99687573Y-58463603D01*
X99881081Y-58328107D01*
X100048107Y-58161081D01*
X100183601Y-57967575D01*
X100283431Y-57753489D01*
X100283432Y-57753487D01*
X100340636Y-57540001D01*
X100340636Y-57540000D01*
X99443012Y-57540000D01*
X99475925Y-57482993D01*
X99510000Y-57355826D01*
X99510000Y-57290000D01*
X100494417Y-57290000D01*
X100514699Y-57495930D01*
X100514700Y-57495935D01*
X100574766Y-57693949D01*
X100574768Y-57693954D01*
X100672311Y-57876444D01*
X100672319Y-57876455D01*
X100803588Y-58036408D01*
X100803591Y-58036411D01*
X100915951Y-58128622D01*
X100963550Y-58167685D01*
X100963553Y-58167686D01*
X100963555Y-58167688D01*
X101007676Y-58191271D01*
X101146046Y-58265232D01*
X101344066Y-58325300D01*
X101550000Y-58345583D01*
X101755934Y-58325300D01*
X101953954Y-58265232D01*
X102136450Y-58167685D01*
X102296410Y-58036410D01*
X102427685Y-57876450D01*
X102525232Y-57693954D01*
X102571933Y-57540001D01*
X102759363Y-57540001D01*
X102816567Y-57753487D01*
X102816568Y-57753489D01*
X102916398Y-57967575D01*
X103051892Y-58161081D01*
X103218918Y-58328107D01*
X103412426Y-58463603D01*
X103626503Y-58563428D01*
X103626519Y-58563434D01*
X103839998Y-58620635D01*
X103840000Y-58620634D01*
X103840000Y-57723012D01*
X103897007Y-57755925D01*
X104024174Y-57790000D01*
X104155826Y-57790000D01*
X104282993Y-57755925D01*
X104340000Y-57723012D01*
X104340000Y-58620634D01*
X104340001Y-58620635D01*
X104553480Y-58563434D01*
X104553496Y-58563428D01*
X104767573Y-58463603D01*
X104961081Y-58328107D01*
X105128107Y-58161081D01*
X105129040Y-58159748D01*
X105579500Y-58159748D01*
X105591132Y-58218230D01*
X105591133Y-58218232D01*
X105635447Y-58284552D01*
X105701767Y-58328866D01*
X105701769Y-58328867D01*
X105760252Y-58340500D01*
X107499748Y-58340500D01*
X107558231Y-58328867D01*
X107624552Y-58284552D01*
X107668867Y-58218231D01*
X107680500Y-58159748D01*
X107680500Y-56420252D01*
X107668867Y-56361769D01*
X107647439Y-56329700D01*
X107624552Y-56295447D01*
X107558232Y-56251133D01*
X107558230Y-56251132D01*
X107499748Y-56239500D01*
X105760252Y-56239500D01*
X105701769Y-56251132D01*
X105701767Y-56251133D01*
X105635447Y-56295447D01*
X105591133Y-56361767D01*
X105591132Y-56361769D01*
X105579500Y-56420251D01*
X105579500Y-58159748D01*
X105129040Y-58159748D01*
X105263601Y-57967575D01*
X105363431Y-57753489D01*
X105363432Y-57753487D01*
X105420636Y-57540001D01*
X105420636Y-57540000D01*
X104523012Y-57540000D01*
X104555925Y-57482993D01*
X104590000Y-57355826D01*
X104590000Y-57224174D01*
X104555925Y-57097007D01*
X104523012Y-57040000D01*
X105420636Y-57040000D01*
X105420636Y-57039998D01*
X105363432Y-56826512D01*
X105363431Y-56826510D01*
X105263600Y-56612422D01*
X105128109Y-56418920D01*
X104961081Y-56251892D01*
X104767575Y-56116398D01*
X104553489Y-56016568D01*
X104553487Y-56016567D01*
X104340001Y-55959363D01*
X104340000Y-55959364D01*
X104340000Y-56856988D01*
X104282993Y-56824075D01*
X104155826Y-56790000D01*
X104024174Y-56790000D01*
X103897007Y-56824075D01*
X103840000Y-56856988D01*
X103840000Y-55959364D01*
X103839998Y-55959363D01*
X103626512Y-56016567D01*
X103626510Y-56016568D01*
X103412422Y-56116399D01*
X103218920Y-56251890D01*
X103051890Y-56418920D01*
X102916399Y-56612422D01*
X102816568Y-56826510D01*
X102816567Y-56826512D01*
X102759363Y-57039998D01*
X102759364Y-57040000D01*
X103656988Y-57040000D01*
X103624075Y-57097007D01*
X103590000Y-57224174D01*
X103590000Y-57355826D01*
X103624075Y-57482993D01*
X103656988Y-57540000D01*
X102759364Y-57540000D01*
X102759363Y-57540001D01*
X102571933Y-57540001D01*
X102585300Y-57495934D01*
X102605583Y-57290000D01*
X102585300Y-57084066D01*
X102525232Y-56886046D01*
X102431843Y-56711329D01*
X102427688Y-56703555D01*
X102427686Y-56703553D01*
X102427685Y-56703550D01*
X102296410Y-56543590D01*
X102284579Y-56533881D01*
X102136455Y-56412319D01*
X102136453Y-56412318D01*
X102136450Y-56412315D01*
X102136448Y-56412313D01*
X102136444Y-56412311D01*
X101953954Y-56314768D01*
X101953949Y-56314766D01*
X101755935Y-56254700D01*
X101755930Y-56254699D01*
X101550000Y-56234417D01*
X101344069Y-56254699D01*
X101344064Y-56254700D01*
X101146050Y-56314766D01*
X101146045Y-56314768D01*
X100963555Y-56412311D01*
X100963544Y-56412319D01*
X100803591Y-56543588D01*
X100803588Y-56543591D01*
X100672319Y-56703544D01*
X100672311Y-56703555D01*
X100574768Y-56886045D01*
X100574766Y-56886050D01*
X100514700Y-57084064D01*
X100514699Y-57084069D01*
X100494417Y-57289999D01*
X100494417Y-57290000D01*
X99510000Y-57290000D01*
X99510000Y-57224174D01*
X99475925Y-57097007D01*
X99443012Y-57040000D01*
X100340636Y-57040000D01*
X100340636Y-57039998D01*
X100283432Y-56826512D01*
X100283431Y-56826510D01*
X100183600Y-56612422D01*
X100048109Y-56418920D01*
X99881081Y-56251892D01*
X99687575Y-56116398D01*
X99473489Y-56016568D01*
X99473487Y-56016567D01*
X99260001Y-55959363D01*
X99260000Y-55959364D01*
X99260000Y-56856988D01*
X99202993Y-56824075D01*
X99075826Y-56790000D01*
X98944174Y-56790000D01*
X98817007Y-56824075D01*
X98760000Y-56856988D01*
X98760000Y-55959364D01*
X98759998Y-55959363D01*
X98546512Y-56016567D01*
X98546510Y-56016568D01*
X98332422Y-56116399D01*
X98138920Y-56251890D01*
X97971890Y-56418920D01*
X97836399Y-56612422D01*
X97736568Y-56826510D01*
X97736567Y-56826512D01*
X97679363Y-57039998D01*
X97679364Y-57040000D01*
X98576988Y-57040000D01*
X98544075Y-57097007D01*
X98510000Y-57224174D01*
X98510000Y-57355826D01*
X98544075Y-57482993D01*
X98576988Y-57540000D01*
X97679364Y-57540000D01*
X97679363Y-57540001D01*
X97736567Y-57753487D01*
X97736568Y-57753489D01*
X97836399Y-57967578D01*
X97960330Y-58144570D01*
X97970683Y-58191271D01*
X97944981Y-58231615D01*
X97898280Y-58241968D01*
X97864939Y-58224612D01*
X97439361Y-57799034D01*
X97421055Y-57754840D01*
X97428434Y-57725378D01*
X97445232Y-57693954D01*
X97505300Y-57495934D01*
X97525583Y-57290000D01*
X97505300Y-57084066D01*
X97445232Y-56886046D01*
X97351843Y-56711329D01*
X97347688Y-56703555D01*
X97347686Y-56703553D01*
X97347685Y-56703550D01*
X97216410Y-56543590D01*
X97204579Y-56533881D01*
X97056455Y-56412319D01*
X97056453Y-56412318D01*
X97056450Y-56412315D01*
X97056448Y-56412313D01*
X97056444Y-56412311D01*
X96873954Y-56314768D01*
X96873949Y-56314766D01*
X96675935Y-56254700D01*
X96675930Y-56254699D01*
X96470000Y-56234417D01*
X96264069Y-56254699D01*
X96264064Y-56254700D01*
X96066050Y-56314766D01*
X96066045Y-56314768D01*
X95883555Y-56412311D01*
X95883544Y-56412319D01*
X95723591Y-56543588D01*
X95723588Y-56543591D01*
X95592319Y-56703544D01*
X95592311Y-56703555D01*
X95494768Y-56886045D01*
X95494766Y-56886050D01*
X95434700Y-57084064D01*
X95434699Y-57084069D01*
X95414417Y-57289999D01*
X95414417Y-57290000D01*
X95434699Y-57495930D01*
X95434700Y-57495935D01*
X95494766Y-57693949D01*
X95494768Y-57693954D01*
X95592311Y-57876444D01*
X95592319Y-57876455D01*
X95723588Y-58036408D01*
X95723591Y-58036411D01*
X95835951Y-58128622D01*
X95883550Y-58167685D01*
X95883553Y-58167686D01*
X95883555Y-58167688D01*
X95927676Y-58191271D01*
X96066046Y-58265232D01*
X96264066Y-58325300D01*
X96470000Y-58345583D01*
X96675934Y-58325300D01*
X96873954Y-58265232D01*
X96905378Y-58248434D01*
X96952982Y-58243746D01*
X96979034Y-58259361D01*
X98293694Y-59574021D01*
X98312000Y-59618215D01*
X98312000Y-72386131D01*
X98293694Y-72430325D01*
X98249500Y-72448631D01*
X98212386Y-72436418D01*
X98125383Y-72372207D01*
X98017357Y-72334407D01*
X97981689Y-72302531D01*
X97975500Y-72275414D01*
X97975500Y-63507148D01*
X97975499Y-63507142D01*
X97955448Y-63432312D01*
X97955447Y-63432308D01*
X97954446Y-63428572D01*
X97953318Y-63424362D01*
X97953318Y-63424361D01*
X97921177Y-63368692D01*
X97910467Y-63350141D01*
X97910460Y-63350132D01*
X92995387Y-58435060D01*
X92977081Y-58390866D01*
X92995387Y-58346672D01*
X93039581Y-58328366D01*
X93075430Y-58339669D01*
X93252426Y-58463603D01*
X93466503Y-58563428D01*
X93466519Y-58563434D01*
X93679998Y-58620635D01*
X93680000Y-58620634D01*
X93680000Y-57723012D01*
X93737007Y-57755925D01*
X93864174Y-57790000D01*
X93995826Y-57790000D01*
X94122993Y-57755925D01*
X94180000Y-57723012D01*
X94180000Y-58620634D01*
X94180001Y-58620635D01*
X94393480Y-58563434D01*
X94393496Y-58563428D01*
X94607573Y-58463603D01*
X94801081Y-58328107D01*
X94968107Y-58161081D01*
X95103601Y-57967575D01*
X95203431Y-57753489D01*
X95203432Y-57753487D01*
X95260636Y-57540001D01*
X95260636Y-57540000D01*
X94363012Y-57540000D01*
X94395925Y-57482993D01*
X94430000Y-57355826D01*
X94430000Y-57224174D01*
X94395925Y-57097007D01*
X94363012Y-57040000D01*
X95260636Y-57040000D01*
X95260636Y-57039998D01*
X95203432Y-56826512D01*
X95203431Y-56826510D01*
X95103600Y-56612422D01*
X94968109Y-56418920D01*
X94801081Y-56251892D01*
X94607575Y-56116398D01*
X94393489Y-56016568D01*
X94393487Y-56016567D01*
X94180001Y-55959363D01*
X94180000Y-55959364D01*
X94180000Y-56856988D01*
X94122993Y-56824075D01*
X93995826Y-56790000D01*
X93864174Y-56790000D01*
X93737007Y-56824075D01*
X93680000Y-56856988D01*
X93680000Y-55959364D01*
X93679998Y-55959363D01*
X93466512Y-56016567D01*
X93466510Y-56016568D01*
X93252422Y-56116399D01*
X93058920Y-56251890D01*
X92891890Y-56418920D01*
X92756399Y-56612422D01*
X92656568Y-56826510D01*
X92656567Y-56826512D01*
X92599363Y-57039998D01*
X92599364Y-57040000D01*
X93496988Y-57040000D01*
X93464075Y-57097007D01*
X93430000Y-57224174D01*
X93430000Y-57355826D01*
X93464075Y-57482993D01*
X93496988Y-57540000D01*
X92599364Y-57540000D01*
X92599363Y-57540001D01*
X92656567Y-57753487D01*
X92656568Y-57753489D01*
X92756399Y-57967578D01*
X92880330Y-58144570D01*
X92890683Y-58191271D01*
X92864981Y-58231615D01*
X92818280Y-58241968D01*
X92784939Y-58224612D01*
X92359361Y-57799034D01*
X92341055Y-57754840D01*
X92348434Y-57725378D01*
X92365232Y-57693954D01*
X92425300Y-57495934D01*
X92445583Y-57290000D01*
X92425300Y-57084066D01*
X92365232Y-56886046D01*
X92271843Y-56711329D01*
X92267688Y-56703555D01*
X92267686Y-56703553D01*
X92267685Y-56703550D01*
X92136410Y-56543590D01*
X92124579Y-56533881D01*
X91976455Y-56412319D01*
X91976453Y-56412318D01*
X91976450Y-56412315D01*
X91976448Y-56412313D01*
X91976444Y-56412311D01*
X91793954Y-56314768D01*
X91793949Y-56314766D01*
X91595935Y-56254700D01*
X91595930Y-56254699D01*
X91390000Y-56234417D01*
X91184069Y-56254699D01*
X91184064Y-56254700D01*
X90986050Y-56314766D01*
X90986045Y-56314768D01*
X90803555Y-56412311D01*
X90803544Y-56412319D01*
X90643591Y-56543588D01*
X90643588Y-56543591D01*
X90512319Y-56703544D01*
X90512311Y-56703555D01*
X90414768Y-56886045D01*
X90414766Y-56886050D01*
X90354700Y-57084064D01*
X90354699Y-57084069D01*
X90334417Y-57289999D01*
X90334417Y-57290000D01*
X89350000Y-57290000D01*
X89350000Y-57224174D01*
X89315925Y-57097007D01*
X89283012Y-57040000D01*
X90180636Y-57040000D01*
X90180636Y-57039998D01*
X90123432Y-56826512D01*
X90123431Y-56826510D01*
X90023600Y-56612422D01*
X89888109Y-56418920D01*
X89721081Y-56251892D01*
X89527575Y-56116398D01*
X89313489Y-56016568D01*
X89313487Y-56016567D01*
X89100001Y-55959363D01*
X89100000Y-55959364D01*
X89100000Y-56856988D01*
X89042993Y-56824075D01*
X88915826Y-56790000D01*
X88784174Y-56790000D01*
X88657007Y-56824075D01*
X88600000Y-56856988D01*
X88600000Y-55959364D01*
X88599998Y-55959363D01*
X88386512Y-56016567D01*
X88386510Y-56016568D01*
X88172422Y-56116399D01*
X87978920Y-56251890D01*
X87811890Y-56418920D01*
X87676399Y-56612422D01*
X87576568Y-56826510D01*
X87576567Y-56826512D01*
X87519363Y-57039998D01*
X87519364Y-57040000D01*
X88416988Y-57040000D01*
X88384075Y-57097007D01*
X88350000Y-57224174D01*
X88350000Y-57355826D01*
X88384075Y-57482993D01*
X88416988Y-57540000D01*
X87519364Y-57540000D01*
X87519363Y-57540001D01*
X84278972Y-57540001D01*
X84278972Y-56892070D01*
X84276118Y-56861637D01*
X84231265Y-56733454D01*
X84214935Y-56711328D01*
X84197292Y-56687422D01*
X84150622Y-56624186D01*
X84041354Y-56543543D01*
X83913173Y-56498690D01*
X83913168Y-56498689D01*
X83893171Y-56496814D01*
X83882738Y-56495836D01*
X83249206Y-56495836D01*
X83239596Y-56496737D01*
X83218775Y-56498689D01*
X83218770Y-56498690D01*
X83090589Y-56543543D01*
X83090588Y-56543543D01*
X82981322Y-56624186D01*
X82900679Y-56733452D01*
X82866513Y-56831093D01*
X82834637Y-56866761D01*
X82786877Y-56869443D01*
X82751209Y-56837567D01*
X82745343Y-56816800D01*
X82742977Y-56793640D01*
X82687830Y-56627214D01*
X82595789Y-56477992D01*
X82471815Y-56354018D01*
X82322593Y-56261977D01*
X82156163Y-56206828D01*
X82053458Y-56196336D01*
X81990972Y-56196336D01*
X81490972Y-56196336D01*
X81428496Y-56196336D01*
X81428483Y-56196337D01*
X81325784Y-56206828D01*
X81325777Y-56206829D01*
X81159350Y-56261977D01*
X81010128Y-56354018D01*
X80886154Y-56477992D01*
X80794113Y-56627214D01*
X80738964Y-56793644D01*
X80728472Y-56896349D01*
X80728472Y-57146336D01*
X67199231Y-57146336D01*
X67101974Y-57012473D01*
X67101967Y-57012465D01*
X66937534Y-56848032D01*
X66937526Y-56848025D01*
X66749381Y-56711329D01*
X66542169Y-56605750D01*
X66542161Y-56605746D01*
X66320980Y-56533880D01*
X66091295Y-56497501D01*
X66091283Y-56497500D01*
X66091282Y-56497500D01*
X65858718Y-56497500D01*
X65858716Y-56497500D01*
X65858704Y-56497501D01*
X65629020Y-56533880D01*
X65629019Y-56533880D01*
X65407838Y-56605746D01*
X65407830Y-56605750D01*
X65200618Y-56711329D01*
X65012473Y-56848025D01*
X65012465Y-56848032D01*
X64848032Y-57012465D01*
X64848025Y-57012473D01*
X64711329Y-57200618D01*
X64605750Y-57407830D01*
X64605746Y-57407838D01*
X64533880Y-57629019D01*
X64533880Y-57629020D01*
X64497501Y-57858704D01*
X64497500Y-57858720D01*
X64497500Y-58091279D01*
X63151900Y-58091279D01*
X63151900Y-55215400D01*
X63170206Y-55171206D01*
X63214400Y-55152900D01*
X129009600Y-55152900D01*
X129053794Y-55171206D01*
G37*
%TD.AperFunction*%
%TD*%
M02*
